<?xml version="1.0" encoding="UTF-8" standalone="no"?>
<svg
   xmlns:dc="http://purl.org/dc/elements/1.1/"
   xmlns:cc="http://creativecommons.org/ns#"
   xmlns:rdf="http://www.w3.org/1999/02/22-rdf-syntax-ns#"
   xmlns:svg="http://www.w3.org/2000/svg"
   xmlns="http://www.w3.org/2000/svg"
   xmlns:sodipodi="http://sodipodi.sourceforge.net/DTD/sodipodi-0.dtd"
   xmlns:inkscape="http://www.inkscape.org/namespaces/inkscape"
   version="1.1"
   viewBox="19.999981 2.5087635 87.659735 80.150487"
   viewPort=" 19.999981152068663 2.508763545241966 100.00092396082769 75.00023427423501 "
   id="svg68"
   sodipodi:docname="example1-10.svg"
   width="23.193306mm"
   height="21.206484mm"
   inkscape:version="0.92.3 (2405546, 2018-03-11)">
  <metadata
     id="metadata74">
    <rdf:RDF>
      <cc:Work
         rdf:about="">
        <dc:format>image/svg+xml</dc:format>
        <dc:type
           rdf:resource="http://purl.org/dc/dcmitype/StillImage" />
        <dc:title></dc:title>
      </cc:Work>
    </rdf:RDF>
  </metadata>
  <defs
     id="defs72" />
  <sodipodi:namedview
     pagecolor="#ffffff"
     bordercolor="#666666"
     borderopacity="1"
     objecttolerance="10"
     gridtolerance="10"
     guidetolerance="10"
     inkscape:pageopacity="0"
     inkscape:pageshadow="2"
     inkscape:window-width="1920"
     inkscape:window-height="1137"
     id="namedview70"
     showgrid="false"
     units="mm"
     fit-margin-top="1"
     fit-margin-left="1"
     fit-margin-bottom="1"
     fit-margin-right="1"
     inkscape:zoom="8.8740148"
     inkscape:cx="67.898677"
     inkscape:cy="32.193464"
     inkscape:window-x="1912"
     inkscape:window-y="-8"
     inkscape:window-maximized="1"
     inkscape:current-layer="svg68" />
  <path
     d="m 48.829301,33.829562 c -5,-10 30,-10 25,0 h 5 5 l -10,5 v 5 c 2,2 5,10 0,10 v 5 c 0,-10 -25,-10 -25,0 v -5 l 5,-5 -10,-10 z"
     stroke-miterlimit="10"
     font-weight="none"
     font-size="none"
     text-anchor="none"
     style="font-family:none;mix-blend-mode:normal;fill:none;fill-rule:nonzero;stroke:#000000;stroke-width:0.1;stroke-linecap:butt;stroke-linejoin:miter;stroke-miterlimit:10;stroke-dasharray:none;stroke-dashoffset:0"
     id="path2"
     inkscape:connector-curvature="0" />
  <path
     d="m 61.839471,38.335552 c -0.0068,0.16458 -0.01017,0.32929 -0.01017,0.49401 0,0.16784 0,0.33569 0,0.50353 0,0 0,0 0,0 0,0 0,0 0,0 0,0 0,0 0,0 -0.16152,-0.002 -0.36789,-0.004 -0.52942,-0.004 0,0 0,0 0,0 0,0 0,0 0,0 -0.32553,-0.32553 -0.65106,-0.65106 -0.9766,-0.9766 0,0 0,0 0,0 0,0 0,0 0,0 0.5711,-0.0268 0.93957,-0.031 1.51619,-0.0174 z"
     stroke-miterlimit="10"
     font-weight="none"
     font-size="none"
     text-anchor="none"
     style="font-family:none;mix-blend-mode:normal;fill:none;fill-rule:nonzero;stroke:#ff2800;stroke-width:0.1;stroke-linecap:butt;stroke-linejoin:miter;stroke-miterlimit:10;stroke-dasharray:none;stroke-dashoffset:0"
     id="path4"
     inkscape:connector-curvature="0" />
  <path
     d="m 59.223541,37.429542 c 1.34812,-0.13146 2.32156,-0.14281 3.70086,-0.0433 -0.06333,0.47848 -0.09509,0.96062 -0.09509,1.44327 0,0.51091 0,1.02181 0,1.53272 0,0 0,0 0,0 0,0 0,0 0,0 -0.59449,-0.026 -1.34572,-0.0375 -1.94083,-0.0299 -0.67196,-0.67196 -1.34393,-1.34393 -2.01589,-2.01589 0.12976,-0.29044 0.24685,-0.58636 0.35096,-0.88695 z"
     stroke-miterlimit="10"
     font-weight="none"
     font-size="none"
     text-anchor="none"
     style="font-family:none;mix-blend-mode:normal;fill:none;fill-rule:nonzero;stroke:#ff5100;stroke-width:0.1;stroke-linecap:butt;stroke-linejoin:miter;stroke-miterlimit:10;stroke-dasharray:none;stroke-dashoffset:0"
     id="path6"
     inkscape:connector-curvature="0" />
  <path
     d="m 58.463341,36.510102 c 0.98996,-0.13057 1.73414,-0.17816 2.81482,-0.18048 1.08108,-0.002 1.83011,0.0423 2.82665,0.16878 -0.18304,0.76354 -0.27551,1.54599 -0.27551,2.33117 0,0.86463 0,1.72925 0,2.59388 0,0 0,0 0,0 0,0 0,0 0,0 -1.02797,-0.0776 -2.31573,-0.1093 -3.34713,-0.0831 -0.94028,-0.94028 -1.88056,-1.88056 -2.82084,-2.82084 0.33922,-0.63881 0.60812,-1.31254 0.802,-2.00936 z"
     stroke-miterlimit="10"
     font-weight="none"
     font-size="none"
     text-anchor="none"
     style="font-family:none;mix-blend-mode:normal;fill:none;fill-rule:nonzero;stroke:#ff7900;stroke-width:0.1;stroke-linecap:butt;stroke-linejoin:miter;stroke-miterlimit:10;stroke-dasharray:none;stroke-dashoffset:0"
     id="path8"
     inkscape:connector-curvature="0" />
  <path
     d="m 57.649071,35.621692 c 0.6147,-0.10483 1.07289,-0.16117 1.75516,-0.21603 0.68805,-0.0553 1.21488,-0.0761 1.92508,-0.0761 0.7102,0 1.23703,0.0208 1.92508,0.0761 0.68227,0.0549 1.14046,0.11119 1.75516,0.21603 0.0484,0.23821 0.10644,0.47436 0.17396,0.70787 -0.23495,0.81255 -0.35419,1.65416 -0.35419,2.5 0,1.23022 0,2.46044 0,3.69066 0,0 0,0 0,0 0,0 0,0 0,0 -1.45934,-0.16054 -3.27759,-0.22333 -4.74804,-0.16662 0,0 0,0 0,0 0,0 0,0 0,0 -1.22397,-1.22397 -2.44795,-2.44795 -3.67192,-3.67192 0.5984,-0.93482 1.01871,-1.97227 1.23973,-3.05998 z"
     stroke-miterlimit="10"
     font-weight="none"
     font-size="none"
     text-anchor="none"
     style="font-family:none;mix-blend-mode:normal;fill:none;fill-rule:nonzero;stroke:#ffa100;stroke-width:0.1;stroke-linecap:butt;stroke-linejoin:miter;stroke-miterlimit:10;stroke-dasharray:none;stroke-dashoffset:0"
     id="path10"
     inkscape:connector-curvature="0" />
  <path
     d="m 56.773581,34.772092 c 0.72103,-0.15579 1.28952,-0.24252 2.12992,-0.32555 0.84986,-0.084 1.53703,-0.11698 2.4258,-0.11698 0.88877,0 1.57595,0.033 2.4258,0.11698 0.8404,0.083 1.40888,0.16976 2.12992,0.32555 0.0628,0.52935 0.17836,1.0511 0.34494,1.55747 -0.26541,0.80678 -0.40066,1.65068 -0.40066,2.5 0,1.60925 0,3.2185 0,4.82775 v 0 c -1.8867,-0.27971 -4.23511,-0.3853 -6.14975,-0.28436 -0.0633,-0.0679 -0.12777,-0.13462 -0.19339,-0.20024 -1.46047,-1.46047 -2.92094,-2.92094 -4.38141,-4.38141 0.91699,-1.15978 1.49465,-2.551 1.66884,-4.01921 z"
     stroke-miterlimit="10"
     font-weight="none"
     font-size="none"
     text-anchor="none"
     style="font-family:none;mix-blend-mode:normal;fill:none;fill-rule:nonzero;stroke:#ffca00;stroke-width:0.1;stroke-linecap:butt;stroke-linejoin:miter;stroke-miterlimit:10;stroke-dasharray:none;stroke-dashoffset:0"
     id="path12"
     inkscape:connector-curvature="0" />
  <path
     d="m 55.827821,33.973252 c 0.81267,-0.22185 1.49457,-0.34946 2.50688,-0.47054 1.02685,-0.12283 1.90305,-0.17315 2.99459,-0.17315 1.09154,0 1.96774,0.0503 2.99459,0.17315 1.01231,0.12109 1.69421,0.24869 2.50688,0.47054 0.01655,0.80608 0.17223,1.60323 0.46018,2.35631 -0.30519,0.79817 -0.46165,1.64547 -0.46165,2.5 0,1.66667 0,3.33333 0,5 0,0.3434 0.02527,0.68634 0.0756,1.02604 -1.1732,-0.22812 -2.60855,-0.40476 -3.81445,-0.47494 -1.2025,-0.07 -2.63913,-0.0625 -3.84022,0.0202 -0.14824,-0.18146 -0.3055,-0.35536 -0.47119,-0.52104 -1.68342,-1.68342 -3.36684,-3.36684 -5.05025,-5.05025 0.01675,-0.0167 0.0335,-0.0335 0.05025,-0.0502 1.27758,-1.27758 2.01169,-2.99966 2.04878,-4.80605 z"
     stroke-miterlimit="10"
     font-weight="none"
     font-size="none"
     text-anchor="none"
     style="font-family:none;mix-blend-mode:normal;fill:none;fill-rule:nonzero;stroke:#fff200;stroke-width:0.1;stroke-linecap:butt;stroke-linejoin:miter;stroke-miterlimit:10;stroke-dasharray:none;stroke-dashoffset:0"
     id="path14"
     inkscape:connector-curvature="0" />
  <path
     d="m 54.800721,33.244642 c 0.4304,-0.15089 0.75789,-0.24463 1.28441,-0.36764 0.53661,-0.12537 0.98446,-0.20859 1.58811,-0.29569 1.22384,-0.17657 2.32738,-0.25175 3.65606,-0.25175 1.32868,0 2.43222,0.0752 3.65606,0.25175 0.60365,0.0871 1.05151,0.17032 1.58811,0.29569 0.52651,0.12301 0.85401,0.21676 1.28441,0.36764 -0.10343,1.05594 0.07499,2.12042 0.51706,3.08492 -0.35953,0.7844 -0.54564,1.63713 -0.54564,2.5 0,1.66667 0,3.33333 0,5 0,0.81651 0.16665,1.62442 0.48976,2.37428 -1.44114,-0.38031 -3.21697,-0.66996 -4.73437,-0.78743 -1.51098,-0.11698 -3.29554,-0.10814 -4.8041,0.0242 -0.20934,-0.30585 -0.44656,-0.59164 -0.70864,-0.85371 -1.91912,-1.91912 -3.83824,-3.83824 -5.75736,-5.75736 0.25245,-0.25245 0.50491,-0.50491 0.75736,-0.75736 1.2695,-1.2695 1.9038,-3.04077 1.72878,-4.82756 z"
     stroke-miterlimit="10"
     font-weight="none"
     font-size="none"
     text-anchor="none"
     style="font-family:none;mix-blend-mode:normal;fill:none;fill-rule:nonzero;stroke:#e4ff00;stroke-width:0.1;stroke-linecap:butt;stroke-linejoin:miter;stroke-miterlimit:10;stroke-dasharray:none;stroke-dashoffset:0"
     id="path16"
     inkscape:connector-curvature="0" />
  <path
     d="m 53.680921,32.620532 c 0.42927,-0.20293 0.76235,-0.3265 1.34871,-0.4996 0.60251,-0.17787 1.13026,-0.29901 1.84259,-0.42423 0.72057,-0.12667 1.36845,-0.20859 2.15355,-0.27345 0.78857,-0.0651 1.49368,-0.0937 2.30353,-0.0937 0.80985,0 1.51496,0.0286 2.30353,0.0937 0.7851,0.0649 1.43297,0.14677 2.15355,0.27345 0.71233,0.12522 1.24007,0.24636 1.84259,0.42423 0.58636,0.1731 0.91944,0.29668 1.34871,0.4996 -0.3133,1.25721 -0.12633,2.58695 0.5215,3.70903 -0.43884,0.7601 -0.66987,1.62232 -0.66987,2.5 0,1.66667 0,3.33333 0,5 0,1.32147 0.52313,2.58901 1.45471,3.52575 0.0037,0.008 0.01925,0.0333 0.06188,0.0959 0.13228,0.19447 0.20302,0.31402 0.35111,0.59926 0,0 0,0 0,0 0,0 0,0 0,0 -0.90251,-0.37222 -2.02698,-0.73342 -2.99741,-0.97274 -0.96192,-0.23722 -2.10707,-0.44126 -3.10969,-0.55902 -1.99294,-0.23408 -4.34153,-0.24158 -6.33759,-0.0209 -0.2338,-0.44349 -0.53297,-0.84929 -0.88747,-1.20379 -2.15482,-2.15482 -4.30964,-4.30964 -6.46447,-6.46447 0.48816,-0.48816 0.97631,-0.97631 1.46447,-1.46447 1.24095,-1.24095 1.74045,-3.04167 1.31609,-4.74456 z"
     stroke-miterlimit="10"
     font-weight="none"
     font-size="none"
     text-anchor="none"
     style="font-family:none;mix-blend-mode:normal;fill:none;fill-rule:nonzero;stroke:#bbff00;stroke-width:0.1;stroke-linecap:butt;stroke-linejoin:miter;stroke-miterlimit:10;stroke-dasharray:none;stroke-dashoffset:0"
     id="path18"
     inkscape:connector-curvature="0" />
  <path
     d="m 52.468591,32.169582 c 0.35301,-0.26068 0.62186,-0.40327 1.2426,-0.65202 0.64913,-0.26013 1.25356,-0.44059 2.09539,-0.62841 0.85496,-0.19074 1.66498,-0.31789 2.63291,-0.41615 0.97305,-0.0988 1.8796,-0.14344 2.88981,-0.14344 1.01021,0 1.91676,0.0447 2.88981,0.14344 0.96793,0.0982 1.77794,0.2254 2.63291,0.41615 0.84183,0.18781 1.44626,0.36828 2.09539,0.62841 0.62074,0.24875 0.88959,0.39134 1.2426,0.65202 -0.62632,1.37312 -0.42646,2.98185 0.5168,4.15998 -0.56801,0.70945 -0.8775,1.59118 -0.8775,2.5 0,1.66667 0,3.33333 0,5 0,1.06087 0.42143,2.07828 1.17157,2.82843 0.06489,0.0649 0.06277,0.0622 0.22258,0.30697 0.17812,0.27284 0.30338,0.49632 0.48492,0.87214 0.18671,0.38651 0.31531,0.69501 0.4619,1.11745 0.14716,0.42409 0.22721,0.70923 0.305,1.10001 -0.99782,-0.59993 -2.29516,-1.17537 -3.4414,-1.55394 -1.13169,-0.37377 -2.48978,-0.68936 -3.70854,-0.87417 -1.21233,-0.18384 -2.60215,-0.28963 -3.84498,-0.29648 -1.24261,-0.007 -2.63366,0.0835 -3.85017,0.25325 -0.19555,-0.59635 -0.52867,-1.13832 -0.97245,-1.5821 -2.39052,-2.39052 -4.78105,-4.78105 -7.17157,-7.17157 0.72386,-0.72386 1.44772,-1.44772 2.17157,-2.17157 1.18037,-1.18037 1.50362,-2.96964 0.81087,-4.48841 z"
     stroke-miterlimit="10"
     font-weight="none"
     font-size="none"
     text-anchor="none"
     style="font-family:none;mix-blend-mode:normal;fill:none;fill-rule:nonzero;stroke:#93ff00;stroke-width:0.1;stroke-linecap:butt;stroke-linejoin:miter;stroke-miterlimit:10;stroke-dasharray:none;stroke-dashoffset:0"
     id="path20"
     inkscape:connector-curvature="0" />
  <path
     d="m 51.512581,32.487922 c -0.09297,-0.18595 -0.10427,-0.21514 -0.14467,-0.36203 -0.03503,-0.1274 -0.02537,-0.0651 -0.0288,-0.16121 -6e-4,-0.0169 -0.0018,-0.0291 -0.0033,-0.0376 0.0054,-0.008 0.0122,-0.0204 0.02053,-0.0371 0.08504,-0.17007 0.06275,-0.14283 0.32041,-0.36689 0.28571,-0.24845 0.51345,-0.39485 0.9942,-0.63522 0.50061,-0.2503 0.97238,-0.43377 1.63046,-0.63626 0.66892,-0.20582 1.31589,-0.35986 2.09581,-0.50166 0.78537,-0.14279 1.5425,-0.24155 2.39352,-0.31398 0.85331,-0.0726 1.66354,-0.10638 2.53857,-0.10638 0.87503,0 1.68526,0.0338 2.53857,0.10638 0.85103,0.0724 1.60815,0.17118 2.39352,0.31398 0.77991,0.1418 1.42689,0.29584 2.09581,0.50166 0.65808,0.20249 1.12985,0.38595 1.63046,0.63626 0.48075,0.24038 0.70848,0.38678 0.9942,0.63522 0.25766,0.22405 0.23537,0.19681 0.32041,0.36689 0.0083,0.0167 0.0151,0.0287 0.02053,0.0371 -0.0015,0.008 -0.0027,0.0207 -0.0033,0.0376 -0.0034,0.0961 0.0062,0.0338 -0.0288,0.16121 -0.0404,0.14689 -0.0517,0.17608 -0.14467,0.36203 -0.67783,1.35561 -0.23807,3.00385 1.02495,3.84164 -0.83794,0.55582 -1.34169,1.49448 -1.34169,2.5 0,1.66667 0,3.33333 0,5 0,0.79565 0.31607,1.55871 0.87868,2.12132 0.14263,0.14263 0.24616,0.28214 0.48522,0.67869 0.25457,0.42228 0.45878,0.8278 0.68433,1.37278 0.22853,0.55218 0.38296,1.01355 0.51484,1.5665 0.13025,0.54613 0.17492,0.86396 0.17318,1.27232 -0.40716,0.0359 -0.80268,0.1547 -1.1623,0.34899 -0.50799,-0.33371 -1.13804,-0.68392 -1.7012,-0.95101 -0.55846,-0.26487 -1.22194,-0.53133 -1.82359,-0.73596 -1.19275,-0.40567 -2.6012,-0.73129 -3.9049,-0.91779 -1.29822,-0.18572 -2.75432,-0.27431 -4.08386,-0.25219 -1.33016,0.0221 -2.78046,0.15954 -4.06226,0.39071 -0.02673,-0.75863 -0.34005,-1.47892 -0.87682,-2.01569 -2.62623,-2.62623 -5.25245,-5.25245 -7.87868,-7.87868 0.95956,-0.95956 1.91912,-1.91912 2.87868,-2.87868 0.91308,-0.91308 1.13944,-2.308 0.56196,-3.46296 z"
     stroke-miterlimit="10"
     font-weight="none"
     font-size="none"
     text-anchor="none"
     style="font-family:none;mix-blend-mode:normal;fill:none;fill-rule:nonzero;stroke:#6bff00;stroke-width:0.1;stroke-linecap:butt;stroke-linejoin:miter;stroke-miterlimit:10;stroke-dasharray:none;stroke-dashoffset:0"
     id="path22"
     inkscape:connector-curvature="0" />
  <path
     d="m 50.618151,32.935132 c -0.11407,-0.22813 -0.16066,-0.3485 -0.21445,-0.54409 -0.05021,-0.18259 -0.05842,-0.23548 -0.06396,-0.39068 -0.01013,-0.2836 -0.0061,-0.30115 0.12216,-0.55763 0.13482,-0.26963 0.23714,-0.3947 0.55866,-0.67428 0.34022,-0.29584 0.67433,-0.51063 1.20316,-0.77504 0.54207,-0.27104 1.09096,-0.48449 1.78359,-0.69761 0.69985,-0.21534 1.4046,-0.38314 2.21101,-0.52976 0.81004,-0.14728 1.61427,-0.25218 2.48761,-0.32651 0.87486,-0.0745 1.72752,-0.10998 2.62337,-0.10998 0.89585,0 1.74851,0.0355 2.62337,0.10998 0.87334,0.0743 1.67757,0.17923 2.48761,0.32651 0.8064,0.14662 1.51115,0.31442 2.21101,0.52976 0.69263,0.21312 1.24152,0.42657 1.78359,0.69761 0.52883,0.26442 0.86295,0.4792 1.20316,0.77504 0.32151,0.27958 0.42384,0.40465 0.55866,0.67428 0.12824,0.25648 0.13229,0.27403 0.12216,0.55763 -0.0055,0.1552 -0.01375,0.20809 -0.06396,0.39068 -0.05379,0.19558 -0.10038,0.31596 -0.21445,0.54409 -0.30999,0.61998 -0.27686,1.35626 0.08755,1.94589 0.36441,0.58963 1.00815,0.94854 1.7013,0.94854 0.50929,0 1.01858,0 1.52786,0 -0.80743,0.40372 -1.61486,0.80743 -2.42229,1.21115 -0.67757,0.33878 -1.10557,1.03131 -1.10557,1.78885 0,1.66667 0,3.33333 0,5 0,0.53043 0.21071,1.03914 0.58579,1.41421 0.15974,0.15974 0.29428,0.33385 0.51115,0.67121 0.22629,0.35201 0.42431,0.71258 0.63968,1.1711 0.21787,0.46385 0.39472,0.90441 0.56003,1.40906 0.16539,0.50488 0.27593,0.93539 0.35556,1.41321 0.07847,0.47085 0.10094,0.78542 0.07672,1.15299 -0.02283,0.34651 -0.03859,0.41539 -0.12717,0.59254 -0.01935,0.0387 -0.02683,0.0598 -0.02881,0.0707 -0.0068,4.4e-4 -0.01949,0.005 -0.04206,0.0176 -0.07056,0.04 -0.02653,0.0229 -0.14114,0.0497 -0.1359,0.0318 -0.18786,0.0376 -0.38976,0.0376 -0.53143,0 -1.04102,0.21151 -1.41626,0.58783 -0.52267,-0.39048 -1.1638,-0.7835 -1.76768,-1.09173 -0.59949,-0.306 -1.29797,-0.60043 -1.95985,-0.83127 -0.65872,-0.22975 -1.39963,-0.43928 -2.10406,-0.59828 -0.70242,-0.15854 -1.47312,-0.29119 -2.20513,-0.38143 -1.46072,-0.18007 -3.05897,-0.22878 -4.54179,-0.14105 -0.74223,0.0439 -1.52616,0.12631 -2.24983,0.23761 -0.725,0.11151 -1.48772,0.26759 -2.17811,0.44801 0.62069,-0.79616 0.55075,-1.93006 -0.16309,-2.6439 -2.86193,-2.86193 -5.72386,-5.72386 -8.58579,-8.58579 1.19526,-1.19526 2.39052,-2.39052 3.58579,-3.58579 0.60872,-0.60872 0.75963,-1.53866 0.37464,-2.30864 z"
     stroke-miterlimit="10"
     font-weight="none"
     font-size="none"
     text-anchor="none"
     style="font-family:none;mix-blend-mode:normal;fill:none;fill-rule:nonzero;stroke:#43ff00;stroke-width:0.1;stroke-linecap:butt;stroke-linejoin:miter;stroke-miterlimit:10;stroke-dasharray:none;stroke-dashoffset:0"
     id="path24"
     inkscape:connector-curvature="0" />
  <path
     d="m 49.723731,33.382352 c -0.13516,-0.27032 -0.21705,-0.48187 -0.28423,-0.72615 -0.06539,-0.23778 -0.09147,-0.40583 -0.09912,-0.62014 -0.01483,-0.41524 0.04579,-0.67792 0.2271,-1.04053 0.1846,-0.36919 0.41154,-0.64657 0.79691,-0.98167 0.39472,-0.34323 0.83521,-0.62641 1.41213,-0.91487 0.58354,-0.29177 1.20954,-0.53521 1.93672,-0.75896 0.73079,-0.22486 1.49332,-0.40641 2.32621,-0.55785 0.83471,-0.15176 1.68604,-0.26281 2.5817,-0.33903 0.89641,-0.0763 1.79149,-0.11359 2.70817,-0.11359 0.91668,0 1.81175,0.0373 2.70817,0.11359 0.89566,0.0762 1.74699,0.18727 2.5817,0.33903 0.83289,0.15143 1.59542,0.33299 2.32621,0.55785 0.72717,0.22375 1.35318,0.46719 1.93672,0.75896 0.57692,0.28846 1.01741,0.57163 1.41213,0.91487 0.38537,0.3351 0.61231,0.61248 0.79691,0.98167 0.18131,0.36261 0.24193,0.62529 0.2271,1.04053 -0.0077,0.21432 -0.03373,0.38237 -0.09912,0.62014 -0.06718,0.24428 -0.14907,0.45583 -0.28423,0.72615 -0.15499,0.30999 -0.13843,0.67813 0.04378,0.97294 0.18221,0.29482 0.50407,0.47427 0.85065,0.47427 1.66667,0 3.33333,0 5,0 0.25464,0 0.50929,0 0.76393,0 -2.07038,1.03519 -4.14076,2.07038 -6.21115,3.10557 -0.33878,0.16939 -0.55279,0.51566 -0.55279,0.89443 0,1.66667 0,3.33333 0,5 0,0.26522 0.10536,0.51957 0.29289,0.70711 0.20487,0.20487 0.40495,0.4638 0.64523,0.83756 0.24498,0.38108 0.47485,0.79965 0.70363,1.28672 0.23003,0.48974 0.42978,0.98736 0.60521,1.52289 0.17547,0.53564 0.30496,1.03996 0.39165,1.56012 0.08611,0.51667 0.11688,0.9474 0.08817,1.38313 -0.02802,0.42521 -0.08863,0.69012 -0.23058,0.974 -0.13651,0.27301 -0.22228,0.36936 -0.47196,0.51097 -0.13342,0.0757 -0.22298,0.11056 -0.40638,0.15352 -0.19405,0.0455 -0.36066,0.064 -0.61785,0.064 -0.55228,0 -1,0.44772 -1,1 0,0.0897 0,0.17937 0,0.26906 -0.58902,-0.59685 -1.34254,-1.15757 -2.12128,-1.6028 -0.77405,-0.44255 -1.67468,-0.83399 -2.58376,-1.1362 -0.90608,-0.3012 -1.90545,-0.54399 -2.89718,-0.71086 -0.99025,-0.16663 -2.04493,-0.27045 -3.0723,-0.30524 -1.02709,-0.0348 -2.09339,-0.003 -3.10906,0.0937 -1.01649,0.0967 -2.05055,0.26517 -3.0071,0.49457 -0.9587,0.22991 -1.9171,0.54085 -2.76716,0.90735 -0.8539,0.36815 -1.69219,0.83585 -2.38652,1.34902 1.21716,-1.21716 2.43432,-2.43432 3.65147,-3.65147 0.39052,-0.39052 0.39052,-1.02369 0,-1.41421 -3.09763,-3.09763 -6.19526,-6.19526 -9.29289,-9.29289 1.43096,-1.43096 2.86193,-2.86193 4.29289,-4.29289 0.30436,-0.30436 0.37981,-0.76933 0.18732,-1.15432 z"
     stroke-miterlimit="10"
     font-weight="none"
     font-size="none"
     text-anchor="none"
     style="font-family:none;mix-blend-mode:normal;fill:none;fill-rule:nonzero;stroke:#1aff00;stroke-width:0.1;stroke-linecap:butt;stroke-linejoin:miter;stroke-miterlimit:10;stroke-dasharray:none;stroke-dashoffset:0"
     id="path26"
     inkscape:connector-curvature="0" />
  <path
     d="m 47.355471,31.582092 c 0.05535,-0.61831 0.29211,-1.2976 0.60863,-1.81522 0.31179,-0.50989 0.79003,-1.02935 1.29315,-1.43374 0.49494,-0.39782 1.12058,-0.7801 1.7611,-1.09001 0.63488,-0.30719 1.3707,-0.58874 2.1189,-0.81839 0.74502,-0.22867 1.56707,-0.42713 2.39512,-0.58269 0.82637,-0.15524 1.70952,-0.27785 2.58832,-0.36181 0.87805,-0.0839 1.79502,-0.13354 2.69452,-0.14686 0.89939,-0.0133 1.82178,0.009 2.71148,0.0662 0.8902,0.0572 1.78943,0.152 2.63887,0.28011 0.85073,0.1283 1.69897,0.29754 2.47818,0.49807 0.78173,0.20118 1.55295,0.44999 2.23283,0.72656 0.68447,0.27844 1.35478,0.61948 1.90651,0.98092 0.55916,0.36631 1.10002,0.82856 1.48811,1.29355 0.39536,0.47371 0.73895,1.09579 0.90031,1.67837 0.16088,0.58082 0.18989,1.31876 0.06047,1.9724 1.19911,0 2.39821,0 3.59732,0 1.66667,0 3.33333,0 5,0 0.46378,0 0.86669,0.31888 0.97325,0.77025 0.10655,0.45137 -0.11122,0.91677 -0.52604,1.12418 -3.14907,1.57454 -6.29814,3.14907 -9.44721,4.72361 0,1.33163 0,2.66326 0,3.99489 0.26264,0.31092 0.55028,0.72264 0.80496,1.14754 0.2518,0.4201 0.51048,0.91542 0.73652,1.41464 0.4492,0.99209 0.84766,2.17518 1.04496,3.26679 0.09941,0.55001 0.15764,1.14708 0.14889,1.6718 -0.0089,0.5322 -0.09645,1.12722 -0.26093,1.60126 -0.16841,0.48537 -0.50119,1.03254 -0.89041,1.39038 -0.38301,0.35213 -0.98972,0.66712 -1.58399,0.79458 0,1.36669 0,2.73339 0,4.10008 0,0.55228 -0.44772,1 -1,1 -0.55228,0 -1,-0.44772 -1,-1 0,-0.54238 -0.07099,-0.96834 -0.22902,-1.44032 -0.15715,-0.46936 -0.3537,-0.84101 -0.65321,-1.25176 -0.30112,-0.41297 -0.6278,-0.75118 -1.05922,-1.10516 -0.4345,-0.35651 -0.88895,-0.65397 -1.43539,-0.94541 -0.54924,-0.29293 -1.11314,-0.53584 -1.75109,-0.75854 -0.63991,-0.22339 -1.28728,-0.40197 -1.99087,-0.55207 -0.70476,-0.15035 -1.40774,-0.2592 -2.15073,-0.33468 -0.74353,-0.0755 -1.47421,-0.11207 -2.23048,-0.11207 -0.75627,0 -1.48695,0.0365 -2.23048,0.11207 -0.74299,0.0755 -1.44597,0.18433 -2.15073,0.33468 -0.70359,0.1501 -1.35096,0.32869 -1.99087,0.55207 -0.63795,0.2227 -1.20185,0.46561 -1.75109,0.75854 -0.54644,0.29143 -1.00089,0.58889 -1.43539,0.94541 -0.43142,0.35398 -0.7581,0.69219 -1.05922,1.10516 -0.29951,0.41076 -0.49605,0.7824 -0.65321,1.25176 -0.15803,0.47197 -0.22902,0.89794 -0.22902,1.44032 0,0.55228 -0.44772,1 -1,1 -0.55228,0 -1,-0.44772 -1,-1 0,-1.66667 0,-3.33333 0,-5 0,-0.26522 0.10536,-0.51957 0.29289,-0.70711 1.43096,-1.43096 2.86193,-2.86193 4.29289,-4.29289 -3.09763,-3.09763 -6.19526,-6.19526 -9.29289,-9.29289 -0.39052,-0.39052 -0.39052,-1.02369 0,-1.41421 1.50705,-1.50705 3.0141,-3.0141 4.52115,-4.52115 -0.2407,-0.66436 -0.34223,-1.41193 -0.28787,-2.01922 z"
     stroke-miterlimit="10"
     font-weight="none"
     font-size="none"
     text-anchor="none"
     style="font-family:none;mix-blend-mode:normal;fill:none;fill-rule:nonzero;stroke:#00ff0e;stroke-width:0.1;stroke-linecap:butt;stroke-linejoin:miter;stroke-miterlimit:10;stroke-dasharray:none;stroke-dashoffset:0"
     id="path28"
     inkscape:connector-curvature="0" />
  <path
     d="m 46.511871,33.318562 c -0.18386,-0.73211 -0.21078,-1.66095 -0.08064,-2.3355 0.13217,-0.68507 0.49768,-1.50204 0.88978,-2.05689 0.38112,-0.5393 0.97118,-1.12319 1.52215,-1.53761 0.53638,-0.40344 1.23337,-0.80994 1.89321,-1.11869 0.64994,-0.30412 1.4229,-0.59359 2.16912,-0.81995 0.74052,-0.22463 1.57619,-0.42622 2.38854,-0.58055 0.80926,-0.15374 1.69206,-0.2799 2.54815,-0.36657 0.85462,-0.0865 1.76541,-0.14246 2.64122,-0.16323 1.75055,-0.0415 3.59942,0.0519 5.2791,0.2733 0.84282,0.11111 1.71045,0.26398 2.4972,0.44304 0.79065,0.17995 1.60498,0.41163 2.31485,0.66391 0.7169,0.25478 1.46374,0.5823 2.07516,0.91956 0.62319,0.34375 1.28724,0.80627 1.77386,1.25455 0.50166,0.46215 1.03032,1.12969 1.33385,1.72627 0.30914,0.6076 0.5436,1.49213 0.56076,2.20934 v 0 c 0.83704,0 1.67407,0 2.51111,0 1.66667,0 3.33333,0 5,0 0.92756,0 1.73339,0.63775 1.9465,1.54049 0.21311,0.90274 -0.22244,1.83354 -1.05207,2.24836 -2.96481,1.4824 -5.92962,2.96481 -8.89443,4.44721 0,1.00856 0,2.01713 0,3.02569 0.2635,0.34469 0.55992,0.79833 0.80691,1.23128 0.24299,0.42595 0.50087,0.93861 0.71663,1.42886 0.42719,0.97067 0.82544,2.16941 1.02905,3.24543 0.10309,0.54478 0.17565,1.18243 0.18293,1.72174 0.0074,0.55088 -0.0601,1.23611 -0.19801,1.76327 -0.14309,0.54699 -0.47623,1.26496 -0.84924,1.73108 -0.37437,0.46781 -1.07319,1.00233 -1.68828,1.25249 0,1.12136 0,2.24273 0,3.36409 0,1.10457 -0.89543,2 -2,2 -1.10457,0 -2,-0.89543 -2,-2 0,-0.45975 -0.04433,-0.72575 -0.17728,-1.12282 -0.1312,-0.39184 -0.25573,-0.62733 -0.51295,-0.98009 -0.26045,-0.35719 -0.49877,-0.60392 -0.88553,-0.92126 -0.39293,-0.3224 -0.76472,-0.56576 -1.27166,-0.83613 -0.51253,-0.27335 -1.00557,-0.48574 -1.61008,-0.69677 -0.60842,-0.2124 -1.19517,-0.37426 -1.86992,-0.5182 -0.6771,-0.14445 -1.32622,-0.24496 -2.04316,-0.31779 -0.71801,-0.0729 -1.39813,-0.10695 -2.12941,-0.10695 -0.73128,0 -1.41139,0.034 -2.12941,0.10695 -0.71693,0.0728 -1.36606,0.17334 -2.04316,0.31779 -0.67475,0.14395 -1.2615,0.30581 -1.86992,0.5182 -0.60451,0.21103 -1.09755,0.42342 -1.61008,0.69677 -0.50694,0.27037 -0.87873,0.51372 -1.27166,0.83613 -0.38676,0.31734 -0.62508,0.56407 -0.88553,0.92126 -0.25722,0.35276 -0.38176,0.58824 -0.51295,0.98009 -0.13295,0.39707 -0.17728,0.66306 -0.17728,1.12282 0,1.10457 -0.89543,2 -2,2 -1.10457,0 -2,-0.89543 -2,-2 0,-1.66667 0,-3.33333 0,-5 0,-0.53043 0.21071,-1.03914 0.58579,-1.41421 1.19526,-1.19526 2.39052,-2.39052 3.58579,-3.58579 -2.86193,-2.86193 -5.72386,-5.72386 -8.58579,-8.58579 -0.78105,-0.78105 -0.78105,-2.04738 0,-2.82843 1.36559,-1.36559 2.73119,-2.73119 4.09678,-4.09678 z"
     stroke-miterlimit="10"
     font-weight="none"
     font-size="none"
     text-anchor="none"
     style="font-family:none;mix-blend-mode:normal;fill:none;fill-rule:nonzero;stroke:#00ff36;stroke-width:0.1;stroke-linecap:butt;stroke-linejoin:miter;stroke-miterlimit:10;stroke-dasharray:none;stroke-dashoffset:0"
     id="path30"
     inkscape:connector-curvature="0" />
  <path
     d="m 45.558511,30.327472 c 0.20588,-0.74535 0.69732,-1.67627 1.15742,-2.26225 0.4426,-0.56369 1.13305,-1.19945 1.72752,-1.62329 0.57455,-0.40964 1.33807,-0.8377 2.01944,-1.1471 0.66802,-0.30333 1.48074,-0.60125 2.23227,-0.82592 0.74372,-0.22234 1.60057,-0.42762 2.40747,-0.58106 0.80257,-0.15262 1.69505,-0.28172 2.53973,-0.36978 0.84255,-0.0878 1.75752,-0.14789 2.62025,-0.17301 1.72366,-0.0502 3.58257,0.0289 5.25283,0.22889 0.83886,0.10044 1.72536,0.24353 2.51796,0.40911 0.79747,0.16661 1.64629,0.38808 2.37662,0.62492 0.73904,0.23966 1.54267,0.55885 2.19417,0.88014 0.66617,0.32852 1.41893,0.78921 1.97233,1.22427 0.57411,0.45135 1.24111,1.13945 1.64864,1.73892 0.42205,0.62083 0.84681,1.60612 0.99095,2.37824 v 0 c 0.53774,0 1.07547,0 1.61321,0 1.66667,0 3.33333,0 5,0 1.39133,0 2.60008,0.95663 2.91975,2.31074 0.31966,1.35411 -0.33366,2.75032 -1.57811,3.37254 -2.78055,1.39027 -5.56109,2.78055 -8.34164,4.17082 0,0.69309 0,1.38617 0,2.07926 v 0 c 0.5134,0.72193 1.0893,1.76755 1.50806,2.74519 0.4123,0.96255 0.81334,2.19112 1.01973,3.26426 0.20976,1.09062 0.28221,2.56312 0.04717,3.66715 -0.12612,0.5924 -0.45232,1.44139 -0.80998,1.9893 -0.36538,0.55975 -1.1238,1.29711 -1.76499,1.66122 0,0.91317 0,1.82634 0,2.73951 0,1.65685 -1.34315,3 -3,3 -1.65685,0 -3,-1.34315 -3,-3 0,-0.37713 -0.01767,-0.48315 -0.12554,-0.80532 -0.10524,-0.31433 -0.15777,-0.41365 -0.3727,-0.70841 -0.21978,-0.30141 -0.36974,-0.45666 -0.71184,-0.73736 -0.35136,-0.28829 -0.64049,-0.47755 -1.10794,-0.72685 -0.47583,-0.25378 -0.89801,-0.43564 -1.46908,-0.63499 -0.57694,-0.20141 -1.10305,-0.34654 -1.74897,-0.48434 -0.64944,-0.13855 -1.24471,-0.23072 -1.93559,-0.3009 -0.6925,-0.0703 -1.32204,-0.10183 -2.02834,-0.10183 -0.7063,0 -1.33584,0.0315 -2.02834,0.10183 -0.69088,0.0702 -1.28615,0.16236 -1.93559,0.3009 -0.64592,0.1378 -1.17203,0.28293 -1.74897,0.48434 -0.57107,0.19936 -0.99325,0.38122 -1.46908,0.63499 -0.46744,0.2493 -0.75658,0.43856 -1.10794,0.72685 -0.3421,0.2807 -0.49206,0.43595 -0.71184,0.73736 -0.21494,0.29477 -0.26746,0.39408 -0.3727,0.70841 -0.10787,0.32217 -0.12554,0.42819 -0.12554,0.80532 0,1.65685 -1.34315,3 -3,3 -1.65685,0 -3,-1.34315 -3,-3 0,-1.66667 0,-3.33333 0,-5 0,-0.79565 0.31607,-1.55871 0.87868,-2.12132 0.95956,-0.95956 1.91912,-1.91912 2.87868,-2.87868 -2.62623,-2.62623 -5.25245,-5.25245 -7.87868,-7.87868 -1.17157,-1.17157 -1.17157,-3.07107 0,-4.24264 1.23866,-1.23866 2.47732,-2.47732 3.71597,-3.71597 -0.13265,-0.81361 -0.07006,-1.924 0.13455,-2.66479 z"
     stroke-miterlimit="10"
     font-weight="none"
     font-size="none"
     text-anchor="none"
     style="font-family:none;mix-blend-mode:normal;fill:none;fill-rule:nonzero;stroke:#00ff5f;stroke-width:0.1;stroke-linecap:butt;stroke-linejoin:miter;stroke-miterlimit:10;stroke-dasharray:none;stroke-dashoffset:0"
     id="path32"
     inkscape:connector-curvature="0" />
  <path
     d="m 44.723351,29.645272 c 0.27469,-0.7999 0.88531,-1.82925 1.40665,-2.4432 0.49757,-0.58595 1.27976,-1.2673 1.91421,-1.70094 0.6099,-0.41686 1.43621,-0.86556 2.13979,-1.17718 0.68723,-0.30438 1.54061,-0.61148 2.3013,-0.83589 0.75101,-0.22156 1.63307,-0.43126 2.44035,-0.58448 1.5984,-0.30337 3.45552,-0.49752 5.16865,-0.55378 1.71001,-0.0562 3.58933,0.0132 5.25735,0.19862 0.83835,0.0932 1.74478,0.23003 2.54375,0.38649 0.80464,0.15757 1.68485,0.37283 2.43208,0.59926 0.75726,0.22946 1.60883,0.54405 2.29149,0.8546 0.69954,0.31823 1.52401,0.77867 2.12814,1.2045 0.62912,0.44344 1.40602,1.14434 1.89357,1.74366 0.51045,0.62747 1.10067,1.68045 1.35506,2.49265 v 0 c 0.27785,0 0.55571,0 0.83356,0 1.66667,0 3.33333,0 5,0 1.85511,0 3.46678,1.2755 3.893,3.08099 0.42622,1.80548 -0.44488,3.66709 -2.10414,4.49672 -2.59628,1.29814 -5.19257,2.59628 -7.78885,3.89443 0,0.38318 0,0.76636 0,1.14953 0.50828,0.75686 1.08705,1.84566 1.49535,2.82413 0.40152,0.96222 0.80683,2.22898 1.0143,3.30736 0.21164,1.10008 0.30081,2.6733 0.08789,3.83985 -0.11503,0.63025 -0.43554,1.58785 -0.78153,2.20115 -0.35781,0.63427 -1.15441,1.54888 -1.81601,2.01501 0,0.73027 0,1.46055 0,2.19082 0,2.20914 -1.79086,4 -4,4 -2.20914,0 -4,-1.79086 -4,-4 0,-0.29451 0.009,-0.24056 -0.0738,-0.48782 -0.07929,-0.23681 -0.0598,-0.19996 -0.23245,-0.43674 -0.1791,-0.24563 -0.2407,-0.3094 -0.53815,-0.55346 -0.30979,-0.25418 -0.51627,-0.38933 -0.94421,-0.61757 -0.43913,-0.2342 -0.79045,-0.38554 -1.32808,-0.57322 -0.54546,-0.19042 -1.01094,-0.31882 -1.62803,-0.45047 -0.62178,-0.13265 -1.16319,-0.21648 -1.82802,-0.28402 -0.66699,-0.0678 -1.24596,-0.0967 -1.92727,-0.0967 -0.68132,0 -1.26029,0.029 -1.92727,0.0967 -0.66482,0.0675 -1.20624,0.15137 -1.82802,0.28402 -0.61709,0.13165 -1.08257,0.26005 -1.62803,0.45047 -0.53763,0.18768 -0.88895,0.33902 -1.32808,0.57322 -0.42794,0.22824 -0.63442,0.36339 -0.94421,0.61757 -0.29744,0.24406 -0.35904,0.30783 -0.53815,0.55346 -0.17265,0.23677 -0.15316,0.19993 -0.23245,0.43674 -0.08279,0.24727 -0.0738,0.19332 -0.0738,0.48782 0,2.20914 -1.79086,4 -4,4 -2.20914,0 -4,-1.79086 -4,-4 0,-1.66667 0,-3.33333 0,-5 0,-1.06087 0.42143,-2.07828 1.17157,-2.82843 0.72386,-0.72386 1.44772,-1.44772 2.17157,-2.17157 -2.39052,-2.39052 -4.78105,-4.78105 -7.17157,-7.17157 -1.5621,-1.5621 -1.5621,-4.09476 0,-5.65685 1.12315,-1.12315 2.24631,-2.24631 3.36946,-3.36946 -0.08322,-0.89945 0.07717,-2.18313 0.35302,-2.9864 z"
     stroke-miterlimit="10"
     font-weight="none"
     font-size="none"
     text-anchor="none"
     style="font-family:none;mix-blend-mode:normal;fill:none;fill-rule:nonzero;stroke:#00ff87;stroke-width:0.1;stroke-linecap:butt;stroke-linejoin:miter;stroke-miterlimit:10;stroke-dasharray:none;stroke-dashoffset:0"
     id="path34"
     inkscape:connector-curvature="0" />
  <path
     d="m 43.343981,32.243812 c -0.03442,-0.9851 0.22748,-2.43178 0.57083,-3.29355 0.33869,-0.85006 1.06155,-1.96768 1.63885,-2.60788 0.54761,-0.60728 1.4152,-1.33084 2.08701,-1.77486 0.64307,-0.42502 1.5294,-0.8941 2.25532,-1.20918 0.70684,-0.3068 1.60111,-0.62376 2.37314,-0.84901 0.76063,-0.22192 1.67017,-0.43672 2.48133,-0.59035 1.60307,-0.30362 3.49191,-0.50382 5.20076,-0.56487 1.70478,-0.0609 3.61126,10e-4 5.28223,0.17576 0.84033,0.0878 1.76772,0.22038 2.57391,0.3702 0.81252,0.151 1.72275,0.36231 2.48534,0.58125 0.77375,0.22214 1.66849,0.53433 2.37764,0.83728 0.72785,0.31094 1.61441,0.77244 2.26034,1.19176 0.67431,0.43775 1.54378,1.14842 2.09658,1.7469 0.58291,0.63108 1.31678,1.73154 1.66733,2.57229 0.0449,0 0.08981,0 0.13471,0 1.66667,0 3.33333,0 5,0 2.31889,0 4.33347,1.59438 4.86624,3.85124 0.53277,2.25686 -0.5561,4.58386 -2.63018,5.6209 -2.41202,1.20601 -4.82405,2.41202 -7.23607,3.61803 0,0.0777 0,0.15536 0,0.23304 0.50286,0.78549 1.08461,1.91554 1.48464,2.89866 0.39328,0.96654 0.80362,2.27635 1.01137,3.36516 0.21267,1.11463 0.31405,2.78488 0.11582,4.00826 -0.10758,0.66394 -0.42442,1.71643 -0.76182,2.38493 -0.35183,0.69709 -1.17402,1.76654 -1.85001,2.32321 0,0.56553 0,1.13105 0,1.69658 0,2.76142 -2.23858,5 -5,5 -2.76142,0 -5,-2.23858 -5,-5 0,-0.068 0.0037,-0.0922 0.0068,-0.0993 -0.0045,-0.006 -0.01329,-0.0247 -0.02881,-0.071 -0.02054,-0.0614 -0.0196,-0.0734 -0.01812,-0.0753 -0.0035,-10e-4 -0.01901,-0.0143 -0.07408,-0.0898 -0.13847,-0.18985 -0.11171,-0.16214 -0.3645,-0.36956 -0.26821,-0.22007 -0.39204,-0.30112 -0.78048,-0.50829 -0.40243,-0.21463 -0.68288,-0.33544 -1.18708,-0.51145 -0.51398,-0.17943 -0.91883,-0.29111 -1.50708,-0.4166 -0.59412,-0.12674 -1.08168,-0.20224 -1.72044,-0.26713 -0.64147,-0.0652 -1.16988,-0.0916 -1.82621,-0.0916 -0.65633,0 -1.18474,0.0264 -1.82621,0.0916 -0.63877,0.0649 -1.12633,0.14038 -1.72044,0.26713 -0.58825,0.12549 -0.9931,0.23718 -1.50708,0.4166 -0.50419,0.17601 -0.78465,0.29682 -1.18708,0.51145 -0.38844,0.20717 -0.51227,0.28822 -0.78048,0.50829 -0.25279,0.20742 -0.22602,0.17971 -0.36446,0.36956 -0.05506,0.0755 -0.07054,0.0883 -0.07408,0.0898 0.0015,0.002 0.0024,0.0139 -0.01812,0.0753 -0.01552,0.0463 -0.02429,0.0648 -0.02881,0.071 0.0031,0.007 0.0068,0.0313 0.0068,0.0993 0,2.76142 -2.23858,5 -5,5 -2.76142,0 -5,-2.23858 -5,-5 0,-1.66667 0,-3.33333 0,-5 0,-1.32608 0.52678,-2.59785 1.46447,-3.53553 0.48816,-0.48816 0.97631,-0.97631 1.46447,-1.46447 -2.15482,-2.15482 -4.30964,-4.30964 -6.46447,-6.46447 -1.95262,-1.95262 -1.95262,-5.11845 0,-7.07107 1.01674,-1.01674 2.03348,-2.03348 3.05021,-3.05021 z"
     stroke-miterlimit="10"
     font-weight="none"
     font-size="none"
     text-anchor="none"
     style="font-family:none;mix-blend-mode:normal;fill:none;fill-rule:nonzero;stroke:#00ffaf;stroke-width:0.1;stroke-linecap:butt;stroke-linejoin:miter;stroke-miterlimit:10;stroke-dasharray:none;stroke-dashoffset:0"
     id="path36"
     inkscape:connector-curvature="0" />
  <path
     d="m 42.339711,31.833872 c 0.01397,-1.06871 0.37845,-2.66857 0.78581,-3.58537 0.39854,-0.89695 1.22762,-2.09593 1.85685,-2.76136 0.594,-0.62817 1.54231,-1.39195 2.24951,-1.84685 0.67462,-0.43395 1.6189,-0.92336 2.36711,-1.24281 0.72662,-0.31023 1.66174,-0.63761 2.44647,-0.8645 0.77172,-0.22314 1.7101,-0.44357 2.52743,-0.59813 1.61244,-0.30492 3.53803,-0.51139 5.24826,-0.5766 1.7052,-0.065 3.64335,-0.009 5.32098,0.15717 0.8441,0.0837 1.79321,0.21306 2.60736,0.35777 0.82107,0.14594 1.7605,0.35468 2.53768,0.56796 0.78931,0.21661 1.72422,0.52773 2.45704,0.82506 0.7531,0.30555 1.69556,0.76892 2.37771,1.18351 0.71335,0.43356 1.66393,1.15247 2.2723,1.75006 0.64461,0.63318 1.50485,1.76849 1.94007,2.6298 1.49834,0 2.99668,0 4.49502,0 2.78267,0 5.20017,1.91326 5.83949,4.62148 0.63933,2.70823 -0.66732,5.50063 -3.15621,6.74508 -2.12564,1.06282 -4.25129,2.12564 -6.37693,3.18846 v 0 c 0.45543,0.80366 0.9847,1.93675 1.34011,2.89615 0.35171,0.94941 0.7245,2.26927 0.90032,3.33302 0.1814,1.09755 0.24873,2.81713 0.03923,4.04897 -0.11387,0.66951 -0.44154,1.76628 -0.77149,2.452 -0.34471,0.71638 -1.16041,1.86351 -1.81452,2.47142 0,0.41447 0,0.82895 0,1.24342 0,3.28039 -2.63451,5.95268 -5.91457,5.99939 -3.28006,0.0467 -5.98959,-2.54949 -6.083,-5.82855 -0.23951,-0.23442 -0.24742,-0.24004 -0.70747,-0.48845 -0.49017,-0.26467 -0.80137,-0.39045 -1.4741,-0.59414 -0.69088,-0.20919 -1.22091,-0.32236 -2.0238,-0.43333 -0.81085,-0.11207 -1.44892,-0.15493 -2.29706,-0.15493 -0.84814,0 -1.48621,0.0429 -2.29706,0.15493 -0.80289,0.11097 -1.33293,0.22415 -2.0238,0.43333 -0.67273,0.20369 -0.98393,0.32947 -1.4741,0.59414 -0.46005,0.24841 -0.46796,0.25403 -0.70747,0.48845 -0.0934,3.27906 -2.80293,5.87526 -6.083,5.82855 -3.28006,-0.0467 -5.91457,-2.719 -5.91457,-5.99939 0,-1.66667 0,-3.33333 0,-5 0,-1.5913 0.63214,-3.11742 1.75736,-4.24264 0.25245,-0.25245 0.50491,-0.50491 0.75736,-0.75736 -1.91912,-1.91912 -3.83824,-3.83824 -5.75736,-5.75736 -2.34315,-2.34315 -2.34315,-6.14214 0,-8.48528 0.91768,-0.91768 1.83537,-1.83537 2.75305,-2.75305 z"
     stroke-miterlimit="10"
     font-weight="none"
     font-size="none"
     text-anchor="none"
     style="font-family:none;mix-blend-mode:normal;fill:none;fill-rule:nonzero;stroke:#00ffd8;stroke-width:0.1;stroke-linecap:butt;stroke-linejoin:miter;stroke-miterlimit:10;stroke-dasharray:none;stroke-dashoffset:0"
     id="path38"
     inkscape:connector-curvature="0" />
  <path
     d="m 42.350651,27.542732 c 0.45496,-0.94136 1.38524,-2.21677 2.06333,-2.90675 0.63763,-0.64883 1.66311,-1.45149 2.40426,-1.91772 0.70495,-0.44345 1.70559,-0.95323 2.47601,-1.27775 0.74644,-0.31441 1.72233,-0.65262 2.52067,-0.88179 0.7838,-0.22499 1.75193,-0.45149 2.57698,-0.60738 1.62505,-0.30704 3.59085,-0.52002 5.30644,-0.58906 1.70959,-0.0688 3.68254,-0.0181 5.3695,0.14127 0.84915,0.0802 1.82051,0.20724 2.64318,0.34785 0.83012,0.14188 1.79819,0.34891 2.58947,0.55775 0.80428,0.21227 1.77724,0.52315 2.53186,0.81617 0.77627,0.30142 1.77028,0.76714 2.48483,1.1782 0.74817,0.4304 1.77174,1.15658 2.42889,1.75338 0.69863,0.63446 1.6717,1.79633 2.18235,2.67267 1.30029,0 2.60058,0 3.90087,0 3.24644,0 6.06686,2.23213 6.81274,5.39173 0.74588,3.1596 -0.77854,6.41741 -3.68225,7.86926 -1.82008,0.91004 -3.64017,1.82008 -5.46025,2.73012 v 0 c 0.40035,0.80318 0.86831,1.92693 1.1726,2.85264 0.30365,0.92374 0.62826,2.24722 0.76552,3.27988 0.14285,1.07478 0.16094,2.82666 -0.06742,4.0505 -0.12399,0.66451 -0.46582,1.78108 -0.78865,2.46753 -0.33702,0.71662 -1.13264,1.90042 -1.7523,2.53577 v 0 c 0,0.27419 0,0.54837 0,0.82256 0,3.73239 -2.92841,6.8083 -6.6563,6.99156 -3.72789,0.18326 -6.94387,-2.59059 -7.30995,-6.30498 -0.30196,-0.18982 -0.3891,-0.23308 -0.83083,-0.40828 -0.46034,-0.18258 -0.73768,-0.2684 -1.30296,-0.40265 -0.57633,-0.13687 -0.98159,-0.20622 -1.62127,-0.2778 -0.64471,-0.0721 -1.11291,-0.0979 -1.77868,-0.0979 -0.66578,0 -1.13398,0.0257 -1.77868,0.0979 -0.63968,0.0716 -1.04494,0.14094 -1.62127,0.2778 -0.56528,0.13424 -0.84262,0.22007 -1.30296,0.40265 -0.44174,0.1752 -0.52888,0.21846 -0.83083,0.40828 -0.36608,3.71439 -3.58207,6.48824 -7.30995,6.30498 -3.72789,-0.18326 -6.6563,-3.25917 -6.6563,-6.99156 0,-1.66667 0,-3.33333 0,-5 0,-1.85652 0.7375,-3.63699 2.05025,-4.94975 0.01675,-0.0168 0.0335,-0.0335 0.05025,-0.0503 -1.68342,-1.68342 -3.36684,-3.36684 -5.05025,-5.05025 -2.73367,-2.73367 -2.73367,-7.16582 0,-9.89949 0.82471,-0.82471 1.64941,-1.64941 2.47412,-2.47412 0.06194,-1.14963 0.52869,-2.89404 0.99697,-3.86296 z"
     stroke-miterlimit="10"
     font-weight="none"
     font-size="none"
     text-anchor="none"
     style="font-family:none;mix-blend-mode:normal;fill:none;fill-rule:nonzero;stroke:#00feff;stroke-width:0.1;stroke-linecap:butt;stroke-linejoin:miter;stroke-miterlimit:10;stroke-dasharray:none;stroke-dashoffset:0"
     id="path40"
     inkscape:connector-curvature="0" />
  <path
     d="m 40.382981,30.962182 c 0.10943,-1.22774 0.67743,-3.10928 1.20399,-4.12795 0.50855,-0.98383 1.53589,-2.33197 2.26043,-3.04604 0.67914,-0.66932 1.77903,-1.50994 2.55299,-1.98781 0.73434,-0.45341 1.79009,-0.98359 2.58263,-1.31368 0.76628,-0.31915 1.7828,-0.66853 2.59541,-0.90044 0.79658,-0.22734 1.79509,-0.46022 2.62901,-0.61775 1.64002,-0.30981 3.64849,-0.52952 5.37237,-0.60218 1.71689,-0.0724 3.72687,-0.0263 5.42515,0.12716 1.7138,0.15488 3.72463,0.48218 5.32159,0.88933 0.81885,0.20876 1.82823,0.51994 2.60328,0.80956 0.79794,0.29817 1.8402,0.76651 2.58437,1.17487 0.7799,0.42796 1.87036,1.16071 2.57129,1.75684 0.74692,0.63524 1.82207,1.81801 2.40065,2.70548 1.11439,0 2.22877,0 3.34316,0 3.71022,0 6.93356,2.55101 7.78599,6.16198 0.85243,3.61097 -0.88976,7.33418 -4.20828,8.99344 -1.52907,0.76453 -3.05814,1.52907 -4.58721,2.2936 0.35116,0.79208 0.76591,1.90851 1.02515,2.80273 0.26077,0.89951 0.54019,2.23165 0.64258,3.23929 0.10737,1.0566 0.0763,2.83642 -0.16998,4.05002 -0.27117,1.33622 -1.33494,3.74685 -2.48825,5.03104 0,0.14263 0,0.28527 0,0.4279 0,4.16038 -3.18881,7.62635 -7.33478,7.97229 -4.14597,0.34594 -7.8651,-2.54362 -8.55459,-6.64647 -0.30988,-0.14271 -0.42009,-0.18439 -0.81593,-0.30703 -0.40741,-0.12623 -0.63546,-0.18262 -1.10536,-0.27302 -0.47691,-0.0918 -0.78279,-0.13471 -1.29722,-0.18225 -0.5177,-0.0478 -0.86194,-0.0635 -1.39212,-0.0635 -0.53018,0 -0.87442,0.0157 -1.39212,0.0635 -0.51443,0.0475 -0.82031,0.0905 -1.29722,0.18225 -0.4699,0.0904 -0.69795,0.1468 -1.10536,0.27302 -0.39584,0.12264 -0.50605,0.16432 -0.81593,0.30703 -0.68949,4.10285 -4.40862,6.99241 -8.55459,6.64647 -4.14597,-0.34594 -7.33478,-3.81191 -7.33478,-7.97229 0,-1.66667 0,-3.33333 0,-5 0,-1.80088 0.60762,-3.54907 1.72456,-4.96173 -1.46047,-1.46047 -2.92094,-2.92094 -4.38141,-4.38141 -3.12419,-3.12419 -3.12419,-8.18951 0,-11.31371 0.73684,-0.73684 1.47369,-1.47369 2.21053,-2.21053 z"
     stroke-miterlimit="10"
     font-weight="none"
     font-size="none"
     text-anchor="none"
     style="font-family:none;mix-blend-mode:normal;fill:none;fill-rule:nonzero;stroke:#00d6ff;stroke-width:0.1;stroke-linecap:butt;stroke-linejoin:miter;stroke-miterlimit:10;stroke-dasharray:none;stroke-dashoffset:0"
     id="path42"
     inkscape:connector-curvature="0" />
  <path
     d="m 39.425381,30.505562 c 0.15641,-1.30317 0.82431,-3.3155 1.40688,-4.38192 0.5598,-1.02476 1.68075,-2.44276 2.44984,-3.18054 0.71897,-0.68969 1.89104,-1.56755 2.69693,-2.05731 0.76299,-0.46369 1.87284,-1.0143 2.68741,-1.35037 0.78611,-0.32433 1.84312,-0.68513 2.67047,-0.92014 0.8099,-0.23005 1.83921,-0.46958 2.68285,-0.62901 1.65677,-0.31308 3.70973,-0.53973 5.44411,-0.61588 1.72639,-0.0758 3.77503,-0.0341 5.48615,0.11433 1.7274,0.14981 3.78813,0.47472 5.41141,0.87585 0.83309,0.20586 1.87757,0.51768 2.67202,0.80456 0.81845,0.29555 1.90636,0.76666 2.67803,1.17291 0.80926,0.42604 1.96184,1.16482 2.70269,1.7604 0.79079,0.63572 1.95933,1.83532 2.59967,2.73113 v 0 c 0.93848,0 1.87696,0 2.81545,0 4.174,0 7.80025,2.86988 8.75924,6.93222 0.95899,4.06234 -1.00098,8.25095 -4.73432,10.11762 -1.25021,0.62511 -2.50042,1.25021 -3.75063,1.87532 0.307,0.77579 0.67429,1.88797 0.89346,2.75387 0.22216,0.87772 0.45809,2.22192 0.52844,3.20883 0.07421,1.04105 -0.0054,2.84219 -0.26804,4.04235 -0.28823,1.31695 -1.3445,3.7194 -2.42815,5.01475 0,0.0183 0,0.0367 0,0.055 0,4.57089 -3.42627,8.41586 -7.96696,8.94052 -4.54068,0.52466 -8.75351,-2.43763 -9.79589,-6.88808 -0.58906,-0.20583 -0.88266,-0.27694 -1.64395,-0.39538 -0.77807,-0.12105 -1.25772,-0.15705 -2.0932,-0.15705 -0.83548,0 -1.31513,0.036 -2.0932,0.15705 -0.7613,0.11844 -1.05489,0.18956 -1.64395,0.39538 -1.04238,4.45045 -5.25521,7.41274 -9.79589,6.88808 -4.54068,-0.52466 -7.96696,-4.36962 -7.96696,-8.94052 0,-1.66667 0,-3.33333 0,-5 0,-1.71982 0.49276,-3.40364 1.41996,-4.85212 -1.26131,-1.26131 -2.52262,-2.52262 -3.78392,-3.78392 -3.51472,-3.51472 -3.51472,-9.2132 0,-12.72792 0.65335,-0.65335 1.30669,-1.30669 1.96004,-1.96004 z"
     stroke-miterlimit="10"
     font-weight="none"
     font-size="none"
     text-anchor="none"
     style="font-family:none;mix-blend-mode:normal;fill:none;fill-rule:nonzero;stroke:#00adff;stroke-width:0.1;stroke-linecap:butt;stroke-linejoin:miter;stroke-miterlimit:10;stroke-dasharray:none;stroke-dashoffset:0"
     id="path44"
     inkscape:connector-curvature="0" />
  <path
     d="m 40.084921,25.411292 c 0.6091,-1.06442 1.82075,-2.54996 2.63284,-3.31114 0.75744,-0.70996 1.99988,-1.62445 2.83698,-2.1263 0.79105,-0.47424 1.95416,-1.04529 2.79067,-1.38765 0.80593,-0.32984 1.90328,-0.70226 2.74575,-0.94066 0.82362,-0.23307 1.88405,-0.47945 2.73809,-0.64096 1.67491,-0.31675 3.77373,-0.55052 5.52034,-0.63008 1.7376,-0.0791 3.82613,-0.0415 5.55126,0.10242 1.74209,0.14531 3.85258,0.46839 5.5018,0.86444 0.84705,0.20341 1.92555,0.51611 2.73856,0.80075 0.83803,0.2934 1.96947,0.76733 2.76693,1.17192 0.83673,0.42451 2.04758,1.16887 2.82528,1.76398 0.83112,0.63599 2.0859,1.84943 2.78288,2.75155 0.771,0 1.542,0 2.313,0 4.63778,0 8.66695,3.18876 9.73249,7.70247 1.06554,4.51371 -1.1122,9.16772 -5.26035,11.2418 -0.98205,0.49102 -1.9641,0.98205 -2.94615,1.47307 0.2674,0.75788 0.59154,1.86969 0.77483,2.71105 0.18711,0.85891 0.38053,2.21746 0.42107,3.18688 0.04295,1.02706 -0.08409,2.84251 -0.3616,4.02617 -0.30319,1.29321 -1.34771,3.67147 -2.36494,4.96379 -0.14986,4.90718 -3.83978,8.9798 -8.70843,9.61161 -4.86864,0.63181 -9.47586,-2.36409 -10.87327,-7.07048 -0.50793,-0.1345 -0.73586,-0.17761 -1.33572,-0.25151 -0.60936,-0.0751 -0.938,-0.0949 -1.57793,-0.0949 -0.63992,0 -0.96857,0.0198 -1.57793,0.0949 -0.59986,0.0739 -0.82779,0.11702 -1.33572,0.25151 -1.41388,4.76186 -6.10879,7.76405 -11.02449,7.04968 -4.91569,-0.71437 -8.56187,-4.92872 -8.56187,-9.89605 0,-1.66667 0,-3.33333 0,-5 0,-1.63528 0.40103,-3.24561 1.16796,-4.6899 -1.07968,-1.07968 -2.15936,-2.15936 -3.23903,-3.23903 -3.90524,-3.90524 -3.90524,-10.23689 0,-14.14214 0.57363,-0.57363 1.14727,-1.14727 1.7209,-1.7209 0.20283,-1.37609 0.96916,-3.51377 1.60578,-4.6263 z"
     stroke-miterlimit="10"
     font-weight="none"
     font-size="none"
     text-anchor="none"
     style="font-family:none;mix-blend-mode:normal;fill:none;fill-rule:nonzero;stroke:#0085ff;stroke-width:0.1;stroke-linecap:butt;stroke-linejoin:miter;stroke-miterlimit:10;stroke-dasharray:none;stroke-dashoffset:0"
     id="path46"
     inkscape:connector-curvature="0" />
  <path
     d="m 39.343781,24.697412 c 0.65674,-1.10301 1.95662,-2.65419 2.81042,-3.4385 0.7948,-0.73011 2.10608,-1.68077 2.97378,-2.19485 0.81861,-0.48499 2.03426,-1.07648 2.89264,-1.42537 0.82573,-0.33562 1.96327,-0.71982 2.82115,-0.96184 0.83766,-0.23632 1.92945,-0.48973 2.79441,-0.65349 1.69415,-0.32075 3.8399,-0.56179 5.60012,-0.64469 1.75017,-0.0824 3.87952,-0.0486 5.61958,0.0912 1.75762,0.14126 3.91767,0.4629 5.59251,0.85461 0.86078,0.20132 1.97237,0.51505 2.80324,0.79783 0.85683,0.29161 2.03001,0.76838 2.85188,1.17164 0.86266,0.42327 2.12858,1.17283 2.94064,1.76755 0.86856,0.63611 2.20361,1.86113 2.95293,2.76803 0.61074,0 1.22148,0 1.83222,0 5.10155,0 9.53364,3.50764 10.70574,8.47272 1.1721,4.96508 -1.22342,10.0845 -5.78639,12.36598 -0.7236,0.3618 -1.4472,0.7236 -2.1708,1.0854 0.23198,0.74075 0.51625,1.85647 0.66717,2.67739 0.15505,0.84338 0.30653,2.21779 0.31907,3.17236 0.01333,1.01419 -0.15984,2.8377 -0.45098,4.0026 -0.31652,1.26647 -1.34766,3.60946 -2.30391,4.88822 -0.31581,5.21692 -4.2589,9.49132 -9.43346,10.22608 -5.17456,0.73476 -10.15169,-2.27301 -11.90729,-7.1958 -0.40503,-0.0787 -0.5659,-0.10152 -1.01323,-0.14324 -0.45196,-0.0421 -0.6599,-0.0517 -1.12592,-0.0517 -0.46602,0 -0.67396,0.01 -1.12592,0.0517 -0.44733,0.0417 -0.6082,0.0645 -1.01323,0.14324 -1.79767,5.04077 -6.96235,8.05626 -12.23577,7.14408 -5.27342,-0.91219 -9.12509,-5.48731 -9.12509,-10.83904 0,-1.66667 0,-3.33333 0,-5 0,-1.54626 0.326,-3.07515 0.95672,-4.48693 -0.91163,-0.91163 -1.82326,-1.82326 -2.7349,-2.7349 -4.29577,-4.29577 -4.29577,-11.26058 0,-15.55635 0.49724,-0.49724 0.99447,-0.99447 1.49171,-1.49171 0.2487,-1.44671 1.11194,-3.70507 1.80095,-4.86227 z"
     stroke-miterlimit="10"
     font-weight="none"
     font-size="none"
     text-anchor="none"
     style="font-family:none;mix-blend-mode:normal;fill:none;fill-rule:nonzero;stroke:#005dff;stroke-width:0.1;stroke-linecap:butt;stroke-linejoin:miter;stroke-miterlimit:10;stroke-dasharray:none;stroke-dashoffset:0"
     id="path48"
     inkscape:connector-curvature="0" />
  <path
     d="m 38.607961,23.982112 c 0.70297,-1.14069 2.08894,-2.75588 2.98336,-3.56309 0.83122,-0.75017 2.21002,-1.73655 3.10783,-2.26297 0.84575,-0.4959 2.11333,-1.10782 2.9935,-1.46344 0.84551,-0.34162 2.02311,-0.73772 2.89662,-0.98355 0.85195,-0.23976 1.97528,-0.50034 2.85158,-0.66648 1.71428,-0.32502 3.90781,-0.57347 5.68274,-0.65966 1.76383,-0.0857 3.93474,-0.0556 5.69048,0.0806 1.77383,0.13757 3.9832,0.45808 5.68338,0.84602 0.8743,0.1995 2.01815,0.51438 2.86631,0.79559 0.87498,0.2901 2.08838,0.7697 2.9335,1.17189 0.88729,0.42226 2.20559,1.17668 3.04991,1.77108 0.9036,0.63614 2.31387,1.87097 3.11186,2.7815 v 0 c 0.45676,0 0.91353,0 1.37029,0 5.56533,0 10.40034,3.82651 11.67899,9.24296 1.27865,5.41645 -1.33464,11.00127 -6.31242,13.49016 -0.47414,0.23707 -0.94828,0.47414 -1.42243,0.71121 v 0 c 0.39863,1.44456 0.81668,3.99784 0.79025,5.81495 -0.01457,1.00148 -0.23158,2.82638 -0.53464,3.97029 -0.32777,1.23722 -1.34343,3.53648 -2.24349,4.79406 -0.47202,5.51323 -4.65268,9.9889 -10.12098,10.83518 -5.4683,0.84628 -10.8063,-2.15628 -12.92278,-7.26891 -1.1715,-0.15402 -1.6535,-0.15402 -2.825,0 -2.18991,5.28999 -7.81191,8.29613 -13.42737,7.17975 -5.61546,-1.11638 -9.66013,-6.04431 -9.66013,-11.76966 0,-1.66667 0,-3.33333 0,-5 0,-1.45248 0.2637,-2.8929 0.77826,-4.25118 -0.75451,-0.75451 -1.50903,-1.50903 -2.26354,-2.26354 -4.68629,-4.68629 -4.68629,-12.28427 0,-16.97056 0.42377,-0.42377 0.84755,-0.84755 1.27132,-1.27132 0.29401,-1.51526 1.2527,-3.8902 1.99262,-5.09084 z"
     stroke-miterlimit="10"
     font-weight="none"
     font-size="none"
     text-anchor="none"
     style="font-family:none;mix-blend-mode:normal;fill:none;fill-rule:nonzero;stroke:#0034ff;stroke-width:0.1;stroke-linecap:butt;stroke-linejoin:miter;stroke-miterlimit:10;stroke-dasharray:none;stroke-dashoffset:0"
     id="path50"
     inkscape:connector-curvature="0" />
  <path
     d="m 35.695711,28.578372 c 0.33878,-1.58192 1.3915,-4.06985 2.18104,-5.31287 0.74797,-1.17757 2.21816,-2.85539 3.15228,-3.68529 0.86684,-0.77013 2.31204,-1.79186 3.23951,-2.3307 0.87254,-0.50692 2.19149,-1.13925 3.09339,-1.50177 0.86526,-0.34779 2.08278,-0.7559 2.97212,-1.00569 0.86646,-0.24337 2.02145,-0.51122 2.90946,-0.67986 1.73514,-0.32952 3.97712,-0.58549 5.7677,-0.67494 1.77841,-0.0888 3.99143,-0.0624 5.76344,0.0703 1.79058,0.13416 4.04902,0.45377 5.77427,0.83842 0.88763,0.1979 2.06302,0.514 2.92795,0.79388 0.89256,0.28882 2.14485,0.7712 3.01222,1.17252 0.91081,0.42142 2.27917,1.18042 3.15399,1.77455 0.9366,0.6361 2.41774,1.87935 3.26126,2.79262 0.30832,0 0.61664,0 0.92497,0 6.02911,0 11.26703,4.14539 12.65224,10.01321 1.38521,5.86782 -1.44586,11.91804 -6.83846,14.61434 -0.23309,0.11654 -0.46617,0.23309 -0.69926,0.34963 0.34277,1.42387 0.67972,3.99658 0.60608,5.7896 -0.04059,0.98832 -0.29836,2.80798 -0.61134,3.92897 -0.33673,1.20607 -1.33477,3.45546 -2.18295,4.68653 -0.61999,5.79776 -5.02448,10.4735 -10.77489,11.43845 -5.75041,0.96496 -11.43991,-2.01694 -13.91845,-7.29474 -0.6383,-0.0458 -0.82761,-0.0458 -1.46591,0 -2.58826,5.51143 -8.65519,8.48797 -14.59798,7.16202 -5.9428,-1.32595 -10.16906,-6.59909 -10.16906,-12.68802 0,-1.66667 0,-3.33333 0,-5 0,-1.35397 0.21152,-2.69963 0.62691,-3.98831 -0.60643,-0.60643 -1.21287,-1.21287 -1.8193,-1.8193 -5.07682,-5.07682 -5.07682,-13.30796 0,-18.38478 0.35293,-0.35293 0.70586,-0.70586 1.0588,-1.0588 z"
     stroke-miterlimit="10"
     font-weight="none"
     font-size="none"
     text-anchor="none"
     style="font-family:none;mix-blend-mode:normal;fill:none;fill-rule:nonzero;stroke:#000cff;stroke-width:0.1;stroke-linecap:butt;stroke-linejoin:miter;stroke-miterlimit:10;stroke-dasharray:none;stroke-dashoffset:0"
     id="path52"
     inkscape:connector-curvature="0" />
  <path
     d="m 34.783161,28.076712 c 0.38303,-1.64685 1.52842,-4.24461 2.36644,-5.52906 0.7919,-1.21376 2.34468,-2.95299 3.31768,-3.80538 0.90177,-0.78999 2.41237,-1.84673 3.36913,-2.39805 0.89901,-0.51804 2.26886,-1.17077 3.19242,-1.54031 0.88498,-0.35411 2.14229,-0.77431 3.0476,-1.0282 0.88114,-0.24711 2.06789,-0.52234 2.96789,-0.69357 1.75662,-0.3342 4.0476,-0.5978 5.85458,-0.69049 1.79374,-0.092 4.04932,-0.0692 5.83811,0.0604 1.80777,0.13099 4.11502,0.44987 5.86508,0.83161 0.90078,0.19649 2.10707,0.51384 2.98834,0.79258 0.90965,0.28772 2.19966,0.77283 3.08843,1.17345 0.93339,0.42073 2.34979,1.18404 3.25359,1.77795 0.96785,0.636 2.51611,1.88657 3.40242,2.80189 v 0 c 0.16481,0 0.32962,0 0.49442,0 6.49284,0 12.13365,4.4642 13.62546,10.78334 1.4918,6.31914 -1.55693,12.83474 -7.36425,15.73853 0.29164,1.40707 0.54995,3.99951 0.43259,5.76965 -0.0646,0.97433 -0.35945,2.78261 -0.68026,3.8791 -0.3434,1.17366 -1.32187,3.36902 -2.12217,4.57007 -0.76078,6.07137 -5.37629,10.94528 -11.39725,12.03536 -6.02096,1.09008 -12.0523,-1.85626 -14.89343,-7.27551 -0.09201,-9.8e-4 -0.10936,-9.8e-4 -0.20137,0 -2.99148,5.70603 -9.49089,8.63382 -15.74667,7.0934 -6.25578,-1.54038 -10.65264,-7.15126 -10.65264,-13.5939 0,-1.66667 0,-3.33333 0,-5 0,-1.25091 0.16765,-2.49617 0.49847,-3.70254 -0.46599,-0.46599 -0.93198,-0.93198 -1.39797,-1.39797 -5.46734,-5.46734 -5.46734,-14.33165 0,-19.79899 0.28445,-0.28445 0.5689,-0.5689 0.85335,-0.85335 z"
     stroke-miterlimit="10"
     font-weight="none"
     font-size="none"
     text-anchor="none"
     style="font-family:none;mix-blend-mode:normal;fill:none;fill-rule:nonzero;stroke:#1c00ff;stroke-width:0.1;stroke-linecap:butt;stroke-linejoin:miter;stroke-miterlimit:10;stroke-dasharray:none;stroke-dashoffset:0"
     id="path54"
     inkscape:connector-curvature="0" />
  <path
     d="m 33.877021,27.568642 c 0.42677,-1.71022 1.66357,-4.41498 2.54905,-5.74002 0.83488,-1.24932 2.46879,-3.04889 3.47997,-3.92359 0.9361,-0.80975 2.51121,-1.9012 3.49693,-2.46505 0.92521,-0.52924 2.34552,-1.20233 3.29068,-1.57901 0.90468,-0.36055 2.20164,-0.79292 3.12306,-1.051 0.89597,-0.25096 2.11455,-0.53366 3.0268,-0.70756 1.77863,-0.33905 4.11905,-0.61037 5.94309,-0.70627 1.80971,-0.0952 4.10821,-0.0758 5.91418,0.0508 1.82532,0.12802 4.18112,0.4463 5.95576,0.82544 0.91378,0.19522 2.15037,0.51387 3.04758,0.79163 0.9263,0.28676 2.25299,0.77455 3.16241,1.17459 0.95512,0.42015 2.41779,1.18755 3.34925,1.78127 0.99758,0.63586 2.60967,1.89284 3.53638,2.80966 v 0 c 0.02572,0 0.05143,0 0.07715,0 6.81433,0 12.77244,4.59328 14.50631,11.18333 1.733869,6.59005 -1.19222,13.5208 -7.1242,16.87441 0.24587,1.39485 0.43036,4.00749 0.27393,5.75708 -0.17519,1.95947 -1.33418,6.0126 -2.80361,8.28407 -0.87164,6.16798 -5.46471,11.15534 -11.54021,12.53085 -6.0755,1.37551 -12.36886,-1.14712 -15.81222,-6.33818 -3.65737,5.5137 -10.49537,7.97984 -16.83013,6.06984 -6.33475,-1.91 -10.66987,-7.74497 -10.66987,-14.36141 0,-1.66667 0,-3.33333 0,-5 0,-1.14351 0.13076,-2.28327 0.38973,-3.39707 -0.33211,-0.33211 -0.66422,-0.66422 -0.99633,-0.99633 -5.85786,-5.85786 -5.85786,-15.35534 0,-21.2132 0.21811,-0.21811 0.43621,-0.43621 0.65432,-0.65432 z"
     stroke-miterlimit="10"
     font-weight="none"
     font-size="none"
     text-anchor="none"
     style="font-family:none;mix-blend-mode:normal;fill:none;fill-rule:nonzero;stroke:#4500ff;stroke-width:0.1;stroke-linecap:butt;stroke-linejoin:miter;stroke-miterlimit:10;stroke-dasharray:none;stroke-dashoffset:0"
     id="path56"
     inkscape:connector-curvature="0" />
  <path
     d="m 35.705991,21.108162 c 0.87709,-1.28437 2.59092,-3.14334 3.63971,-4.04018 0.96995,-0.82942 2.60886,-1.95528 3.62328,-2.53168 0.95122,-0.54049 2.42165,-1.23388 3.3884,-1.61778 0.9244,-0.36708 2.26095,-0.81164 3.19863,-1.07402 0.91097,-0.2549 2.16149,-0.54512 3.08625,-0.72174 1.80119,-0.344 4.19155,-0.62309 6.0333,-0.72214 1.82634,-0.0982 4.16818,-0.0823 5.99179,0.0416 1.84329,0.1253 4.24755,0.44321 6.04666,0.82016 0.92669,0.19416 2.19319,0.51422 3.10605,0.79123 0.94263,0.28604 2.30526,0.77665 3.23473,1.17637 0.97622,0.41983 2.48381,1.19149 3.44186,1.78531 1.02609,0.63599 2.69934,1.89932 3.66436,2.81766 7.07522,0.14672 13.21362,4.9239 15.09345,11.7464 1.879829,6.8225 -0.94551,14.06949 -6.9471,17.81932 0.2056,1.38731 0.32268,4.02103 0.13227,5.75339 -0.21266,1.93472 -1.3991,5.91067 -2.80012,8.1344 -0.97459,6.27139 -5.56386,11.37388 -11.69724,13.00537 -6.13339,1.63148 -12.65128,-0.5165 -16.61299,-5.47483 -4.24269,5.31001 -11.37716,7.36001 -17.7915,5.11218 -6.41435,-2.24783 -10.7085,-8.30286 -10.7085,-15.09967 0,-1.66667 0,-3.33333 0,-5 0,-1.03203 0.09985,-2.06163 0.29816,-3.07443 -0.20395,-0.20395 -0.40791,-0.40791 -0.61186,-0.61186 -6.24839,-6.24839 -6.24839,-16.37903 0,-22.62742 0.15371,-0.15371 0.30742,-0.30742 0.46114,-0.46114 0.47006,-1.77226 1.79715,-4.58163 2.72926,-5.94656 z"
     stroke-miterlimit="10"
     font-weight="none"
     font-size="none"
     text-anchor="none"
     style="font-family:none;mix-blend-mode:normal;fill:none;fill-rule:nonzero;stroke:#6d00ff;stroke-width:0.1;stroke-linecap:butt;stroke-linejoin:miter;stroke-miterlimit:10;stroke-dasharray:none;stroke-dashoffset:0"
     id="path58"
     inkscape:connector-curvature="0" />
  <path
     d="m 34.989451,20.385782 c 0.91873,-1.31902 2.71161,-3.23662 3.79765,-4.15547 1.00348,-0.84901 2.70568,-2.00896 3.7487,-2.59791 0.97715,-0.55176 2.49749,-1.26535 3.4859,-1.65651 0.94422,-0.37367 2.32038,-0.8304 3.27455,-1.0971 0.92622,-0.25888 2.20886,-0.55662 3.14645,-0.73597 1.82442,-0.3490003 4.26536,-0.6357703 6.12561,-0.7378303 1.84374,-0.10115 4.22956,-0.0884 6.07138,0.0332 1.86183,0.12292 4.31483,0.44093 6.1385,0.8162503 0.93964,0.19338 2.23594,0.51521 3.16433,0.79183 0.95883,0.28569 2.35707,0.77961 3.30623,1.17952 0.99695,0.42004 2.54876,1.19676 3.53261,1.7914 1.05376,0.63689 2.78633,1.90776 3.78793,2.82851 7.32029,0.31895 13.61259,5.29236 15.613719,12.34104 2.00113,7.04867 -0.739209,14.58647 -6.799889,18.7043 0.16967,1.38318 0.22489,4.03761 0.0048,5.7551 -0.24501,1.91146 -1.45202,5.81833 -2.79324,7.99836 -1.0745,6.39934 -5.69817,11.62887 -11.91766,13.47925 -6.21949,1.85038 -12.94987,-10e-4 -17.34772,-4.77244 -4.74559,5.14852 -12.16248,6.86072 -18.68466,4.31337 -6.52218,-2.54735 -10.81534,-8.8331 -10.81534,-15.83509 0,-1.66667 0,-3.33333 0,-5 0,-0.9167 0.07415,-1.8319 0.22172,-2.73665 -0.08084,-0.0808 -0.16169,-0.16169 -0.24253,-0.24253 -6.63891,-6.63891 -6.63891,-17.40272 0,-24.04163 0.0911,-0.0911 0.18221,-0.18221 0.27331,-0.27331 0.51298,-1.8333 1.92954,-4.74538 2.90766,-6.14966 z"
     stroke-miterlimit="10"
     font-weight="none"
     font-size="none"
     text-anchor="none"
     style="font-family:none;mix-blend-mode:normal;fill:none;fill-rule:nonzero;stroke:#9500ff;stroke-width:0.1;stroke-linecap:butt;stroke-linejoin:miter;stroke-miterlimit:10;stroke-dasharray:none;stroke-dashoffset:0"
     id="path60"
     inkscape:connector-curvature="0" />
  <path
     d="m 34.276181,19.661582 c 0.95986,-1.35332 2.83101,-3.32884 3.95394,-4.26955 1.03673,-0.86851 2.80175,-2.06227 3.87324,-2.66376 1.00299,-0.56305 2.57305,-1.29673 3.58318,-1.69518 0.96412,-0.38031 2.37989,-0.84919 3.35075,-1.1202503 0.94166,-0.26291 2.25658,-0.56816 3.20728,-0.75026 1.84824,-0.35402 4.34029,-0.64843 6.21969,-0.75337 1.86182,-0.10396 4.29216,-0.0942 6.15269,0.0254 1.88087,0.12084 4.38286,0.43932 6.23117,0.8135 0.95263,0.19286 2.27865,0.51673 3.22245,0.7932703 0.97493,0.28566 2.4085,0.78331 3.37706,1.18382 1.01737,0.42069 2.61279,1.20315 3.62183,1.79923 1.08073,0.63843 2.8711,1.9179 3.90785,2.84181 7.56409,0.4834 14.01492,5.65339 16.134129,12.93062 2.11921,7.27723 -0.54733,15.1023 -6.669249,19.57121 0.13722,1.38147 0.1355,4.05554 -0.11075,5.75988 -0.27303,1.88963 -1.49533,5.73437 -2.78394,7.87442 -1.1715,6.54218 -5.8527,11.90646 -12.17607,13.9528 -6.32337,2.04634 -13.25982,0.44171 -18.0421,-4.17374 -5.19671,5.01542 -12.88797,6.43914 -19.53562,3.61621 -6.64766,-2.82293 -10.96438,-9.34583 -10.96438,-16.56804 0,-1.66667 0,-3.33333 0,-5 0,-0.79807 0.05308,-1.59526 0.15888,-2.38629 -6.92239,-7.0472 -6.87187,-18.35656 0.1132,-25.34163 0.03014,-0.0301 0.06028,-0.0603 0.09042,-0.0904 0.55554,-1.8934 2.06081,-4.90649 3.08438,-6.34964 z"
     stroke-miterlimit="10"
     font-weight="none"
     font-size="none"
     text-anchor="none"
     style="font-family:none;mix-blend-mode:normal;fill:none;fill-rule:nonzero;stroke:#bd00ff;stroke-width:0.1;stroke-linecap:butt;stroke-linejoin:miter;stroke-miterlimit:10;stroke-dasharray:none;stroke-dashoffset:0"
     id="path62"
     inkscape:connector-curvature="0" />
  <path
     d="m 30.306101,25.483282 c 0.59772,-1.95272 2.19089,-5.06539 3.2594,-6.54703 1.00051,-1.38735 2.94922,-3.42025 4.10874,-4.38276 1.06972,-0.88796 2.89717,-2.11533 3.99703,-2.72938 1.02877,-0.57436 2.64837,-1.32807 3.68028,-1.73386 0.9841,-0.3869903 2.43949,-0.8680103 3.42718,-1.1434703 0.95729,-0.26698 2.30461,-0.57974 3.26865,-0.76461 1.87256,-0.35909 4.4162,-0.66109 6.31533,-0.76883 1.88049,-0.10668 4.35582,-0.0997 6.23551,0.018 1.90036,0.11901 4.45155,0.43827 6.3246,0.81173 0.96567,0.19254 2.32134,0.5187 3.28047,0.79543 0.99095,0.28591 2.45963,0.78762 3.44731,1.1890803 1.03753,0.42172 2.67607,1.21049 3.70974,1.80851 1.10712,0.64052 2.95402,1.92947 4.02473,2.85723 7.80687,0.64141 14.41995,6.00816 16.654629,13.51582 2.23467,7.50766 -0.36714,15.61724 -6.552509,20.42348 0.10766,1.38144 0.05342,4.07371 -0.21586,5.76621 -0.29739,1.86915 -1.53093,5.65781 -2.77296,7.76126 -1.26609,6.69489 -6.02013,12.19929 -12.45954,14.42608 -6.43941,2.2268 -13.57819,0.83504 -18.70955,-3.64757 -5.61246,4.90288 -13.57299,6.07195 -20.35812,2.98976 -6.78513,-3.08219 -11.14188,-9.84647 -11.14188,-17.29884 0,-1.66667 0,-3.33333 0,-5 0,-0.6803 0.03654,-1.36011 0.10945,-2.03648 -6.9524,-7.44957 -6.79033,-19.05724 0.36735,-26.30979 z"
     stroke-miterlimit="10"
     font-weight="none"
     font-size="none"
     text-anchor="none"
     style="font-family:none;mix-blend-mode:normal;fill:none;fill-rule:nonzero;stroke:#e600ff;stroke-width:0.1;stroke-linecap:butt;stroke-linejoin:miter;stroke-miterlimit:10;stroke-dasharray:none;stroke-dashoffset:0"
     id="path64"
     inkscape:connector-curvature="0" />
  <path
     d="m 29.422811,24.956812 c 0.63917,-2.01169 2.31912,-5.22345 3.43199,-6.74364 1.04065,-1.42155 3.06636,-3.51201 4.26226,-4.49652 1.10252,-0.90764 2.99224,-2.16882 4.12046,-2.79559 1.05454,-0.58585 2.7237,-1.3597403 3.7775,-1.7730003 1.00419,-0.3938 2.49932,-0.88708 3.50406,-1.16703 0.97311,-0.27114 2.35303,-0.59149 3.33069,-0.77919 1.89739,-0.36427 4.49316,-0.67391 6.41262,-0.7844 1.89975,-0.10935 4.42057,-0.10505 6.31991,0.011 1.92032,0.11737 4.52099,0.43766 6.41893,0.81074 0.97879,0.1924 2.36409,0.52104 3.33851,0.79818 1.00693,0.28638 2.51056,0.79246 3.5172,1.19518 1.05752,0.42308 2.73878,1.2186303 3.79668,1.8190603 1.13306,0.6431 3.03549,1.94232 4.13918,2.87454 8.04883,0.79403 14.827149,6.35761 17.175149,14.09719 2.348,7.73957 -0.19658,16.13149 -6.447519,21.26372 0.08053,1.38253 -0.02222,4.09142 -0.3119,5.7731 -0.31865,1.84994 -1.56029,5.58777 -2.76085,7.65768 -1.35855,6.85455 -6.19617,12.50299 -12.7604,14.89913 -6.56423,2.39614 -13.90307,1.19248 -19.35799,-3.17495 -6.00262,4.80595 -14.22902,5.74492 -21.16025,2.41526 -6.93123,-3.32966 -11.33975,-10.33824 -11.33975,-18.02776 0,-1.66667 0,-3.33333 0,-5 0,-0.56427 0.02388,-1.12828 0.07157,-1.69052 -6.95791,-7.80426 -6.73044,-19.65081 0.52194,-27.18222 z"
     stroke-miterlimit="10"
     font-weight="none"
     font-size="none"
     text-anchor="none"
     style="font-family:none;mix-blend-mode:normal;fill:none;fill-rule:nonzero;stroke:#ff00f0;stroke-width:0.1;stroke-linecap:butt;stroke-linejoin:miter;stroke-miterlimit:10;stroke-dasharray:none;stroke-dashoffset:0"
     id="path66"
     inkscape:connector-curvature="0" />
</svg>
