<svg version="1.1" baseProfile="full" viewBox=" 15.000000000000007 24.99953211488725 95 94.99999999999999 " viewPort=" 15.000000000000007 24.99953211488725 95 94.99999999999999 " xmlns="http://www.w3.org/2000/svg"> 
<path d="M50,50l-5,5l10,10l10,-10l-5,-5l5,-5l10,10l-20,20l-20,-20l10,-10z" fill="none" fill-rule="nonzero" stroke="#000000" stroke-width="0.1" stroke-linecap="butt" stroke-linejoin="miter" stroke-miterlimit="10" stroke-dasharray="" stroke-dashoffset="0" font-family="none" font-weight="none" font-size="none" text-anchor="none" style="mix-blend-mode: normal"></path>
<path d="M68.98383,54.64068c0.11977,0.11977 0.23954,0.23954 0.35932,0.35932c-0.11976,0.11976 -0.23952,0.23952 -0.35928,0.35928c0.02139,-0.23718 0.0217,-0.47761 -0.00004,-0.7186zM55,69.34315c-0.11974,-0.11974 -0.23947,-0.23947 -0.35921,-0.35921c0.23895,0.02142 0.47946,0.02142 0.71842,0c-0.11974,0.11974 -0.23947,0.23947 -0.35921,0.35921zM40.65685,55c0.11977,-0.11977 0.23954,-0.23954 0.35932,-0.35932c-0.02174,0.24099 -0.02142,0.48142 -0.00004,0.7186c-0.11976,-0.11976 -0.23952,-0.23952 -0.35928,-0.35928z" fill="none" fill-rule="nonzero" stroke="#ff3500" stroke-width="0.1" stroke-linecap="butt" stroke-linejoin="miter" stroke-miterlimit="10" stroke-dasharray="" stroke-dashoffset="0" font-family="none" font-weight="none" font-size="none" text-anchor="none" style="mix-blend-mode: normal"></path>
<path d="M45.75736,50c-0.95956,0.95956 -1.91912,1.91912 -2.87868,2.87868c-1.17157,1.17157 -1.17157,3.07107 0,4.24264c3.33333,3.33333 6.66667,6.66667 10,10c1.17157,1.17157 3.07107,1.17157 4.24264,0c3.33333,-3.33333 6.66667,-6.66667 10,-10c1.17157,-1.17157 1.17157,-3.07107 0,-4.24264c-0.95956,-0.95956 -1.91912,-1.91912 -2.87868,-2.87868c0.25245,-0.25245 0.50491,-0.50491 0.75736,-0.75736c1.91912,1.91912 3.83824,3.83824 5.75736,5.75736c-5.25245,5.25245 -10.50491,10.50491 -15.75736,15.75736c-5.25245,-5.25245 -10.50491,-10.50491 -15.75736,-15.75736c1.91912,-1.91912 3.83824,-3.83824 5.75736,-5.75736c0.25245,0.25245 0.50491,0.50491 0.75736,0.75736z" fill="none" fill-rule="nonzero" stroke="#ff6a00" stroke-width="0.1" stroke-linecap="butt" stroke-linejoin="miter" stroke-miterlimit="10" stroke-dasharray="" stroke-dashoffset="0" font-family="none" font-weight="none" font-size="none" text-anchor="none" style="mix-blend-mode: normal"></path>
<path d="M47.17157,50c-1.19526,1.19526 -2.39052,2.39052 -3.58579,3.58579c-0.78105,0.78105 -0.78105,2.04738 0,2.82843c3.33333,3.33333 6.66667,6.66667 10,10c0.78105,0.78105 2.04738,0.78105 2.82843,0c3.33333,-3.33333 6.66667,-6.66667 10,-10c0.78105,-0.78105 0.78105,-2.04738 0,-2.82843c-1.19526,-1.19526 -2.39052,-2.39052 -3.58579,-3.58579c0.72386,-0.72386 1.44772,-1.44772 2.17157,-2.17157c2.39052,2.39052 4.78105,4.78105 7.17157,7.17157c-5.72386,5.72386 -11.44772,11.44772 -17.17157,17.17157c-5.72386,-5.72386 -11.44772,-11.44772 -17.17157,-17.17157c2.39052,-2.39052 4.78105,-4.78105 7.17157,-7.17157c0.72386,0.72386 1.44772,1.44772 2.17157,2.17157z" fill="none" fill-rule="nonzero" stroke="#ffa000" stroke-width="0.1" stroke-linecap="butt" stroke-linejoin="miter" stroke-miterlimit="10" stroke-dasharray="" stroke-dashoffset="0" font-family="none" font-weight="none" font-size="none" text-anchor="none" style="mix-blend-mode: normal"></path>
<path d="M48.58579,50c-1.43096,1.43096 -2.86193,2.86193 -4.29289,4.29289c-0.39052,0.39052 -0.39052,1.02369 0,1.41421c3.33333,3.33333 6.66667,6.66667 10,10c0.39052,0.39052 1.02369,0.39052 1.41421,0c3.33333,-3.33333 6.66667,-6.66667 10,-10c0.39052,-0.39052 0.39052,-1.02369 0,-1.41421c-1.43096,-1.43096 -2.86193,-2.86193 -4.29289,-4.29289c1.19526,-1.19526 2.39052,-2.39052 3.58579,-3.58579c2.86193,2.86193 5.72386,5.72386 8.58579,8.58579c-6.19526,6.19526 -12.39052,12.39052 -18.58579,18.58579c-6.19526,-6.19526 -12.39052,-12.39052 -18.58579,-18.58579c2.86193,-2.86193 5.72386,-5.72386 8.58579,-8.58579c1.19526,1.19526 2.39052,2.39052 3.58579,3.58579z" fill="none" fill-rule="nonzero" stroke="#ffd500" stroke-width="0.1" stroke-linecap="butt" stroke-linejoin="miter" stroke-miterlimit="10" stroke-dasharray="" stroke-dashoffset="0" font-family="none" font-weight="none" font-size="none" text-anchor="none" style="mix-blend-mode: normal"></path>
<path d="M50.70711,50.70711c-1.43096,1.43096 -2.86193,2.86193 -4.29289,4.29289c2.86193,2.86193 5.72386,5.72386 8.58579,8.58579c2.86193,-2.86193 5.72386,-5.72386 8.58579,-8.58579c-1.43096,-1.43096 -2.86193,-2.86193 -4.29289,-4.29289c-0.39052,-0.39052 -0.39052,-1.02369 0,-1.41421c1.66667,-1.66667 3.33333,-3.33333 5,-5c0.39052,-0.39052 1.02369,-0.39052 1.41421,0c3.33333,3.33333 6.66667,6.66667 10,10c0.39052,0.39052 0.39052,1.02369 0,1.41421c-6.66667,6.66667 -13.33333,13.33333 -20,20c-0.39052,0.39052 -1.02369,0.39052 -1.41421,0c-6.66667,-6.66667 -13.33333,-13.33333 -20,-20c-0.39052,-0.39052 -0.39052,-1.02369 0,-1.41421c3.33333,-3.33333 6.66667,-6.66667 10,-10c0.39052,-0.39052 1.02369,-0.39052 1.41421,0c1.66667,1.66667 3.33333,3.33333 5,5c0.39052,0.39052 0.39052,1.02369 0,1.41421z" fill="none" fill-rule="nonzero" stroke="#f4ff00" stroke-width="0.1" stroke-linecap="butt" stroke-linejoin="miter" stroke-miterlimit="10" stroke-dasharray="" stroke-dashoffset="0" font-family="none" font-weight="none" font-size="none" text-anchor="none" style="mix-blend-mode: normal"></path>
<path d="M51.41421,51.41421c-1.19526,1.19526 -2.39052,2.39052 -3.58579,3.58579c2.39052,2.39052 4.78105,4.78105 7.17157,7.17157c2.39052,-2.39052 4.78105,-4.78105 7.17157,-7.17157c-1.19526,-1.19526 -2.39052,-2.39052 -3.58579,-3.58579c-0.78105,-0.78105 -0.78105,-2.04738 0,-2.82843c1.66667,-1.66667 3.33333,-3.33333 5,-5c0.78105,-0.78105 2.04738,-0.78105 2.82843,0c3.33333,3.33333 6.66667,6.66667 10,10c0.78105,0.78105 0.78105,2.04738 0,2.82843c-6.66667,6.66667 -13.33333,13.33333 -20,20c-0.78105,0.78105 -2.04738,0.78105 -2.82843,0c-6.66667,-6.66667 -13.33333,-13.33333 -20,-20c-0.78105,-0.78105 -0.78105,-2.04738 0,-2.82843c3.33333,-3.33333 6.66667,-6.66667 10,-10c0.78105,-0.78105 2.04738,-0.78105 2.82843,0c1.66667,1.66667 3.33333,3.33333 5,5c0.78105,0.78105 0.78105,2.04738 0,2.82843z" fill="none" fill-rule="nonzero" stroke="#bfff00" stroke-width="0.1" stroke-linecap="butt" stroke-linejoin="miter" stroke-miterlimit="10" stroke-dasharray="" stroke-dashoffset="0" font-family="none" font-weight="none" font-size="none" text-anchor="none" style="mix-blend-mode: normal"></path>
<path d="M52.12132,52.12132c-0.95956,0.95956 -1.91912,1.91912 -2.87868,2.87868c1.91912,1.91912 3.83824,3.83824 5.75736,5.75736c1.91912,-1.91912 3.83824,-3.83824 5.75736,-5.75736c-0.95956,-0.95956 -1.91912,-1.91912 -2.87868,-2.87868c-1.17157,-1.17157 -1.17157,-3.07107 0,-4.24264c1.66667,-1.66667 3.33333,-3.33333 5,-5c1.17157,-1.17157 3.07107,-1.17157 4.24264,0c3.33333,3.33333 6.66667,6.66667 10,10c1.17157,1.17157 1.17157,3.07107 0,4.24264c-6.66667,6.66667 -13.33333,13.33333 -20,20c-1.17157,1.17157 -3.07107,1.17157 -4.24264,0c-6.66667,-6.66667 -13.33333,-13.33333 -20,-20c-1.17157,-1.17157 -1.17157,-3.07107 0,-4.24264c3.33333,-3.33333 6.66667,-6.66667 10,-10c1.17157,-1.17157 3.07107,-1.17157 4.24264,0c1.66667,1.66667 3.33333,3.33333 5,5c1.17157,1.17157 1.17157,3.07107 0,4.24264z" fill="none" fill-rule="nonzero" stroke="#89ff00" stroke-width="0.1" stroke-linecap="butt" stroke-linejoin="miter" stroke-miterlimit="10" stroke-dasharray="" stroke-dashoffset="0" font-family="none" font-weight="none" font-size="none" text-anchor="none" style="mix-blend-mode: normal"></path>
<path d="M52.82843,52.82843c-0.72386,0.72386 -1.44772,1.44772 -2.17157,2.17157c1.44772,1.44772 2.89543,2.89543 4.34315,4.34315c1.44772,-1.44772 2.89543,-2.89543 4.34315,-4.34315c-0.72386,-0.72386 -1.44772,-1.44772 -2.17157,-2.17157c-1.5621,-1.5621 -1.5621,-4.09476 0,-5.65685c1.66667,-1.66667 3.33333,-3.33333 5,-5c1.5621,-1.5621 4.09476,-1.5621 5.65685,0c3.33333,3.33333 6.66667,6.66667 10,10c1.5621,1.5621 1.5621,4.09476 0,5.65685c-6.66667,6.66667 -13.33333,13.33333 -20,20c-1.5621,1.5621 -4.09476,1.5621 -5.65685,0c-6.66667,-6.66667 -13.33333,-13.33333 -20,-20c-1.5621,-1.5621 -1.5621,-4.09476 0,-5.65685c3.33333,-3.33333 6.66667,-6.66667 10,-10c1.5621,-1.5621 4.09476,-1.5621 5.65685,0c1.66667,1.66667 3.33333,3.33333 5,5c1.5621,1.5621 1.5621,4.09476 0,5.65685z" fill="none" fill-rule="nonzero" stroke="#54ff00" stroke-width="0.1" stroke-linecap="butt" stroke-linejoin="miter" stroke-miterlimit="10" stroke-dasharray="" stroke-dashoffset="0" font-family="none" font-weight="none" font-size="none" text-anchor="none" style="mix-blend-mode: normal"></path>
<path d="M53.53553,53.53553c-0.48816,0.48816 -0.97631,0.97631 -1.46447,1.46447c0.97631,0.97631 1.95262,1.95262 2.92893,2.92893c0.97631,-0.97631 1.95262,-1.95262 2.92893,-2.92893c-0.48816,-0.48816 -0.97631,-0.97631 -1.46447,-1.46447c-1.95262,-1.95262 -1.95262,-5.11845 0,-7.07107c1.66667,-1.66667 3.33333,-3.33333 5,-5c1.95262,-1.95262 5.11845,-1.95262 7.07107,0c3.33333,3.33333 6.66667,6.66667 10,10c1.95262,1.95262 1.95262,5.11845 0,7.07107c-6.66667,6.66667 -13.33333,13.33333 -20,20c-1.95262,1.95262 -5.11845,1.95262 -7.07107,0c-6.66667,-6.66667 -13.33333,-13.33333 -20,-20c-1.95262,-1.95262 -1.95262,-5.11845 0,-7.07107c3.33333,-3.33333 6.66667,-6.66667 10,-10c1.95262,-1.95262 5.11845,-1.95262 7.07107,0c1.66667,1.66667 3.33333,3.33333 5,5c1.95262,1.95262 1.95262,5.11845 0,7.07107z" fill="none" fill-rule="nonzero" stroke="#1fff00" stroke-width="0.1" stroke-linecap="butt" stroke-linejoin="miter" stroke-miterlimit="10" stroke-dasharray="" stroke-dashoffset="0" font-family="none" font-weight="none" font-size="none" text-anchor="none" style="mix-blend-mode: normal"></path>
<path d="M54.24264,54.24264c-0.25245,0.25245 -0.50491,0.50491 -0.75736,0.75736c0.50491,0.50491 1.00981,1.00981 1.51472,1.51472c0.50491,-0.50491 1.00981,-1.00981 1.51472,-1.51472c-0.25245,-0.25245 -0.50491,-0.50491 -0.75736,-0.75736c-0.2878,-0.2878 -0.54026,-0.59757 -0.75736,-0.92391c-0.2171,0.32634 -0.46956,0.6361 -0.75736,0.92391zM55.75736,45.75736c1.66667,-1.66667 3.33333,-3.33333 5,-5c2.34315,-2.34315 6.14214,-2.34315 8.48528,0c3.33333,3.33333 6.66667,6.66667 10,10c2.34315,2.34315 2.34315,6.14214 0,8.48528c-6.66667,6.66667 -13.33333,13.33333 -20,20c-2.34315,2.34315 -6.14214,2.34315 -8.48528,0c-6.66667,-6.66667 -13.33333,-13.33333 -20,-20c-2.34315,-2.34315 -2.34315,-6.14214 0,-8.48528c3.33333,-3.33333 6.66667,-6.66667 10,-10c2.34315,-2.34315 6.14214,-2.34315 8.48528,0c1.66667,1.66667 3.33333,3.33333 5,5c0.2878,0.2878 0.54026,0.59757 0.75736,0.92391c0.2171,-0.32634 0.46956,-0.6361 0.75736,-0.92391z" fill="none" fill-rule="nonzero" stroke="#00ff16" stroke-width="0.1" stroke-linecap="butt" stroke-linejoin="miter" stroke-miterlimit="10" stroke-dasharray="" stroke-dashoffset="0" font-family="none" font-weight="none" font-size="none" text-anchor="none" style="mix-blend-mode: normal"></path>
<path d="M54.94975,54.94975c-0.01675,0.01675 -0.0335,0.0335 -0.05025,0.05025c0.0335,0.0335 0.067,0.067 0.10051,0.10051c0.0335,-0.0335 0.067,-0.067 0.10051,-0.10051c-0.01675,-0.01675 -0.0335,-0.0335 -0.05025,-0.05025c-0.01685,-0.01685 -0.03361,-0.03377 -0.05025,-0.05076c-0.01665,0.01698 -0.0334,0.0339 -0.05025,0.05076zM55.05025,45.05025c1.66667,-1.66667 3.33333,-3.33333 5,-5c2.73367,-2.73367 7.16582,-2.73367 9.89949,0c3.33333,3.33333 6.66667,6.66667 10,10c2.73367,2.73367 2.73367,7.16582 0,9.89949c-6.66667,6.66667 -13.33333,13.33333 -20,20c-2.73367,2.73367 -7.16582,2.73367 -9.89949,0c-6.66667,-6.66667 -13.33333,-13.33333 -20,-20c-2.73367,-2.73367 -2.73367,-7.16582 0,-9.89949c3.33333,-3.33333 6.66667,-6.66667 10,-10c2.73367,-2.73367 7.16582,-2.73367 9.89949,0c1.66667,1.66667 3.33333,3.33333 5,5c0.01685,0.01685 0.03361,0.03377 0.05025,0.05076c0.01665,-0.01698 0.0334,-0.0339 0.05025,-0.05076z" fill="none" fill-rule="nonzero" stroke="#00ff4b" stroke-width="0.1" stroke-linecap="butt" stroke-linejoin="miter" stroke-miterlimit="10" stroke-dasharray="" stroke-dashoffset="0" font-family="none" font-weight="none" font-size="none" text-anchor="none" style="mix-blend-mode: normal"></path>
<path d="M59.34315,39.34315c3.12419,-3.12419 8.18951,-3.12419 11.31371,0c3.33333,3.33333 6.66667,6.66667 10,10c3.12419,3.12419 3.12419,8.18951 0,11.31371c-6.66667,6.66667 -13.33333,13.33333 -20,20c-3.12419,3.12419 -8.18951,3.12419 -11.31371,0c-6.66667,-6.66667 -13.33333,-13.33333 -20,-20c-3.12419,-3.12419 -3.12419,-8.18951 0,-11.31371c3.33333,-3.33333 6.66667,-6.66667 10,-10c3.12419,-3.12419 8.18951,-3.12419 11.31371,0c1.44772,1.44772 2.89543,2.89543 4.34315,4.34315c1.44772,-1.44772 2.89543,-2.89543 4.34315,-4.34315z" fill="none" fill-rule="nonzero" stroke="#00ff81" stroke-width="0.1" stroke-linecap="butt" stroke-linejoin="miter" stroke-miterlimit="10" stroke-dasharray="" stroke-dashoffset="0" font-family="none" font-weight="none" font-size="none" text-anchor="none" style="mix-blend-mode: normal"></path>
<path d="M58.63604,38.63604c3.51472,-3.51472 9.2132,-3.51472 12.72792,0c3.33333,3.33333 6.66667,6.66667 10,10c3.51472,3.51472 3.51472,9.2132 0,12.72792c-6.66667,6.66667 -13.33333,13.33333 -20,20c-3.51472,3.51472 -9.2132,3.51472 -12.72792,0c-6.66667,-6.66667 -13.33333,-13.33333 -20,-20c-3.51472,-3.51472 -3.51472,-9.2132 0,-12.72792c3.33333,-3.33333 6.66667,-6.66667 10,-10c3.51472,-3.51472 9.2132,-3.51472 12.72792,0c1.21201,1.21201 2.42403,2.42403 3.63604,3.63604c1.21201,-1.21201 2.42403,-2.42403 3.63604,-3.63604z" fill="none" fill-rule="nonzero" stroke="#00ffb6" stroke-width="0.1" stroke-linecap="butt" stroke-linejoin="miter" stroke-miterlimit="10" stroke-dasharray="" stroke-dashoffset="0" font-family="none" font-weight="none" font-size="none" text-anchor="none" style="mix-blend-mode: normal"></path>
<path d="M57.92893,37.92893c3.90524,-3.90524 10.23689,-3.90524 14.14214,0c3.33333,3.33333 6.66667,6.66667 10,10c3.90524,3.90524 3.90524,10.23689 0,14.14214c-6.66667,6.66667 -13.33333,13.33333 -20,20c-3.90524,3.90524 -10.23689,3.90524 -14.14214,0c-6.66667,-6.66667 -13.33333,-13.33333 -20,-20c-3.90524,-3.90524 -3.90524,-10.23689 0,-14.14214c3.33333,-3.33333 6.66667,-6.66667 10,-10c3.90524,-3.90524 10.23689,-3.90524 14.14214,0c0.97631,0.97631 1.95262,1.95262 2.92893,2.92893c0.97631,-0.97631 1.95262,-1.95262 2.92893,-2.92893z" fill="none" fill-rule="nonzero" stroke="#00ffeb" stroke-width="0.1" stroke-linecap="butt" stroke-linejoin="miter" stroke-miterlimit="10" stroke-dasharray="" stroke-dashoffset="0" font-family="none" font-weight="none" font-size="none" text-anchor="none" style="mix-blend-mode: normal"></path>
<path d="M55,39.44365c0.74061,-0.74061 1.48122,-1.48122 2.22183,-2.22183c4.29577,-4.29577 11.26058,-4.29577 15.55635,0c3.33333,3.33333 6.66667,6.66667 10,10c4.29577,4.29577 4.29577,11.26058 0,15.55635c-6.66667,6.66667 -13.33333,13.33333 -20,20c-4.29577,4.29577 -11.26058,4.29577 -15.55635,0c-6.66667,-6.66667 -13.33333,-13.33333 -20,-20c-4.29577,-4.29577 -4.29577,-11.26058 0,-15.55635c3.33333,-3.33333 6.66667,-6.66667 10,-10c4.29577,-4.29577 11.26058,-4.29577 15.55635,0c0.74061,0.74061 1.48122,1.48122 2.22183,2.22183z" fill="none" fill-rule="nonzero" stroke="#00deff" stroke-width="0.1" stroke-linecap="butt" stroke-linejoin="miter" stroke-miterlimit="10" stroke-dasharray="" stroke-dashoffset="0" font-family="none" font-weight="none" font-size="none" text-anchor="none" style="mix-blend-mode: normal"></path>
<path d="M55,38.02944c0.50491,-0.50491 1.00981,-1.00981 1.51472,-1.51472c4.68629,-4.68629 12.28427,-4.68629 16.97056,0c3.33333,3.33333 6.66667,6.66667 10,10c4.68629,4.68629 4.68629,12.28427 0,16.97056c-6.66667,6.66667 -13.33333,13.33333 -20,20c-4.68629,4.68629 -12.28427,4.68629 -16.97056,0c-6.66667,-6.66667 -13.33333,-13.33333 -20,-20c-4.68629,-4.68629 -4.68629,-12.28427 0,-16.97056c3.33333,-3.33333 6.66667,-6.66667 10,-10c4.68629,-4.68629 12.28427,-4.68629 16.97056,0c0.50491,0.50491 1.00981,1.00981 1.51472,1.51472z" fill="none" fill-rule="nonzero" stroke="#00a9ff" stroke-width="0.1" stroke-linecap="butt" stroke-linejoin="miter" stroke-miterlimit="10" stroke-dasharray="" stroke-dashoffset="0" font-family="none" font-weight="none" font-size="none" text-anchor="none" style="mix-blend-mode: normal"></path>
<path d="M55.80761,35.80761c5.07682,-5.07682 13.30796,-5.07682 18.38478,0c3.33333,3.33333 6.66667,6.66667 10,10c5.07682,5.07682 5.07682,13.30796 0,18.38478c-6.66667,6.66667 -13.33333,13.33333 -20,20c-5.07682,5.07682 -13.30796,5.07682 -18.38478,0c-6.66667,-6.66667 -13.33333,-13.33333 -20,-20c-5.07682,-5.07682 -5.07682,-13.30796 0,-18.38478c3.33333,-3.33333 6.66667,-6.66667 10,-10c5.07682,-5.07682 13.30796,-5.07682 18.38478,0c0.2692,0.2692 0.53841,0.53841 0.80761,0.80761c0.2692,-0.2692 0.53841,-0.53841 0.80761,-0.80761z" fill="none" fill-rule="nonzero" stroke="#0073ff" stroke-width="0.1" stroke-linecap="butt" stroke-linejoin="miter" stroke-miterlimit="10" stroke-dasharray="" stroke-dashoffset="0" font-family="none" font-weight="none" font-size="none" text-anchor="none" style="mix-blend-mode: normal"></path>
<path d="M55.10051,35.10051c5.46734,-5.46734 14.33165,-5.46734 19.79899,0c3.33333,3.33333 6.66667,6.66667 10,10c5.46734,5.46734 5.46734,14.33165 0,19.79899c-6.66667,6.66667 -13.33333,13.33333 -20,20c-5.46734,5.46734 -14.33165,5.46734 -19.79899,0c-6.66667,-6.66667 -13.33333,-13.33333 -20,-20c-5.46734,-5.46734 -5.46734,-14.33165 0,-19.79899c3.33333,-3.33333 6.66667,-6.66667 10,-10c5.46734,-5.46734 14.33165,-5.46734 19.79899,0c0.0335,0.0335 0.067,0.067 0.10051,0.10051c0.0335,-0.0335 0.067,-0.067 0.10051,-0.10051z" fill="none" fill-rule="nonzero" stroke="#003eff" stroke-width="0.1" stroke-linecap="butt" stroke-linejoin="miter" stroke-miterlimit="10" stroke-dasharray="" stroke-dashoffset="0" font-family="none" font-weight="none" font-size="none" text-anchor="none" style="mix-blend-mode: normal"></path>
<path d="M75.6066,34.3934c3.33333,3.33333 6.66667,6.66667 10,10c5.85786,5.85786 5.85786,15.35534 0,21.2132c-6.66667,6.66667 -13.33333,13.33333 -20,20c-5.85786,5.85786 -15.35534,5.85786 -21.2132,0c-6.66667,-6.66667 -13.33333,-13.33333 -20,-20c-5.85786,-5.85786 -5.85786,-15.35534 0,-21.2132c3.33333,-3.33333 6.66667,-6.66667 10,-10c5.62858,-5.62858 14.67356,-5.88041 20.6066,-0.57374c5.93304,-5.30667 14.97803,-5.05484 20.6066,0.57374z" fill="none" fill-rule="nonzero" stroke="#0009ff" stroke-width="0.1" stroke-linecap="butt" stroke-linejoin="miter" stroke-miterlimit="10" stroke-dasharray="" stroke-dashoffset="0" font-family="none" font-weight="none" font-size="none" text-anchor="none" style="mix-blend-mode: normal"></path>
<path d="M76.31371,33.68629c3.33333,3.33333 6.66667,6.66667 10,10c6.24839,6.24839 6.24839,16.37903 0,22.62742c-6.66667,6.66667 -13.33333,13.33333 -20,20c-6.24839,6.24839 -16.37903,6.24839 -22.62742,0c-6.66667,-6.66667 -13.33333,-13.33333 -20,-20c-6.24839,-6.24839 -6.24839,-16.37903 0,-22.62742c3.33333,-3.33333 6.66667,-6.66667 10,-10c5.76658,-5.76658 14.94758,-6.27327 21.31371,-1.17629c6.36613,-5.09698 15.54713,-4.59029 21.31371,1.17629z" fill="none" fill-rule="nonzero" stroke="#2c00ff" stroke-width="0.1" stroke-linecap="butt" stroke-linejoin="miter" stroke-miterlimit="10" stroke-dasharray="" stroke-dashoffset="0" font-family="none" font-weight="none" font-size="none" text-anchor="none" style="mix-blend-mode: normal"></path>
<path d="M77.02082,32.97918c3.33333,3.33333 6.66667,6.66667 10,10c6.63891,6.63891 6.63891,17.40272 0,24.04163c-6.66667,6.66667 -13.33333,13.33333 -20,20c-6.63891,6.63891 -17.40272,6.63891 -24.04163,0c-6.66667,-6.66667 -13.33333,-13.33333 -20,-20c-6.63891,-6.63891 -6.63891,-17.40272 0,-24.04163c3.33333,-3.33333 6.66667,-6.66667 10,-10c5.91548,-5.91548 15.25551,-6.64795 22.02082,-1.72691c6.7653,-4.92103 16.10533,-4.18857 22.02082,1.72691z" fill="none" fill-rule="nonzero" stroke="#6200ff" stroke-width="0.1" stroke-linecap="butt" stroke-linejoin="miter" stroke-miterlimit="10" stroke-dasharray="" stroke-dashoffset="0" font-family="none" font-weight="none" font-size="none" text-anchor="none" style="mix-blend-mode: normal"></path>
<path d="M77.72792,32.27208c3.33333,3.33333 6.66667,6.66667 10,10c7.02944,7.02944 7.02944,18.42641 0,25.45584c-6.66667,6.66667 -13.33333,13.33333 -20,20c-7.02944,7.02944 -18.42641,7.02944 -25.45584,0c-6.66667,-6.66667 -13.33333,-13.33333 -20,-20c-7.02944,-7.02944 -7.02944,-18.42641 0,-25.45584c3.33333,-3.33333 6.66667,-6.66667 10,-10c6.07208,-6.07208 15.58783,-7.00938 22.72792,-2.23871c7.14009,-4.77068 16.65584,-3.83337 22.72792,2.23871z" fill="none" fill-rule="nonzero" stroke="#9700ff" stroke-width="0.1" stroke-linecap="butt" stroke-linejoin="miter" stroke-miterlimit="10" stroke-dasharray="" stroke-dashoffset="0" font-family="none" font-weight="none" font-size="none" text-anchor="none" style="mix-blend-mode: normal"></path>
<path d="M78.43503,31.56497c3.33333,3.33333 6.66667,6.66667 10,10c7.41996,7.41996 7.41996,19.4501 0,26.87006c-6.66667,6.66667 -13.33333,13.33333 -20,20c-7.41996,7.41996 -19.4501,7.41996 -26.87006,0c-6.66667,-6.66667 -13.33333,-13.33333 -20,-20c-7.41996,-7.41996 -7.41996,-19.4501 0,-26.87006c3.33333,-3.33333 6.66667,-6.66667 10,-10c6.23432,-6.23432 15.93832,-7.36081 23.43503,-2.72047c7.49671,-4.64034 17.20071,-3.51385 23.43503,2.72047z" fill="none" fill-rule="nonzero" stroke="#cc00ff" stroke-width="0.1" stroke-linecap="butt" stroke-linejoin="miter" stroke-miterlimit="10" stroke-dasharray="" stroke-dashoffset="0" font-family="none" font-weight="none" font-size="none" text-anchor="none" style="mix-blend-mode: normal"></path>
<path d="M79.14214,30.85786c3.33333,3.33333 6.66667,6.66667 10,10c7.81049,7.81049 7.81049,20.47379 0,28.28427c-6.66667,6.66667 -13.33333,13.33333 -20,20c-7.81049,7.81049 -20.47379,7.81049 -28.28427,0c-6.66667,-6.66667 -13.33333,-13.33333 -20,-20c-7.81049,-7.81049 -7.81049,-20.47379 0,-28.28427c3.33333,-3.33333 6.66667,-6.66667 10,-10c6.40081,-6.40081 16.30278,-7.70443 24.14214,-3.17837c7.83936,-4.52606 17.74132,-3.22244 24.14214,3.17837z" fill="none" fill-rule="nonzero" stroke="#ff00fd" stroke-width="0.1" stroke-linecap="butt" stroke-linejoin="miter" stroke-miterlimit="10" stroke-dasharray="" stroke-dashoffset="0" font-family="none" font-weight="none" font-size="none" text-anchor="none" style="mix-blend-mode: normal"></path>
</svg>