<?xml version="1.0" encoding="UTF-8" standalone="no"?>
<svg
   xmlns:dc="http://purl.org/dc/elements/1.1/"
   xmlns:cc="http://creativecommons.org/ns#"
   xmlns:rdf="http://www.w3.org/1999/02/22-rdf-syntax-ns#"
   xmlns:svg="http://www.w3.org/2000/svg"
   xmlns="http://www.w3.org/2000/svg"
   xmlns:sodipodi="http://sodipodi.sourceforge.net/DTD/sodipodi-0.dtd"
   xmlns:inkscape="http://www.inkscape.org/namespaces/inkscape"
   version="1.1"
   viewBox="-50 -50 250.10001 220.10001"
   viewPort=" -50 -50 200 170 "
   id="svg222"
   sodipodi:docname="example4-100.svg"
   width="250.10001"
   height="220.10001"
   inkscape:version="0.92.3 (2405546, 2018-03-11)">
  <metadata
     id="metadata228">
    <rdf:RDF>
      <cc:Work
         rdf:about="">
        <dc:format>image/svg+xml</dc:format>
        <dc:type
           rdf:resource="http://purl.org/dc/dcmitype/StillImage" />
        <dc:title></dc:title>
      </cc:Work>
    </rdf:RDF>
  </metadata>
  <defs
     id="defs226" />
  <sodipodi:namedview
     pagecolor="#ffffff"
     bordercolor="#666666"
     borderopacity="1"
     objecttolerance="10"
     gridtolerance="10"
     guidetolerance="10"
     inkscape:pageopacity="0"
     inkscape:pageshadow="2"
     inkscape:window-width="1920"
     inkscape:window-height="1137"
     id="namedview224"
     showgrid="false"
     fit-margin-top="0"
     fit-margin-left="0"
     fit-margin-right="0"
     fit-margin-bottom="0"
     inkscape:zoom="5.5366728"
     inkscape:cx="100.05"
     inkscape:cy="135.05"
     inkscape:window-x="1912"
     inkscape:window-y="-8"
     inkscape:window-maximized="1"
     inkscape:current-layer="svg222" />
  <path
     d="m 50.05,50.05 h 20 v 15 h 10 v -15 h 20 v 20 h -50 z m 40,5 v 5 h 5 v -5 z m 0,8 v 5 h 5 v -5 z"
     stroke-miterlimit="10"
     font-weight="none"
     font-size="none"
     text-anchor="none"
     style="font-family:none;mix-blend-mode:normal;fill:none;fill-rule:nonzero;stroke:#000000;stroke-width:0.1;stroke-linecap:butt;stroke-linejoin:miter;stroke-miterlimit:10;stroke-dasharray:none;stroke-dashoffset:0"
     id="path2"
     inkscape:connector-curvature="0" />
  <path
     d="m 59.05,61.05 c 0.66667,0 1.33333,0 2,0 0,-0.66667 0,-1.33333 0,-2 -0.66667,0 -1.33333,0 -2,0 0,0.66667 0,1.33333 0,2 z"
     stroke-miterlimit="10"
     font-weight="none"
     font-size="none"
     text-anchor="none"
     style="font-family:none;mix-blend-mode:normal;fill:none;fill-rule:nonzero;stroke:#ff0c00;stroke-width:0.1;stroke-linecap:butt;stroke-linejoin:miter;stroke-miterlimit:10;stroke-dasharray:none;stroke-dashoffset:0"
     id="path4"
     inkscape:connector-curvature="0" />
  <path
     d="m 58.05,62.05 c 1.33333,0 2.66667,0 4,0 0,-1.33333 0,-2.66667 0,-4 -1.33333,0 -2.66667,0 -4,0 0,1.33333 0,2.66667 0,4 z"
     stroke-miterlimit="10"
     font-weight="none"
     font-size="none"
     text-anchor="none"
     style="font-family:none;mix-blend-mode:normal;fill:none;fill-rule:nonzero;stroke:#ff1800;stroke-width:0.1;stroke-linecap:butt;stroke-linejoin:miter;stroke-miterlimit:10;stroke-dasharray:none;stroke-dashoffset:0"
     id="path6"
     inkscape:connector-curvature="0" />
  <path
     d="m 57.05,63.05 c 2,0 4,0 6,0 0,-2 0,-4 0,-6 -2,0 -4,0 -6,0 0,2 0,4 0,6 z"
     stroke-miterlimit="10"
     font-weight="none"
     font-size="none"
     text-anchor="none"
     style="font-family:none;mix-blend-mode:normal;fill:none;fill-rule:nonzero;stroke:#ff2400;stroke-width:0.1;stroke-linecap:butt;stroke-linejoin:miter;stroke-miterlimit:10;stroke-dasharray:none;stroke-dashoffset:0"
     id="path8"
     inkscape:connector-curvature="0" />
  <path
     d="m 56.05,64.05 c 2.66667,0 5.33333,0 8,0 0,-2.66667 0,-5.33333 0,-8 -2.66667,0 -5.33333,0 -8,0 0,2.66667 0,5.33333 0,8 z"
     stroke-miterlimit="10"
     font-weight="none"
     font-size="none"
     text-anchor="none"
     style="font-family:none;mix-blend-mode:normal;fill:none;fill-rule:nonzero;stroke:#ff3000;stroke-width:0.1;stroke-linecap:butt;stroke-linejoin:miter;stroke-miterlimit:10;stroke-dasharray:none;stroke-dashoffset:0"
     id="path10"
     inkscape:connector-curvature="0" />
  <path
     d="m 65.05,55.05 c 0,3.33333 0,6.66667 0,10 -3.33333,0 -6.66667,0 -10,0 0,-3.33333 0,-6.66667 0,-10 3.33333,0 6.66667,0 10,0 z m 20.2289,6.5 c -0.14872,0.47352 -0.2289,0.9774 -0.2289,1.5 0,-1 0,-2 0,-3 0,0.5226 0.08018,1.02648 0.2289,1.5 z"
     stroke-miterlimit="10"
     font-weight="none"
     font-size="none"
     text-anchor="none"
     style="font-family:none;mix-blend-mode:normal;fill:none;fill-rule:nonzero;stroke:#ff3c00;stroke-width:0.1;stroke-linecap:butt;stroke-linejoin:miter;stroke-miterlimit:10;stroke-dasharray:none;stroke-dashoffset:0"
     id="path12"
     inkscape:connector-curvature="0" />
  <path
     d="m 54.05,54.05 c 4,0 8,0 12,0 0,3.66667 0,7.33333 0,11 0,0.3453 0.04375,0.68038 0.12602,1 -4.04201,0 -8.08401,0 -12.12602,0 0,-4 0,-8 0,-12 z m 30,11 c 0,-3.66667 0,-7.33333 0,-11 0.70867,0 1.41734,0 2.12602,0 -0.08226,0.31962 -0.12602,0.6547 -0.12602,1 0,1.66667 0,3.33333 0,5 0,0.53045 0.10325,1.03678 0.29076,1.5 -0.1875,0.46322 -0.29076,0.96955 -0.29076,1.5 0,1 0,2 0,3 -0.70867,0 -1.41734,0 -2.12602,0 0.08226,-0.31962 0.12602,-0.6547 0.12602,-1 z"
     stroke-miterlimit="10"
     font-weight="none"
     font-size="none"
     text-anchor="none"
     style="font-family:none;mix-blend-mode:normal;fill:none;fill-rule:nonzero;stroke:#ff4900;stroke-width:0.1;stroke-linecap:butt;stroke-linejoin:miter;stroke-miterlimit:10;stroke-dasharray:none;stroke-dashoffset:0"
     id="path14"
     inkscape:connector-curvature="0" />
  <path
     d="m 53.05,53.05 c 4.66667,0 9.33333,0 14,0 0,4 0,8 0,12 0,0.76835 0.28885,1.46924 0.76389,2 -4.9213,0 -9.8426,0 -14.76389,0 0,-4.66667 0,-9.33333 0,-14 z m 30,12 c 0,-4 0,-8 0,-12 1.58796,0 3.17593,0 4.76389,0 -0.47504,0.53076 -0.76389,1.23165 -0.76389,2 0,1.66667 0,3.33333 0,5 0,0.54643 0.14609,1.05874 0.40135,1.5 -0.25526,0.44126 -0.40135,0.95357 -0.40135,1.5 0,1.33333 0,2.66667 0,4 -1.58796,0 -3.17593,0 -4.76389,0 0.47504,-0.53076 0.76389,-1.23165 0.76389,-2 z"
     stroke-miterlimit="10"
     font-weight="none"
     font-size="none"
     text-anchor="none"
     style="font-family:none;mix-blend-mode:normal;fill:none;fill-rule:nonzero;stroke:#ff5500;stroke-width:0.1;stroke-linecap:butt;stroke-linejoin:miter;stroke-miterlimit:10;stroke-dasharray:none;stroke-dashoffset:0"
     id="path16"
     inkscape:connector-curvature="0" />
  <path
     d="m 52.05,52.05 c 5.33333,0 10.66667,0 16,0 0,4.33333 0,8.66667 0,13 0,1.10457 0.89543,2 2,2 3.33333,0 6.66667,0 10,0 1.10457,0 2,-0.89543 2,-2 0,-4.33333 0,-8.66667 0,-13 5.33333,0 10.66667,0 16,0 0,5.33333 0,10.66667 0,16 -0.33333,0 -0.66667,0 -1,0 0,-1.66667 0,-3.33333 0,-5 0,-0.59735 -0.26188,-1.13353 -0.67709,-1.5 0.41521,-0.36647 0.67709,-0.90265 0.67709,-1.5 0,-1.66667 0,-3.33333 0,-5 0,-1.10457 -0.89543,-2 -2,-2 -1.66667,0 -3.33333,0 -5,0 -1.10457,0 -2,0.89543 -2,2 0,1.66667 0,3.33333 0,5 0,0.59735 0.26188,1.13353 0.67709,1.5 -0.41521,0.36647 -0.67709,0.90265 -0.67709,1.5 0,1.66667 0,3.33333 0,5 -12,0 -24,0 -36,0 0,-5.33333 0,-10.66667 0,-16 z"
     stroke-miterlimit="10"
     font-weight="none"
     font-size="none"
     text-anchor="none"
     style="font-family:none;mix-blend-mode:normal;fill:none;fill-rule:nonzero;stroke:#ff6100;stroke-width:0.1;stroke-linecap:butt;stroke-linejoin:miter;stroke-miterlimit:10;stroke-dasharray:none;stroke-dashoffset:0"
     id="path18"
     inkscape:connector-curvature="0" />
  <path
     d="m 51.05,51.05 c 6,0 12,0 18,0 0,4.66667 0,9.33333 0,14 0,0.55228 0.44772,1 1,1 3.33333,0 6.66667,0 10,0 0.55228,0 1,-0.44772 1,-1 0,-4.66667 0,-9.33333 0,-14 6,0 12,0 18,0 0,6 0,12 0,18 -1.33333,0 -2.66667,0 -4,0 0.55228,0 1,-0.44772 1,-1 0,-1.66667 0,-3.33333 0,-5 0,-0.55228 -0.44772,-1 -1,-1 -1.66667,0 -3.33333,0 -5,0 -0.55228,0 -1,0.44772 -1,1 0,1.66667 0,3.33333 0,5 0,0.55228 0.44772,1 1,1 -13,0 -26,0 -39,0 0,-6 0,-12 0,-18 z m 38,4 c 0,1.66667 0,3.33333 0,5 0,0.55228 0.44772,1 1,1 1.66667,0 3.33333,0 5,0 0.55228,0 1,-0.44772 1,-1 0,-1.66667 0,-3.33333 0,-5 0,-0.55228 -0.44772,-1 -1,-1 -1.66667,0 -3.33333,0 -5,0 -0.55228,0 -1,0.44772 -1,1 z"
     stroke-miterlimit="10"
     font-weight="none"
     font-size="none"
     text-anchor="none"
     style="font-family:none;mix-blend-mode:normal;fill:none;fill-rule:nonzero;stroke:#ff6d00;stroke-width:0.1;stroke-linecap:butt;stroke-linejoin:miter;stroke-miterlimit:10;stroke-dasharray:none;stroke-dashoffset:0"
     id="path20"
     inkscape:connector-curvature="0" />
  <path
     d="m 50.05,49.05 c 6.66667,0 13.33333,0 20,0 0.55228,0 1,0.44772 1,1 0,4.66667 0,9.33333 0,14 2.66667,0 5.33333,0 8,0 0,-4.66667 0,-9.33333 0,-14 0,-0.55228 0.44772,-1 1,-1 6.66667,0 13.33333,0 20,0 0.55228,0 1,0.44772 1,1 0,6.66667 0,13.33333 0,20 0,0.55228 -0.44772,1 -1,1 -16.66667,0 -33.33333,0 -50,0 -0.55228,0 -1,-0.44772 -1,-1 0,-6.66667 0,-13.33333 0,-20 0,-0.55228 0.44772,-1 1,-1 z m 41,7 c 0,1 0,2 0,3 1,0 2,0 3,0 0,-1 0,-2 0,-3 -1,0 -2,0 -3,0 z m 0,8 c 0,1 0,2 0,3 1,0 2,0 3,0 0,-1 0,-2 0,-3 -1,0 -2,0 -3,0 z"
     stroke-miterlimit="10"
     font-weight="none"
     font-size="none"
     text-anchor="none"
     style="font-family:none;mix-blend-mode:normal;fill:none;fill-rule:nonzero;stroke:#ff7900;stroke-width:0.1;stroke-linecap:butt;stroke-linejoin:miter;stroke-miterlimit:10;stroke-dasharray:none;stroke-dashoffset:0"
     id="path22"
     inkscape:connector-curvature="0" />
  <path
     d="m 50.05,48.05 c 6.66667,0 13.33333,0 20,0 1.10457,0 2,0.89543 2,2 0,4.33333 0,8.66667 0,13 2,0 4,0 6,0 0,-4.33333 0,-8.66667 0,-13 0,-1.10457 0.89543,-2 2,-2 6.66667,0 13.33333,0 20,0 1.10457,0 2,0.89543 2,2 0,6.66667 0,13.33333 0,20 0,1.10457 -0.89543,2 -2,2 -16.66667,0 -33.33333,0 -50,0 -1.10457,0 -2,-0.89543 -2,-2 0,-6.66667 0,-13.33333 0,-20 0,-1.10457 0.89543,-2 2,-2 z m 42,10 c 0.33333,0 0.66667,0 1,0 0,-0.33333 0,-0.66667 0,-1 -0.33333,0 -0.66667,0 -1,0 0,0.33333 0,0.66667 0,1 z m 0,8 c 0.33333,0 0.66667,0 1,0 0,-0.33333 0,-0.66667 0,-1 -0.33333,0 -0.66667,0 -1,0 0,0.33333 0,0.66667 0,1 z"
     stroke-miterlimit="10"
     font-weight="none"
     font-size="none"
     text-anchor="none"
     style="font-family:none;mix-blend-mode:normal;fill:none;fill-rule:nonzero;stroke:#ff8500;stroke-width:0.1;stroke-linecap:butt;stroke-linejoin:miter;stroke-miterlimit:10;stroke-dasharray:none;stroke-dashoffset:0"
     id="path24"
     inkscape:connector-curvature="0" />
  <path
     d="m 50.05,47.05 c 6.66667,0 13.33333,0 20,0 1.65685,0 3,1.34315 3,3 0,4 0,8 0,12 1.33333,0 2.66667,0 4,0 0,-4 0,-8 0,-12 0,-1.65685 1.34315,-3 3,-3 6.66667,0 13.33333,0 20,0 1.65685,0 3,1.34315 3,3 0,6.66667 0,13.33333 0,20 0,1.65685 -1.34315,3 -3,3 -16.66667,0 -33.33333,0 -50,0 -1.65685,0 -3,-1.34315 -3,-3 0,-6.66667 0,-13.33333 0,-20 0,-1.65685 1.34315,-3 3,-3 z"
     stroke-miterlimit="10"
     font-weight="none"
     font-size="none"
     text-anchor="none"
     style="font-family:none;mix-blend-mode:normal;fill:none;fill-rule:nonzero;stroke:#ff9100;stroke-width:0.1;stroke-linecap:butt;stroke-linejoin:miter;stroke-miterlimit:10;stroke-dasharray:none;stroke-dashoffset:0"
     id="path26"
     inkscape:connector-curvature="0" />
  <path
     d="m 50.05,46.05 c 6.66667,0 13.33333,0 20,0 2.20914,0 4,1.79086 4,4 0,3.66667 0,7.33333 0,11 0.66667,0 1.33333,0 2,0 0,-3.66667 0,-7.33333 0,-11 0,-2.20914 1.79086,-4 4,-4 6.66667,0 13.33333,0 20,0 2.20914,0 4,1.79086 4,4 0,6.66667 0,13.33333 0,20 0,2.20914 -1.79086,4 -4,4 -16.66667,0 -33.33333,0 -50,0 -2.20914,0 -4,-1.79086 -4,-4 0,-6.66667 0,-13.33333 0,-20 0,-2.20914 1.79086,-4 4,-4 z"
     stroke-miterlimit="10"
     font-weight="none"
     font-size="none"
     text-anchor="none"
     style="font-family:none;mix-blend-mode:normal;fill:none;fill-rule:nonzero;stroke:#ff9d00;stroke-width:0.1;stroke-linecap:butt;stroke-linejoin:miter;stroke-miterlimit:10;stroke-dasharray:none;stroke-dashoffset:0"
     id="path28"
     inkscape:connector-curvature="0" />
  <path
     d="m 50.05,45.05 c 6.66667,0 13.33333,0 20,0 2.76142,0 5,2.23858 5,5 0,-2.76142 2.23858,-5 5,-5 6.66667,0 13.33333,0 20,0 2.76142,0 5,2.23858 5,5 0,6.66667 0,13.33333 0,20 0,2.76142 -2.23858,5 -5,5 -16.66667,0 -33.33333,0 -50,0 -2.76142,0 -5,-2.23858 -5,-5 0,-6.66667 0,-13.33333 0,-20 0,-2.76142 2.23858,-5 5,-5 z"
     stroke-miterlimit="10"
     font-weight="none"
     font-size="none"
     text-anchor="none"
     style="font-family:none;mix-blend-mode:normal;fill:none;fill-rule:nonzero;stroke:#ffa900;stroke-width:0.1;stroke-linecap:butt;stroke-linejoin:miter;stroke-miterlimit:10;stroke-dasharray:none;stroke-dashoffset:0"
     id="path30"
     inkscape:connector-curvature="0" />
  <path
     d="m 50.05,44.05 c 6.66667,0 13.33333,0 20,0 2.08697,0 3.92508,1.06551 5,2.6822 1.07492,-1.6167 2.91303,-2.6822 5,-2.6822 6.66667,0 13.33333,0 20,0 3.31371,0 6,2.68629 6,6 0,6.66667 0,13.33333 0,20 0,3.31371 -2.68629,6 -6,6 -16.66667,0 -33.33333,0 -50,0 -3.31371,0 -6,-2.68629 -6,-6 0,-6.66667 0,-13.33333 0,-20 0,-3.31371 2.68629,-6 6,-6 z"
     stroke-miterlimit="10"
     font-weight="none"
     font-size="none"
     text-anchor="none"
     style="font-family:none;mix-blend-mode:normal;fill:none;fill-rule:nonzero;stroke:#ffb500;stroke-width:0.1;stroke-linecap:butt;stroke-linejoin:miter;stroke-miterlimit:10;stroke-dasharray:none;stroke-dashoffset:0"
     id="path32"
     inkscape:connector-curvature="0" />
  <path
     d="m 50.05,43.05 c 6.66667,0 13.33333,0 20,0 1.95869,0 3.72948,0.80447 5,2.10102 1.27052,-1.29655 3.04131,-2.10102 5,-2.10102 6.66667,0 13.33333,0 20,0 3.86599,0 7,3.13401 7,7 0,6.66667 0,13.33333 0,20 0,3.86599 -3.13401,7 -7,7 -16.66667,0 -33.33333,0 -50,0 -3.86599,0 -7,-3.13401 -7,-7 0,-6.66667 0,-13.33333 0,-20 0,-3.86599 3.13401,-7 7,-7 z"
     stroke-miterlimit="10"
     font-weight="none"
     font-size="none"
     text-anchor="none"
     style="font-family:none;mix-blend-mode:normal;fill:none;fill-rule:nonzero;stroke:#ffc200;stroke-width:0.1;stroke-linecap:butt;stroke-linejoin:miter;stroke-miterlimit:10;stroke-dasharray:none;stroke-dashoffset:0"
     id="path34"
     inkscape:connector-curvature="0" />
  <path
     d="m 50.05,42.05 c 6.66667,0 13.33333,0 20,0 1.89189,0 3.6304,0.65672 5,1.75463 1.3696,-1.09791 3.10811,-1.75463 5,-1.75463 6.66667,0 13.33333,0 20,0 4.41828,0 8,3.58172 8,8 0,6.66667 0,13.33333 0,20 0,4.41828 -3.58172,8 -8,8 -16.66667,0 -33.33333,0 -50,0 -4.41828,0 -8,-3.58172 -8,-8 0,-6.66667 0,-13.33333 0,-20 0,-4.41828 3.58172,-8 8,-8 z"
     stroke-miterlimit="10"
     font-weight="none"
     font-size="none"
     text-anchor="none"
     style="font-family:none;mix-blend-mode:normal;fill:none;fill-rule:nonzero;stroke:#ffce00;stroke-width:0.1;stroke-linecap:butt;stroke-linejoin:miter;stroke-miterlimit:10;stroke-dasharray:none;stroke-dashoffset:0"
     id="path36"
     inkscape:connector-curvature="0" />
  <path
     d="m 50.05,41.05 c 6.66667,0 13.33333,0 20,0 1.85015,0 3.5699,0.55827 5,1.51555 1.4301,-0.95728 3.14985,-1.51555 5,-1.51555 6.66667,0 13.33333,0 20,0 4.97056,0 9,4.02944 9,9 0,6.66667 0,13.33333 0,20 0,4.97056 -4.02944,9 -9,9 -16.66667,0 -33.33333,0 -50,0 -4.97056,0 -9,-4.02944 -9,-9 0,-6.66667 0,-13.33333 0,-20 0,-4.97056 4.02944,-9 9,-9 z"
     stroke-miterlimit="10"
     font-weight="none"
     font-size="none"
     text-anchor="none"
     style="font-family:none;mix-blend-mode:normal;fill:none;fill-rule:nonzero;stroke:#ffda00;stroke-width:0.1;stroke-linecap:butt;stroke-linejoin:miter;stroke-miterlimit:10;stroke-dasharray:none;stroke-dashoffset:0"
     id="path38"
     inkscape:connector-curvature="0" />
  <path
     d="m 50.05,40.05 c 6.66667,0 13.33333,0 20,0 1.82144,0 3.52913,0.48697 5,1.33782 1.47087,-0.85085 3.17856,-1.33782 5,-1.33782 6.66667,0 13.33333,0 20,0 5.52285,0 10,4.47715 10,10 0,6.66667 0,13.33333 0,20 0,5.52285 -4.47715,10 -10,10 -16.66667,0 -33.33333,0 -50,0 -5.52285,0 -10,-4.47715 -10,-10 0,-6.66667 0,-13.33333 0,-20 0,-5.52285 4.47715,-10 10,-10 z"
     stroke-miterlimit="10"
     font-weight="none"
     font-size="none"
     text-anchor="none"
     style="font-family:none;mix-blend-mode:normal;fill:none;fill-rule:nonzero;stroke:#ffe600;stroke-width:0.1;stroke-linecap:butt;stroke-linejoin:miter;stroke-miterlimit:10;stroke-dasharray:none;stroke-dashoffset:0"
     id="path40"
     inkscape:connector-curvature="0" />
  <path
     d="m 50.05,39.05 c 6.66667,0 13.33333,0 20,0 1.73823,0 3.45172,0.41194 5,1.20204 1.54828,-0.7901 3.26177,-1.20204 5,-1.20204 6.66667,0 13.33333,0 20,0 6.07513,0 11,4.92487 11,11 0,6.66667 0,13.33333 0,20 0,6.07513 -4.92487,11 -11,11 -16.66667,0 -33.33333,0 -50,0 -6.07513,0 -11,-4.92487 -11,-11 0,-6.66667 0,-13.33333 0,-20 0,-6.07513 4.92487,-11 11,-11 z"
     stroke-miterlimit="10"
     font-weight="none"
     font-size="none"
     text-anchor="none"
     style="font-family:none;mix-blend-mode:normal;fill:none;fill-rule:nonzero;stroke:#fff200;stroke-width:0.1;stroke-linecap:butt;stroke-linejoin:miter;stroke-miterlimit:10;stroke-dasharray:none;stroke-dashoffset:0"
     id="path42"
     inkscape:connector-curvature="0" />
  <path
     d="m 50.05,38.05 c 6.66667,0 13.33333,0 20,0 1.72575,0 3.43119,0.37223 5,1.09129 1.56881,-0.71906 3.27425,-1.09129 5,-1.09129 6.66667,0 13.33333,0 20,0 6.62742,0 12,5.37258 12,12 0,6.66667 0,13.33333 0,20 0,6.62742 -5.37258,12 -12,12 -16.66667,0 -33.33333,0 -50,0 -6.62742,0 -12,-5.37258 -12,-12 0,-6.66667 0,-13.33333 0,-20 0,-6.62742 5.37258,-12 12,-12 z"
     stroke-miterlimit="10"
     font-weight="none"
     font-size="none"
     text-anchor="none"
     style="font-family:none;mix-blend-mode:normal;fill:none;fill-rule:nonzero;stroke:#fffe00;stroke-width:0.1;stroke-linecap:butt;stroke-linejoin:miter;stroke-miterlimit:10;stroke-dasharray:none;stroke-dashoffset:0"
     id="path44"
     inkscape:connector-curvature="0" />
  <path
     d="m 50.05,37.05 c 6.66667,0 13.33333,0 20,0 1.71634,0 3.41569,0.33987 5,1 1.58431,-0.66013 3.28366,-1 5,-1 6.66667,0 13.33333,0 20,0 7.1797,0 13,5.8203 13,13 0,6.66667 0,13.33333 0,20 0,7.1797 -5.8203,13 -13,13 -16.66667,0 -33.33333,0 -50,0 -7.1797,0 -13,-5.8203 -13,-13 0,-6.66667 0,-13.33333 0,-20 0,-7.1797 5.8203,-13 13,-13 z"
     stroke-miterlimit="10"
     font-weight="none"
     font-size="none"
     text-anchor="none"
     style="font-family:none;mix-blend-mode:normal;fill:none;fill-rule:nonzero;stroke:#f4ff00;stroke-width:0.1;stroke-linecap:butt;stroke-linejoin:miter;stroke-miterlimit:10;stroke-dasharray:none;stroke-dashoffset:0"
     id="path46"
     inkscape:connector-curvature="0" />
  <path
     d="m 50.05,36.05 c 6.66667,0 13.33333,0 20,0 1.70905,0 3.40366,0.31293 5,0.9233 1.59634,-0.61038 3.29095,-0.9233 5,-0.9233 6.66667,0 13.33333,0 20,0 7.73199,0 14,6.26801 14,14 0,6.66667 0,13.33333 0,20 0,7.73199 -6.26801,14 -14,14 -16.66667,0 -33.33333,0 -50,0 -7.73199,0 -14,-6.26801 -14,-14 0,-6.66667 0,-13.33333 0,-20 0,-7.73199 6.26801,-14 14,-14 z"
     stroke-miterlimit="10"
     font-weight="none"
     font-size="none"
     text-anchor="none"
     style="font-family:none;mix-blend-mode:normal;fill:none;fill-rule:nonzero;stroke:#e8ff00;stroke-width:0.1;stroke-linecap:butt;stroke-linejoin:miter;stroke-miterlimit:10;stroke-dasharray:none;stroke-dashoffset:0"
     id="path48"
     inkscape:connector-curvature="0" />
  <path
     d="m 50.05,35.05 c 6.66667,0 13.33333,0 20,0 1.70328,0 3.39413,0.2901 5,0.85786 1.60587,-0.56776 3.29672,-0.85786 5,-0.85786 6.66667,0 13.33333,0 20,0 8.28427,0 15,6.71573 15,15 0,6.66667 0,13.33333 0,20 0,8.28427 -6.71573,15 -15,15 -16.66667,0 -33.33333,0 -50,0 -8.28427,0 -15,-6.71573 -15,-15 0,-6.66667 0,-13.33333 0,-20 0,-8.28427 6.71573,-15 15,-15 z"
     stroke-miterlimit="10"
     font-weight="none"
     font-size="none"
     text-anchor="none"
     style="font-family:none;mix-blend-mode:normal;fill:none;fill-rule:nonzero;stroke:#dcff00;stroke-width:0.1;stroke-linecap:butt;stroke-linejoin:miter;stroke-miterlimit:10;stroke-dasharray:none;stroke-dashoffset:0"
     id="path50"
     inkscape:connector-curvature="0" />
  <path
     d="m 50.05,34.05 c 6.66667,0 13.33333,0 20,0 1.69864,0 3.38644,0.27049 5,0.80132 1.61356,-0.53082 3.30136,-0.80132 5,-0.80132 6.66667,0 13.33333,0 20,0 8.83656,0 16,7.16344 16,16 0,6.66667 0,13.33333 0,20 0,8.83656 -7.16344,16 -16,16 -16.66667,0 -33.33333,0 -50,0 -8.83656,0 -16,-7.16344 -16,-16 0,-6.66667 0,-13.33333 0,-20 0,-8.83656 7.16344,-16 16,-16 z"
     stroke-miterlimit="10"
     font-weight="none"
     font-size="none"
     text-anchor="none"
     style="font-family:none;mix-blend-mode:normal;fill:none;fill-rule:nonzero;stroke:#d0ff00;stroke-width:0.1;stroke-linecap:butt;stroke-linejoin:miter;stroke-miterlimit:10;stroke-dasharray:none;stroke-dashoffset:0"
     id="path52"
     inkscape:connector-curvature="0" />
  <path
     d="m 50.05,33.05 c 6.66667,0 13.33333,0 20,0 1.69483,0 3.38013,0.25344 5,0.75192 1.61987,-0.49848 3.30517,-0.75192 5,-0.75192 6.66667,0 13.33333,0 20,0 9.38884,0 17,7.61116 17,17 0,6.66667 0,13.33333 0,20 0,9.38884 -7.61116,17 -17,17 -16.66667,0 -33.33333,0 -50,0 -9.38884,0 -17,-7.61116 -17,-17 0,-6.66667 0,-13.33333 0,-20 0,-9.38884 7.61116,-17 17,-17 z"
     stroke-miterlimit="10"
     font-weight="none"
     font-size="none"
     text-anchor="none"
     style="font-family:none;mix-blend-mode:normal;fill:none;fill-rule:nonzero;stroke:#c4ff00;stroke-width:0.1;stroke-linecap:butt;stroke-linejoin:miter;stroke-miterlimit:10;stroke-dasharray:none;stroke-dashoffset:0"
     id="path54"
     inkscape:connector-curvature="0" />
  <path
     d="m 50.05,32.05 c 6.66667,0 13.33333,0 20,0 1.69167,0 3.3749,0.23847 5,0.70838 1.6251,-0.46991 3.30833,-0.70838 5,-0.70838 6.66667,0 13.33333,0 20,0 9.94113,0 18,8.05887 18,18 0,6.66667 0,13.33333 0,20 0,9.94113 -8.05887,18 -18,18 -16.66667,0 -33.33333,0 -50,0 -9.94113,0 -18,-8.05887 -18,-18 0,-6.66667 0,-13.33333 0,-20 0,-9.94113 8.05887,-18 18,-18 z"
     stroke-miterlimit="10"
     font-weight="none"
     font-size="none"
     text-anchor="none"
     style="font-family:none;mix-blend-mode:normal;fill:none;fill-rule:nonzero;stroke:#b7ff00;stroke-width:0.1;stroke-linecap:butt;stroke-linejoin:miter;stroke-miterlimit:10;stroke-dasharray:none;stroke-dashoffset:0"
     id="path56"
     inkscape:connector-curvature="0" />
  <path
     d="m 50.05,31.05 c 6.66667,0 13.33333,0 20,0 1.68902,0 3.37051,0.22522 5,0.6697 1.62949,-0.44448 3.31098,-0.6697 5,-0.6697 6.66667,0 13.33333,0 20,0 10.49341,0 19,8.50659 19,19 0,6.66667 0,13.33333 0,20 0,10.49341 -8.50659,19 -19,19 -16.66667,0 -33.33333,0 -50,0 -10.49341,0 -19,-8.50659 -19,-19 0,-6.66667 0,-13.33333 0,-20 0,-10.49341 8.50659,-19 19,-19 z"
     stroke-miterlimit="10"
     font-weight="none"
     font-size="none"
     text-anchor="none"
     style="font-family:none;mix-blend-mode:normal;fill:none;fill-rule:nonzero;stroke:#abff00;stroke-width:0.1;stroke-linecap:butt;stroke-linejoin:miter;stroke-miterlimit:10;stroke-dasharray:none;stroke-dashoffset:0"
     id="path58"
     inkscape:connector-curvature="0" />
  <path
     d="m 50.05,30.05 c 6.66667,0 13.33333,0 20,0 1.68678,0 3.36678,0.21339 5,0.63508 1.63322,-0.42169 3.31322,-0.63508 5,-0.63508 6.66667,0 13.33333,0 20,0 11.04569,0 20,8.95431 20,20 0,6.66667 0,13.33333 0,20 0,11.04569 -8.95431,20 -20,20 -16.66667,0 -33.33333,0 -50,0 -11.04569,0 -20,-8.95431 -20,-20 0,-6.66667 0,-13.33333 0,-20 0,-11.04569 8.95431,-20 20,-20 z"
     stroke-miterlimit="10"
     font-weight="none"
     font-size="none"
     text-anchor="none"
     style="font-family:none;mix-blend-mode:normal;fill:none;fill-rule:nonzero;stroke:#9fff00;stroke-width:0.1;stroke-linecap:butt;stroke-linejoin:miter;stroke-miterlimit:10;stroke-dasharray:none;stroke-dashoffset:0"
     id="path60"
     inkscape:connector-curvature="0" />
  <path
     d="m 50.05,29.05 c 6.66667,0 13.33333,0 20,0 1.68486,0 3.36359,0.20277 5,0.60392 1.63641,-0.40116 3.31514,-0.60392 5,-0.60392 6.66667,0 13.33333,0 20,0 11.59798,0 21,9.40202 21,21 0,6.66667 0,13.33333 0,20 0,11.59798 -9.40202,21 -21,21 -16.66667,0 -33.33333,0 -50,0 -11.59798,0 -21,-9.40202 -21,-21 0,-6.66667 0,-13.33333 0,-20 0,-11.59798 9.40202,-21 21,-21 z"
     stroke-miterlimit="10"
     font-weight="none"
     font-size="none"
     text-anchor="none"
     style="font-family:none;mix-blend-mode:normal;fill:none;fill-rule:nonzero;stroke:#93ff00;stroke-width:0.1;stroke-linecap:butt;stroke-linejoin:miter;stroke-miterlimit:10;stroke-dasharray:none;stroke-dashoffset:0"
     id="path62"
     inkscape:connector-curvature="0" />
  <path
     d="m 50.05,28.05 c 6.66667,0 13.33333,0 20,0 1.6832,0 3.36084,0.19317 5,0.57571 1.63916,-0.38255 3.3168,-0.57571 5,-0.57571 6.66667,0 13.33333,0 20,0 12.15026,0 22,9.84974 22,22 0,6.66667 0,13.33333 0,20 0,12.15026 -9.84974,22 -22,22 -16.66667,0 -33.33333,0 -50,0 -12.15026,0 -22,-9.84974 -22,-22 0,-6.66667 0,-13.33333 0,-20 0,-12.15026 9.84974,-22 22,-22 z"
     stroke-miterlimit="10"
     font-weight="none"
     font-size="none"
     text-anchor="none"
     style="font-family:none;mix-blend-mode:normal;fill:none;fill-rule:nonzero;stroke:#87ff00;stroke-width:0.1;stroke-linecap:butt;stroke-linejoin:miter;stroke-miterlimit:10;stroke-dasharray:none;stroke-dashoffset:0"
     id="path64"
     inkscape:connector-curvature="0" />
  <path
     d="m 50.05,27.05 c 6.66667,0 13.33333,0 20,0 1.68176,0 3.35846,0.18445 5,0.55006 1.64154,-0.3656 3.31824,-0.55006 5,-0.55006 6.66667,0 13.33333,0 20,0 12.70255,0 23,10.29745 23,23 0,6.66667 0,13.33333 0,20 0,12.70255 -10.29745,23 -23,23 -16.66667,0 -33.33333,0 -50,0 -12.70255,0 -23,-10.29745 -23,-23 0,-6.66667 0,-13.33333 0,-20 0,-12.70255 10.29745,-23 23,-23 z"
     stroke-miterlimit="10"
     font-weight="none"
     font-size="none"
     text-anchor="none"
     style="font-family:none;mix-blend-mode:normal;fill:none;fill-rule:nonzero;stroke:#7bff00;stroke-width:0.1;stroke-linecap:butt;stroke-linejoin:miter;stroke-miterlimit:10;stroke-dasharray:none;stroke-dashoffset:0"
     id="path66"
     inkscape:connector-curvature="0" />
  <path
     d="m 50.05,26.05 c 6.66667,0 13.33333,0 20,0 1.68051,0 3.35637,0.17651 5,0.52661 1.64363,-0.35011 3.31949,-0.52661 5,-0.52661 6.66667,0 13.33333,0 20,0 13.25483,0 24,10.74517 24,24 0,6.66667 0,13.33333 0,20 0,13.25483 -10.74517,24 -24,24 -16.66667,0 -33.33333,0 -50,0 -13.25483,0 -24,-10.74517 -24,-24 0,-6.66667 0,-13.33333 0,-20 0,-13.25483 10.74517,-24 24,-24 z"
     stroke-miterlimit="10"
     font-weight="none"
     font-size="none"
     text-anchor="none"
     style="font-family:none;mix-blend-mode:normal;fill:none;fill-rule:nonzero;stroke:#6fff00;stroke-width:0.1;stroke-linecap:butt;stroke-linejoin:miter;stroke-miterlimit:10;stroke-dasharray:none;stroke-dashoffset:0"
     id="path68"
     inkscape:connector-curvature="0" />
  <path
     d="m 50.05,25.05 c 6.66667,0 13.33333,0 20,0 1.6794,0 3.35453,0.16922 5,0.5051 1.64547,-0.33588 3.3206,-0.5051 5,-0.5051 6.66667,0 13.33333,0 20,0 13.80712,0 25,11.19288 25,25 0,6.66667 0,13.33333 0,20 0,13.80712 -11.19288,25 -25,25 -16.66667,0 -33.33333,0 -50,0 -13.80712,0 -25,-11.19288 -25,-25 0,-6.66667 0,-13.33333 0,-20 0,-13.80712 11.19288,-25 25,-25 z"
     stroke-miterlimit="10"
     font-weight="none"
     font-size="none"
     text-anchor="none"
     style="font-family:none;mix-blend-mode:normal;fill:none;fill-rule:nonzero;stroke:#63ff00;stroke-width:0.1;stroke-linecap:butt;stroke-linejoin:miter;stroke-miterlimit:10;stroke-dasharray:none;stroke-dashoffset:0"
     id="path70"
     inkscape:connector-curvature="0" />
  <path
     d="m 50.05,24.05 c 6.66667,0 13.33333,0 20,0 1.67842,0 3.3529,0.16252 5,0.4853 1.6471,-0.32277 3.32158,-0.4853 5,-0.4853 6.66667,0 13.33333,0 20,0 14.3594,0 26,11.6406 26,26 0,6.66667 0,13.33333 0,20 0,14.3594 -11.6406,26 -26,26 -16.66667,0 -33.33333,0 -50,0 -14.3594,0 -26,-11.6406 -26,-26 0,-6.66667 0,-13.33333 0,-20 0,-14.3594 11.6406,-26 26,-26 z"
     stroke-miterlimit="10"
     font-weight="none"
     font-size="none"
     text-anchor="none"
     style="font-family:none;mix-blend-mode:normal;fill:none;fill-rule:nonzero;stroke:#57ff00;stroke-width:0.1;stroke-linecap:butt;stroke-linejoin:miter;stroke-miterlimit:10;stroke-dasharray:none;stroke-dashoffset:0"
     id="path72"
     inkscape:connector-curvature="0" />
  <path
     d="m 50.05,23.05 c 6.66667,0 13.33333,0 20,0 1.67756,0 3.35146,0.15634 5,0.467 1.64854,-0.31066 3.32244,-0.467 5,-0.467 6.66667,0 13.33333,0 20,0 14.91169,0 27,12.08831 27,27 0,6.66667 0,13.33333 0,20 0,14.91169 -12.08831,27 -27,27 -16.66667,0 -33.33333,0 -50,0 -14.91169,0 -27,-12.08831 -27,-27 0,-6.66667 0,-13.33333 0,-20 0,-14.91169 12.08831,-27 27,-27 z"
     stroke-miterlimit="10"
     font-weight="none"
     font-size="none"
     text-anchor="none"
     style="font-family:none;mix-blend-mode:normal;fill:none;fill-rule:nonzero;stroke:#4bff00;stroke-width:0.1;stroke-linecap:butt;stroke-linejoin:miter;stroke-miterlimit:10;stroke-dasharray:none;stroke-dashoffset:0"
     id="path74"
     inkscape:connector-curvature="0" />
  <path
     d="m 50.05,22.05 c 6.66667,0 13.33333,0 20,0 1.67678,0 3.35017,0.15062 5,0.45005 1.64983,-0.29943 3.32322,-0.45005 5,-0.45005 6.66667,0 13.33333,0 20,0 15.46397,0 28,12.53603 28,28 0,6.66667 0,13.33333 0,20 0,15.46397 -12.53603,28 -28,28 -16.66667,0 -33.33333,0 -50,0 -15.46397,0 -28,-12.53603 -28,-28 0,-6.66667 0,-13.33333 0,-20 0,-15.46397 12.53603,-28 28,-28 z"
     stroke-miterlimit="10"
     font-weight="none"
     font-size="none"
     text-anchor="none"
     style="font-family:none;mix-blend-mode:normal;fill:none;fill-rule:nonzero;stroke:#3eff00;stroke-width:0.1;stroke-linecap:butt;stroke-linejoin:miter;stroke-miterlimit:10;stroke-dasharray:none;stroke-dashoffset:0"
     id="path76"
     inkscape:connector-curvature="0" />
  <path
     d="m 50.05,21.05 c 6.66667,0 13.33333,0 20,0 1.67609,0 3.34901,0.14531 5,0.43429 1.65099,-0.28898 3.32391,-0.43429 5,-0.43429 6.66667,0 13.33333,0 20,0 16.01626,0 29,12.98374 29,29 0,6.66667 0,13.33333 0,20 0,16.01626 -12.98374,29 -29,29 -16.66667,0 -33.33333,0 -50,0 -16.01626,0 -29,-12.98374 -29,-29 0,-6.66667 0,-13.33333 0,-20 0,-16.01626 12.98374,-29 29,-29 z"
     stroke-miterlimit="10"
     font-weight="none"
     font-size="none"
     text-anchor="none"
     style="font-family:none;mix-blend-mode:normal;fill:none;fill-rule:nonzero;stroke:#32ff00;stroke-width:0.1;stroke-linecap:butt;stroke-linejoin:miter;stroke-miterlimit:10;stroke-dasharray:none;stroke-dashoffset:0"
     id="path78"
     inkscape:connector-curvature="0" />
  <path
     d="m 50.05,20.05 c 6.66667,0 13.33333,0 20,0 1.67546,0 3.34797,0.14036 5,0.4196 1.65203,-0.27924 3.32454,-0.4196 5,-0.4196 6.66667,0 13.33333,0 20,0 16.56854,0 30,13.43146 30,30 0,6.66667 0,13.33333 0,20 0,16.56854 -13.43146,30 -30,30 -16.66667,0 -33.33333,0 -50,0 -16.56854,0 -30,-13.43146 -30,-30 0,-6.66667 0,-13.33333 0,-20 0,-16.56854 13.43146,-30 30,-30 z"
     stroke-miterlimit="10"
     font-weight="none"
     font-size="none"
     text-anchor="none"
     style="font-family:none;mix-blend-mode:normal;fill:none;fill-rule:nonzero;stroke:#26ff00;stroke-width:0.1;stroke-linecap:butt;stroke-linejoin:miter;stroke-miterlimit:10;stroke-dasharray:none;stroke-dashoffset:0"
     id="path80"
     inkscape:connector-curvature="0" />
  <path
     d="m 50.05,19.05 c 6.66667,0 13.33333,0 20,0 1.67489,0 3.34703,0.13574 5,0.40588 1.65297,-0.27014 3.32511,-0.40588 5,-0.40588 6.66667,0 13.33333,0 20,0 17.12083,0 31,13.87917 31,31 0,6.66667 0,13.33333 0,20 0,17.12083 -13.87917,31 -31,31 -16.66667,0 -33.33333,0 -50,0 -17.12083,0 -31,-13.87917 -31,-31 0,-6.66667 0,-13.33333 0,-20 0,-17.12083 13.87917,-31 31,-31 z"
     stroke-miterlimit="10"
     font-weight="none"
     font-size="none"
     text-anchor="none"
     style="font-family:none;mix-blend-mode:normal;fill:none;fill-rule:nonzero;stroke:#1aff00;stroke-width:0.1;stroke-linecap:butt;stroke-linejoin:miter;stroke-miterlimit:10;stroke-dasharray:none;stroke-dashoffset:0"
     id="path82"
     inkscape:connector-curvature="0" />
  <path
     d="m 50.05,18.05 c 6.66667,0 13.33333,0 20,0 1.67438,0 3.34618,0.13142 5,0.39304 1.65382,-0.26162 3.32562,-0.39304 5,-0.39304 6.66667,0 13.33333,0 20,0 17.67311,0 32,14.32689 32,32 0,6.66667 0,13.33333 0,20 0,17.67311 -14.32689,32 -32,32 -16.66667,0 -33.33333,0 -50,0 -17.67311,0 -32,-14.32689 -32,-32 0,-6.66667 0,-13.33333 0,-20 0,-17.67311 14.32689,-32 32,-32 z"
     stroke-miterlimit="10"
     font-weight="none"
     font-size="none"
     text-anchor="none"
     style="font-family:none;mix-blend-mode:normal;fill:none;fill-rule:nonzero;stroke:#0eff00;stroke-width:0.1;stroke-linecap:butt;stroke-linejoin:miter;stroke-miterlimit:10;stroke-dasharray:none;stroke-dashoffset:0"
     id="path84"
     inkscape:connector-curvature="0" />
  <path
     d="m 50.05,17.05 c 6.66667,0 13.33333,0 20,0 1.67392,0 3.34541,0.12736 5,0.38099 1.65459,-0.25362 3.32608,-0.38099 5,-0.38099 6.66667,0 13.33333,0 20,0 18.2254,0 33,14.7746 33,33 0,6.66667 0,13.33333 0,20 0,18.2254 -14.7746,33 -33,33 -16.66667,0 -33.33333,0 -50,0 -18.2254,0 -33,-14.7746 -33,-33 0,-6.66667 0,-13.33333 0,-20 0,-18.2254 14.7746,-33 33,-33 z"
     stroke-miterlimit="10"
     font-weight="none"
     font-size="none"
     text-anchor="none"
     style="font-family:none;mix-blend-mode:normal;fill:none;fill-rule:nonzero;stroke:#02ff00;stroke-width:0.1;stroke-linecap:butt;stroke-linejoin:miter;stroke-miterlimit:10;stroke-dasharray:none;stroke-dashoffset:0"
     id="path86"
     inkscape:connector-curvature="0" />
  <path
     d="m 50.05,16.05 c 6.66667,0 13.33333,0 20,0 1.67349,0 3.3447,0.12355 5,0.36966 1.6553,-0.2461 3.32651,-0.36966 5,-0.36966 6.66667,0 13.33333,0 20,0 18.77768,0 34,15.22232 34,34 0,6.66667 0,13.33333 0,20 0,18.77768 -15.22232,34 -34,34 -16.66667,0 -33.33333,0 -50,0 -18.77768,0 -34,-15.22232 -34,-34 0,-6.66667 0,-13.33333 0,-20 0,-18.77768 15.22232,-34 34,-34 z"
     stroke-miterlimit="10"
     font-weight="none"
     font-size="none"
     text-anchor="none"
     style="font-family:none;mix-blend-mode:normal;fill:none;fill-rule:nonzero;stroke:#00ff0a;stroke-width:0.1;stroke-linecap:butt;stroke-linejoin:miter;stroke-miterlimit:10;stroke-dasharray:none;stroke-dashoffset:0"
     id="path88"
     inkscape:connector-curvature="0" />
  <path
     d="m 50.05,15.05 c 6.66667,0 13.33333,0 20,0 1.6731,0 3.34406,0.11997 5,0.35898 1.65594,-0.23901 3.3269,-0.35898 5,-0.35898 6.66667,0 13.33333,0 20,0 19.32997,0 35,15.67003 35,35 0,6.66667 0,13.33333 0,20 0,19.32997 -15.67003,35 -35,35 -16.66667,0 -33.33333,0 -50,0 -19.32997,0 -35,-15.67003 -35,-35 0,-6.66667 0,-13.33333 0,-20 0,-19.32997 15.67003,-35 35,-35 z"
     stroke-miterlimit="10"
     font-weight="none"
     font-size="none"
     text-anchor="none"
     style="font-family:none;mix-blend-mode:normal;fill:none;fill-rule:nonzero;stroke:#00ff16;stroke-width:0.1;stroke-linecap:butt;stroke-linejoin:miter;stroke-miterlimit:10;stroke-dasharray:none;stroke-dashoffset:0"
     id="path90"
     inkscape:connector-curvature="0" />
  <path
     d="m 50.05,14.05 c 6.66667,0 13.33333,0 20,0 1.67275,0 3.34346,0.11659 5,0.34891 1.65654,-0.23233 3.32725,-0.34891 5,-0.34891 6.66667,0 13.33333,0 20,0 19.88225,0 36,16.11775 36,36 0,6.66667 0,13.33333 0,20 0,19.88225 -16.11775,36 -36,36 -16.66667,0 -33.33333,0 -50,0 -19.88225,0 -36,-16.11775 -36,-36 0,-6.66667 0,-13.33333 0,-20 0,-19.88225 16.11775,-36 36,-36 z"
     stroke-miterlimit="10"
     font-weight="none"
     font-size="none"
     text-anchor="none"
     style="font-family:none;mix-blend-mode:normal;fill:none;fill-rule:nonzero;stroke:#00ff22;stroke-width:0.1;stroke-linecap:butt;stroke-linejoin:miter;stroke-miterlimit:10;stroke-dasharray:none;stroke-dashoffset:0"
     id="path92"
     inkscape:connector-curvature="0" />
  <path
     d="m 50.05,13.05 c 6.66667,0 13.33333,0 20,0 1.67242,0 3.34292,0.11339 5,0.33939 1.65708,-0.226 3.32758,-0.33939 5,-0.33939 6.66667,0 13.33333,0 20,0 20.43454,0 37,16.56546 37,37 0,6.66667 0,13.33333 0,20 0,20.43454 -16.56546,37 -37,37 -16.66667,0 -33.33333,0 -50,0 -20.43454,0 -37,-16.56546 -37,-37 0,-6.66667 0,-13.33333 0,-20 0,-20.43454 16.56546,-37 37,-37 z"
     stroke-miterlimit="10"
     font-weight="none"
     font-size="none"
     text-anchor="none"
     style="font-family:none;mix-blend-mode:normal;fill:none;fill-rule:nonzero;stroke:#00ff2e;stroke-width:0.1;stroke-linecap:butt;stroke-linejoin:miter;stroke-miterlimit:10;stroke-dasharray:none;stroke-dashoffset:0"
     id="path94"
     inkscape:connector-curvature="0" />
  <path
     d="m 50.05,12.05 c 6.66667,0 13.33333,0 20,0 1.67212,0 3.34242,0.11037 5,0.33038 1.65758,-0.22002 3.32788,-0.33038 5,-0.33038 6.66667,0 13.33333,0 20,0 20.98682,0 38,17.01318 38,38 0,6.66667 0,13.33333 0,20 0,20.98682 -17.01318,38 -38,38 -16.66667,0 -33.33333,0 -50,0 -20.98682,0 -38,-17.01318 -38,-38 0,-6.66667 0,-13.33333 0,-20 0,-20.98682 17.01318,-38 38,-38 z"
     stroke-miterlimit="10"
     font-weight="none"
     font-size="none"
     text-anchor="none"
     style="font-family:none;mix-blend-mode:normal;fill:none;fill-rule:nonzero;stroke:#00ff3a;stroke-width:0.1;stroke-linecap:butt;stroke-linejoin:miter;stroke-miterlimit:10;stroke-dasharray:none;stroke-dashoffset:0"
     id="path96"
     inkscape:connector-curvature="0" />
  <path
     d="m 50.05,11.05 c 6.66667,0 13.33333,0 20,0 1.67184,0 3.34195,0.1075 5,0.32184 1.65805,-0.21434 3.32816,-0.32184 5,-0.32184 6.66667,0 13.33333,0 20,0 21.53911,0 39,17.46089 39,39 0,6.66667 0,13.33333 0,20 0,21.53911 -17.46089,39 -39,39 -16.66667,0 -33.33333,0 -50,0 -21.53911,0 -39,-17.46089 -39,-39 0,-6.66667 0,-13.33333 0,-20 0,-21.53911 17.46089,-39 39,-39 z"
     stroke-miterlimit="10"
     font-weight="none"
     font-size="none"
     text-anchor="none"
     style="font-family:none;mix-blend-mode:normal;fill:none;fill-rule:nonzero;stroke:#00ff47;stroke-width:0.1;stroke-linecap:butt;stroke-linejoin:miter;stroke-miterlimit:10;stroke-dasharray:none;stroke-dashoffset:0"
     id="path98"
     inkscape:connector-curvature="0" />
  <path
     d="m 50.05,10.05 c 6.66667,0 13.33333,0 20,0 1.67158,0 3.34153,0.10478 5,0.31373 1.65847,-0.20895 3.32842,-0.31373 5,-0.31373 6.66667,0 13.33333,0 20,0 22.09139,0 40,17.90861 40,40 0,6.66667 0,13.33333 0,20 0,22.09139 -17.90861,40 -40,40 -16.66667,0 -33.33333,0 -50,0 -22.09139,0 -40,-17.90861 -40,-40 0,-6.66667 0,-13.33333 0,-20 0,-22.09139 17.90861,-40 40,-40 z"
     stroke-miterlimit="10"
     font-weight="none"
     font-size="none"
     text-anchor="none"
     style="font-family:none;mix-blend-mode:normal;fill:none;fill-rule:nonzero;stroke:#00ff53;stroke-width:0.1;stroke-linecap:butt;stroke-linejoin:miter;stroke-miterlimit:10;stroke-dasharray:none;stroke-dashoffset:0"
     id="path100"
     inkscape:connector-curvature="0" />
  <path
     d="m 50.05,9.05 c 6.66667,0 13.33333,0 20,0 1.67135,0 3.34113,0.1022 5,0.30602 1.65887,-0.20382 3.32865,-0.30602 5,-0.30602 6.66667,0 13.33333,0 20,0 22.64367,0 41,18.35633 41,41 0,6.66667 0,13.33333 0,20 0,22.64367 -18.35633,41 -41,41 -16.66667,0 -33.33333,0 -50,0 -22.64367,0 -41,-18.35633 -41,-41 0,-6.66667 0,-13.33333 0,-20 0,-22.64367 18.35633,-41 41,-41 z"
     stroke-miterlimit="10"
     font-weight="none"
     font-size="none"
     text-anchor="none"
     style="font-family:none;mix-blend-mode:normal;fill:none;fill-rule:nonzero;stroke:#00ff5f;stroke-width:0.1;stroke-linecap:butt;stroke-linejoin:miter;stroke-miterlimit:10;stroke-dasharray:none;stroke-dashoffset:0"
     id="path102"
     inkscape:connector-curvature="0" />
  <path
     d="m 50.05,8.05 c 6.66667,0 13.33333,0 20,0 1.67112,0 3.34076,0.09974 5,0.29868 1.65924,-0.19894 3.32888,-0.29868 5,-0.29868 6.66667,0 13.33333,0 20,0 23.19596,0 42,18.80404 42,42 0,6.66667 0,13.33333 0,20 0,23.19596 -18.80404,42 -42,42 -16.66667,0 -33.33333,0 -50,0 -23.19596,0 -42,-18.80404 -42,-42 0,-6.66667 0,-13.33333 0,-20 0,-23.19596 18.80404,-42 42,-42 z"
     stroke-miterlimit="10"
     font-weight="none"
     font-size="none"
     text-anchor="none"
     style="font-family:none;mix-blend-mode:normal;fill:none;fill-rule:nonzero;stroke:#00ff6b;stroke-width:0.1;stroke-linecap:butt;stroke-linejoin:miter;stroke-miterlimit:10;stroke-dasharray:none;stroke-dashoffset:0"
     id="path104"
     inkscape:connector-curvature="0" />
  <path
     d="m 50.05,7.05 c 6.66667,0 13.33333,0 20,0 1.67092,0 3.34042,0.09739 5,0.29169 1.65958,-0.19429 3.32908,-0.29169 5,-0.29169 6.66667,0 13.33333,0 20,0 23.74824,0 43,19.25176 43,43 0,6.66667 0,13.33333 0,20 0,23.74824 -19.25176,43 -43,43 -16.66667,0 -33.33333,0 -50,0 -23.74824,0 -43,-19.25176 -43,-43 0,-6.66667 0,-13.33333 0,-20 0,-23.74824 19.25176,-43 43,-43 z"
     stroke-miterlimit="10"
     font-weight="none"
     font-size="none"
     text-anchor="none"
     style="font-family:none;mix-blend-mode:normal;fill:none;fill-rule:nonzero;stroke:#00ff77;stroke-width:0.1;stroke-linecap:butt;stroke-linejoin:miter;stroke-miterlimit:10;stroke-dasharray:none;stroke-dashoffset:0"
     id="path106"
     inkscape:connector-curvature="0" />
  <path
     d="m 50.05,6.05 c 6.66667,0 13.33333,0 20,0 1.67073,0 3.3401,0.09516 5,0.28501 1.6599,-0.18986 3.32927,-0.28501 5,-0.28501 6.66667,0 13.33333,0 20,0 24.30053,0 44,19.69947 44,44 0,6.66667 0,13.33333 0,20 0,24.30053 -19.69947,44 -44,44 -16.66667,0 -33.33333,0 -50,0 -24.30053,0 -44,-19.69947 -44,-44 0,-6.66667 0,-13.33333 0,-20 0,-24.30053 19.69947,-44 44,-44 z"
     stroke-miterlimit="10"
     font-weight="none"
     font-size="none"
     text-anchor="none"
     style="font-family:none;mix-blend-mode:normal;fill:none;fill-rule:nonzero;stroke:#00ff83;stroke-width:0.1;stroke-linecap:butt;stroke-linejoin:miter;stroke-miterlimit:10;stroke-dasharray:none;stroke-dashoffset:0"
     id="path108"
     inkscape:connector-curvature="0" />
  <path
     d="m 50.05,5.05 c 6.66667,0 13.33333,0 20,0 1.67055,0 3.3398,0.09302 5,0.27864 1.6602,-0.18562 3.32945,-0.27864 5,-0.27864 6.66667,0 13.33333,0 20,0 24.85281,0 45,20.14719 45,45 0,6.66667 0,13.33333 0,20 0,24.85281 -20.14719,45 -45,45 -16.66667,0 -33.33333,0 -50,0 -24.85281,0 -45,-20.14719 -45,-45 0,-6.66667 0,-13.33333 0,-20 0,-24.85281 20.14719,-45 45,-45 z"
     stroke-miterlimit="10"
     font-weight="none"
     font-size="none"
     text-anchor="none"
     style="font-family:none;mix-blend-mode:normal;fill:none;fill-rule:nonzero;stroke:#00ff8f;stroke-width:0.1;stroke-linecap:butt;stroke-linejoin:miter;stroke-miterlimit:10;stroke-dasharray:none;stroke-dashoffset:0"
     id="path110"
     inkscape:connector-curvature="0" />
  <path
     d="m 50.05,4.05 c 6.66667,0 13.33333,0 20,0 1.67038,0 3.33952,0.09098 5,0.27255 1.66048,-0.18156 3.32962,-0.27255 5,-0.27255 6.66667,0 13.33333,0 20,0 25.4051,0 46,20.5949 46,46 0,6.66667 0,13.33333 0,20 0,25.4051 -20.5949,46 -46,46 -16.66667,0 -33.33333,0 -50,0 -25.4051,0 -46,-20.5949 -46,-46 0,-6.66667 0,-13.33333 0,-20 0,-25.4051 20.5949,-46 46,-46 z"
     stroke-miterlimit="10"
     font-weight="none"
     font-size="none"
     text-anchor="none"
     style="font-family:none;mix-blend-mode:normal;fill:none;fill-rule:nonzero;stroke:#00ff9b;stroke-width:0.1;stroke-linecap:butt;stroke-linejoin:miter;stroke-miterlimit:10;stroke-dasharray:none;stroke-dashoffset:0"
     id="path112"
     inkscape:connector-curvature="0" />
  <path
     d="m 50.05,3.05 c 6.66667,0 13.33333,0 20,0 1.67022,0 3.33926,0.08903 5,0.26671 1.66074,-0.17768 3.32978,-0.26671 5,-0.26671 6.66667,0 13.33333,0 20,0 25.95738,0 47,21.04262 47,47 0,6.66667 0,13.33333 0,20 0,25.95738 -21.04262,47 -47,47 -16.66667,0 -33.33333,0 -50,0 -25.95738,0 -47,-21.04262 -47,-47 0,-6.66667 0,-13.33333 0,-20 0,-25.95738 21.04262,-47 47,-47 z"
     stroke-miterlimit="10"
     font-weight="none"
     font-size="none"
     text-anchor="none"
     style="font-family:none;mix-blend-mode:normal;fill:none;fill-rule:nonzero;stroke:#00ffa7;stroke-width:0.1;stroke-linecap:butt;stroke-linejoin:miter;stroke-miterlimit:10;stroke-dasharray:none;stroke-dashoffset:0"
     id="path114"
     inkscape:connector-curvature="0" />
  <path
     d="m 50.05,2.05 c 6.66667,0 13.33333,0 20,0 1.67007,0 3.33901,0.08716 5,0.26113 1.66099,-0.17397 3.32993,-0.26113 5,-0.26113 6.66667,0 13.33333,0 20,0 26.50967,0 48,21.49033 48,48 0,6.66667 0,13.33333 0,20 0,26.50967 -21.49033,48 -48,48 -16.66667,0 -33.33333,0 -50,0 -26.50967,0 -48,-21.49033 -48,-48 0,-6.66667 0,-13.33333 0,-20 0,-26.50967 21.49033,-48 48,-48 z"
     stroke-miterlimit="10"
     font-weight="none"
     font-size="none"
     text-anchor="none"
     style="font-family:none;mix-blend-mode:normal;fill:none;fill-rule:nonzero;stroke:#00ffb3;stroke-width:0.1;stroke-linecap:butt;stroke-linejoin:miter;stroke-miterlimit:10;stroke-dasharray:none;stroke-dashoffset:0"
     id="path116"
     inkscape:connector-curvature="0" />
  <path
     d="m 50.05,1.05 c 6.66667,0 13.33333,0 20,0 1.66994,0 3.33878,0.08537 5,0.25577 1.66122,-0.1704 3.33006,-0.25577 5,-0.25577 6.66667,0 13.33333,0 20,0 27.06195,0 49,21.93805 49,49 0,6.66667 0,13.33333 0,20 0,27.06195 -21.93805,49 -49,49 -16.66667,0 -33.33333,0 -50,0 -27.06195,0 -49,-21.93805 -49,-49 0,-6.66667 0,-13.33333 0,-20 0,-27.06195 21.93805,-49 49,-49 z"
     stroke-miterlimit="10"
     font-weight="none"
     font-size="none"
     text-anchor="none"
     style="font-family:none;mix-blend-mode:normal;fill:none;fill-rule:nonzero;stroke:#00ffc0;stroke-width:0.1;stroke-linecap:butt;stroke-linejoin:miter;stroke-miterlimit:10;stroke-dasharray:none;stroke-dashoffset:0"
     id="path118"
     inkscape:connector-curvature="0" />
  <path
     d="m 50.05,0.05 c 6.66667,0 13.33333,0 20,0 1.66981,0 3.33856,0.08365 5,0.25063 1.66144,-0.16698 3.33019,-0.25063 5,-0.25063 6.66667,0 13.33333,0 20,0 27.61424,0 50,22.38576 50,50 0,6.66667 0,13.33333 0,20 0,27.61424 -22.38576,50 -50,50 -16.66667,0 -33.33333,0 -50,0 -27.61424,0 -50,-22.38576 -50,-50 0,-6.66667 0,-13.33333 0,-20 0,-27.61424 22.38576,-50 50,-50 z"
     stroke-miterlimit="10"
     font-weight="none"
     font-size="none"
     text-anchor="none"
     style="font-family:none;mix-blend-mode:normal;fill:none;fill-rule:nonzero;stroke:#00ffcc;stroke-width:0.1;stroke-linecap:butt;stroke-linejoin:miter;stroke-miterlimit:10;stroke-dasharray:none;stroke-dashoffset:0"
     id="path120"
     inkscape:connector-curvature="0" />
  <path
     d="m 50.05,-0.95 c 6.66667,0 13.33333,0 20,0 1.66968,0 3.33836,0.082 5,0.24569 1.66164,-0.16369 3.33032,-0.24569 5,-0.24569 6.66667,0 13.33333,0 20,0 28.16652,0 51,22.83348 51,51 0,6.66667 0,13.33333 0,20 0,28.16652 -22.83348,51 -51,51 -16.66667,0 -33.33333,0 -50,0 -28.16652,0 -51,-22.83348 -51,-51 0,-6.66667 0,-13.33333 0,-20 0,-28.16652 22.83348,-51 51,-51 z"
     stroke-miterlimit="10"
     font-weight="none"
     font-size="none"
     text-anchor="none"
     style="font-family:none;mix-blend-mode:normal;fill:none;fill-rule:nonzero;stroke:#00ffd8;stroke-width:0.1;stroke-linecap:butt;stroke-linejoin:miter;stroke-miterlimit:10;stroke-dasharray:none;stroke-dashoffset:0"
     id="path122"
     inkscape:connector-curvature="0" />
  <path
     d="m 50.05,-1.95 c 6.66667,0 13.33333,0 20,0 1.66957,0 3.33817,0.08041 5,0.24094 1.66183,-0.16054 3.33043,-0.24094 5,-0.24094 6.66667,0 13.33333,0 20,0 28.71881,0 52,23.28119 52,52 0,6.66667 0,13.33333 0,20 0,28.71881 -23.28119,52 -52,52 -16.66667,0 -33.33333,0 -50,0 -28.71881,0 -52,-23.28119 -52,-52 0,-6.66667 0,-13.33333 0,-20 0,-28.71881 23.28119,-52 52,-52 z"
     stroke-miterlimit="10"
     font-weight="none"
     font-size="none"
     text-anchor="none"
     style="font-family:none;mix-blend-mode:normal;fill:none;fill-rule:nonzero;stroke:#00ffe4;stroke-width:0.1;stroke-linecap:butt;stroke-linejoin:miter;stroke-miterlimit:10;stroke-dasharray:none;stroke-dashoffset:0"
     id="path124"
     inkscape:connector-curvature="0" />
  <path
     d="m 50.05,-2.95 c 6.66667,0 13.33333,0 20,0 1.66946,0 3.33799,0.07888 5,0.23638 1.66201,-0.1575 3.33054,-0.23638 5,-0.23638 6.66667,0 13.33333,0 20,0 29.27109,0 53,23.72891 53,53 0,6.66667 0,13.33333 0,20 0,29.27109 -23.72891,53 -53,53 -16.66667,0 -33.33333,0 -50,0 -29.27109,0 -53,-23.72891 -53,-53 0,-6.66667 0,-13.33333 0,-20 0,-29.27109 23.72891,-53 53,-53 z"
     stroke-miterlimit="10"
     font-weight="none"
     font-size="none"
     text-anchor="none"
     style="font-family:none;mix-blend-mode:normal;fill:none;fill-rule:nonzero;stroke:#00fff0;stroke-width:0.1;stroke-linecap:butt;stroke-linejoin:miter;stroke-miterlimit:10;stroke-dasharray:none;stroke-dashoffset:0"
     id="path126"
     inkscape:connector-curvature="0" />
  <path
     d="m 50.05,-3.95 c 6.66667,0 13.33333,0 20,0 1.66936,0 3.33781,0.07741 5,0.23198 1.66219,-0.15457 3.33064,-0.23198 5,-0.23198 6.66667,0 13.33333,0 20,0 29.82338,0 54,24.17662 54,54 0,6.66667 0,13.33333 0,20 0,29.82338 -24.17662,54 -54,54 -16.66667,0 -33.33333,0 -50,0 -29.82338,0 -54,-24.17662 -54,-54 0,-6.66667 0,-13.33333 0,-20 0,-29.82338 24.17662,-54 54,-54 z"
     stroke-miterlimit="10"
     font-weight="none"
     font-size="none"
     text-anchor="none"
     style="font-family:none;mix-blend-mode:normal;fill:none;fill-rule:nonzero;stroke:#00fffc;stroke-width:0.1;stroke-linecap:butt;stroke-linejoin:miter;stroke-miterlimit:10;stroke-dasharray:none;stroke-dashoffset:0"
     id="path128"
     inkscape:connector-curvature="0" />
  <path
     d="m 50.05,-4.95 c 6.66667,0 13.33333,0 20,0 1.66926,0 3.33765,0.07599 5,0.22774 1.66235,-0.15175 3.33074,-0.22774 5,-0.22774 6.66667,0 13.33333,0 20,0 30.37566,0 55,24.62434 55,55 0,6.66667 0,13.33333 0,20 0,30.37566 -24.62434,55 -55,55 -16.66667,0 -33.33333,0 -50,0 -30.37566,0 -55,-24.62434 -55,-55 0,-6.66667 0,-13.33333 0,-20 0,-30.37566 24.62434,-55 55,-55 z"
     stroke-miterlimit="10"
     font-weight="none"
     font-size="none"
     text-anchor="none"
     style="font-family:none;mix-blend-mode:normal;fill:none;fill-rule:nonzero;stroke:#00f6ff;stroke-width:0.1;stroke-linecap:butt;stroke-linejoin:miter;stroke-miterlimit:10;stroke-dasharray:none;stroke-dashoffset:0"
     id="path130"
     inkscape:connector-curvature="0" />
  <path
     d="m 50.05,-5.95 c 6.66667,0 13.33333,0 20,0 1.66917,0 3.3375,0.07463 5,0.22366 1.6625,-0.14903 3.33083,-0.22366 5,-0.22366 6.66667,0 13.33333,0 20,0 30.92795,0 56,25.07205 56,56 0,6.66667 0,13.33333 0,20 0,30.92795 -25.07205,56 -56,56 -16.66667,0 -33.33333,0 -50,0 -30.92795,0 -56,-25.07205 -56,-56 0,-6.66667 0,-13.33333 0,-20 0,-30.92795 25.07205,-56 56,-56 z"
     stroke-miterlimit="10"
     font-weight="none"
     font-size="none"
     text-anchor="none"
     style="font-family:none;mix-blend-mode:normal;fill:none;fill-rule:nonzero;stroke:#00eaff;stroke-width:0.1;stroke-linecap:butt;stroke-linejoin:miter;stroke-miterlimit:10;stroke-dasharray:none;stroke-dashoffset:0"
     id="path132"
     inkscape:connector-curvature="0" />
  <path
     d="m 50.05,-6.95 c 6.66667,0 13.33333,0 20,0 1.66908,0 3.33735,0.07331 5,0.21972 1.66265,-0.14641 3.33092,-0.21972 5,-0.21972 6.66667,0 13.33333,0 20,0 31.48023,0 57,25.51977 57,57 0,6.66667 0,13.33333 0,20 0,31.48023 -25.51977,57 -57,57 -16.66667,0 -33.33333,0 -50,0 -31.48023,0 -57,-25.51977 -57,-57 0,-6.66667 0,-13.33333 0,-20 0,-31.48023 25.51977,-57 57,-57 z"
     stroke-miterlimit="10"
     font-weight="none"
     font-size="none"
     text-anchor="none"
     style="font-family:none;mix-blend-mode:normal;fill:none;fill-rule:nonzero;stroke:#00deff;stroke-width:0.1;stroke-linecap:butt;stroke-linejoin:miter;stroke-miterlimit:10;stroke-dasharray:none;stroke-dashoffset:0"
     id="path134"
     inkscape:connector-curvature="0" />
  <path
     d="m 50.05,-7.95 c 6.66667,0 13.33333,0 20,0 1.669,0 3.33722,0.07204 5,0.21592 1.66278,-0.14388 3.331,-0.21592 5,-0.21592 6.66667,0 13.33333,0 20,0 32.03252,0 58,25.96748 58,58 0,6.66667 0,13.33333 0,20 0,32.03252 -25.96748,58 -58,58 -16.66667,0 -33.33333,0 -50,0 -32.03252,0 -58,-25.96748 -58,-58 0,-6.66667 0,-13.33333 0,-20 0,-32.03252 25.96748,-58 58,-58 z"
     stroke-miterlimit="10"
     font-weight="none"
     font-size="none"
     text-anchor="none"
     style="font-family:none;mix-blend-mode:normal;fill:none;fill-rule:nonzero;stroke:#00d2ff;stroke-width:0.1;stroke-linecap:butt;stroke-linejoin:miter;stroke-miterlimit:10;stroke-dasharray:none;stroke-dashoffset:0"
     id="path136"
     inkscape:connector-curvature="0" />
  <path
     d="m 50.05,-8.95 c 6.66667,0 13.33333,0 20,0 1.66892,0 3.33709,0.07081 5,0.21225 1.66291,-0.14143 3.33108,-0.21225 5,-0.21225 6.66667,0 13.33333,0 20,0 32.5848,0 59,26.4152 59,59 0,6.66667 0,13.33333 0,20 0,32.5848 -26.4152,59 -59,59 -16.66667,0 -33.33333,0 -50,0 -32.5848,0 -59,-26.4152 -59,-59 0,-6.66667 0,-13.33333 0,-20 0,-32.5848 26.4152,-59 59,-59 z"
     stroke-miterlimit="10"
     font-weight="none"
     font-size="none"
     text-anchor="none"
     style="font-family:none;mix-blend-mode:normal;fill:none;fill-rule:nonzero;stroke:#00c6ff;stroke-width:0.1;stroke-linecap:butt;stroke-linejoin:miter;stroke-miterlimit:10;stroke-dasharray:none;stroke-dashoffset:0"
     id="path138"
     inkscape:connector-curvature="0" />
  <path
     d="m 50.05,-9.95 c 6.66667,0 13.33333,0 20,0 1.66884,0 3.33696,0.06963 5,0.2087 1.66304,-0.13907 3.33116,-0.2087 5,-0.2087 6.66667,0 13.33333,0 20,0 33.13708,0 60,26.86292 60,60 0,6.66667 0,13.33333 0,20 0,33.13708 -26.86292,60 -60,60 -16.66667,0 -33.33333,0 -50,0 -33.13708,0 -60,-26.86292 -60,-60 0,-6.66667 0,-13.33333 0,-20 0,-33.13708 26.86292,-60 60,-60 z"
     stroke-miterlimit="10"
     font-weight="none"
     font-size="none"
     text-anchor="none"
     style="font-family:none;mix-blend-mode:normal;fill:none;fill-rule:nonzero;stroke:#00b9ff;stroke-width:0.1;stroke-linecap:butt;stroke-linejoin:miter;stroke-miterlimit:10;stroke-dasharray:none;stroke-dashoffset:0"
     id="path140"
     inkscape:connector-curvature="0" />
  <path
     d="m 50.05,-10.95 c 6.66667,0 13.33333,0 20,0 1.66877,0 3.33684,0.06848 5,0.20526 1.66316,-0.13678 3.33123,-0.20526 5,-0.20526 6.66667,0 13.33333,0 20,0 33.68937,0 61,27.31063 61,61 0,6.66667 0,13.33333 0,20 0,33.68937 -27.31063,61 -61,61 -16.66667,0 -33.33333,0 -50,0 -33.68937,0 -61,-27.31063 -61,-61 0,-6.66667 0,-13.33333 0,-20 0,-33.68937 27.31063,-61 61,-61 z"
     stroke-miterlimit="10"
     font-weight="none"
     font-size="none"
     text-anchor="none"
     style="font-family:none;mix-blend-mode:normal;fill:none;fill-rule:nonzero;stroke:#00adff;stroke-width:0.1;stroke-linecap:butt;stroke-linejoin:miter;stroke-miterlimit:10;stroke-dasharray:none;stroke-dashoffset:0"
     id="path142"
     inkscape:connector-curvature="0" />
  <path
     d="m 50.05,-11.95 c 6.66667,0 13.33333,0 20,0 1.66871,0 3.33673,0.06737 5,0.20194 1.66327,-0.13457 3.33129,-0.20194 5,-0.20194 6.66667,0 13.33333,0 20,0 34.24165,0 62,27.75835 62,62 0,6.66667 0,13.33333 0,20 0,34.24165 -27.75835,62 -62,62 -16.66667,0 -33.33333,0 -50,0 -34.24165,0 -62,-27.75835 -62,-62 0,-6.66667 0,-13.33333 0,-20 0,-34.24165 27.75835,-62 62,-62 z"
     stroke-miterlimit="10"
     font-weight="none"
     font-size="none"
     text-anchor="none"
     style="font-family:none;mix-blend-mode:normal;fill:none;fill-rule:nonzero;stroke:#00a1ff;stroke-width:0.1;stroke-linecap:butt;stroke-linejoin:miter;stroke-miterlimit:10;stroke-dasharray:none;stroke-dashoffset:0"
     id="path144"
     inkscape:connector-curvature="0" />
  <path
     d="m 50.05,-12.95 c 6.66667,0 13.33333,0 20,0 1.66864,0 3.33662,0.06629 5,0.19873 1.66338,-0.13243 3.33136,-0.19873 5,-0.19873 6.66667,0 13.33333,0 20,0 34.79394,0 63,28.20606 63,63 0,6.66667 0,13.33333 0,20 0,34.79394 -28.20606,63 -63,63 -16.66667,0 -33.33333,0 -50,0 -34.79394,0 -63,-28.20606 -63,-63 0,-6.66667 0,-13.33333 0,-20 0,-34.79394 28.20606,-63 63,-63 z"
     stroke-miterlimit="10"
     font-weight="none"
     font-size="none"
     text-anchor="none"
     style="font-family:none;mix-blend-mode:normal;fill:none;fill-rule:nonzero;stroke:#0095ff;stroke-width:0.1;stroke-linecap:butt;stroke-linejoin:miter;stroke-miterlimit:10;stroke-dasharray:none;stroke-dashoffset:0"
     id="path146"
     inkscape:connector-curvature="0" />
  <path
     d="m 50.05,-13.95 c 6.66667,0 13.33333,0 20,0 1.66858,0 3.33652,0.06525 5,0.19561 1.66348,-0.13036 3.33142,-0.19561 5,-0.19561 6.66667,0 13.33333,0 20,0 35.34622,0 64,28.65378 64,64 0,6.66667 0,13.33333 0,20 0,35.34622 -28.65378,64 -64,64 -16.66667,0 -33.33333,0 -50,0 -35.34622,0 -64,-28.65378 -64,-64 0,-6.66667 0,-13.33333 0,-20 0,-35.34622 28.65378,-64 64,-64 z"
     stroke-miterlimit="10"
     font-weight="none"
     font-size="none"
     text-anchor="none"
     style="font-family:none;mix-blend-mode:normal;fill:none;fill-rule:nonzero;stroke:#0089ff;stroke-width:0.1;stroke-linecap:butt;stroke-linejoin:miter;stroke-miterlimit:10;stroke-dasharray:none;stroke-dashoffset:0"
     id="path148"
     inkscape:connector-curvature="0" />
  <path
     d="m 50.05,-14.95 c 6.66667,0 13.33333,0 20,0 1.66852,0 3.33642,0.06425 5,0.19259 1.66358,-0.12835 3.33148,-0.19259 5,-0.19259 6.66667,0 13.33333,0 20,0 35.89851,0 65,29.10149 65,65 0,6.66667 0,13.33333 0,20 0,35.89851 -29.10149,65 -65,65 -16.66667,0 -33.33333,0 -50,0 -35.89851,0 -65,-29.10149 -65,-65 0,-6.66667 0,-13.33333 0,-20 0,-35.89851 29.10149,-65 65,-65 z"
     stroke-miterlimit="10"
     font-weight="none"
     font-size="none"
     text-anchor="none"
     style="font-family:none;mix-blend-mode:normal;fill:none;fill-rule:nonzero;stroke:#007dff;stroke-width:0.1;stroke-linecap:butt;stroke-linejoin:miter;stroke-miterlimit:10;stroke-dasharray:none;stroke-dashoffset:0"
     id="path150"
     inkscape:connector-curvature="0" />
  <path
     d="m 50.05,-15.95 c 6.66667,0 13.33333,0 20,0 1.66846,0 3.33633,0.06327 5,0.18967 1.66367,-0.1264 3.33154,-0.18967 5,-0.18967 6.66667,0 13.33333,0 20,0 36.45079,0 66,29.54921 66,66 0,6.66667 0,13.33333 0,20 0,36.45079 -29.54921,66 -66,66 -16.66667,0 -33.33333,0 -50,0 -36.45079,0 -66,-29.54921 -66,-66 0,-6.66667 0,-13.33333 0,-20 0,-36.45079 29.54921,-66 66,-66 z"
     stroke-miterlimit="10"
     font-weight="none"
     font-size="none"
     text-anchor="none"
     style="font-family:none;mix-blend-mode:normal;fill:none;fill-rule:nonzero;stroke:#0071ff;stroke-width:0.1;stroke-linecap:butt;stroke-linejoin:miter;stroke-miterlimit:10;stroke-dasharray:none;stroke-dashoffset:0"
     id="path152"
     inkscape:connector-curvature="0" />
  <path
     d="m 50.05,-16.95 c 6.66667,0 13.33333,0 20,0 1.66841,0 3.33624,0.06232 5,0.18683 1.66376,-0.12451 3.33159,-0.18683 5,-0.18683 6.66667,0 13.33333,0 20,0 37.00308,0 67,29.99692 67,67 0,6.66667 0,13.33333 0,20 0,37.00308 -29.99692,67 -67,67 -16.66667,0 -33.33333,0 -50,0 -37.00308,0 -67,-29.99692 -67,-67 0,-6.66667 0,-13.33333 0,-20 0,-37.00308 29.99692,-67 67,-67 z"
     stroke-miterlimit="10"
     font-weight="none"
     font-size="none"
     text-anchor="none"
     style="font-family:none;mix-blend-mode:normal;fill:none;fill-rule:nonzero;stroke:#0065ff;stroke-width:0.1;stroke-linecap:butt;stroke-linejoin:miter;stroke-miterlimit:10;stroke-dasharray:none;stroke-dashoffset:0"
     id="path154"
     inkscape:connector-curvature="0" />
  <path
     d="m 50.05,-17.95 c 6.66667,0 13.33333,0 20,0 1.66836,0 3.33616,0.0614 5,0.18407 1.66384,-0.12267 3.33164,-0.18407 5,-0.18407 6.66667,0 13.33333,0 20,0 37.55536,0 68,30.44464 68,68 0,6.66667 0,13.33333 0,20 0,37.55536 -30.44464,68 -68,68 -16.66667,0 -33.33333,0 -50,0 -37.55536,0 -68,-30.44464 -68,-68 0,-6.66667 0,-13.33333 0,-20 0,-37.55536 30.44464,-68 68,-68 z"
     stroke-miterlimit="10"
     font-weight="none"
     font-size="none"
     text-anchor="none"
     style="font-family:none;mix-blend-mode:normal;fill:none;fill-rule:nonzero;stroke:#0059ff;stroke-width:0.1;stroke-linecap:butt;stroke-linejoin:miter;stroke-miterlimit:10;stroke-dasharray:none;stroke-dashoffset:0"
     id="path156"
     inkscape:connector-curvature="0" />
  <path
     d="m 50.05,-18.95 c 6.66667,0 13.33333,0 20,0 1.66831,0 3.33607,0.06051 5,0.1814 1.66393,-0.12089 3.33169,-0.1814 5,-0.1814 6.66667,0 13.33333,0 20,0 38.10765,0 69,30.89235 69,69 0,6.66667 0,13.33333 0,20 0,38.10765 -30.89235,69 -69,69 -16.66667,0 -33.33333,0 -50,0 -38.10765,0 -69,-30.89235 -69,-69 0,-6.66667 0,-13.33333 0,-20 0,-38.10765 30.89235,-69 69,-69 z"
     stroke-miterlimit="10"
     font-weight="none"
     font-size="none"
     text-anchor="none"
     style="font-family:none;mix-blend-mode:normal;fill:none;fill-rule:nonzero;stroke:#004dff;stroke-width:0.1;stroke-linecap:butt;stroke-linejoin:miter;stroke-miterlimit:10;stroke-dasharray:none;stroke-dashoffset:0"
     id="path158"
     inkscape:connector-curvature="0" />
  <path
     d="m 50.05,-19.95 c 6.66667,0 13.33333,0 20,0 1.66826,0 3.336,0.05964 5,0.1788 1.664,-0.11916 3.33174,-0.1788 5,-0.1788 6.66667,0 13.33333,0 20,0 38.65993,0 70,31.34007 70,70 0,6.66667 0,13.33333 0,20 0,38.65993 -31.34007,70 -70,70 -16.66667,0 -33.33333,0 -50,0 -38.65993,0 -70,-31.34007 -70,-70 0,-6.66667 0,-13.33333 0,-20 0,-38.65993 31.34007,-70 70,-70 z"
     stroke-miterlimit="10"
     font-weight="none"
     font-size="none"
     text-anchor="none"
     style="font-family:none;mix-blend-mode:normal;fill:none;fill-rule:nonzero;stroke:#0041ff;stroke-width:0.1;stroke-linecap:butt;stroke-linejoin:miter;stroke-miterlimit:10;stroke-dasharray:none;stroke-dashoffset:0"
     id="path160"
     inkscape:connector-curvature="0" />
  <path
     d="m 50.05,-20.95 c 6.66667,0 13.33333,0 20,0 1.66822,0 3.33592,0.05879 5,0.17628 1.66408,-0.11748 3.33178,-0.17628 5,-0.17628 6.66667,0 13.33333,0 20,0 39.21222,0 71,31.78778 71,71 0,6.66667 0,13.33333 0,20 0,39.21222 -31.78778,71 -71,71 -16.66667,0 -33.33333,0 -50,0 -39.21222,0 -71,-31.78778 -71,-71 0,-6.66667 0,-13.33333 0,-20 0,-39.21222 31.78778,-71 71,-71 z"
     stroke-miterlimit="10"
     font-weight="none"
     font-size="none"
     text-anchor="none"
     style="font-family:none;mix-blend-mode:normal;fill:none;fill-rule:nonzero;stroke:#0034ff;stroke-width:0.1;stroke-linecap:butt;stroke-linejoin:miter;stroke-miterlimit:10;stroke-dasharray:none;stroke-dashoffset:0"
     id="path162"
     inkscape:connector-curvature="0" />
  <path
     d="m 50.05,-21.95 c 6.66667,0 13.33333,0 20,0 1.66818,0 3.33585,0.05798 5,0.17382 1.66415,-0.11585 3.33182,-0.17382 5,-0.17382 6.66667,0 13.33333,0 20,0 39.7645,0 72,32.2355 72,72 0,6.66667 0,13.33333 0,20 0,39.7645 -32.2355,72 -72,72 -16.66667,0 -33.33333,0 -50,0 -39.7645,0 -72,-32.2355 -72,-72 0,-6.66667 0,-13.33333 0,-20 0,-39.7645 32.2355,-72 72,-72 z"
     stroke-miterlimit="10"
     font-weight="none"
     font-size="none"
     text-anchor="none"
     style="font-family:none;mix-blend-mode:normal;fill:none;fill-rule:nonzero;stroke:#0028ff;stroke-width:0.1;stroke-linecap:butt;stroke-linejoin:miter;stroke-miterlimit:10;stroke-dasharray:none;stroke-dashoffset:0"
     id="path164"
     inkscape:connector-curvature="0" />
  <path
     d="m 50.05,-22.95 c 6.66667,0 13.33333,0 20,0 1.66814,0 3.33578,0.05718 5,0.17143 1.66422,-0.11426 3.33186,-0.17143 5,-0.17143 6.66667,0 13.33333,0 20,0 40.31679,0 73,32.68321 73,73 0,6.66667 0,13.33333 0,20 0,40.31679 -32.68321,73 -73,73 -16.66667,0 -33.33333,0 -50,0 -40.31679,0 -73,-32.68321 -73,-73 0,-6.66667 0,-13.33333 0,-20 0,-40.31679 32.68321,-73 73,-73 z"
     stroke-miterlimit="10"
     font-weight="none"
     font-size="none"
     text-anchor="none"
     style="font-family:none;mix-blend-mode:normal;fill:none;fill-rule:nonzero;stroke:#001cff;stroke-width:0.1;stroke-linecap:butt;stroke-linejoin:miter;stroke-miterlimit:10;stroke-dasharray:none;stroke-dashoffset:0"
     id="path166"
     inkscape:connector-curvature="0" />
  <path
     d="m 50.05,-23.95 c 6.66667,0 13.33333,0 20,0 1.6681,0 3.33572,0.0564 5,0.16911 1.66428,-0.11271 3.3319,-0.16911 5,-0.16911 6.66667,0 13.33333,0 20,0 40.86907,0 74,33.13093 74,74 0,6.66667 0,13.33333 0,20 0,40.86907 -33.13093,74 -74,74 -16.66667,0 -33.33333,0 -50,0 -40.86907,0 -74,-33.13093 -74,-74 0,-6.66667 0,-13.33333 0,-20 0,-40.86907 33.13093,-74 74,-74 z"
     stroke-miterlimit="10"
     font-weight="none"
     font-size="none"
     text-anchor="none"
     style="font-family:none;mix-blend-mode:normal;fill:none;fill-rule:nonzero;stroke:#0010ff;stroke-width:0.1;stroke-linecap:butt;stroke-linejoin:miter;stroke-miterlimit:10;stroke-dasharray:none;stroke-dashoffset:0"
     id="path168"
     inkscape:connector-curvature="0" />
  <path
     d="m 50.05,-24.95 c 6.66667,0 13.33333,0 20,0 1.66806,0 3.33565,0.05565 5,0.16685 1.66435,-0.1112 3.33194,-0.16685 5,-0.16685 6.66667,0 13.33333,0 20,0 41.42136,0 75,33.57864 75,75 0,6.66667 0,13.33333 0,20 0,41.42136 -33.57864,75 -75,75 -16.66667,0 -33.33333,0 -50,0 -41.42136,0 -75,-33.57864 -75,-75 0,-6.66667 0,-13.33333 0,-20 0,-41.42136 33.57864,-75 75,-75 z"
     stroke-miterlimit="10"
     font-weight="none"
     font-size="none"
     text-anchor="none"
     style="font-family:none;mix-blend-mode:normal;fill:none;fill-rule:nonzero;stroke:#0004ff;stroke-width:0.1;stroke-linecap:butt;stroke-linejoin:miter;stroke-miterlimit:10;stroke-dasharray:none;stroke-dashoffset:0"
     id="path170"
     inkscape:connector-curvature="0" />
  <path
     d="m 50.05,-25.95 c 6.66667,0 13.33333,0 20,0 1.66802,0 3.33559,0.05491 5,0.16465 1.66441,-0.10974 3.33198,-0.16465 5,-0.16465 6.66667,0 13.33333,0 20,0 41.97364,0 76,34.02636 76,76 0,6.66667 0,13.33333 0,20 0,41.97364 -34.02636,76 -76,76 -16.66667,0 -33.33333,0 -50,0 -41.97364,0 -76,-34.02636 -76,-76 0,-6.66667 0,-13.33333 0,-20 0,-41.97364 34.02636,-76 76,-76 z"
     stroke-miterlimit="10"
     font-weight="none"
     font-size="none"
     text-anchor="none"
     style="font-family:none;mix-blend-mode:normal;fill:none;fill-rule:nonzero;stroke:#0800ff;stroke-width:0.1;stroke-linecap:butt;stroke-linejoin:miter;stroke-miterlimit:10;stroke-dasharray:none;stroke-dashoffset:0"
     id="path172"
     inkscape:connector-curvature="0" />
  <path
     d="m 50.05,-26.95 c 6.66667,0 13.33333,0 20,0 1.66799,0 3.33553,0.0542 5,0.16251 1.66447,-0.10831 3.33201,-0.16251 5,-0.16251 6.66667,0 13.33333,0 20,0 42.52593,0 77,34.47407 77,77 0,6.66667 0,13.33333 0,20 0,42.52593 -34.47407,77 -77,77 -16.66667,0 -33.33333,0 -50,0 -42.52593,0 -77,-34.47407 -77,-77 0,-6.66667 0,-13.33333 0,-20 0,-42.52593 34.47407,-77 77,-77 z"
     stroke-miterlimit="10"
     font-weight="none"
     font-size="none"
     text-anchor="none"
     style="font-family:none;mix-blend-mode:normal;fill:none;fill-rule:nonzero;stroke:#1400ff;stroke-width:0.1;stroke-linecap:butt;stroke-linejoin:miter;stroke-miterlimit:10;stroke-dasharray:none;stroke-dashoffset:0"
     id="path174"
     inkscape:connector-curvature="0" />
  <path
     d="m 50.05,-27.95 c 6.66667,0 13.33333,0 20,0 1.66795,0 3.33548,0.0535 5,0.16042 1.66452,-0.10692 3.33205,-0.16042 5,-0.16042 6.66667,0 13.33333,0 20,0 43.07821,0 78,34.92179 78,78 0,6.66667 0,13.33333 0,20 0,43.07821 -34.92179,78 -78,78 -16.66667,0 -33.33333,0 -50,0 -43.07821,0 -78,-34.92179 -78,-78 0,-6.66667 0,-13.33333 0,-20 0,-43.07821 34.92179,-78 78,-78 z"
     stroke-miterlimit="10"
     font-weight="none"
     font-size="none"
     text-anchor="none"
     style="font-family:none;mix-blend-mode:normal;fill:none;fill-rule:nonzero;stroke:#2000ff;stroke-width:0.1;stroke-linecap:butt;stroke-linejoin:miter;stroke-miterlimit:10;stroke-dasharray:none;stroke-dashoffset:0"
     id="path176"
     inkscape:connector-curvature="0" />
  <path
     d="m 50.05,-28.95 c 6.66667,0 13.33333,0 20,0 1.66792,0 3.33542,0.05282 5,0.15839 1.66458,-0.10556 3.33208,-0.15839 5,-0.15839 6.66667,0 13.33333,0 20,0 43.6305,0 79,35.3695 79,79 0,6.66667 0,13.33333 0,20 0,43.6305 -35.3695,79 -79,79 -16.66667,0 -33.33333,0 -50,0 -43.6305,0 -79,-35.3695 -79,-79 0,-6.66667 0,-13.33333 0,-20 0,-43.6305 35.3695,-79 79,-79 z"
     stroke-miterlimit="10"
     font-weight="none"
     font-size="none"
     text-anchor="none"
     style="font-family:none;mix-blend-mode:normal;fill:none;fill-rule:nonzero;stroke:#2c00ff;stroke-width:0.1;stroke-linecap:butt;stroke-linejoin:miter;stroke-miterlimit:10;stroke-dasharray:none;stroke-dashoffset:0"
     id="path178"
     inkscape:connector-curvature="0" />
  <path
     d="m 50.05,-29.95 c 6.66667,0 13.33333,0 20,0 1.66789,0 3.33537,0.05216 5,0.1564 1.66463,-0.10424 3.33211,-0.1564 5,-0.1564 6.66667,0 13.33333,0 20,0 44.18278,0 80,35.81722 80,80 0,6.66667 0,13.33333 0,20 0,44.18278 -35.81722,80 -80,80 -16.66667,0 -33.33333,0 -50,0 -44.18278,0 -80,-35.81722 -80,-80 0,-6.66667 0,-13.33333 0,-20 0,-44.18278 35.81722,-80 80,-80 z"
     stroke-miterlimit="10"
     font-weight="none"
     font-size="none"
     text-anchor="none"
     style="font-family:none;mix-blend-mode:normal;fill:none;fill-rule:nonzero;stroke:#3800ff;stroke-width:0.1;stroke-linecap:butt;stroke-linejoin:miter;stroke-miterlimit:10;stroke-dasharray:none;stroke-dashoffset:0"
     id="path180"
     inkscape:connector-curvature="0" />
  <path
     d="m 50.05,-30.95 c 6.66667,0 13.33333,0 20,0 1.66786,0 3.33532,0.05151 5,0.15447 1.66468,-0.10295 3.33214,-0.15447 5,-0.15447 6.66667,0 13.33333,0 20,0 44.73506,0 81,36.26494 81,81 0,6.66667 0,13.33333 0,20 0,44.73506 -36.26494,81 -81,81 -16.66667,0 -33.33333,0 -50,0 -44.73506,0 -81,-36.26494 -81,-81 0,-6.66667 0,-13.33333 0,-20 0,-44.73506 36.26494,-81 81,-81 z"
     stroke-miterlimit="10"
     font-weight="none"
     font-size="none"
     text-anchor="none"
     style="font-family:none;mix-blend-mode:normal;fill:none;fill-rule:nonzero;stroke:#4500ff;stroke-width:0.1;stroke-linecap:butt;stroke-linejoin:miter;stroke-miterlimit:10;stroke-dasharray:none;stroke-dashoffset:0"
     id="path182"
     inkscape:connector-curvature="0" />
  <path
     d="m 50.05,-31.95 c 6.66667,0 13.33333,0 20,0 1.66783,0 3.33527,0.05088 5,0.15258 1.66473,-0.1017 3.33217,-0.15258 5,-0.15258 6.66667,0 13.33333,0 20,0 45.28735,0 82,36.71265 82,82 0,6.66667 0,13.33333 0,20 0,45.28735 -36.71265,82 -82,82 -16.66667,0 -33.33333,0 -50,0 -45.28735,0 -82,-36.71265 -82,-82 0,-6.66667 0,-13.33333 0,-20 0,-45.28735 36.71265,-82 82,-82 z"
     stroke-miterlimit="10"
     font-weight="none"
     font-size="none"
     text-anchor="none"
     style="font-family:none;mix-blend-mode:normal;fill:none;fill-rule:nonzero;stroke:#5100ff;stroke-width:0.1;stroke-linecap:butt;stroke-linejoin:miter;stroke-miterlimit:10;stroke-dasharray:none;stroke-dashoffset:0"
     id="path184"
     inkscape:connector-curvature="0" />
  <path
     d="m 50.05,-32.95 c 6.66667,0 13.33333,0 20,0 1.6678,0 3.33523,0.05027 5,0.15074 1.66477,-0.10047 3.3322,-0.15074 5,-0.15074 6.66667,0 13.33333,0 20,0 45.83963,0 83,37.16037 83,83 0,6.66667 0,13.33333 0,20 0,45.83963 -37.16037,83 -83,83 -16.66667,0 -33.33333,0 -50,0 -45.83963,0 -83,-37.16037 -83,-83 0,-6.66667 0,-13.33333 0,-20 0,-45.83963 37.16037,-83 83,-83 z"
     stroke-miterlimit="10"
     font-weight="none"
     font-size="none"
     text-anchor="none"
     style="font-family:none;mix-blend-mode:normal;fill:none;fill-rule:nonzero;stroke:#5d00ff;stroke-width:0.1;stroke-linecap:butt;stroke-linejoin:miter;stroke-miterlimit:10;stroke-dasharray:none;stroke-dashoffset:0"
     id="path186"
     inkscape:connector-curvature="0" />
  <path
     d="m 50.05,-33.95 c 6.66667,0 13.33333,0 20,0 1.66778,0 3.33518,0.04967 5,0.14894 1.66482,-0.09927 3.33222,-0.14894 5,-0.14894 6.66667,0 13.33333,0 20,0 46.39192,0 84,37.60808 84,84 0,6.66667 0,13.33333 0,20 0,46.39192 -37.60808,84 -84,84 -16.66667,0 -33.33333,0 -50,0 -46.39192,0 -84,-37.60808 -84,-84 0,-6.66667 0,-13.33333 0,-20 0,-46.39192 37.60808,-84 84,-84 z"
     stroke-miterlimit="10"
     font-weight="none"
     font-size="none"
     text-anchor="none"
     style="font-family:none;mix-blend-mode:normal;fill:none;fill-rule:nonzero;stroke:#6900ff;stroke-width:0.1;stroke-linecap:butt;stroke-linejoin:miter;stroke-miterlimit:10;stroke-dasharray:none;stroke-dashoffset:0"
     id="path188"
     inkscape:connector-curvature="0" />
  <path
     d="m 50.05,-34.95 c 6.66667,0 13.33333,0 20,0 1.66775,0 3.33514,0.04908 5,0.14719 1.66486,-0.0981 3.33225,-0.14719 5,-0.14719 6.66667,0 13.33333,0 20,0 46.9442,0 85,38.0558 85,85 0,6.66667 0,13.33333 0,20 0,46.9442 -38.0558,85 -85,85 -16.66667,0 -33.33333,0 -50,0 -46.9442,0 -85,-38.0558 -85,-85 0,-6.66667 0,-13.33333 0,-20 0,-46.9442 38.0558,-85 85,-85 z"
     stroke-miterlimit="10"
     font-weight="none"
     font-size="none"
     text-anchor="none"
     style="font-family:none;mix-blend-mode:normal;fill:none;fill-rule:nonzero;stroke:#7500ff;stroke-width:0.1;stroke-linecap:butt;stroke-linejoin:miter;stroke-miterlimit:10;stroke-dasharray:none;stroke-dashoffset:0"
     id="path190"
     inkscape:connector-curvature="0" />
  <path
     d="m 50.05,-35.95 c 6.66667,0 13.33333,0 20,0 1.66772,0 3.3351,0.04851 5,0.14547 1.6649,-0.09696 3.33228,-0.14547 5,-0.14547 6.66667,0 13.33333,0 20,0 47.49649,0 86,38.50351 86,86 0,6.66667 0,13.33333 0,20 0,47.49649 -38.50351,86 -86,86 -16.66667,0 -33.33333,0 -50,0 -47.49649,0 -86,-38.50351 -86,-86 0,-6.66667 0,-13.33333 0,-20 0,-47.49649 38.50351,-86 86,-86 z"
     stroke-miterlimit="10"
     font-weight="none"
     font-size="none"
     text-anchor="none"
     style="font-family:none;mix-blend-mode:normal;fill:none;fill-rule:nonzero;stroke:#8100ff;stroke-width:0.1;stroke-linecap:butt;stroke-linejoin:miter;stroke-miterlimit:10;stroke-dasharray:none;stroke-dashoffset:0"
     id="path192"
     inkscape:connector-curvature="0" />
  <path
     d="m 50.05,-36.95 c 6.66667,0 13.33333,0 20,0 1.6677,0 3.33506,0.04795 5,0.1438 1.66494,-0.09584 3.3323,-0.1438 5,-0.1438 6.66667,0 13.33333,0 20,0 48.04877,0 87,38.95123 87,87 0,6.66667 0,13.33333 0,20 0,48.04877 -38.95123,87 -87,87 -16.66667,0 -33.33333,0 -50,0 -48.04877,0 -87,-38.95123 -87,-87 0,-6.66667 0,-13.33333 0,-20 0,-48.04877 38.95123,-87 87,-87 z"
     stroke-miterlimit="10"
     font-weight="none"
     font-size="none"
     text-anchor="none"
     style="font-family:none;mix-blend-mode:normal;fill:none;fill-rule:nonzero;stroke:#8d00ff;stroke-width:0.1;stroke-linecap:butt;stroke-linejoin:miter;stroke-miterlimit:10;stroke-dasharray:none;stroke-dashoffset:0"
     id="path194"
     inkscape:connector-curvature="0" />
  <path
     d="m 50.05,-37.95 c 6.66667,0 13.33333,0 20,0 1.66768,0 3.33502,0.04741 5,0.14216 1.66498,-0.09475 3.33232,-0.14216 5,-0.14216 6.66667,0 13.33333,0 20,0 48.60106,0 88,39.39894 88,88 0,6.66667 0,13.33333 0,20 0,48.60106 -39.39894,88 -88,88 -16.66667,0 -33.33333,0 -50,0 -48.60106,0 -88,-39.39894 -88,-88 0,-6.66667 0,-13.33333 0,-20 0,-48.60106 39.39894,-88 88,-88 z"
     stroke-miterlimit="10"
     font-weight="none"
     font-size="none"
     text-anchor="none"
     style="font-family:none;mix-blend-mode:normal;fill:none;fill-rule:nonzero;stroke:#9900ff;stroke-width:0.1;stroke-linecap:butt;stroke-linejoin:miter;stroke-miterlimit:10;stroke-dasharray:none;stroke-dashoffset:0"
     id="path196"
     inkscape:connector-curvature="0" />
  <path
     d="m 50.05,-38.95 c 6.66667,0 13.33333,0 20,0 1.66765,0 3.33498,0.04687 5,0.14056 1.66502,-0.09369 3.33235,-0.14056 5,-0.14056 6.66667,0 13.33333,0 20,0 49.15334,0 89,39.84666 89,89 0,6.66667 0,13.33333 0,20 0,49.15334 -39.84666,89 -89,89 -16.66667,0 -33.33333,0 -50,0 -49.15334,0 -89,-39.84666 -89,-89 0,-6.66667 0,-13.33333 0,-20 0,-49.15334 39.84666,-89 89,-89 z"
     stroke-miterlimit="10"
     font-weight="none"
     font-size="none"
     text-anchor="none"
     style="font-family:none;mix-blend-mode:normal;fill:none;fill-rule:nonzero;stroke:#a500ff;stroke-width:0.1;stroke-linecap:butt;stroke-linejoin:miter;stroke-miterlimit:10;stroke-dasharray:none;stroke-dashoffset:0"
     id="path198"
     inkscape:connector-curvature="0" />
  <path
     d="m 50.05,-39.95 c 6.66667,0 13.33333,0 20,0 1.66763,0 3.33494,0.04635 5,0.139 1.66506,-0.09265 3.33237,-0.139 5,-0.139 6.66667,0 13.33333,0 20,0 49.70563,0 90,40.29437 90,90 0,6.66667 0,13.33333 0,20 0,49.70563 -40.29437,90 -90,90 -16.66667,0 -33.33333,0 -50,0 -49.70563,0 -90,-40.29437 -90,-90 0,-6.66667 0,-13.33333 0,-20 0,-49.70563 40.29437,-90 90,-90 z"
     stroke-miterlimit="10"
     font-weight="none"
     font-size="none"
     text-anchor="none"
     style="font-family:none;mix-blend-mode:normal;fill:none;fill-rule:nonzero;stroke:#b100ff;stroke-width:0.1;stroke-linecap:butt;stroke-linejoin:miter;stroke-miterlimit:10;stroke-dasharray:none;stroke-dashoffset:0"
     id="path200"
     inkscape:connector-curvature="0" />
  <path
     d="m 50.05,-40.95 c 6.66667,0 13.33333,0 20,0 1.66761,0 3.33491,0.04584 5,0.13747 1.66509,-0.09163 3.33239,-0.13747 5,-0.13747 6.66667,0 13.33333,0 20,0 50.25791,0 91,40.74209 91,91 0,6.66667 0,13.33333 0,20 0,50.25791 -40.74209,91 -91,91 -16.66667,0 -33.33333,0 -50,0 -50.25791,0 -91,-40.74209 -91,-91 0,-6.66667 0,-13.33333 0,-20 0,-50.25791 40.74209,-91 91,-91 z"
     stroke-miterlimit="10"
     font-weight="none"
     font-size="none"
     text-anchor="none"
     style="font-family:none;mix-blend-mode:normal;fill:none;fill-rule:nonzero;stroke:#bd00ff;stroke-width:0.1;stroke-linecap:butt;stroke-linejoin:miter;stroke-miterlimit:10;stroke-dasharray:none;stroke-dashoffset:0"
     id="path202"
     inkscape:connector-curvature="0" />
  <path
     d="m 50.05,-41.95 c 6.66667,0 13.33333,0 20,0 1.66759,0 3.33487,0.04534 5,0.13597 1.66513,-0.09063 3.33241,-0.13597 5,-0.13597 6.66667,0 13.33333,0 20,0 50.8102,0 92,41.1898 92,92 0,6.66667 0,13.33333 0,20 0,50.8102 -41.1898,92 -92,92 -16.66667,0 -33.33333,0 -50,0 -50.8102,0 -92,-41.1898 -92,-92 0,-6.66667 0,-13.33333 0,-20 0,-50.8102 41.1898,-92 92,-92 z"
     stroke-miterlimit="10"
     font-weight="none"
     font-size="none"
     text-anchor="none"
     style="font-family:none;mix-blend-mode:normal;fill:none;fill-rule:nonzero;stroke:#ca00ff;stroke-width:0.1;stroke-linecap:butt;stroke-linejoin:miter;stroke-miterlimit:10;stroke-dasharray:none;stroke-dashoffset:0"
     id="path204"
     inkscape:connector-curvature="0" />
  <path
     d="m 50.05,-42.95 c 6.66667,0 13.33333,0 20,0 1.66757,0 3.33484,0.04485 5,0.13451 1.66516,-0.08965 3.33243,-0.13451 5,-0.13451 6.66667,0 13.33333,0 20,0 51.36248,0 93,41.63752 93,93 0,6.66667 0,13.33333 0,20 0,51.36248 -41.63752,93 -93,93 -16.66667,0 -33.33333,0 -50,0 -51.36248,0 -93,-41.63752 -93,-93 0,-6.66667 0,-13.33333 0,-20 0,-51.36248 41.63752,-93 93,-93 z"
     stroke-miterlimit="10"
     font-weight="none"
     font-size="none"
     text-anchor="none"
     style="font-family:none;mix-blend-mode:normal;fill:none;fill-rule:nonzero;stroke:#d600ff;stroke-width:0.1;stroke-linecap:butt;stroke-linejoin:miter;stroke-miterlimit:10;stroke-dasharray:none;stroke-dashoffset:0"
     id="path206"
     inkscape:connector-curvature="0" />
  <path
     d="m 50.05,-43.95 c 6.66667,0 13.33333,0 20,0 1.66755,0 3.33481,0.04437 5,0.13307 1.66519,-0.0887 3.33245,-0.13307 5,-0.13307 6.66667,0 13.33333,0 20,0 51.91477,0 94,42.08523 94,94 0,6.66667 0,13.33333 0,20 0,51.91477 -42.08523,94 -94,94 -16.66667,0 -33.33333,0 -50,0 -51.91477,0 -94,-42.08523 -94,-94 0,-6.66667 0,-13.33333 0,-20 0,-51.91477 42.08523,-94 94,-94 z"
     stroke-miterlimit="10"
     font-weight="none"
     font-size="none"
     text-anchor="none"
     style="font-family:none;mix-blend-mode:normal;fill:none;fill-rule:nonzero;stroke:#e200ff;stroke-width:0.1;stroke-linecap:butt;stroke-linejoin:miter;stroke-miterlimit:10;stroke-dasharray:none;stroke-dashoffset:0"
     id="path208"
     inkscape:connector-curvature="0" />
  <path
     d="m 50.05,-44.95 c 6.66667,0 13.33333,0 20,0 1.66753,0 3.33478,0.04391 5,0.13167 1.66522,-0.08776 3.33247,-0.13167 5,-0.13167 6.66667,0 13.33333,0 20,0 52.46705,0 95,42.53295 95,95 0,6.66667 0,13.33333 0,20 0,52.46705 -42.53295,95 -95,95 -16.66667,0 -33.33333,0 -50,0 -52.46705,0 -95,-42.53295 -95,-95 0,-6.66667 0,-13.33333 0,-20 0,-52.46705 42.53295,-95 95,-95 z"
     stroke-miterlimit="10"
     font-weight="none"
     font-size="none"
     text-anchor="none"
     style="font-family:none;mix-blend-mode:normal;fill:none;fill-rule:nonzero;stroke:#ee00ff;stroke-width:0.1;stroke-linecap:butt;stroke-linejoin:miter;stroke-miterlimit:10;stroke-dasharray:none;stroke-dashoffset:0"
     id="path210"
     inkscape:connector-curvature="0" />
  <path
     d="m 50.05,-45.95 c 6.66667,0 13.33333,0 20,0 1.66752,0 3.33475,0.04345 5,0.1303 1.66525,-0.08685 3.33248,-0.1303 5,-0.1303 6.66667,0 13.33333,0 20,0 53.01934,0 96,42.98066 96,96 0,6.66667 0,13.33333 0,20 0,53.01934 -42.98066,96 -96,96 -16.66667,0 -33.33333,0 -50,0 -53.01934,0 -96,-42.98066 -96,-96 0,-6.66667 0,-13.33333 0,-20 0,-53.01934 42.98066,-96 96,-96 z"
     stroke-miterlimit="10"
     font-weight="none"
     font-size="none"
     text-anchor="none"
     style="font-family:none;mix-blend-mode:normal;fill:none;fill-rule:nonzero;stroke:#fa00ff;stroke-width:0.1;stroke-linecap:butt;stroke-linejoin:miter;stroke-miterlimit:10;stroke-dasharray:none;stroke-dashoffset:0"
     id="path212"
     inkscape:connector-curvature="0" />
  <path
     d="m 50.05,-46.95 c 6.66667,0 13.33333,0 20,0 1.6675,0 3.33472,0.043 5,0.12895 1.66528,-0.08595 3.3325,-0.12895 5,-0.12895 6.66667,0 13.33333,0 20,0 53.57162,0 97,43.42838 97,97 0,6.66667 0,13.33333 0,20 0,53.57162 -43.42838,97 -97,97 -16.66667,0 -33.33333,0 -50,0 -53.57162,0 -97,-43.42838 -97,-97 0,-6.66667 0,-13.33333 0,-20 0,-53.57162 43.42838,-97 97,-97 z"
     stroke-miterlimit="10"
     font-weight="none"
     font-size="none"
     text-anchor="none"
     style="font-family:none;mix-blend-mode:normal;fill:none;fill-rule:nonzero;stroke:#ff00f8;stroke-width:0.1;stroke-linecap:butt;stroke-linejoin:miter;stroke-miterlimit:10;stroke-dasharray:none;stroke-dashoffset:0"
     id="path214"
     inkscape:connector-curvature="0" />
  <path
     d="m 50.05,-47.95 c 6.66667,0 13.33333,0 20,0 1.66748,0 3.33469,0.04256 5,0.12763 1.66531,-0.08508 3.33252,-0.12763 5,-0.12763 6.66667,0 13.33333,0 20,0 54.12391,0 98,43.87609 98,98 0,6.66667 0,13.33333 0,20 0,54.12391 -43.87609,98 -98,98 -16.66667,0 -33.33333,0 -50,0 -54.12391,0 -98,-43.87609 -98,-98 0,-6.66667 0,-13.33333 0,-20 0,-54.12391 43.87609,-98 98,-98 z"
     stroke-miterlimit="10"
     font-weight="none"
     font-size="none"
     text-anchor="none"
     style="font-family:none;mix-blend-mode:normal;fill:none;fill-rule:nonzero;stroke:#ff00ec;stroke-width:0.1;stroke-linecap:butt;stroke-linejoin:miter;stroke-miterlimit:10;stroke-dasharray:none;stroke-dashoffset:0"
     id="path216"
     inkscape:connector-curvature="0" />
  <path
     d="m 50.05,-48.95 c 6.66667,0 13.33333,0 20,0 1.66746,0 3.33466,0.04213 5,0.12634 1.66534,-0.08422 3.33254,-0.12634 5,-0.12634 6.66667,0 13.33333,0 20,0 54.67619,0 99,44.32381 99,99 0,6.66667 0,13.33333 0,20 0,54.67619 -44.32381,99 -99,99 -16.66667,0 -33.33333,0 -50,0 -54.67619,0 -99,-44.32381 -99,-99 0,-6.66667 0,-13.33333 0,-20 0,-54.67619 44.32381,-99 99,-99 z"
     stroke-miterlimit="10"
     font-weight="none"
     font-size="none"
     text-anchor="none"
     style="font-family:none;mix-blend-mode:normal;fill:none;fill-rule:nonzero;stroke:#ff00e0;stroke-width:0.1;stroke-linecap:butt;stroke-linejoin:miter;stroke-miterlimit:10;stroke-dasharray:none;stroke-dashoffset:0"
     id="path218"
     inkscape:connector-curvature="0" />
  <path
     d="m 50.05,-49.95 c 6.66667,0 13.33333,0 20,0 1.66745,0 3.33464,0.04171 5,0.12508 1.66536,-0.08337 3.33255,-0.12508 5,-0.12508 6.66667,0 13.33333,0 20,0 55.22847,0 100,44.77153 100,100 0,6.66667 0,13.33333 0,20 0,55.22847 -44.77153,100 -100,100 -16.66667,0 -33.33333,0 -50,0 -55.22847,0 -100,-44.77153 -100,-100 0,-6.66667 0,-13.33333 0,-20 0,-55.22847 44.77153,-100 100,-100 z"
     stroke-miterlimit="10"
     font-weight="none"
     font-size="none"
     text-anchor="none"
     style="font-family:none;mix-blend-mode:normal;fill:none;fill-rule:nonzero;stroke:#ff00d4;stroke-width:0.1;stroke-linecap:butt;stroke-linejoin:miter;stroke-miterlimit:10;stroke-dasharray:none;stroke-dashoffset:0"
     id="path220"
     inkscape:connector-curvature="0" />
</svg>
