<svg version="1.1" baseProfile="full" viewBox=" -50 -50 200 170 " viewPort=" -50 -50 200 170 " xmlns="http://www.w3.org/2000/svg"> 
<path d="M50,50h20v15h10v-15h20v20h-50zM90,55v5h5v-5zM90,63v5h5v-5z" fill="none" fill-rule="nonzero" stroke="#000000" stroke-width="0.1" stroke-linecap="butt" stroke-linejoin="miter" stroke-miterlimit="10" stroke-dasharray="" stroke-dashoffset="0" font-family="none" font-weight="none" font-size="none" text-anchor="none" style="mix-blend-mode: normal"></path>
<path d="M59,61c0.66667,0 1.33333,0 2,0c0,-0.66667 0,-1.33333 0,-2c-0.66667,0 -1.33333,0 -2,0c0,0.66667 0,1.33333 0,2z" fill="none" fill-rule="nonzero" stroke="#ff0c00" stroke-width="0.1" stroke-linecap="butt" stroke-linejoin="miter" stroke-miterlimit="10" stroke-dasharray="" stroke-dashoffset="0" font-family="none" font-weight="none" font-size="none" text-anchor="none" style="mix-blend-mode: normal"></path>
<path d="M58,62c1.33333,0 2.66667,0 4,0c0,-1.33333 0,-2.66667 0,-4c-1.33333,0 -2.66667,0 -4,0c0,1.33333 0,2.66667 0,4z" fill="none" fill-rule="nonzero" stroke="#ff1800" stroke-width="0.1" stroke-linecap="butt" stroke-linejoin="miter" stroke-miterlimit="10" stroke-dasharray="" stroke-dashoffset="0" font-family="none" font-weight="none" font-size="none" text-anchor="none" style="mix-blend-mode: normal"></path>
<path d="M57,63c2,0 4,0 6,0c0,-2 0,-4 0,-6c-2,0 -4,0 -6,0c0,2 0,4 0,6z" fill="none" fill-rule="nonzero" stroke="#ff2400" stroke-width="0.1" stroke-linecap="butt" stroke-linejoin="miter" stroke-miterlimit="10" stroke-dasharray="" stroke-dashoffset="0" font-family="none" font-weight="none" font-size="none" text-anchor="none" style="mix-blend-mode: normal"></path>
<path d="M56,64c2.66667,0 5.33333,0 8,0c0,-2.66667 0,-5.33333 0,-8c-2.66667,0 -5.33333,0 -8,0c0,2.66667 0,5.33333 0,8z" fill="none" fill-rule="nonzero" stroke="#ff3000" stroke-width="0.1" stroke-linecap="butt" stroke-linejoin="miter" stroke-miterlimit="10" stroke-dasharray="" stroke-dashoffset="0" font-family="none" font-weight="none" font-size="none" text-anchor="none" style="mix-blend-mode: normal"></path>
<path d="M65,55c0,3.33333 0,6.66667 0,10c-3.33333,0 -6.66667,0 -10,0c0,-3.33333 0,-6.66667 0,-10c3.33333,0 6.66667,0 10,0zM85.2289,61.5c-0.14872,0.47352 -0.2289,0.9774 -0.2289,1.5c0,-1 0,-2 0,-3c0,0.5226 0.08018,1.02648 0.2289,1.5z" fill="none" fill-rule="nonzero" stroke="#ff3c00" stroke-width="0.1" stroke-linecap="butt" stroke-linejoin="miter" stroke-miterlimit="10" stroke-dasharray="" stroke-dashoffset="0" font-family="none" font-weight="none" font-size="none" text-anchor="none" style="mix-blend-mode: normal"></path>
<path d="M54,54c4,0 8,0 12,0c0,3.66667 0,7.33333 0,11c0,0.3453 0.04375,0.68038 0.12602,1c-4.04201,0 -8.08401,0 -12.12602,0c0,-4 0,-8 0,-12zM84,65c0,-3.66667 0,-7.33333 0,-11c0.70867,0 1.41734,0 2.12602,0c-0.08226,0.31962 -0.12602,0.6547 -0.12602,1c0,1.66667 0,3.33333 0,5c0,0.53045 0.10325,1.03678 0.29076,1.5c-0.1875,0.46322 -0.29076,0.96955 -0.29076,1.5c0,1 0,2 0,3c-0.70867,0 -1.41734,0 -2.12602,0c0.08226,-0.31962 0.12602,-0.6547 0.12602,-1z" fill="none" fill-rule="nonzero" stroke="#ff4900" stroke-width="0.1" stroke-linecap="butt" stroke-linejoin="miter" stroke-miterlimit="10" stroke-dasharray="" stroke-dashoffset="0" font-family="none" font-weight="none" font-size="none" text-anchor="none" style="mix-blend-mode: normal"></path>
<path d="M53,53c4.66667,0 9.33333,0 14,0c0,4 0,8 0,12c0,0.76835 0.28885,1.46924 0.76389,2c-4.9213,0 -9.8426,0 -14.76389,0c0,-4.66667 0,-9.33333 0,-14zM83,65c0,-4 0,-8 0,-12c1.58796,0 3.17593,0 4.76389,0c-0.47504,0.53076 -0.76389,1.23165 -0.76389,2c0,1.66667 0,3.33333 0,5c0,0.54643 0.14609,1.05874 0.40135,1.5c-0.25526,0.44126 -0.40135,0.95357 -0.40135,1.5c0,1.33333 0,2.66667 0,4c-1.58796,0 -3.17593,0 -4.76389,0c0.47504,-0.53076 0.76389,-1.23165 0.76389,-2z" fill="none" fill-rule="nonzero" stroke="#ff5500" stroke-width="0.1" stroke-linecap="butt" stroke-linejoin="miter" stroke-miterlimit="10" stroke-dasharray="" stroke-dashoffset="0" font-family="none" font-weight="none" font-size="none" text-anchor="none" style="mix-blend-mode: normal"></path>
<path d="M52,52c5.33333,0 10.66667,0 16,0c0,4.33333 0,8.66667 0,13c0,1.10457 0.89543,2 2,2c3.33333,0 6.66667,0 10,0c1.10457,0 2,-0.89543 2,-2c0,-4.33333 0,-8.66667 0,-13c5.33333,0 10.66667,0 16,0c0,5.33333 0,10.66667 0,16c-0.33333,0 -0.66667,0 -1,0c0,-1.66667 0,-3.33333 0,-5c0,-0.59735 -0.26188,-1.13353 -0.67709,-1.5c0.41521,-0.36647 0.67709,-0.90265 0.67709,-1.5c0,-1.66667 0,-3.33333 0,-5c0,-1.10457 -0.89543,-2 -2,-2c-1.66667,0 -3.33333,0 -5,0c-1.10457,0 -2,0.89543 -2,2c0,1.66667 0,3.33333 0,5c0,0.59735 0.26188,1.13353 0.67709,1.5c-0.41521,0.36647 -0.67709,0.90265 -0.67709,1.5c0,1.66667 0,3.33333 0,5c-12,0 -24,0 -36,0c0,-5.33333 0,-10.66667 0,-16z" fill="none" fill-rule="nonzero" stroke="#ff6100" stroke-width="0.1" stroke-linecap="butt" stroke-linejoin="miter" stroke-miterlimit="10" stroke-dasharray="" stroke-dashoffset="0" font-family="none" font-weight="none" font-size="none" text-anchor="none" style="mix-blend-mode: normal"></path>
<path d="M51,51c6,0 12,0 18,0c0,4.66667 0,9.33333 0,14c0,0.55228 0.44772,1 1,1c3.33333,0 6.66667,0 10,0c0.55228,0 1,-0.44772 1,-1c0,-4.66667 0,-9.33333 0,-14c6,0 12,0 18,0c0,6 0,12 0,18c-1.33333,0 -2.66667,0 -4,0c0.55228,0 1,-0.44772 1,-1c0,-1.66667 0,-3.33333 0,-5c0,-0.55228 -0.44772,-1 -1,-1c-1.66667,0 -3.33333,0 -5,0c-0.55228,0 -1,0.44772 -1,1c0,1.66667 0,3.33333 0,5c0,0.55228 0.44772,1 1,1c-13,0 -26,0 -39,0c0,-6 0,-12 0,-18zM89,55c0,1.66667 0,3.33333 0,5c0,0.55228 0.44772,1 1,1c1.66667,0 3.33333,0 5,0c0.55228,0 1,-0.44772 1,-1c0,-1.66667 0,-3.33333 0,-5c0,-0.55228 -0.44772,-1 -1,-1c-1.66667,0 -3.33333,0 -5,0c-0.55228,0 -1,0.44772 -1,1z" fill="none" fill-rule="nonzero" stroke="#ff6d00" stroke-width="0.1" stroke-linecap="butt" stroke-linejoin="miter" stroke-miterlimit="10" stroke-dasharray="" stroke-dashoffset="0" font-family="none" font-weight="none" font-size="none" text-anchor="none" style="mix-blend-mode: normal"></path>
<path d="M50,49c6.66667,0 13.33333,0 20,0c0.55228,0 1,0.44772 1,1c0,4.66667 0,9.33333 0,14c2.66667,0 5.33333,0 8,0c0,-4.66667 0,-9.33333 0,-14c0,-0.55228 0.44772,-1 1,-1c6.66667,0 13.33333,0 20,0c0.55228,0 1,0.44772 1,1c0,6.66667 0,13.33333 0,20c0,0.55228 -0.44772,1 -1,1c-16.66667,0 -33.33333,0 -50,0c-0.55228,0 -1,-0.44772 -1,-1c0,-6.66667 0,-13.33333 0,-20c0,-0.55228 0.44772,-1 1,-1zM91,56c0,1 0,2 0,3c1,0 2,0 3,0c0,-1 0,-2 0,-3c-1,0 -2,0 -3,0zM91,64c0,1 0,2 0,3c1,0 2,0 3,0c0,-1 0,-2 0,-3c-1,0 -2,0 -3,0z" fill="none" fill-rule="nonzero" stroke="#ff7900" stroke-width="0.1" stroke-linecap="butt" stroke-linejoin="miter" stroke-miterlimit="10" stroke-dasharray="" stroke-dashoffset="0" font-family="none" font-weight="none" font-size="none" text-anchor="none" style="mix-blend-mode: normal"></path>
<path d="M50,48c6.66667,0 13.33333,0 20,0c1.10457,0 2,0.89543 2,2c0,4.33333 0,8.66667 0,13c2,0 4,0 6,0c0,-4.33333 0,-8.66667 0,-13c0,-1.10457 0.89543,-2 2,-2c6.66667,0 13.33333,0 20,0c1.10457,0 2,0.89543 2,2c0,6.66667 0,13.33333 0,20c0,1.10457 -0.89543,2 -2,2c-16.66667,0 -33.33333,0 -50,0c-1.10457,0 -2,-0.89543 -2,-2c0,-6.66667 0,-13.33333 0,-20c0,-1.10457 0.89543,-2 2,-2zM92,58c0.33333,0 0.66667,0 1,0c0,-0.33333 0,-0.66667 0,-1c-0.33333,0 -0.66667,0 -1,0c0,0.33333 0,0.66667 0,1zM92,66c0.33333,0 0.66667,0 1,0c0,-0.33333 0,-0.66667 0,-1c-0.33333,0 -0.66667,0 -1,0c0,0.33333 0,0.66667 0,1z" fill="none" fill-rule="nonzero" stroke="#ff8500" stroke-width="0.1" stroke-linecap="butt" stroke-linejoin="miter" stroke-miterlimit="10" stroke-dasharray="" stroke-dashoffset="0" font-family="none" font-weight="none" font-size="none" text-anchor="none" style="mix-blend-mode: normal"></path>
<path d="M50,47c6.66667,0 13.33333,0 20,0c1.65685,0 3,1.34315 3,3c0,4 0,8 0,12c1.33333,0 2.66667,0 4,0c0,-4 0,-8 0,-12c0,-1.65685 1.34315,-3 3,-3c6.66667,0 13.33333,0 20,0c1.65685,0 3,1.34315 3,3c0,6.66667 0,13.33333 0,20c0,1.65685 -1.34315,3 -3,3c-16.66667,0 -33.33333,0 -50,0c-1.65685,0 -3,-1.34315 -3,-3c0,-6.66667 0,-13.33333 0,-20c0,-1.65685 1.34315,-3 3,-3z" fill="none" fill-rule="nonzero" stroke="#ff9100" stroke-width="0.1" stroke-linecap="butt" stroke-linejoin="miter" stroke-miterlimit="10" stroke-dasharray="" stroke-dashoffset="0" font-family="none" font-weight="none" font-size="none" text-anchor="none" style="mix-blend-mode: normal"></path>
<path d="M50,46c6.66667,0 13.33333,0 20,0c2.20914,0 4,1.79086 4,4c0,3.66667 0,7.33333 0,11c0.66667,0 1.33333,0 2,0c0,-3.66667 0,-7.33333 0,-11c0,-2.20914 1.79086,-4 4,-4c6.66667,0 13.33333,0 20,0c2.20914,0 4,1.79086 4,4c0,6.66667 0,13.33333 0,20c0,2.20914 -1.79086,4 -4,4c-16.66667,0 -33.33333,0 -50,0c-2.20914,0 -4,-1.79086 -4,-4c0,-6.66667 0,-13.33333 0,-20c0,-2.20914 1.79086,-4 4,-4z" fill="none" fill-rule="nonzero" stroke="#ff9d00" stroke-width="0.1" stroke-linecap="butt" stroke-linejoin="miter" stroke-miterlimit="10" stroke-dasharray="" stroke-dashoffset="0" font-family="none" font-weight="none" font-size="none" text-anchor="none" style="mix-blend-mode: normal"></path>
<path d="M50,45c6.66667,0 13.33333,0 20,0c2.76142,0 5,2.23858 5,5c0,-2.76142 2.23858,-5 5,-5c6.66667,0 13.33333,0 20,0c2.76142,0 5,2.23858 5,5c0,6.66667 0,13.33333 0,20c0,2.76142 -2.23858,5 -5,5c-16.66667,0 -33.33333,0 -50,0c-2.76142,0 -5,-2.23858 -5,-5c0,-6.66667 0,-13.33333 0,-20c0,-2.76142 2.23858,-5 5,-5z" fill="none" fill-rule="nonzero" stroke="#ffa900" stroke-width="0.1" stroke-linecap="butt" stroke-linejoin="miter" stroke-miterlimit="10" stroke-dasharray="" stroke-dashoffset="0" font-family="none" font-weight="none" font-size="none" text-anchor="none" style="mix-blend-mode: normal"></path>
<path d="M50,44c6.66667,0 13.33333,0 20,0c2.08697,0 3.92508,1.06551 5,2.6822c1.07492,-1.6167 2.91303,-2.6822 5,-2.6822c6.66667,0 13.33333,0 20,0c3.31371,0 6,2.68629 6,6c0,6.66667 0,13.33333 0,20c0,3.31371 -2.68629,6 -6,6c-16.66667,0 -33.33333,0 -50,0c-3.31371,0 -6,-2.68629 -6,-6c0,-6.66667 0,-13.33333 0,-20c0,-3.31371 2.68629,-6 6,-6z" fill="none" fill-rule="nonzero" stroke="#ffb500" stroke-width="0.1" stroke-linecap="butt" stroke-linejoin="miter" stroke-miterlimit="10" stroke-dasharray="" stroke-dashoffset="0" font-family="none" font-weight="none" font-size="none" text-anchor="none" style="mix-blend-mode: normal"></path>
<path d="M50,43c6.66667,0 13.33333,0 20,0c1.95869,0 3.72948,0.80447 5,2.10102c1.27052,-1.29655 3.04131,-2.10102 5,-2.10102c6.66667,0 13.33333,0 20,0c3.86599,0 7,3.13401 7,7c0,6.66667 0,13.33333 0,20c0,3.86599 -3.13401,7 -7,7c-16.66667,0 -33.33333,0 -50,0c-3.86599,0 -7,-3.13401 -7,-7c0,-6.66667 0,-13.33333 0,-20c0,-3.86599 3.13401,-7 7,-7z" fill="none" fill-rule="nonzero" stroke="#ffc200" stroke-width="0.1" stroke-linecap="butt" stroke-linejoin="miter" stroke-miterlimit="10" stroke-dasharray="" stroke-dashoffset="0" font-family="none" font-weight="none" font-size="none" text-anchor="none" style="mix-blend-mode: normal"></path>
<path d="M50,42c6.66667,0 13.33333,0 20,0c1.89189,0 3.6304,0.65672 5,1.75463c1.3696,-1.09791 3.10811,-1.75463 5,-1.75463c6.66667,0 13.33333,0 20,0c4.41828,0 8,3.58172 8,8c0,6.66667 0,13.33333 0,20c0,4.41828 -3.58172,8 -8,8c-16.66667,0 -33.33333,0 -50,0c-4.41828,0 -8,-3.58172 -8,-8c0,-6.66667 0,-13.33333 0,-20c0,-4.41828 3.58172,-8 8,-8z" fill="none" fill-rule="nonzero" stroke="#ffce00" stroke-width="0.1" stroke-linecap="butt" stroke-linejoin="miter" stroke-miterlimit="10" stroke-dasharray="" stroke-dashoffset="0" font-family="none" font-weight="none" font-size="none" text-anchor="none" style="mix-blend-mode: normal"></path>
<path d="M50,41c6.66667,0 13.33333,0 20,0c1.85015,0 3.5699,0.55827 5,1.51555c1.4301,-0.95728 3.14985,-1.51555 5,-1.51555c6.66667,0 13.33333,0 20,0c4.97056,0 9,4.02944 9,9c0,6.66667 0,13.33333 0,20c0,4.97056 -4.02944,9 -9,9c-16.66667,0 -33.33333,0 -50,0c-4.97056,0 -9,-4.02944 -9,-9c0,-6.66667 0,-13.33333 0,-20c0,-4.97056 4.02944,-9 9,-9z" fill="none" fill-rule="nonzero" stroke="#ffda00" stroke-width="0.1" stroke-linecap="butt" stroke-linejoin="miter" stroke-miterlimit="10" stroke-dasharray="" stroke-dashoffset="0" font-family="none" font-weight="none" font-size="none" text-anchor="none" style="mix-blend-mode: normal"></path>
<path d="M50,40c6.66667,0 13.33333,0 20,0c1.82144,0 3.52913,0.48697 5,1.33782c1.47087,-0.85085 3.17856,-1.33782 5,-1.33782c6.66667,0 13.33333,0 20,0c5.52285,0 10,4.47715 10,10c0,6.66667 0,13.33333 0,20c0,5.52285 -4.47715,10 -10,10c-16.66667,0 -33.33333,0 -50,0c-5.52285,0 -10,-4.47715 -10,-10c0,-6.66667 0,-13.33333 0,-20c0,-5.52285 4.47715,-10 10,-10z" fill="none" fill-rule="nonzero" stroke="#ffe600" stroke-width="0.1" stroke-linecap="butt" stroke-linejoin="miter" stroke-miterlimit="10" stroke-dasharray="" stroke-dashoffset="0" font-family="none" font-weight="none" font-size="none" text-anchor="none" style="mix-blend-mode: normal"></path>
<path d="M50,39c6.66667,0 13.33333,0 20,0c1.73823,0 3.45172,0.41194 5,1.20204c1.54828,-0.7901 3.26177,-1.20204 5,-1.20204c6.66667,0 13.33333,0 20,0c6.07513,0 11,4.92487 11,11c0,6.66667 0,13.33333 0,20c0,6.07513 -4.92487,11 -11,11c-16.66667,0 -33.33333,0 -50,0c-6.07513,0 -11,-4.92487 -11,-11c0,-6.66667 0,-13.33333 0,-20c0,-6.07513 4.92487,-11 11,-11z" fill="none" fill-rule="nonzero" stroke="#fff200" stroke-width="0.1" stroke-linecap="butt" stroke-linejoin="miter" stroke-miterlimit="10" stroke-dasharray="" stroke-dashoffset="0" font-family="none" font-weight="none" font-size="none" text-anchor="none" style="mix-blend-mode: normal"></path>
<path d="M50,38c6.66667,0 13.33333,0 20,0c1.72575,0 3.43119,0.37223 5,1.09129c1.56881,-0.71906 3.27425,-1.09129 5,-1.09129c6.66667,0 13.33333,0 20,0c6.62742,0 12,5.37258 12,12c0,6.66667 0,13.33333 0,20c0,6.62742 -5.37258,12 -12,12c-16.66667,0 -33.33333,0 -50,0c-6.62742,0 -12,-5.37258 -12,-12c0,-6.66667 0,-13.33333 0,-20c0,-6.62742 5.37258,-12 12,-12z" fill="none" fill-rule="nonzero" stroke="#fffe00" stroke-width="0.1" stroke-linecap="butt" stroke-linejoin="miter" stroke-miterlimit="10" stroke-dasharray="" stroke-dashoffset="0" font-family="none" font-weight="none" font-size="none" text-anchor="none" style="mix-blend-mode: normal"></path>
<path d="M50,37c6.66667,0 13.33333,0 20,0c1.71634,0 3.41569,0.33987 5,1c1.58431,-0.66013 3.28366,-1 5,-1c6.66667,0 13.33333,0 20,0c7.1797,0 13,5.8203 13,13c0,6.66667 0,13.33333 0,20c0,7.1797 -5.8203,13 -13,13c-16.66667,0 -33.33333,0 -50,0c-7.1797,0 -13,-5.8203 -13,-13c0,-6.66667 0,-13.33333 0,-20c0,-7.1797 5.8203,-13 13,-13z" fill="none" fill-rule="nonzero" stroke="#f4ff00" stroke-width="0.1" stroke-linecap="butt" stroke-linejoin="miter" stroke-miterlimit="10" stroke-dasharray="" stroke-dashoffset="0" font-family="none" font-weight="none" font-size="none" text-anchor="none" style="mix-blend-mode: normal"></path>
<path d="M50,36c6.66667,0 13.33333,0 20,0c1.70905,0 3.40366,0.31293 5,0.9233c1.59634,-0.61038 3.29095,-0.9233 5,-0.9233c6.66667,0 13.33333,0 20,0c7.73199,0 14,6.26801 14,14c0,6.66667 0,13.33333 0,20c0,7.73199 -6.26801,14 -14,14c-16.66667,0 -33.33333,0 -50,0c-7.73199,0 -14,-6.26801 -14,-14c0,-6.66667 0,-13.33333 0,-20c0,-7.73199 6.26801,-14 14,-14z" fill="none" fill-rule="nonzero" stroke="#e8ff00" stroke-width="0.1" stroke-linecap="butt" stroke-linejoin="miter" stroke-miterlimit="10" stroke-dasharray="" stroke-dashoffset="0" font-family="none" font-weight="none" font-size="none" text-anchor="none" style="mix-blend-mode: normal"></path>
<path d="M50,35c6.66667,0 13.33333,0 20,0c1.70328,0 3.39413,0.2901 5,0.85786c1.60587,-0.56776 3.29672,-0.85786 5,-0.85786c6.66667,0 13.33333,0 20,0c8.28427,0 15,6.71573 15,15c0,6.66667 0,13.33333 0,20c0,8.28427 -6.71573,15 -15,15c-16.66667,0 -33.33333,0 -50,0c-8.28427,0 -15,-6.71573 -15,-15c0,-6.66667 0,-13.33333 0,-20c0,-8.28427 6.71573,-15 15,-15z" fill="none" fill-rule="nonzero" stroke="#dcff00" stroke-width="0.1" stroke-linecap="butt" stroke-linejoin="miter" stroke-miterlimit="10" stroke-dasharray="" stroke-dashoffset="0" font-family="none" font-weight="none" font-size="none" text-anchor="none" style="mix-blend-mode: normal"></path>
<path d="M50,34c6.66667,0 13.33333,0 20,0c1.69864,0 3.38644,0.27049 5,0.80132c1.61356,-0.53082 3.30136,-0.80132 5,-0.80132c6.66667,0 13.33333,0 20,0c8.83656,0 16,7.16344 16,16c0,6.66667 0,13.33333 0,20c0,8.83656 -7.16344,16 -16,16c-16.66667,0 -33.33333,0 -50,0c-8.83656,0 -16,-7.16344 -16,-16c0,-6.66667 0,-13.33333 0,-20c0,-8.83656 7.16344,-16 16,-16z" fill="none" fill-rule="nonzero" stroke="#d0ff00" stroke-width="0.1" stroke-linecap="butt" stroke-linejoin="miter" stroke-miterlimit="10" stroke-dasharray="" stroke-dashoffset="0" font-family="none" font-weight="none" font-size="none" text-anchor="none" style="mix-blend-mode: normal"></path>
<path d="M50,33c6.66667,0 13.33333,0 20,0c1.69483,0 3.38013,0.25344 5,0.75192c1.61987,-0.49848 3.30517,-0.75192 5,-0.75192c6.66667,0 13.33333,0 20,0c9.38884,0 17,7.61116 17,17c0,6.66667 0,13.33333 0,20c0,9.38884 -7.61116,17 -17,17c-16.66667,0 -33.33333,0 -50,0c-9.38884,0 -17,-7.61116 -17,-17c0,-6.66667 0,-13.33333 0,-20c0,-9.38884 7.61116,-17 17,-17z" fill="none" fill-rule="nonzero" stroke="#c4ff00" stroke-width="0.1" stroke-linecap="butt" stroke-linejoin="miter" stroke-miterlimit="10" stroke-dasharray="" stroke-dashoffset="0" font-family="none" font-weight="none" font-size="none" text-anchor="none" style="mix-blend-mode: normal"></path>
<path d="M50,32c6.66667,0 13.33333,0 20,0c1.69167,0 3.3749,0.23847 5,0.70838c1.6251,-0.46991 3.30833,-0.70838 5,-0.70838c6.66667,0 13.33333,0 20,0c9.94113,0 18,8.05887 18,18c0,6.66667 0,13.33333 0,20c0,9.94113 -8.05887,18 -18,18c-16.66667,0 -33.33333,0 -50,0c-9.94113,0 -18,-8.05887 -18,-18c0,-6.66667 0,-13.33333 0,-20c0,-9.94113 8.05887,-18 18,-18z" fill="none" fill-rule="nonzero" stroke="#b7ff00" stroke-width="0.1" stroke-linecap="butt" stroke-linejoin="miter" stroke-miterlimit="10" stroke-dasharray="" stroke-dashoffset="0" font-family="none" font-weight="none" font-size="none" text-anchor="none" style="mix-blend-mode: normal"></path>
<path d="M50,31c6.66667,0 13.33333,0 20,0c1.68902,0 3.37051,0.22522 5,0.6697c1.62949,-0.44448 3.31098,-0.6697 5,-0.6697c6.66667,0 13.33333,0 20,0c10.49341,0 19,8.50659 19,19c0,6.66667 0,13.33333 0,20c0,10.49341 -8.50659,19 -19,19c-16.66667,0 -33.33333,0 -50,0c-10.49341,0 -19,-8.50659 -19,-19c0,-6.66667 0,-13.33333 0,-20c0,-10.49341 8.50659,-19 19,-19z" fill="none" fill-rule="nonzero" stroke="#abff00" stroke-width="0.1" stroke-linecap="butt" stroke-linejoin="miter" stroke-miterlimit="10" stroke-dasharray="" stroke-dashoffset="0" font-family="none" font-weight="none" font-size="none" text-anchor="none" style="mix-blend-mode: normal"></path>
<path d="M50,30c6.66667,0 13.33333,0 20,0c1.68678,0 3.36678,0.21339 5,0.63508c1.63322,-0.42169 3.31322,-0.63508 5,-0.63508c6.66667,0 13.33333,0 20,0c11.04569,0 20,8.95431 20,20c0,6.66667 0,13.33333 0,20c0,11.04569 -8.95431,20 -20,20c-16.66667,0 -33.33333,0 -50,0c-11.04569,0 -20,-8.95431 -20,-20c0,-6.66667 0,-13.33333 0,-20c0,-11.04569 8.95431,-20 20,-20z" fill="none" fill-rule="nonzero" stroke="#9fff00" stroke-width="0.1" stroke-linecap="butt" stroke-linejoin="miter" stroke-miterlimit="10" stroke-dasharray="" stroke-dashoffset="0" font-family="none" font-weight="none" font-size="none" text-anchor="none" style="mix-blend-mode: normal"></path>
<path d="M50,29c6.66667,0 13.33333,0 20,0c1.68486,0 3.36359,0.20277 5,0.60392c1.63641,-0.40116 3.31514,-0.60392 5,-0.60392c6.66667,0 13.33333,0 20,0c11.59798,0 21,9.40202 21,21c0,6.66667 0,13.33333 0,20c0,11.59798 -9.40202,21 -21,21c-16.66667,0 -33.33333,0 -50,0c-11.59798,0 -21,-9.40202 -21,-21c0,-6.66667 0,-13.33333 0,-20c0,-11.59798 9.40202,-21 21,-21z" fill="none" fill-rule="nonzero" stroke="#93ff00" stroke-width="0.1" stroke-linecap="butt" stroke-linejoin="miter" stroke-miterlimit="10" stroke-dasharray="" stroke-dashoffset="0" font-family="none" font-weight="none" font-size="none" text-anchor="none" style="mix-blend-mode: normal"></path>
<path d="M50,28c6.66667,0 13.33333,0 20,0c1.6832,0 3.36084,0.19317 5,0.57571c1.63916,-0.38255 3.3168,-0.57571 5,-0.57571c6.66667,0 13.33333,0 20,0c12.15026,0 22,9.84974 22,22c0,6.66667 0,13.33333 0,20c0,12.15026 -9.84974,22 -22,22c-16.66667,0 -33.33333,0 -50,0c-12.15026,0 -22,-9.84974 -22,-22c0,-6.66667 0,-13.33333 0,-20c0,-12.15026 9.84974,-22 22,-22z" fill="none" fill-rule="nonzero" stroke="#87ff00" stroke-width="0.1" stroke-linecap="butt" stroke-linejoin="miter" stroke-miterlimit="10" stroke-dasharray="" stroke-dashoffset="0" font-family="none" font-weight="none" font-size="none" text-anchor="none" style="mix-blend-mode: normal"></path>
<path d="M50,27c6.66667,0 13.33333,0 20,0c1.68176,0 3.35846,0.18445 5,0.55006c1.64154,-0.3656 3.31824,-0.55006 5,-0.55006c6.66667,0 13.33333,0 20,0c12.70255,0 23,10.29745 23,23c0,6.66667 0,13.33333 0,20c0,12.70255 -10.29745,23 -23,23c-16.66667,0 -33.33333,0 -50,0c-12.70255,0 -23,-10.29745 -23,-23c0,-6.66667 0,-13.33333 0,-20c0,-12.70255 10.29745,-23 23,-23z" fill="none" fill-rule="nonzero" stroke="#7bff00" stroke-width="0.1" stroke-linecap="butt" stroke-linejoin="miter" stroke-miterlimit="10" stroke-dasharray="" stroke-dashoffset="0" font-family="none" font-weight="none" font-size="none" text-anchor="none" style="mix-blend-mode: normal"></path>
<path d="M50,26c6.66667,0 13.33333,0 20,0c1.68051,0 3.35637,0.17651 5,0.52661c1.64363,-0.35011 3.31949,-0.52661 5,-0.52661c6.66667,0 13.33333,0 20,0c13.25483,0 24,10.74517 24,24c0,6.66667 0,13.33333 0,20c0,13.25483 -10.74517,24 -24,24c-16.66667,0 -33.33333,0 -50,0c-13.25483,0 -24,-10.74517 -24,-24c0,-6.66667 0,-13.33333 0,-20c0,-13.25483 10.74517,-24 24,-24z" fill="none" fill-rule="nonzero" stroke="#6fff00" stroke-width="0.1" stroke-linecap="butt" stroke-linejoin="miter" stroke-miterlimit="10" stroke-dasharray="" stroke-dashoffset="0" font-family="none" font-weight="none" font-size="none" text-anchor="none" style="mix-blend-mode: normal"></path>
<path d="M50,25c6.66667,0 13.33333,0 20,0c1.6794,0 3.35453,0.16922 5,0.5051c1.64547,-0.33588 3.3206,-0.5051 5,-0.5051c6.66667,0 13.33333,0 20,0c13.80712,0 25,11.19288 25,25c0,6.66667 0,13.33333 0,20c0,13.80712 -11.19288,25 -25,25c-16.66667,0 -33.33333,0 -50,0c-13.80712,0 -25,-11.19288 -25,-25c0,-6.66667 0,-13.33333 0,-20c0,-13.80712 11.19288,-25 25,-25z" fill="none" fill-rule="nonzero" stroke="#63ff00" stroke-width="0.1" stroke-linecap="butt" stroke-linejoin="miter" stroke-miterlimit="10" stroke-dasharray="" stroke-dashoffset="0" font-family="none" font-weight="none" font-size="none" text-anchor="none" style="mix-blend-mode: normal"></path>
<path d="M50,24c6.66667,0 13.33333,0 20,0c1.67842,0 3.3529,0.16252 5,0.4853c1.6471,-0.32277 3.32158,-0.4853 5,-0.4853c6.66667,0 13.33333,0 20,0c14.3594,0 26,11.6406 26,26c0,6.66667 0,13.33333 0,20c0,14.3594 -11.6406,26 -26,26c-16.66667,0 -33.33333,0 -50,0c-14.3594,0 -26,-11.6406 -26,-26c0,-6.66667 0,-13.33333 0,-20c0,-14.3594 11.6406,-26 26,-26z" fill="none" fill-rule="nonzero" stroke="#57ff00" stroke-width="0.1" stroke-linecap="butt" stroke-linejoin="miter" stroke-miterlimit="10" stroke-dasharray="" stroke-dashoffset="0" font-family="none" font-weight="none" font-size="none" text-anchor="none" style="mix-blend-mode: normal"></path>
<path d="M50,23c6.66667,0 13.33333,0 20,0c1.67756,0 3.35146,0.15634 5,0.467c1.64854,-0.31066 3.32244,-0.467 5,-0.467c6.66667,0 13.33333,0 20,0c14.91169,0 27,12.08831 27,27c0,6.66667 0,13.33333 0,20c0,14.91169 -12.08831,27 -27,27c-16.66667,0 -33.33333,0 -50,0c-14.91169,0 -27,-12.08831 -27,-27c0,-6.66667 0,-13.33333 0,-20c0,-14.91169 12.08831,-27 27,-27z" fill="none" fill-rule="nonzero" stroke="#4bff00" stroke-width="0.1" stroke-linecap="butt" stroke-linejoin="miter" stroke-miterlimit="10" stroke-dasharray="" stroke-dashoffset="0" font-family="none" font-weight="none" font-size="none" text-anchor="none" style="mix-blend-mode: normal"></path>
<path d="M50,22c6.66667,0 13.33333,0 20,0c1.67678,0 3.35017,0.15062 5,0.45005c1.64983,-0.29943 3.32322,-0.45005 5,-0.45005c6.66667,0 13.33333,0 20,0c15.46397,0 28,12.53603 28,28c0,6.66667 0,13.33333 0,20c0,15.46397 -12.53603,28 -28,28c-16.66667,0 -33.33333,0 -50,0c-15.46397,0 -28,-12.53603 -28,-28c0,-6.66667 0,-13.33333 0,-20c0,-15.46397 12.53603,-28 28,-28z" fill="none" fill-rule="nonzero" stroke="#3eff00" stroke-width="0.1" stroke-linecap="butt" stroke-linejoin="miter" stroke-miterlimit="10" stroke-dasharray="" stroke-dashoffset="0" font-family="none" font-weight="none" font-size="none" text-anchor="none" style="mix-blend-mode: normal"></path>
<path d="M50,21c6.66667,0 13.33333,0 20,0c1.67609,0 3.34901,0.14531 5,0.43429c1.65099,-0.28898 3.32391,-0.43429 5,-0.43429c6.66667,0 13.33333,0 20,0c16.01626,0 29,12.98374 29,29c0,6.66667 0,13.33333 0,20c0,16.01626 -12.98374,29 -29,29c-16.66667,0 -33.33333,0 -50,0c-16.01626,0 -29,-12.98374 -29,-29c0,-6.66667 0,-13.33333 0,-20c0,-16.01626 12.98374,-29 29,-29z" fill="none" fill-rule="nonzero" stroke="#32ff00" stroke-width="0.1" stroke-linecap="butt" stroke-linejoin="miter" stroke-miterlimit="10" stroke-dasharray="" stroke-dashoffset="0" font-family="none" font-weight="none" font-size="none" text-anchor="none" style="mix-blend-mode: normal"></path>
<path d="M50,20c6.66667,0 13.33333,0 20,0c1.67546,0 3.34797,0.14036 5,0.4196c1.65203,-0.27924 3.32454,-0.4196 5,-0.4196c6.66667,0 13.33333,0 20,0c16.56854,0 30,13.43146 30,30c0,6.66667 0,13.33333 0,20c0,16.56854 -13.43146,30 -30,30c-16.66667,0 -33.33333,0 -50,0c-16.56854,0 -30,-13.43146 -30,-30c0,-6.66667 0,-13.33333 0,-20c0,-16.56854 13.43146,-30 30,-30z" fill="none" fill-rule="nonzero" stroke="#26ff00" stroke-width="0.1" stroke-linecap="butt" stroke-linejoin="miter" stroke-miterlimit="10" stroke-dasharray="" stroke-dashoffset="0" font-family="none" font-weight="none" font-size="none" text-anchor="none" style="mix-blend-mode: normal"></path>
<path d="M50,19c6.66667,0 13.33333,0 20,0c1.67489,0 3.34703,0.13574 5,0.40588c1.65297,-0.27014 3.32511,-0.40588 5,-0.40588c6.66667,0 13.33333,0 20,0c17.12083,0 31,13.87917 31,31c0,6.66667 0,13.33333 0,20c0,17.12083 -13.87917,31 -31,31c-16.66667,0 -33.33333,0 -50,0c-17.12083,0 -31,-13.87917 -31,-31c0,-6.66667 0,-13.33333 0,-20c0,-17.12083 13.87917,-31 31,-31z" fill="none" fill-rule="nonzero" stroke="#1aff00" stroke-width="0.1" stroke-linecap="butt" stroke-linejoin="miter" stroke-miterlimit="10" stroke-dasharray="" stroke-dashoffset="0" font-family="none" font-weight="none" font-size="none" text-anchor="none" style="mix-blend-mode: normal"></path>
<path d="M50,18c6.66667,0 13.33333,0 20,0c1.67438,0 3.34618,0.13142 5,0.39304c1.65382,-0.26162 3.32562,-0.39304 5,-0.39304c6.66667,0 13.33333,0 20,0c17.67311,0 32,14.32689 32,32c0,6.66667 0,13.33333 0,20c0,17.67311 -14.32689,32 -32,32c-16.66667,0 -33.33333,0 -50,0c-17.67311,0 -32,-14.32689 -32,-32c0,-6.66667 0,-13.33333 0,-20c0,-17.67311 14.32689,-32 32,-32z" fill="none" fill-rule="nonzero" stroke="#0eff00" stroke-width="0.1" stroke-linecap="butt" stroke-linejoin="miter" stroke-miterlimit="10" stroke-dasharray="" stroke-dashoffset="0" font-family="none" font-weight="none" font-size="none" text-anchor="none" style="mix-blend-mode: normal"></path>
<path d="M50,17c6.66667,0 13.33333,0 20,0c1.67392,0 3.34541,0.12736 5,0.38099c1.65459,-0.25362 3.32608,-0.38099 5,-0.38099c6.66667,0 13.33333,0 20,0c18.2254,0 33,14.7746 33,33c0,6.66667 0,13.33333 0,20c0,18.2254 -14.7746,33 -33,33c-16.66667,0 -33.33333,0 -50,0c-18.2254,0 -33,-14.7746 -33,-33c0,-6.66667 0,-13.33333 0,-20c0,-18.2254 14.7746,-33 33,-33z" fill="none" fill-rule="nonzero" stroke="#02ff00" stroke-width="0.1" stroke-linecap="butt" stroke-linejoin="miter" stroke-miterlimit="10" stroke-dasharray="" stroke-dashoffset="0" font-family="none" font-weight="none" font-size="none" text-anchor="none" style="mix-blend-mode: normal"></path>
<path d="M50,16c6.66667,0 13.33333,0 20,0c1.67349,0 3.3447,0.12355 5,0.36966c1.6553,-0.2461 3.32651,-0.36966 5,-0.36966c6.66667,0 13.33333,0 20,0c18.77768,0 34,15.22232 34,34c0,6.66667 0,13.33333 0,20c0,18.77768 -15.22232,34 -34,34c-16.66667,0 -33.33333,0 -50,0c-18.77768,0 -34,-15.22232 -34,-34c0,-6.66667 0,-13.33333 0,-20c0,-18.77768 15.22232,-34 34,-34z" fill="none" fill-rule="nonzero" stroke="#00ff0a" stroke-width="0.1" stroke-linecap="butt" stroke-linejoin="miter" stroke-miterlimit="10" stroke-dasharray="" stroke-dashoffset="0" font-family="none" font-weight="none" font-size="none" text-anchor="none" style="mix-blend-mode: normal"></path>
<path d="M50,15c6.66667,0 13.33333,0 20,0c1.6731,0 3.34406,0.11997 5,0.35898c1.65594,-0.23901 3.3269,-0.35898 5,-0.35898c6.66667,0 13.33333,0 20,0c19.32997,0 35,15.67003 35,35c0,6.66667 0,13.33333 0,20c0,19.32997 -15.67003,35 -35,35c-16.66667,0 -33.33333,0 -50,0c-19.32997,0 -35,-15.67003 -35,-35c0,-6.66667 0,-13.33333 0,-20c0,-19.32997 15.67003,-35 35,-35z" fill="none" fill-rule="nonzero" stroke="#00ff16" stroke-width="0.1" stroke-linecap="butt" stroke-linejoin="miter" stroke-miterlimit="10" stroke-dasharray="" stroke-dashoffset="0" font-family="none" font-weight="none" font-size="none" text-anchor="none" style="mix-blend-mode: normal"></path>
<path d="M50,14c6.66667,0 13.33333,0 20,0c1.67275,0 3.34346,0.11659 5,0.34891c1.65654,-0.23233 3.32725,-0.34891 5,-0.34891c6.66667,0 13.33333,0 20,0c19.88225,0 36,16.11775 36,36c0,6.66667 0,13.33333 0,20c0,19.88225 -16.11775,36 -36,36c-16.66667,0 -33.33333,0 -50,0c-19.88225,0 -36,-16.11775 -36,-36c0,-6.66667 0,-13.33333 0,-20c0,-19.88225 16.11775,-36 36,-36z" fill="none" fill-rule="nonzero" stroke="#00ff22" stroke-width="0.1" stroke-linecap="butt" stroke-linejoin="miter" stroke-miterlimit="10" stroke-dasharray="" stroke-dashoffset="0" font-family="none" font-weight="none" font-size="none" text-anchor="none" style="mix-blend-mode: normal"></path>
<path d="M50,13c6.66667,0 13.33333,0 20,0c1.67242,0 3.34292,0.11339 5,0.33939c1.65708,-0.226 3.32758,-0.33939 5,-0.33939c6.66667,0 13.33333,0 20,0c20.43454,0 37,16.56546 37,37c0,6.66667 0,13.33333 0,20c0,20.43454 -16.56546,37 -37,37c-16.66667,0 -33.33333,0 -50,0c-20.43454,0 -37,-16.56546 -37,-37c0,-6.66667 0,-13.33333 0,-20c0,-20.43454 16.56546,-37 37,-37z" fill="none" fill-rule="nonzero" stroke="#00ff2e" stroke-width="0.1" stroke-linecap="butt" stroke-linejoin="miter" stroke-miterlimit="10" stroke-dasharray="" stroke-dashoffset="0" font-family="none" font-weight="none" font-size="none" text-anchor="none" style="mix-blend-mode: normal"></path>
<path d="M50,12c6.66667,0 13.33333,0 20,0c1.67212,0 3.34242,0.11037 5,0.33038c1.65758,-0.22002 3.32788,-0.33038 5,-0.33038c6.66667,0 13.33333,0 20,0c20.98682,0 38,17.01318 38,38c0,6.66667 0,13.33333 0,20c0,20.98682 -17.01318,38 -38,38c-16.66667,0 -33.33333,0 -50,0c-20.98682,0 -38,-17.01318 -38,-38c0,-6.66667 0,-13.33333 0,-20c0,-20.98682 17.01318,-38 38,-38z" fill="none" fill-rule="nonzero" stroke="#00ff3a" stroke-width="0.1" stroke-linecap="butt" stroke-linejoin="miter" stroke-miterlimit="10" stroke-dasharray="" stroke-dashoffset="0" font-family="none" font-weight="none" font-size="none" text-anchor="none" style="mix-blend-mode: normal"></path>
<path d="M50,11c6.66667,0 13.33333,0 20,0c1.67184,0 3.34195,0.1075 5,0.32184c1.65805,-0.21434 3.32816,-0.32184 5,-0.32184c6.66667,0 13.33333,0 20,0c21.53911,0 39,17.46089 39,39c0,6.66667 0,13.33333 0,20c0,21.53911 -17.46089,39 -39,39c-16.66667,0 -33.33333,0 -50,0c-21.53911,0 -39,-17.46089 -39,-39c0,-6.66667 0,-13.33333 0,-20c0,-21.53911 17.46089,-39 39,-39z" fill="none" fill-rule="nonzero" stroke="#00ff47" stroke-width="0.1" stroke-linecap="butt" stroke-linejoin="miter" stroke-miterlimit="10" stroke-dasharray="" stroke-dashoffset="0" font-family="none" font-weight="none" font-size="none" text-anchor="none" style="mix-blend-mode: normal"></path>
<path d="M50,10c6.66667,0 13.33333,0 20,0c1.67158,0 3.34153,0.10478 5,0.31373c1.65847,-0.20895 3.32842,-0.31373 5,-0.31373c6.66667,0 13.33333,0 20,0c22.09139,0 40,17.90861 40,40c0,6.66667 0,13.33333 0,20c0,22.09139 -17.90861,40 -40,40c-16.66667,0 -33.33333,0 -50,0c-22.09139,0 -40,-17.90861 -40,-40c0,-6.66667 0,-13.33333 0,-20c0,-22.09139 17.90861,-40 40,-40z" fill="none" fill-rule="nonzero" stroke="#00ff53" stroke-width="0.1" stroke-linecap="butt" stroke-linejoin="miter" stroke-miterlimit="10" stroke-dasharray="" stroke-dashoffset="0" font-family="none" font-weight="none" font-size="none" text-anchor="none" style="mix-blend-mode: normal"></path>
<path d="M50,9c6.66667,0 13.33333,0 20,0c1.67135,0 3.34113,0.1022 5,0.30602c1.65887,-0.20382 3.32865,-0.30602 5,-0.30602c6.66667,0 13.33333,0 20,0c22.64367,0 41,18.35633 41,41c0,6.66667 0,13.33333 0,20c0,22.64367 -18.35633,41 -41,41c-16.66667,0 -33.33333,0 -50,0c-22.64367,0 -41,-18.35633 -41,-41c0,-6.66667 0,-13.33333 0,-20c0,-22.64367 18.35633,-41 41,-41z" fill="none" fill-rule="nonzero" stroke="#00ff5f" stroke-width="0.1" stroke-linecap="butt" stroke-linejoin="miter" stroke-miterlimit="10" stroke-dasharray="" stroke-dashoffset="0" font-family="none" font-weight="none" font-size="none" text-anchor="none" style="mix-blend-mode: normal"></path>
<path d="M50,8c6.66667,0 13.33333,0 20,0c1.67112,0 3.34076,0.09974 5,0.29868c1.65924,-0.19894 3.32888,-0.29868 5,-0.29868c6.66667,0 13.33333,0 20,0c23.19596,0 42,18.80404 42,42c0,6.66667 0,13.33333 0,20c0,23.19596 -18.80404,42 -42,42c-16.66667,0 -33.33333,0 -50,0c-23.19596,0 -42,-18.80404 -42,-42c0,-6.66667 0,-13.33333 0,-20c0,-23.19596 18.80404,-42 42,-42z" fill="none" fill-rule="nonzero" stroke="#00ff6b" stroke-width="0.1" stroke-linecap="butt" stroke-linejoin="miter" stroke-miterlimit="10" stroke-dasharray="" stroke-dashoffset="0" font-family="none" font-weight="none" font-size="none" text-anchor="none" style="mix-blend-mode: normal"></path>
<path d="M50,7c6.66667,0 13.33333,0 20,0c1.67092,0 3.34042,0.09739 5,0.29169c1.65958,-0.19429 3.32908,-0.29169 5,-0.29169c6.66667,0 13.33333,0 20,0c23.74824,0 43,19.25176 43,43c0,6.66667 0,13.33333 0,20c0,23.74824 -19.25176,43 -43,43c-16.66667,0 -33.33333,0 -50,0c-23.74824,0 -43,-19.25176 -43,-43c0,-6.66667 0,-13.33333 0,-20c0,-23.74824 19.25176,-43 43,-43z" fill="none" fill-rule="nonzero" stroke="#00ff77" stroke-width="0.1" stroke-linecap="butt" stroke-linejoin="miter" stroke-miterlimit="10" stroke-dasharray="" stroke-dashoffset="0" font-family="none" font-weight="none" font-size="none" text-anchor="none" style="mix-blend-mode: normal"></path>
<path d="M50,6c6.66667,0 13.33333,0 20,0c1.67073,0 3.3401,0.09516 5,0.28501c1.6599,-0.18986 3.32927,-0.28501 5,-0.28501c6.66667,0 13.33333,0 20,0c24.30053,0 44,19.69947 44,44c0,6.66667 0,13.33333 0,20c0,24.30053 -19.69947,44 -44,44c-16.66667,0 -33.33333,0 -50,0c-24.30053,0 -44,-19.69947 -44,-44c0,-6.66667 0,-13.33333 0,-20c0,-24.30053 19.69947,-44 44,-44z" fill="none" fill-rule="nonzero" stroke="#00ff83" stroke-width="0.1" stroke-linecap="butt" stroke-linejoin="miter" stroke-miterlimit="10" stroke-dasharray="" stroke-dashoffset="0" font-family="none" font-weight="none" font-size="none" text-anchor="none" style="mix-blend-mode: normal"></path>
<path d="M50,5c6.66667,0 13.33333,0 20,0c1.67055,0 3.3398,0.09302 5,0.27864c1.6602,-0.18562 3.32945,-0.27864 5,-0.27864c6.66667,0 13.33333,0 20,0c24.85281,0 45,20.14719 45,45c0,6.66667 0,13.33333 0,20c0,24.85281 -20.14719,45 -45,45c-16.66667,0 -33.33333,0 -50,0c-24.85281,0 -45,-20.14719 -45,-45c0,-6.66667 0,-13.33333 0,-20c0,-24.85281 20.14719,-45 45,-45z" fill="none" fill-rule="nonzero" stroke="#00ff8f" stroke-width="0.1" stroke-linecap="butt" stroke-linejoin="miter" stroke-miterlimit="10" stroke-dasharray="" stroke-dashoffset="0" font-family="none" font-weight="none" font-size="none" text-anchor="none" style="mix-blend-mode: normal"></path>
<path d="M50,4c6.66667,0 13.33333,0 20,0c1.67038,0 3.33952,0.09098 5,0.27255c1.66048,-0.18156 3.32962,-0.27255 5,-0.27255c6.66667,0 13.33333,0 20,0c25.4051,0 46,20.5949 46,46c0,6.66667 0,13.33333 0,20c0,25.4051 -20.5949,46 -46,46c-16.66667,0 -33.33333,0 -50,0c-25.4051,0 -46,-20.5949 -46,-46c0,-6.66667 0,-13.33333 0,-20c0,-25.4051 20.5949,-46 46,-46z" fill="none" fill-rule="nonzero" stroke="#00ff9b" stroke-width="0.1" stroke-linecap="butt" stroke-linejoin="miter" stroke-miterlimit="10" stroke-dasharray="" stroke-dashoffset="0" font-family="none" font-weight="none" font-size="none" text-anchor="none" style="mix-blend-mode: normal"></path>
<path d="M50,3c6.66667,0 13.33333,0 20,0c1.67022,0 3.33926,0.08903 5,0.26671c1.66074,-0.17768 3.32978,-0.26671 5,-0.26671c6.66667,0 13.33333,0 20,0c25.95738,0 47,21.04262 47,47c0,6.66667 0,13.33333 0,20c0,25.95738 -21.04262,47 -47,47c-16.66667,0 -33.33333,0 -50,0c-25.95738,0 -47,-21.04262 -47,-47c0,-6.66667 0,-13.33333 0,-20c0,-25.95738 21.04262,-47 47,-47z" fill="none" fill-rule="nonzero" stroke="#00ffa7" stroke-width="0.1" stroke-linecap="butt" stroke-linejoin="miter" stroke-miterlimit="10" stroke-dasharray="" stroke-dashoffset="0" font-family="none" font-weight="none" font-size="none" text-anchor="none" style="mix-blend-mode: normal"></path>
<path d="M50,2c6.66667,0 13.33333,0 20,0c1.67007,0 3.33901,0.08716 5,0.26113c1.66099,-0.17397 3.32993,-0.26113 5,-0.26113c6.66667,0 13.33333,0 20,0c26.50967,0 48,21.49033 48,48c0,6.66667 0,13.33333 0,20c0,26.50967 -21.49033,48 -48,48c-16.66667,0 -33.33333,0 -50,0c-26.50967,0 -48,-21.49033 -48,-48c0,-6.66667 0,-13.33333 0,-20c0,-26.50967 21.49033,-48 48,-48z" fill="none" fill-rule="nonzero" stroke="#00ffb3" stroke-width="0.1" stroke-linecap="butt" stroke-linejoin="miter" stroke-miterlimit="10" stroke-dasharray="" stroke-dashoffset="0" font-family="none" font-weight="none" font-size="none" text-anchor="none" style="mix-blend-mode: normal"></path>
<path d="M50,1c6.66667,0 13.33333,0 20,0c1.66994,0 3.33878,0.08537 5,0.25577c1.66122,-0.1704 3.33006,-0.25577 5,-0.25577c6.66667,0 13.33333,0 20,0c27.06195,0 49,21.93805 49,49c0,6.66667 0,13.33333 0,20c0,27.06195 -21.93805,49 -49,49c-16.66667,0 -33.33333,0 -50,0c-27.06195,0 -49,-21.93805 -49,-49c0,-6.66667 0,-13.33333 0,-20c0,-27.06195 21.93805,-49 49,-49z" fill="none" fill-rule="nonzero" stroke="#00ffc0" stroke-width="0.1" stroke-linecap="butt" stroke-linejoin="miter" stroke-miterlimit="10" stroke-dasharray="" stroke-dashoffset="0" font-family="none" font-weight="none" font-size="none" text-anchor="none" style="mix-blend-mode: normal"></path>
<path d="M50,0c6.66667,0 13.33333,0 20,0c1.66981,0 3.33856,0.08365 5,0.25063c1.66144,-0.16698 3.33019,-0.25063 5,-0.25063c6.66667,0 13.33333,0 20,0c27.61424,0 50,22.38576 50,50c0,6.66667 0,13.33333 0,20c0,27.61424 -22.38576,50 -50,50c-16.66667,0 -33.33333,0 -50,0c-27.61424,0 -50,-22.38576 -50,-50c0,-6.66667 0,-13.33333 0,-20c0,-27.61424 22.38576,-50 50,-50z" fill="none" fill-rule="nonzero" stroke="#00ffcc" stroke-width="0.1" stroke-linecap="butt" stroke-linejoin="miter" stroke-miterlimit="10" stroke-dasharray="" stroke-dashoffset="0" font-family="none" font-weight="none" font-size="none" text-anchor="none" style="mix-blend-mode: normal"></path>
<path d="M50,-1c6.66667,0 13.33333,0 20,0c1.66968,0 3.33836,0.082 5,0.24569c1.66164,-0.16369 3.33032,-0.24569 5,-0.24569c6.66667,0 13.33333,0 20,0c28.16652,0 51,22.83348 51,51c0,6.66667 0,13.33333 0,20c0,28.16652 -22.83348,51 -51,51c-16.66667,0 -33.33333,0 -50,0c-28.16652,0 -51,-22.83348 -51,-51c0,-6.66667 0,-13.33333 0,-20c0,-28.16652 22.83348,-51 51,-51z" fill="none" fill-rule="nonzero" stroke="#00ffd8" stroke-width="0.1" stroke-linecap="butt" stroke-linejoin="miter" stroke-miterlimit="10" stroke-dasharray="" stroke-dashoffset="0" font-family="none" font-weight="none" font-size="none" text-anchor="none" style="mix-blend-mode: normal"></path>
<path d="M50,-2c6.66667,0 13.33333,0 20,0c1.66957,0 3.33817,0.08041 5,0.24094c1.66183,-0.16054 3.33043,-0.24094 5,-0.24094c6.66667,0 13.33333,0 20,0c28.71881,0 52,23.28119 52,52c0,6.66667 0,13.33333 0,20c0,28.71881 -23.28119,52 -52,52c-16.66667,0 -33.33333,0 -50,0c-28.71881,0 -52,-23.28119 -52,-52c0,-6.66667 0,-13.33333 0,-20c0,-28.71881 23.28119,-52 52,-52z" fill="none" fill-rule="nonzero" stroke="#00ffe4" stroke-width="0.1" stroke-linecap="butt" stroke-linejoin="miter" stroke-miterlimit="10" stroke-dasharray="" stroke-dashoffset="0" font-family="none" font-weight="none" font-size="none" text-anchor="none" style="mix-blend-mode: normal"></path>
<path d="M50,-3c6.66667,0 13.33333,0 20,0c1.66946,0 3.33799,0.07888 5,0.23638c1.66201,-0.1575 3.33054,-0.23638 5,-0.23638c6.66667,0 13.33333,0 20,0c29.27109,0 53,23.72891 53,53c0,6.66667 0,13.33333 0,20c0,29.27109 -23.72891,53 -53,53c-16.66667,0 -33.33333,0 -50,0c-29.27109,0 -53,-23.72891 -53,-53c0,-6.66667 0,-13.33333 0,-20c0,-29.27109 23.72891,-53 53,-53z" fill="none" fill-rule="nonzero" stroke="#00fff0" stroke-width="0.1" stroke-linecap="butt" stroke-linejoin="miter" stroke-miterlimit="10" stroke-dasharray="" stroke-dashoffset="0" font-family="none" font-weight="none" font-size="none" text-anchor="none" style="mix-blend-mode: normal"></path>
<path d="M50,-4c6.66667,0 13.33333,0 20,0c1.66936,0 3.33781,0.07741 5,0.23198c1.66219,-0.15457 3.33064,-0.23198 5,-0.23198c6.66667,0 13.33333,0 20,0c29.82338,0 54,24.17662 54,54c0,6.66667 0,13.33333 0,20c0,29.82338 -24.17662,54 -54,54c-16.66667,0 -33.33333,0 -50,0c-29.82338,0 -54,-24.17662 -54,-54c0,-6.66667 0,-13.33333 0,-20c0,-29.82338 24.17662,-54 54,-54z" fill="none" fill-rule="nonzero" stroke="#00fffc" stroke-width="0.1" stroke-linecap="butt" stroke-linejoin="miter" stroke-miterlimit="10" stroke-dasharray="" stroke-dashoffset="0" font-family="none" font-weight="none" font-size="none" text-anchor="none" style="mix-blend-mode: normal"></path>
<path d="M50,-5c6.66667,0 13.33333,0 20,0c1.66926,0 3.33765,0.07599 5,0.22774c1.66235,-0.15175 3.33074,-0.22774 5,-0.22774c6.66667,0 13.33333,0 20,0c30.37566,0 55,24.62434 55,55c0,6.66667 0,13.33333 0,20c0,30.37566 -24.62434,55 -55,55c-16.66667,0 -33.33333,0 -50,0c-30.37566,0 -55,-24.62434 -55,-55c0,-6.66667 0,-13.33333 0,-20c0,-30.37566 24.62434,-55 55,-55z" fill="none" fill-rule="nonzero" stroke="#00f6ff" stroke-width="0.1" stroke-linecap="butt" stroke-linejoin="miter" stroke-miterlimit="10" stroke-dasharray="" stroke-dashoffset="0" font-family="none" font-weight="none" font-size="none" text-anchor="none" style="mix-blend-mode: normal"></path>
<path d="M50,-6c6.66667,0 13.33333,0 20,0c1.66917,0 3.3375,0.07463 5,0.22366c1.6625,-0.14903 3.33083,-0.22366 5,-0.22366c6.66667,0 13.33333,0 20,0c30.92795,0 56,25.07205 56,56c0,6.66667 0,13.33333 0,20c0,30.92795 -25.07205,56 -56,56c-16.66667,0 -33.33333,0 -50,0c-30.92795,0 -56,-25.07205 -56,-56c0,-6.66667 0,-13.33333 0,-20c0,-30.92795 25.07205,-56 56,-56z" fill="none" fill-rule="nonzero" stroke="#00eaff" stroke-width="0.1" stroke-linecap="butt" stroke-linejoin="miter" stroke-miterlimit="10" stroke-dasharray="" stroke-dashoffset="0" font-family="none" font-weight="none" font-size="none" text-anchor="none" style="mix-blend-mode: normal"></path>
<path d="M50,-7c6.66667,0 13.33333,0 20,0c1.66908,0 3.33735,0.07331 5,0.21972c1.66265,-0.14641 3.33092,-0.21972 5,-0.21972c6.66667,0 13.33333,0 20,0c31.48023,0 57,25.51977 57,57c0,6.66667 0,13.33333 0,20c0,31.48023 -25.51977,57 -57,57c-16.66667,0 -33.33333,0 -50,0c-31.48023,0 -57,-25.51977 -57,-57c0,-6.66667 0,-13.33333 0,-20c0,-31.48023 25.51977,-57 57,-57z" fill="none" fill-rule="nonzero" stroke="#00deff" stroke-width="0.1" stroke-linecap="butt" stroke-linejoin="miter" stroke-miterlimit="10" stroke-dasharray="" stroke-dashoffset="0" font-family="none" font-weight="none" font-size="none" text-anchor="none" style="mix-blend-mode: normal"></path>
<path d="M50,-8c6.66667,0 13.33333,0 20,0c1.669,0 3.33722,0.07204 5,0.21592c1.66278,-0.14388 3.331,-0.21592 5,-0.21592c6.66667,0 13.33333,0 20,0c32.03252,0 58,25.96748 58,58c0,6.66667 0,13.33333 0,20c0,32.03252 -25.96748,58 -58,58c-16.66667,0 -33.33333,0 -50,0c-32.03252,0 -58,-25.96748 -58,-58c0,-6.66667 0,-13.33333 0,-20c0,-32.03252 25.96748,-58 58,-58z" fill="none" fill-rule="nonzero" stroke="#00d2ff" stroke-width="0.1" stroke-linecap="butt" stroke-linejoin="miter" stroke-miterlimit="10" stroke-dasharray="" stroke-dashoffset="0" font-family="none" font-weight="none" font-size="none" text-anchor="none" style="mix-blend-mode: normal"></path>
<path d="M50,-9c6.66667,0 13.33333,0 20,0c1.66892,0 3.33709,0.07081 5,0.21225c1.66291,-0.14143 3.33108,-0.21225 5,-0.21225c6.66667,0 13.33333,0 20,0c32.5848,0 59,26.4152 59,59c0,6.66667 0,13.33333 0,20c0,32.5848 -26.4152,59 -59,59c-16.66667,0 -33.33333,0 -50,0c-32.5848,0 -59,-26.4152 -59,-59c0,-6.66667 0,-13.33333 0,-20c0,-32.5848 26.4152,-59 59,-59z" fill="none" fill-rule="nonzero" stroke="#00c6ff" stroke-width="0.1" stroke-linecap="butt" stroke-linejoin="miter" stroke-miterlimit="10" stroke-dasharray="" stroke-dashoffset="0" font-family="none" font-weight="none" font-size="none" text-anchor="none" style="mix-blend-mode: normal"></path>
<path d="M50,-10c6.66667,0 13.33333,0 20,0c1.66884,0 3.33696,0.06963 5,0.2087c1.66304,-0.13907 3.33116,-0.2087 5,-0.2087c6.66667,0 13.33333,0 20,0c33.13708,0 60,26.86292 60,60c0,6.66667 0,13.33333 0,20c0,33.13708 -26.86292,60 -60,60c-16.66667,0 -33.33333,0 -50,0c-33.13708,0 -60,-26.86292 -60,-60c0,-6.66667 0,-13.33333 0,-20c0,-33.13708 26.86292,-60 60,-60z" fill="none" fill-rule="nonzero" stroke="#00b9ff" stroke-width="0.1" stroke-linecap="butt" stroke-linejoin="miter" stroke-miterlimit="10" stroke-dasharray="" stroke-dashoffset="0" font-family="none" font-weight="none" font-size="none" text-anchor="none" style="mix-blend-mode: normal"></path>
<path d="M50,-11c6.66667,0 13.33333,0 20,0c1.66877,0 3.33684,0.06848 5,0.20526c1.66316,-0.13678 3.33123,-0.20526 5,-0.20526c6.66667,0 13.33333,0 20,0c33.68937,0 61,27.31063 61,61c0,6.66667 0,13.33333 0,20c0,33.68937 -27.31063,61 -61,61c-16.66667,0 -33.33333,0 -50,0c-33.68937,0 -61,-27.31063 -61,-61c0,-6.66667 0,-13.33333 0,-20c0,-33.68937 27.31063,-61 61,-61z" fill="none" fill-rule="nonzero" stroke="#00adff" stroke-width="0.1" stroke-linecap="butt" stroke-linejoin="miter" stroke-miterlimit="10" stroke-dasharray="" stroke-dashoffset="0" font-family="none" font-weight="none" font-size="none" text-anchor="none" style="mix-blend-mode: normal"></path>
<path d="M50,-12c6.66667,0 13.33333,0 20,0c1.66871,0 3.33673,0.06737 5,0.20194c1.66327,-0.13457 3.33129,-0.20194 5,-0.20194c6.66667,0 13.33333,0 20,0c34.24165,0 62,27.75835 62,62c0,6.66667 0,13.33333 0,20c0,34.24165 -27.75835,62 -62,62c-16.66667,0 -33.33333,0 -50,0c-34.24165,0 -62,-27.75835 -62,-62c0,-6.66667 0,-13.33333 0,-20c0,-34.24165 27.75835,-62 62,-62z" fill="none" fill-rule="nonzero" stroke="#00a1ff" stroke-width="0.1" stroke-linecap="butt" stroke-linejoin="miter" stroke-miterlimit="10" stroke-dasharray="" stroke-dashoffset="0" font-family="none" font-weight="none" font-size="none" text-anchor="none" style="mix-blend-mode: normal"></path>
<path d="M50,-13c6.66667,0 13.33333,0 20,0c1.66864,0 3.33662,0.06629 5,0.19873c1.66338,-0.13243 3.33136,-0.19873 5,-0.19873c6.66667,0 13.33333,0 20,0c34.79394,0 63,28.20606 63,63c0,6.66667 0,13.33333 0,20c0,34.79394 -28.20606,63 -63,63c-16.66667,0 -33.33333,0 -50,0c-34.79394,0 -63,-28.20606 -63,-63c0,-6.66667 0,-13.33333 0,-20c0,-34.79394 28.20606,-63 63,-63z" fill="none" fill-rule="nonzero" stroke="#0095ff" stroke-width="0.1" stroke-linecap="butt" stroke-linejoin="miter" stroke-miterlimit="10" stroke-dasharray="" stroke-dashoffset="0" font-family="none" font-weight="none" font-size="none" text-anchor="none" style="mix-blend-mode: normal"></path>
<path d="M50,-14c6.66667,0 13.33333,0 20,0c1.66858,0 3.33652,0.06525 5,0.19561c1.66348,-0.13036 3.33142,-0.19561 5,-0.19561c6.66667,0 13.33333,0 20,0c35.34622,0 64,28.65378 64,64c0,6.66667 0,13.33333 0,20c0,35.34622 -28.65378,64 -64,64c-16.66667,0 -33.33333,0 -50,0c-35.34622,0 -64,-28.65378 -64,-64c0,-6.66667 0,-13.33333 0,-20c0,-35.34622 28.65378,-64 64,-64z" fill="none" fill-rule="nonzero" stroke="#0089ff" stroke-width="0.1" stroke-linecap="butt" stroke-linejoin="miter" stroke-miterlimit="10" stroke-dasharray="" stroke-dashoffset="0" font-family="none" font-weight="none" font-size="none" text-anchor="none" style="mix-blend-mode: normal"></path>
<path d="M50,-15c6.66667,0 13.33333,0 20,0c1.66852,0 3.33642,0.06425 5,0.19259c1.66358,-0.12835 3.33148,-0.19259 5,-0.19259c6.66667,0 13.33333,0 20,0c35.89851,0 65,29.10149 65,65c0,6.66667 0,13.33333 0,20c0,35.89851 -29.10149,65 -65,65c-16.66667,0 -33.33333,0 -50,0c-35.89851,0 -65,-29.10149 -65,-65c0,-6.66667 0,-13.33333 0,-20c0,-35.89851 29.10149,-65 65,-65z" fill="none" fill-rule="nonzero" stroke="#007dff" stroke-width="0.1" stroke-linecap="butt" stroke-linejoin="miter" stroke-miterlimit="10" stroke-dasharray="" stroke-dashoffset="0" font-family="none" font-weight="none" font-size="none" text-anchor="none" style="mix-blend-mode: normal"></path>
<path d="M50,-16c6.66667,0 13.33333,0 20,0c1.66846,0 3.33633,0.06327 5,0.18967c1.66367,-0.1264 3.33154,-0.18967 5,-0.18967c6.66667,0 13.33333,0 20,0c36.45079,0 66,29.54921 66,66c0,6.66667 0,13.33333 0,20c0,36.45079 -29.54921,66 -66,66c-16.66667,0 -33.33333,0 -50,0c-36.45079,0 -66,-29.54921 -66,-66c0,-6.66667 0,-13.33333 0,-20c0,-36.45079 29.54921,-66 66,-66z" fill="none" fill-rule="nonzero" stroke="#0071ff" stroke-width="0.1" stroke-linecap="butt" stroke-linejoin="miter" stroke-miterlimit="10" stroke-dasharray="" stroke-dashoffset="0" font-family="none" font-weight="none" font-size="none" text-anchor="none" style="mix-blend-mode: normal"></path>
<path d="M50,-17c6.66667,0 13.33333,0 20,0c1.66841,0 3.33624,0.06232 5,0.18683c1.66376,-0.12451 3.33159,-0.18683 5,-0.18683c6.66667,0 13.33333,0 20,0c37.00308,0 67,29.99692 67,67c0,6.66667 0,13.33333 0,20c0,37.00308 -29.99692,67 -67,67c-16.66667,0 -33.33333,0 -50,0c-37.00308,0 -67,-29.99692 -67,-67c0,-6.66667 0,-13.33333 0,-20c0,-37.00308 29.99692,-67 67,-67z" fill="none" fill-rule="nonzero" stroke="#0065ff" stroke-width="0.1" stroke-linecap="butt" stroke-linejoin="miter" stroke-miterlimit="10" stroke-dasharray="" stroke-dashoffset="0" font-family="none" font-weight="none" font-size="none" text-anchor="none" style="mix-blend-mode: normal"></path>
<path d="M50,-18c6.66667,0 13.33333,0 20,0c1.66836,0 3.33616,0.0614 5,0.18407c1.66384,-0.12267 3.33164,-0.18407 5,-0.18407c6.66667,0 13.33333,0 20,0c37.55536,0 68,30.44464 68,68c0,6.66667 0,13.33333 0,20c0,37.55536 -30.44464,68 -68,68c-16.66667,0 -33.33333,0 -50,0c-37.55536,0 -68,-30.44464 -68,-68c0,-6.66667 0,-13.33333 0,-20c0,-37.55536 30.44464,-68 68,-68z" fill="none" fill-rule="nonzero" stroke="#0059ff" stroke-width="0.1" stroke-linecap="butt" stroke-linejoin="miter" stroke-miterlimit="10" stroke-dasharray="" stroke-dashoffset="0" font-family="none" font-weight="none" font-size="none" text-anchor="none" style="mix-blend-mode: normal"></path>
<path d="M50,-19c6.66667,0 13.33333,0 20,0c1.66831,0 3.33607,0.06051 5,0.1814c1.66393,-0.12089 3.33169,-0.1814 5,-0.1814c6.66667,0 13.33333,0 20,0c38.10765,0 69,30.89235 69,69c0,6.66667 0,13.33333 0,20c0,38.10765 -30.89235,69 -69,69c-16.66667,0 -33.33333,0 -50,0c-38.10765,0 -69,-30.89235 -69,-69c0,-6.66667 0,-13.33333 0,-20c0,-38.10765 30.89235,-69 69,-69z" fill="none" fill-rule="nonzero" stroke="#004dff" stroke-width="0.1" stroke-linecap="butt" stroke-linejoin="miter" stroke-miterlimit="10" stroke-dasharray="" stroke-dashoffset="0" font-family="none" font-weight="none" font-size="none" text-anchor="none" style="mix-blend-mode: normal"></path>
<path d="M50,-20c6.66667,0 13.33333,0 20,0c1.66826,0 3.336,0.05964 5,0.1788c1.664,-0.11916 3.33174,-0.1788 5,-0.1788c6.66667,0 13.33333,0 20,0c38.65993,0 70,31.34007 70,70c0,6.66667 0,13.33333 0,20c0,38.65993 -31.34007,70 -70,70c-16.66667,0 -33.33333,0 -50,0c-38.65993,0 -70,-31.34007 -70,-70c0,-6.66667 0,-13.33333 0,-20c0,-38.65993 31.34007,-70 70,-70z" fill="none" fill-rule="nonzero" stroke="#0041ff" stroke-width="0.1" stroke-linecap="butt" stroke-linejoin="miter" stroke-miterlimit="10" stroke-dasharray="" stroke-dashoffset="0" font-family="none" font-weight="none" font-size="none" text-anchor="none" style="mix-blend-mode: normal"></path>
<path d="M50,-21c6.66667,0 13.33333,0 20,0c1.66822,0 3.33592,0.05879 5,0.17628c1.66408,-0.11748 3.33178,-0.17628 5,-0.17628c6.66667,0 13.33333,0 20,0c39.21222,0 71,31.78778 71,71c0,6.66667 0,13.33333 0,20c0,39.21222 -31.78778,71 -71,71c-16.66667,0 -33.33333,0 -50,0c-39.21222,0 -71,-31.78778 -71,-71c0,-6.66667 0,-13.33333 0,-20c0,-39.21222 31.78778,-71 71,-71z" fill="none" fill-rule="nonzero" stroke="#0034ff" stroke-width="0.1" stroke-linecap="butt" stroke-linejoin="miter" stroke-miterlimit="10" stroke-dasharray="" stroke-dashoffset="0" font-family="none" font-weight="none" font-size="none" text-anchor="none" style="mix-blend-mode: normal"></path>
<path d="M50,-22c6.66667,0 13.33333,0 20,0c1.66818,0 3.33585,0.05798 5,0.17382c1.66415,-0.11585 3.33182,-0.17382 5,-0.17382c6.66667,0 13.33333,0 20,0c39.7645,0 72,32.2355 72,72c0,6.66667 0,13.33333 0,20c0,39.7645 -32.2355,72 -72,72c-16.66667,0 -33.33333,0 -50,0c-39.7645,0 -72,-32.2355 -72,-72c0,-6.66667 0,-13.33333 0,-20c0,-39.7645 32.2355,-72 72,-72z" fill="none" fill-rule="nonzero" stroke="#0028ff" stroke-width="0.1" stroke-linecap="butt" stroke-linejoin="miter" stroke-miterlimit="10" stroke-dasharray="" stroke-dashoffset="0" font-family="none" font-weight="none" font-size="none" text-anchor="none" style="mix-blend-mode: normal"></path>
<path d="M50,-23c6.66667,0 13.33333,0 20,0c1.66814,0 3.33578,0.05718 5,0.17143c1.66422,-0.11426 3.33186,-0.17143 5,-0.17143c6.66667,0 13.33333,0 20,0c40.31679,0 73,32.68321 73,73c0,6.66667 0,13.33333 0,20c0,40.31679 -32.68321,73 -73,73c-16.66667,0 -33.33333,0 -50,0c-40.31679,0 -73,-32.68321 -73,-73c0,-6.66667 0,-13.33333 0,-20c0,-40.31679 32.68321,-73 73,-73z" fill="none" fill-rule="nonzero" stroke="#001cff" stroke-width="0.1" stroke-linecap="butt" stroke-linejoin="miter" stroke-miterlimit="10" stroke-dasharray="" stroke-dashoffset="0" font-family="none" font-weight="none" font-size="none" text-anchor="none" style="mix-blend-mode: normal"></path>
<path d="M50,-24c6.66667,0 13.33333,0 20,0c1.6681,0 3.33572,0.0564 5,0.16911c1.66428,-0.11271 3.3319,-0.16911 5,-0.16911c6.66667,0 13.33333,0 20,0c40.86907,0 74,33.13093 74,74c0,6.66667 0,13.33333 0,20c0,40.86907 -33.13093,74 -74,74c-16.66667,0 -33.33333,0 -50,0c-40.86907,0 -74,-33.13093 -74,-74c0,-6.66667 0,-13.33333 0,-20c0,-40.86907 33.13093,-74 74,-74z" fill="none" fill-rule="nonzero" stroke="#0010ff" stroke-width="0.1" stroke-linecap="butt" stroke-linejoin="miter" stroke-miterlimit="10" stroke-dasharray="" stroke-dashoffset="0" font-family="none" font-weight="none" font-size="none" text-anchor="none" style="mix-blend-mode: normal"></path>
<path d="M50,-25c6.66667,0 13.33333,0 20,0c1.66806,0 3.33565,0.05565 5,0.16685c1.66435,-0.1112 3.33194,-0.16685 5,-0.16685c6.66667,0 13.33333,0 20,0c41.42136,0 75,33.57864 75,75c0,6.66667 0,13.33333 0,20c0,41.42136 -33.57864,75 -75,75c-16.66667,0 -33.33333,0 -50,0c-41.42136,0 -75,-33.57864 -75,-75c0,-6.66667 0,-13.33333 0,-20c0,-41.42136 33.57864,-75 75,-75z" fill="none" fill-rule="nonzero" stroke="#0004ff" stroke-width="0.1" stroke-linecap="butt" stroke-linejoin="miter" stroke-miterlimit="10" stroke-dasharray="" stroke-dashoffset="0" font-family="none" font-weight="none" font-size="none" text-anchor="none" style="mix-blend-mode: normal"></path>
<path d="M50,-26c6.66667,0 13.33333,0 20,0c1.66802,0 3.33559,0.05491 5,0.16465c1.66441,-0.10974 3.33198,-0.16465 5,-0.16465c6.66667,0 13.33333,0 20,0c41.97364,0 76,34.02636 76,76c0,6.66667 0,13.33333 0,20c0,41.97364 -34.02636,76 -76,76c-16.66667,0 -33.33333,0 -50,0c-41.97364,0 -76,-34.02636 -76,-76c0,-6.66667 0,-13.33333 0,-20c0,-41.97364 34.02636,-76 76,-76z" fill="none" fill-rule="nonzero" stroke="#0800ff" stroke-width="0.1" stroke-linecap="butt" stroke-linejoin="miter" stroke-miterlimit="10" stroke-dasharray="" stroke-dashoffset="0" font-family="none" font-weight="none" font-size="none" text-anchor="none" style="mix-blend-mode: normal"></path>
<path d="M50,-27c6.66667,0 13.33333,0 20,0c1.66799,0 3.33553,0.0542 5,0.16251c1.66447,-0.10831 3.33201,-0.16251 5,-0.16251c6.66667,0 13.33333,0 20,0c42.52593,0 77,34.47407 77,77c0,6.66667 0,13.33333 0,20c0,42.52593 -34.47407,77 -77,77c-16.66667,0 -33.33333,0 -50,0c-42.52593,0 -77,-34.47407 -77,-77c0,-6.66667 0,-13.33333 0,-20c0,-42.52593 34.47407,-77 77,-77z" fill="none" fill-rule="nonzero" stroke="#1400ff" stroke-width="0.1" stroke-linecap="butt" stroke-linejoin="miter" stroke-miterlimit="10" stroke-dasharray="" stroke-dashoffset="0" font-family="none" font-weight="none" font-size="none" text-anchor="none" style="mix-blend-mode: normal"></path>
<path d="M50,-28c6.66667,0 13.33333,0 20,0c1.66795,0 3.33548,0.0535 5,0.16042c1.66452,-0.10692 3.33205,-0.16042 5,-0.16042c6.66667,0 13.33333,0 20,0c43.07821,0 78,34.92179 78,78c0,6.66667 0,13.33333 0,20c0,43.07821 -34.92179,78 -78,78c-16.66667,0 -33.33333,0 -50,0c-43.07821,0 -78,-34.92179 -78,-78c0,-6.66667 0,-13.33333 0,-20c0,-43.07821 34.92179,-78 78,-78z" fill="none" fill-rule="nonzero" stroke="#2000ff" stroke-width="0.1" stroke-linecap="butt" stroke-linejoin="miter" stroke-miterlimit="10" stroke-dasharray="" stroke-dashoffset="0" font-family="none" font-weight="none" font-size="none" text-anchor="none" style="mix-blend-mode: normal"></path>
<path d="M50,-29c6.66667,0 13.33333,0 20,0c1.66792,0 3.33542,0.05282 5,0.15839c1.66458,-0.10556 3.33208,-0.15839 5,-0.15839c6.66667,0 13.33333,0 20,0c43.6305,0 79,35.3695 79,79c0,6.66667 0,13.33333 0,20c0,43.6305 -35.3695,79 -79,79c-16.66667,0 -33.33333,0 -50,0c-43.6305,0 -79,-35.3695 -79,-79c0,-6.66667 0,-13.33333 0,-20c0,-43.6305 35.3695,-79 79,-79z" fill="none" fill-rule="nonzero" stroke="#2c00ff" stroke-width="0.1" stroke-linecap="butt" stroke-linejoin="miter" stroke-miterlimit="10" stroke-dasharray="" stroke-dashoffset="0" font-family="none" font-weight="none" font-size="none" text-anchor="none" style="mix-blend-mode: normal"></path>
<path d="M50,-30c6.66667,0 13.33333,0 20,0c1.66789,0 3.33537,0.05216 5,0.1564c1.66463,-0.10424 3.33211,-0.1564 5,-0.1564c6.66667,0 13.33333,0 20,0c44.18278,0 80,35.81722 80,80c0,6.66667 0,13.33333 0,20c0,44.18278 -35.81722,80 -80,80c-16.66667,0 -33.33333,0 -50,0c-44.18278,0 -80,-35.81722 -80,-80c0,-6.66667 0,-13.33333 0,-20c0,-44.18278 35.81722,-80 80,-80z" fill="none" fill-rule="nonzero" stroke="#3800ff" stroke-width="0.1" stroke-linecap="butt" stroke-linejoin="miter" stroke-miterlimit="10" stroke-dasharray="" stroke-dashoffset="0" font-family="none" font-weight="none" font-size="none" text-anchor="none" style="mix-blend-mode: normal"></path>
<path d="M50,-31c6.66667,0 13.33333,0 20,0c1.66786,0 3.33532,0.05151 5,0.15447c1.66468,-0.10295 3.33214,-0.15447 5,-0.15447c6.66667,0 13.33333,0 20,0c44.73506,0 81,36.26494 81,81c0,6.66667 0,13.33333 0,20c0,44.73506 -36.26494,81 -81,81c-16.66667,0 -33.33333,0 -50,0c-44.73506,0 -81,-36.26494 -81,-81c0,-6.66667 0,-13.33333 0,-20c0,-44.73506 36.26494,-81 81,-81z" fill="none" fill-rule="nonzero" stroke="#4500ff" stroke-width="0.1" stroke-linecap="butt" stroke-linejoin="miter" stroke-miterlimit="10" stroke-dasharray="" stroke-dashoffset="0" font-family="none" font-weight="none" font-size="none" text-anchor="none" style="mix-blend-mode: normal"></path>
<path d="M50,-32c6.66667,0 13.33333,0 20,0c1.66783,0 3.33527,0.05088 5,0.15258c1.66473,-0.1017 3.33217,-0.15258 5,-0.15258c6.66667,0 13.33333,0 20,0c45.28735,0 82,36.71265 82,82c0,6.66667 0,13.33333 0,20c0,45.28735 -36.71265,82 -82,82c-16.66667,0 -33.33333,0 -50,0c-45.28735,0 -82,-36.71265 -82,-82c0,-6.66667 0,-13.33333 0,-20c0,-45.28735 36.71265,-82 82,-82z" fill="none" fill-rule="nonzero" stroke="#5100ff" stroke-width="0.1" stroke-linecap="butt" stroke-linejoin="miter" stroke-miterlimit="10" stroke-dasharray="" stroke-dashoffset="0" font-family="none" font-weight="none" font-size="none" text-anchor="none" style="mix-blend-mode: normal"></path>
<path d="M50,-33c6.66667,0 13.33333,0 20,0c1.6678,0 3.33523,0.05027 5,0.15074c1.66477,-0.10047 3.3322,-0.15074 5,-0.15074c6.66667,0 13.33333,0 20,0c45.83963,0 83,37.16037 83,83c0,6.66667 0,13.33333 0,20c0,45.83963 -37.16037,83 -83,83c-16.66667,0 -33.33333,0 -50,0c-45.83963,0 -83,-37.16037 -83,-83c0,-6.66667 0,-13.33333 0,-20c0,-45.83963 37.16037,-83 83,-83z" fill="none" fill-rule="nonzero" stroke="#5d00ff" stroke-width="0.1" stroke-linecap="butt" stroke-linejoin="miter" stroke-miterlimit="10" stroke-dasharray="" stroke-dashoffset="0" font-family="none" font-weight="none" font-size="none" text-anchor="none" style="mix-blend-mode: normal"></path>
<path d="M50,-34c6.66667,0 13.33333,0 20,0c1.66778,0 3.33518,0.04967 5,0.14894c1.66482,-0.09927 3.33222,-0.14894 5,-0.14894c6.66667,0 13.33333,0 20,0c46.39192,0 84,37.60808 84,84c0,6.66667 0,13.33333 0,20c0,46.39192 -37.60808,84 -84,84c-16.66667,0 -33.33333,0 -50,0c-46.39192,0 -84,-37.60808 -84,-84c0,-6.66667 0,-13.33333 0,-20c0,-46.39192 37.60808,-84 84,-84z" fill="none" fill-rule="nonzero" stroke="#6900ff" stroke-width="0.1" stroke-linecap="butt" stroke-linejoin="miter" stroke-miterlimit="10" stroke-dasharray="" stroke-dashoffset="0" font-family="none" font-weight="none" font-size="none" text-anchor="none" style="mix-blend-mode: normal"></path>
<path d="M50,-35c6.66667,0 13.33333,0 20,0c1.66775,0 3.33514,0.04908 5,0.14719c1.66486,-0.0981 3.33225,-0.14719 5,-0.14719c6.66667,0 13.33333,0 20,0c46.9442,0 85,38.0558 85,85c0,6.66667 0,13.33333 0,20c0,46.9442 -38.0558,85 -85,85c-16.66667,0 -33.33333,0 -50,0c-46.9442,0 -85,-38.0558 -85,-85c0,-6.66667 0,-13.33333 0,-20c0,-46.9442 38.0558,-85 85,-85z" fill="none" fill-rule="nonzero" stroke="#7500ff" stroke-width="0.1" stroke-linecap="butt" stroke-linejoin="miter" stroke-miterlimit="10" stroke-dasharray="" stroke-dashoffset="0" font-family="none" font-weight="none" font-size="none" text-anchor="none" style="mix-blend-mode: normal"></path>
<path d="M50,-36c6.66667,0 13.33333,0 20,0c1.66772,0 3.3351,0.04851 5,0.14547c1.6649,-0.09696 3.33228,-0.14547 5,-0.14547c6.66667,0 13.33333,0 20,0c47.49649,0 86,38.50351 86,86c0,6.66667 0,13.33333 0,20c0,47.49649 -38.50351,86 -86,86c-16.66667,0 -33.33333,0 -50,0c-47.49649,0 -86,-38.50351 -86,-86c0,-6.66667 0,-13.33333 0,-20c0,-47.49649 38.50351,-86 86,-86z" fill="none" fill-rule="nonzero" stroke="#8100ff" stroke-width="0.1" stroke-linecap="butt" stroke-linejoin="miter" stroke-miterlimit="10" stroke-dasharray="" stroke-dashoffset="0" font-family="none" font-weight="none" font-size="none" text-anchor="none" style="mix-blend-mode: normal"></path>
<path d="M50,-37c6.66667,0 13.33333,0 20,0c1.6677,0 3.33506,0.04795 5,0.1438c1.66494,-0.09584 3.3323,-0.1438 5,-0.1438c6.66667,0 13.33333,0 20,0c48.04877,0 87,38.95123 87,87c0,6.66667 0,13.33333 0,20c0,48.04877 -38.95123,87 -87,87c-16.66667,0 -33.33333,0 -50,0c-48.04877,0 -87,-38.95123 -87,-87c0,-6.66667 0,-13.33333 0,-20c0,-48.04877 38.95123,-87 87,-87z" fill="none" fill-rule="nonzero" stroke="#8d00ff" stroke-width="0.1" stroke-linecap="butt" stroke-linejoin="miter" stroke-miterlimit="10" stroke-dasharray="" stroke-dashoffset="0" font-family="none" font-weight="none" font-size="none" text-anchor="none" style="mix-blend-mode: normal"></path>
<path d="M50,-38c6.66667,0 13.33333,0 20,0c1.66768,0 3.33502,0.04741 5,0.14216c1.66498,-0.09475 3.33232,-0.14216 5,-0.14216c6.66667,0 13.33333,0 20,0c48.60106,0 88,39.39894 88,88c0,6.66667 0,13.33333 0,20c0,48.60106 -39.39894,88 -88,88c-16.66667,0 -33.33333,0 -50,0c-48.60106,0 -88,-39.39894 -88,-88c0,-6.66667 0,-13.33333 0,-20c0,-48.60106 39.39894,-88 88,-88z" fill="none" fill-rule="nonzero" stroke="#9900ff" stroke-width="0.1" stroke-linecap="butt" stroke-linejoin="miter" stroke-miterlimit="10" stroke-dasharray="" stroke-dashoffset="0" font-family="none" font-weight="none" font-size="none" text-anchor="none" style="mix-blend-mode: normal"></path>
<path d="M50,-39c6.66667,0 13.33333,0 20,0c1.66765,0 3.33498,0.04687 5,0.14056c1.66502,-0.09369 3.33235,-0.14056 5,-0.14056c6.66667,0 13.33333,0 20,0c49.15334,0 89,39.84666 89,89c0,6.66667 0,13.33333 0,20c0,49.15334 -39.84666,89 -89,89c-16.66667,0 -33.33333,0 -50,0c-49.15334,0 -89,-39.84666 -89,-89c0,-6.66667 0,-13.33333 0,-20c0,-49.15334 39.84666,-89 89,-89z" fill="none" fill-rule="nonzero" stroke="#a500ff" stroke-width="0.1" stroke-linecap="butt" stroke-linejoin="miter" stroke-miterlimit="10" stroke-dasharray="" stroke-dashoffset="0" font-family="none" font-weight="none" font-size="none" text-anchor="none" style="mix-blend-mode: normal"></path>
<path d="M50,-40c6.66667,0 13.33333,0 20,0c1.66763,0 3.33494,0.04635 5,0.139c1.66506,-0.09265 3.33237,-0.139 5,-0.139c6.66667,0 13.33333,0 20,0c49.70563,0 90,40.29437 90,90c0,6.66667 0,13.33333 0,20c0,49.70563 -40.29437,90 -90,90c-16.66667,0 -33.33333,0 -50,0c-49.70563,0 -90,-40.29437 -90,-90c0,-6.66667 0,-13.33333 0,-20c0,-49.70563 40.29437,-90 90,-90z" fill="none" fill-rule="nonzero" stroke="#b100ff" stroke-width="0.1" stroke-linecap="butt" stroke-linejoin="miter" stroke-miterlimit="10" stroke-dasharray="" stroke-dashoffset="0" font-family="none" font-weight="none" font-size="none" text-anchor="none" style="mix-blend-mode: normal"></path>
<path d="M50,-41c6.66667,0 13.33333,0 20,0c1.66761,0 3.33491,0.04584 5,0.13747c1.66509,-0.09163 3.33239,-0.13747 5,-0.13747c6.66667,0 13.33333,0 20,0c50.25791,0 91,40.74209 91,91c0,6.66667 0,13.33333 0,20c0,50.25791 -40.74209,91 -91,91c-16.66667,0 -33.33333,0 -50,0c-50.25791,0 -91,-40.74209 -91,-91c0,-6.66667 0,-13.33333 0,-20c0,-50.25791 40.74209,-91 91,-91z" fill="none" fill-rule="nonzero" stroke="#bd00ff" stroke-width="0.1" stroke-linecap="butt" stroke-linejoin="miter" stroke-miterlimit="10" stroke-dasharray="" stroke-dashoffset="0" font-family="none" font-weight="none" font-size="none" text-anchor="none" style="mix-blend-mode: normal"></path>
<path d="M50,-42c6.66667,0 13.33333,0 20,0c1.66759,0 3.33487,0.04534 5,0.13597c1.66513,-0.09063 3.33241,-0.13597 5,-0.13597c6.66667,0 13.33333,0 20,0c50.8102,0 92,41.1898 92,92c0,6.66667 0,13.33333 0,20c0,50.8102 -41.1898,92 -92,92c-16.66667,0 -33.33333,0 -50,0c-50.8102,0 -92,-41.1898 -92,-92c0,-6.66667 0,-13.33333 0,-20c0,-50.8102 41.1898,-92 92,-92z" fill="none" fill-rule="nonzero" stroke="#ca00ff" stroke-width="0.1" stroke-linecap="butt" stroke-linejoin="miter" stroke-miterlimit="10" stroke-dasharray="" stroke-dashoffset="0" font-family="none" font-weight="none" font-size="none" text-anchor="none" style="mix-blend-mode: normal"></path>
<path d="M50,-43c6.66667,0 13.33333,0 20,0c1.66757,0 3.33484,0.04485 5,0.13451c1.66516,-0.08965 3.33243,-0.13451 5,-0.13451c6.66667,0 13.33333,0 20,0c51.36248,0 93,41.63752 93,93c0,6.66667 0,13.33333 0,20c0,51.36248 -41.63752,93 -93,93c-16.66667,0 -33.33333,0 -50,0c-51.36248,0 -93,-41.63752 -93,-93c0,-6.66667 0,-13.33333 0,-20c0,-51.36248 41.63752,-93 93,-93z" fill="none" fill-rule="nonzero" stroke="#d600ff" stroke-width="0.1" stroke-linecap="butt" stroke-linejoin="miter" stroke-miterlimit="10" stroke-dasharray="" stroke-dashoffset="0" font-family="none" font-weight="none" font-size="none" text-anchor="none" style="mix-blend-mode: normal"></path>
<path d="M50,-44c6.66667,0 13.33333,0 20,0c1.66755,0 3.33481,0.04437 5,0.13307c1.66519,-0.0887 3.33245,-0.13307 5,-0.13307c6.66667,0 13.33333,0 20,0c51.91477,0 94,42.08523 94,94c0,6.66667 0,13.33333 0,20c0,51.91477 -42.08523,94 -94,94c-16.66667,0 -33.33333,0 -50,0c-51.91477,0 -94,-42.08523 -94,-94c0,-6.66667 0,-13.33333 0,-20c0,-51.91477 42.08523,-94 94,-94z" fill="none" fill-rule="nonzero" stroke="#e200ff" stroke-width="0.1" stroke-linecap="butt" stroke-linejoin="miter" stroke-miterlimit="10" stroke-dasharray="" stroke-dashoffset="0" font-family="none" font-weight="none" font-size="none" text-anchor="none" style="mix-blend-mode: normal"></path>
<path d="M50,-45c6.66667,0 13.33333,0 20,0c1.66753,0 3.33478,0.04391 5,0.13167c1.66522,-0.08776 3.33247,-0.13167 5,-0.13167c6.66667,0 13.33333,0 20,0c52.46705,0 95,42.53295 95,95c0,6.66667 0,13.33333 0,20c0,52.46705 -42.53295,95 -95,95c-16.66667,0 -33.33333,0 -50,0c-52.46705,0 -95,-42.53295 -95,-95c0,-6.66667 0,-13.33333 0,-20c0,-52.46705 42.53295,-95 95,-95z" fill="none" fill-rule="nonzero" stroke="#ee00ff" stroke-width="0.1" stroke-linecap="butt" stroke-linejoin="miter" stroke-miterlimit="10" stroke-dasharray="" stroke-dashoffset="0" font-family="none" font-weight="none" font-size="none" text-anchor="none" style="mix-blend-mode: normal"></path>
<path d="M50,-46c6.66667,0 13.33333,0 20,0c1.66752,0 3.33475,0.04345 5,0.1303c1.66525,-0.08685 3.33248,-0.1303 5,-0.1303c6.66667,0 13.33333,0 20,0c53.01934,0 96,42.98066 96,96c0,6.66667 0,13.33333 0,20c0,53.01934 -42.98066,96 -96,96c-16.66667,0 -33.33333,0 -50,0c-53.01934,0 -96,-42.98066 -96,-96c0,-6.66667 0,-13.33333 0,-20c0,-53.01934 42.98066,-96 96,-96z" fill="none" fill-rule="nonzero" stroke="#fa00ff" stroke-width="0.1" stroke-linecap="butt" stroke-linejoin="miter" stroke-miterlimit="10" stroke-dasharray="" stroke-dashoffset="0" font-family="none" font-weight="none" font-size="none" text-anchor="none" style="mix-blend-mode: normal"></path>
<path d="M50,-47c6.66667,0 13.33333,0 20,0c1.6675,0 3.33472,0.043 5,0.12895c1.66528,-0.08595 3.3325,-0.12895 5,-0.12895c6.66667,0 13.33333,0 20,0c53.57162,0 97,43.42838 97,97c0,6.66667 0,13.33333 0,20c0,53.57162 -43.42838,97 -97,97c-16.66667,0 -33.33333,0 -50,0c-53.57162,0 -97,-43.42838 -97,-97c0,-6.66667 0,-13.33333 0,-20c0,-53.57162 43.42838,-97 97,-97z" fill="none" fill-rule="nonzero" stroke="#ff00f8" stroke-width="0.1" stroke-linecap="butt" stroke-linejoin="miter" stroke-miterlimit="10" stroke-dasharray="" stroke-dashoffset="0" font-family="none" font-weight="none" font-size="none" text-anchor="none" style="mix-blend-mode: normal"></path>
<path d="M50,-48c6.66667,0 13.33333,0 20,0c1.66748,0 3.33469,0.04256 5,0.12763c1.66531,-0.08508 3.33252,-0.12763 5,-0.12763c6.66667,0 13.33333,0 20,0c54.12391,0 98,43.87609 98,98c0,6.66667 0,13.33333 0,20c0,54.12391 -43.87609,98 -98,98c-16.66667,0 -33.33333,0 -50,0c-54.12391,0 -98,-43.87609 -98,-98c0,-6.66667 0,-13.33333 0,-20c0,-54.12391 43.87609,-98 98,-98z" fill="none" fill-rule="nonzero" stroke="#ff00ec" stroke-width="0.1" stroke-linecap="butt" stroke-linejoin="miter" stroke-miterlimit="10" stroke-dasharray="" stroke-dashoffset="0" font-family="none" font-weight="none" font-size="none" text-anchor="none" style="mix-blend-mode: normal"></path>
<path d="M50,-49c6.66667,0 13.33333,0 20,0c1.66746,0 3.33466,0.04213 5,0.12634c1.66534,-0.08422 3.33254,-0.12634 5,-0.12634c6.66667,0 13.33333,0 20,0c54.67619,0 99,44.32381 99,99c0,6.66667 0,13.33333 0,20c0,54.67619 -44.32381,99 -99,99c-16.66667,0 -33.33333,0 -50,0c-54.67619,0 -99,-44.32381 -99,-99c0,-6.66667 0,-13.33333 0,-20c0,-54.67619 44.32381,-99 99,-99z" fill="none" fill-rule="nonzero" stroke="#ff00e0" stroke-width="0.1" stroke-linecap="butt" stroke-linejoin="miter" stroke-miterlimit="10" stroke-dasharray="" stroke-dashoffset="0" font-family="none" font-weight="none" font-size="none" text-anchor="none" style="mix-blend-mode: normal"></path>
<path d="M50,-50c6.66667,0 13.33333,0 20,0c1.66745,0 3.33464,0.04171 5,0.12508c1.66536,-0.08337 3.33255,-0.12508 5,-0.12508c6.66667,0 13.33333,0 20,0c55.22847,0 100,44.77153 100,100c0,6.66667 0,13.33333 0,20c0,55.22847 -44.77153,100 -100,100c-16.66667,0 -33.33333,0 -50,0c-55.22847,0 -100,-44.77153 -100,-100c0,-6.66667 0,-13.33333 0,-20c0,-55.22847 44.77153,-100 100,-100z" fill="none" fill-rule="nonzero" stroke="#ff00d4" stroke-width="0.1" stroke-linecap="butt" stroke-linejoin="miter" stroke-miterlimit="10" stroke-dasharray="" stroke-dashoffset="0" font-family="none" font-weight="none" font-size="none" text-anchor="none" style="mix-blend-mode: normal"></path>
</svg>