<svg version="1.1" baseProfile="full" viewBox=" -65.00000000000001 -55.00056064787859 174.99999999999994 175.00000000000006 " viewPort=" -65.00000000000001 -55.00056064787859 174.99999999999994 175.00000000000006 " xmlns="http://www.w3.org/2000/svg"> 
<path d="M50,50l-5,5l10,10l10,-10l-5,-5l5,-5l10,10l-20,20l-20,-20l10,-10z" fill="none" fill-rule="nonzero" stroke="#000000" stroke-width="0.1" stroke-linecap="butt" stroke-linejoin="miter" stroke-miterlimit="10" stroke-dasharray="" stroke-dashoffset="0" font-family="none" font-weight="none" font-size="none" text-anchor="none" style="mix-blend-mode: normal"></path>
<path d="M68.98383,54.64068c0.11977,0.11977 0.23954,0.23954 0.35932,0.35932c-0.11976,0.11976 -0.23952,0.23952 -0.35928,0.35928c0.02139,-0.23718 0.0217,-0.47761 -0.00004,-0.7186zM55,69.34315c-0.11974,-0.11974 -0.23947,-0.23947 -0.35921,-0.35921c0.23895,0.02142 0.47946,0.02142 0.71842,0c-0.11974,0.11974 -0.23947,0.23947 -0.35921,0.35921zM40.65685,55c0.11977,-0.11977 0.23954,-0.23954 0.35932,-0.35932c-0.02174,0.24099 -0.02142,0.48142 -0.00004,0.7186c-0.11976,-0.11976 -0.23952,-0.23952 -0.35928,-0.35928z" fill="none" fill-rule="nonzero" stroke="#ff0d00" stroke-width="0.1" stroke-linecap="butt" stroke-linejoin="miter" stroke-miterlimit="10" stroke-dasharray="" stroke-dashoffset="0" font-family="none" font-weight="none" font-size="none" text-anchor="none" style="mix-blend-mode: normal"></path>
<path d="M45.75736,50c-0.95956,0.95956 -1.91912,1.91912 -2.87868,2.87868c-1.17157,1.17157 -1.17157,3.07107 0,4.24264c3.33333,3.33333 6.66667,6.66667 10,10c1.17157,1.17157 3.07107,1.17157 4.24264,0c3.33333,-3.33333 6.66667,-6.66667 10,-10c1.17157,-1.17157 1.17157,-3.07107 0,-4.24264c-0.95956,-0.95956 -1.91912,-1.91912 -2.87868,-2.87868c0.25245,-0.25245 0.50491,-0.50491 0.75736,-0.75736c1.91912,1.91912 3.83824,3.83824 5.75736,5.75736c-5.25245,5.25245 -10.50491,10.50491 -15.75736,15.75736c-5.25245,-5.25245 -10.50491,-10.50491 -15.75736,-15.75736c1.91912,-1.91912 3.83824,-3.83824 5.75736,-5.75736c0.25245,0.25245 0.50491,0.50491 0.75736,0.75736z" fill="none" fill-rule="nonzero" stroke="#ff1900" stroke-width="0.1" stroke-linecap="butt" stroke-linejoin="miter" stroke-miterlimit="10" stroke-dasharray="" stroke-dashoffset="0" font-family="none" font-weight="none" font-size="none" text-anchor="none" style="mix-blend-mode: normal"></path>
<path d="M47.17157,50c-1.19526,1.19526 -2.39052,2.39052 -3.58579,3.58579c-0.78105,0.78105 -0.78105,2.04738 0,2.82843c3.33333,3.33333 6.66667,6.66667 10,10c0.78105,0.78105 2.04738,0.78105 2.82843,0c3.33333,-3.33333 6.66667,-6.66667 10,-10c0.78105,-0.78105 0.78105,-2.04738 0,-2.82843c-1.19526,-1.19526 -2.39052,-2.39052 -3.58579,-3.58579c0.72386,-0.72386 1.44772,-1.44772 2.17157,-2.17157c2.39052,2.39052 4.78105,4.78105 7.17157,7.17157c-5.72386,5.72386 -11.44772,11.44772 -17.17157,17.17157c-5.72386,-5.72386 -11.44772,-11.44772 -17.17157,-17.17157c2.39052,-2.39052 4.78105,-4.78105 7.17157,-7.17157c0.72386,0.72386 1.44772,1.44772 2.17157,2.17157z" fill="none" fill-rule="nonzero" stroke="#ff2600" stroke-width="0.1" stroke-linecap="butt" stroke-linejoin="miter" stroke-miterlimit="10" stroke-dasharray="" stroke-dashoffset="0" font-family="none" font-weight="none" font-size="none" text-anchor="none" style="mix-blend-mode: normal"></path>
<path d="M48.58579,50c-1.43096,1.43096 -2.86193,2.86193 -4.29289,4.29289c-0.39052,0.39052 -0.39052,1.02369 0,1.41421c3.33333,3.33333 6.66667,6.66667 10,10c0.39052,0.39052 1.02369,0.39052 1.41421,0c3.33333,-3.33333 6.66667,-6.66667 10,-10c0.39052,-0.39052 0.39052,-1.02369 0,-1.41421c-1.43096,-1.43096 -2.86193,-2.86193 -4.29289,-4.29289c1.19526,-1.19526 2.39052,-2.39052 3.58579,-3.58579c2.86193,2.86193 5.72386,5.72386 8.58579,8.58579c-6.19526,6.19526 -12.39052,12.39052 -18.58579,18.58579c-6.19526,-6.19526 -12.39052,-12.39052 -18.58579,-18.58579c2.86193,-2.86193 5.72386,-5.72386 8.58579,-8.58579c1.19526,1.19526 2.39052,2.39052 3.58579,3.58579z" fill="none" fill-rule="nonzero" stroke="#ff3300" stroke-width="0.1" stroke-linecap="butt" stroke-linejoin="miter" stroke-miterlimit="10" stroke-dasharray="" stroke-dashoffset="0" font-family="none" font-weight="none" font-size="none" text-anchor="none" style="mix-blend-mode: normal"></path>
<path d="M50.70711,50.70711c-1.43096,1.43096 -2.86193,2.86193 -4.29289,4.29289c2.86193,2.86193 5.72386,5.72386 8.58579,8.58579c2.86193,-2.86193 5.72386,-5.72386 8.58579,-8.58579c-1.43096,-1.43096 -2.86193,-2.86193 -4.29289,-4.29289c-0.39052,-0.39052 -0.39052,-1.02369 0,-1.41421c1.66667,-1.66667 3.33333,-3.33333 5,-5c0.39052,-0.39052 1.02369,-0.39052 1.41421,0c3.33333,3.33333 6.66667,6.66667 10,10c0.39052,0.39052 0.39052,1.02369 0,1.41421c-6.66667,6.66667 -13.33333,13.33333 -20,20c-0.39052,0.39052 -1.02369,0.39052 -1.41421,0c-6.66667,-6.66667 -13.33333,-13.33333 -20,-20c-0.39052,-0.39052 -0.39052,-1.02369 0,-1.41421c3.33333,-3.33333 6.66667,-6.66667 10,-10c0.39052,-0.39052 1.02369,-0.39052 1.41421,0c1.66667,1.66667 3.33333,3.33333 5,5c0.39052,0.39052 0.39052,1.02369 0,1.41421z" fill="none" fill-rule="nonzero" stroke="#ff3f00" stroke-width="0.1" stroke-linecap="butt" stroke-linejoin="miter" stroke-miterlimit="10" stroke-dasharray="" stroke-dashoffset="0" font-family="none" font-weight="none" font-size="none" text-anchor="none" style="mix-blend-mode: normal"></path>
<path d="M51.41421,51.41421c-1.19526,1.19526 -2.39052,2.39052 -3.58579,3.58579c2.39052,2.39052 4.78105,4.78105 7.17157,7.17157c2.39052,-2.39052 4.78105,-4.78105 7.17157,-7.17157c-1.19526,-1.19526 -2.39052,-2.39052 -3.58579,-3.58579c-0.78105,-0.78105 -0.78105,-2.04738 0,-2.82843c1.66667,-1.66667 3.33333,-3.33333 5,-5c0.78105,-0.78105 2.04738,-0.78105 2.82843,0c3.33333,3.33333 6.66667,6.66667 10,10c0.78105,0.78105 0.78105,2.04738 0,2.82843c-6.66667,6.66667 -13.33333,13.33333 -20,20c-0.78105,0.78105 -2.04738,0.78105 -2.82843,0c-6.66667,-6.66667 -13.33333,-13.33333 -20,-20c-0.78105,-0.78105 -0.78105,-2.04738 0,-2.82843c3.33333,-3.33333 6.66667,-6.66667 10,-10c0.78105,-0.78105 2.04738,-0.78105 2.82843,0c1.66667,1.66667 3.33333,3.33333 5,5c0.78105,0.78105 0.78105,2.04738 0,2.82843z" fill="none" fill-rule="nonzero" stroke="#ff4c00" stroke-width="0.1" stroke-linecap="butt" stroke-linejoin="miter" stroke-miterlimit="10" stroke-dasharray="" stroke-dashoffset="0" font-family="none" font-weight="none" font-size="none" text-anchor="none" style="mix-blend-mode: normal"></path>
<path d="M52.12132,52.12132c-0.95956,0.95956 -1.91912,1.91912 -2.87868,2.87868c1.91912,1.91912 3.83824,3.83824 5.75736,5.75736c1.91912,-1.91912 3.83824,-3.83824 5.75736,-5.75736c-0.95956,-0.95956 -1.91912,-1.91912 -2.87868,-2.87868c-1.17157,-1.17157 -1.17157,-3.07107 0,-4.24264c1.66667,-1.66667 3.33333,-3.33333 5,-5c1.17157,-1.17157 3.07107,-1.17157 4.24264,0c3.33333,3.33333 6.66667,6.66667 10,10c1.17157,1.17157 1.17157,3.07107 0,4.24264c-6.66667,6.66667 -13.33333,13.33333 -20,20c-1.17157,1.17157 -3.07107,1.17157 -4.24264,0c-6.66667,-6.66667 -13.33333,-13.33333 -20,-20c-1.17157,-1.17157 -1.17157,-3.07107 0,-4.24264c3.33333,-3.33333 6.66667,-6.66667 10,-10c1.17157,-1.17157 3.07107,-1.17157 4.24264,0c1.66667,1.66667 3.33333,3.33333 5,5c1.17157,1.17157 1.17157,3.07107 0,4.24264z" fill="none" fill-rule="nonzero" stroke="#ff5900" stroke-width="0.1" stroke-linecap="butt" stroke-linejoin="miter" stroke-miterlimit="10" stroke-dasharray="" stroke-dashoffset="0" font-family="none" font-weight="none" font-size="none" text-anchor="none" style="mix-blend-mode: normal"></path>
<path d="M52.82843,52.82843c-0.72386,0.72386 -1.44772,1.44772 -2.17157,2.17157c1.44772,1.44772 2.89543,2.89543 4.34315,4.34315c1.44772,-1.44772 2.89543,-2.89543 4.34315,-4.34315c-0.72386,-0.72386 -1.44772,-1.44772 -2.17157,-2.17157c-1.5621,-1.5621 -1.5621,-4.09476 0,-5.65685c1.66667,-1.66667 3.33333,-3.33333 5,-5c1.5621,-1.5621 4.09476,-1.5621 5.65685,0c3.33333,3.33333 6.66667,6.66667 10,10c1.5621,1.5621 1.5621,4.09476 0,5.65685c-6.66667,6.66667 -13.33333,13.33333 -20,20c-1.5621,1.5621 -4.09476,1.5621 -5.65685,0c-6.66667,-6.66667 -13.33333,-13.33333 -20,-20c-1.5621,-1.5621 -1.5621,-4.09476 0,-5.65685c3.33333,-3.33333 6.66667,-6.66667 10,-10c1.5621,-1.5621 4.09476,-1.5621 5.65685,0c1.66667,1.66667 3.33333,3.33333 5,5c1.5621,1.5621 1.5621,4.09476 0,5.65685z" fill="none" fill-rule="nonzero" stroke="#ff6500" stroke-width="0.1" stroke-linecap="butt" stroke-linejoin="miter" stroke-miterlimit="10" stroke-dasharray="" stroke-dashoffset="0" font-family="none" font-weight="none" font-size="none" text-anchor="none" style="mix-blend-mode: normal"></path>
<path d="M53.53553,53.53553c-0.48816,0.48816 -0.97631,0.97631 -1.46447,1.46447c0.97631,0.97631 1.95262,1.95262 2.92893,2.92893c0.97631,-0.97631 1.95262,-1.95262 2.92893,-2.92893c-0.48816,-0.48816 -0.97631,-0.97631 -1.46447,-1.46447c-1.95262,-1.95262 -1.95262,-5.11845 0,-7.07107c1.66667,-1.66667 3.33333,-3.33333 5,-5c1.95262,-1.95262 5.11845,-1.95262 7.07107,0c3.33333,3.33333 6.66667,6.66667 10,10c1.95262,1.95262 1.95262,5.11845 0,7.07107c-6.66667,6.66667 -13.33333,13.33333 -20,20c-1.95262,1.95262 -5.11845,1.95262 -7.07107,0c-6.66667,-6.66667 -13.33333,-13.33333 -20,-20c-1.95262,-1.95262 -1.95262,-5.11845 0,-7.07107c3.33333,-3.33333 6.66667,-6.66667 10,-10c1.95262,-1.95262 5.11845,-1.95262 7.07107,0c1.66667,1.66667 3.33333,3.33333 5,5c1.95262,1.95262 1.95262,5.11845 0,7.07107z" fill="none" fill-rule="nonzero" stroke="#ff7200" stroke-width="0.1" stroke-linecap="butt" stroke-linejoin="miter" stroke-miterlimit="10" stroke-dasharray="" stroke-dashoffset="0" font-family="none" font-weight="none" font-size="none" text-anchor="none" style="mix-blend-mode: normal"></path>
<path d="M54.24264,54.24264c-0.25245,0.25245 -0.50491,0.50491 -0.75736,0.75736c0.50491,0.50491 1.00981,1.00981 1.51472,1.51472c0.50491,-0.50491 1.00981,-1.00981 1.51472,-1.51472c-0.25245,-0.25245 -0.50491,-0.50491 -0.75736,-0.75736c-0.2878,-0.2878 -0.54026,-0.59757 -0.75736,-0.92391c-0.2171,0.32634 -0.46956,0.6361 -0.75736,0.92391zM55.75736,45.75736c1.66667,-1.66667 3.33333,-3.33333 5,-5c2.34315,-2.34315 6.14214,-2.34315 8.48528,0c3.33333,3.33333 6.66667,6.66667 10,10c2.34315,2.34315 2.34315,6.14214 0,8.48528c-6.66667,6.66667 -13.33333,13.33333 -20,20c-2.34315,2.34315 -6.14214,2.34315 -8.48528,0c-6.66667,-6.66667 -13.33333,-13.33333 -20,-20c-2.34315,-2.34315 -2.34315,-6.14214 0,-8.48528c3.33333,-3.33333 6.66667,-6.66667 10,-10c2.34315,-2.34315 6.14214,-2.34315 8.48528,0c1.66667,1.66667 3.33333,3.33333 5,5c0.2878,0.2878 0.54026,0.59757 0.75736,0.92391c0.2171,-0.32634 0.46956,-0.6361 0.75736,-0.92391z" fill="none" fill-rule="nonzero" stroke="#ff7f00" stroke-width="0.1" stroke-linecap="butt" stroke-linejoin="miter" stroke-miterlimit="10" stroke-dasharray="" stroke-dashoffset="0" font-family="none" font-weight="none" font-size="none" text-anchor="none" style="mix-blend-mode: normal"></path>
<path d="M54.94975,54.94975c-0.01675,0.01675 -0.0335,0.0335 -0.05025,0.05025c0.0335,0.0335 0.067,0.067 0.10051,0.10051c0.0335,-0.0335 0.067,-0.067 0.10051,-0.10051c-0.01675,-0.01675 -0.0335,-0.0335 -0.05025,-0.05025c-0.01685,-0.01685 -0.03361,-0.03377 -0.05025,-0.05076c-0.01665,0.01698 -0.0334,0.0339 -0.05025,0.05076zM55.05025,45.05025c1.66667,-1.66667 3.33333,-3.33333 5,-5c2.73367,-2.73367 7.16582,-2.73367 9.89949,0c3.33333,3.33333 6.66667,6.66667 10,10c2.73367,2.73367 2.73367,7.16582 0,9.89949c-6.66667,6.66667 -13.33333,13.33333 -20,20c-2.73367,2.73367 -7.16582,2.73367 -9.89949,0c-6.66667,-6.66667 -13.33333,-13.33333 -20,-20c-2.73367,-2.73367 -2.73367,-7.16582 0,-9.89949c3.33333,-3.33333 6.66667,-6.66667 10,-10c2.73367,-2.73367 7.16582,-2.73367 9.89949,0c1.66667,1.66667 3.33333,3.33333 5,5c0.01685,0.01685 0.03361,0.03377 0.05025,0.05076c0.01665,-0.01698 0.0334,-0.0339 0.05025,-0.05076z" fill="none" fill-rule="nonzero" stroke="#ff8b00" stroke-width="0.1" stroke-linecap="butt" stroke-linejoin="miter" stroke-miterlimit="10" stroke-dasharray="" stroke-dashoffset="0" font-family="none" font-weight="none" font-size="none" text-anchor="none" style="mix-blend-mode: normal"></path>
<path d="M59.34315,39.34315c3.12419,-3.12419 8.18951,-3.12419 11.31371,0c3.33333,3.33333 6.66667,6.66667 10,10c3.12419,3.12419 3.12419,8.18951 0,11.31371c-6.66667,6.66667 -13.33333,13.33333 -20,20c-3.12419,3.12419 -8.18951,3.12419 -11.31371,0c-6.66667,-6.66667 -13.33333,-13.33333 -20,-20c-3.12419,-3.12419 -3.12419,-8.18951 0,-11.31371c3.33333,-3.33333 6.66667,-6.66667 10,-10c3.12419,-3.12419 8.18951,-3.12419 11.31371,0c1.44772,1.44772 2.89543,2.89543 4.34315,4.34315c1.44772,-1.44772 2.89543,-2.89543 4.34315,-4.34315z" fill="none" fill-rule="nonzero" stroke="#ff9800" stroke-width="0.1" stroke-linecap="butt" stroke-linejoin="miter" stroke-miterlimit="10" stroke-dasharray="" stroke-dashoffset="0" font-family="none" font-weight="none" font-size="none" text-anchor="none" style="mix-blend-mode: normal"></path>
<path d="M58.63604,38.63604c3.51472,-3.51472 9.2132,-3.51472 12.72792,0c3.33333,3.33333 6.66667,6.66667 10,10c3.51472,3.51472 3.51472,9.2132 0,12.72792c-6.66667,6.66667 -13.33333,13.33333 -20,20c-3.51472,3.51472 -9.2132,3.51472 -12.72792,0c-6.66667,-6.66667 -13.33333,-13.33333 -20,-20c-3.51472,-3.51472 -3.51472,-9.2132 0,-12.72792c3.33333,-3.33333 6.66667,-6.66667 10,-10c3.51472,-3.51472 9.2132,-3.51472 12.72792,0c1.21201,1.21201 2.42403,2.42403 3.63604,3.63604c1.21201,-1.21201 2.42403,-2.42403 3.63604,-3.63604z" fill="none" fill-rule="nonzero" stroke="#ffa500" stroke-width="0.1" stroke-linecap="butt" stroke-linejoin="miter" stroke-miterlimit="10" stroke-dasharray="" stroke-dashoffset="0" font-family="none" font-weight="none" font-size="none" text-anchor="none" style="mix-blend-mode: normal"></path>
<path d="M57.92893,37.92893c3.90524,-3.90524 10.23689,-3.90524 14.14214,0c3.33333,3.33333 6.66667,6.66667 10,10c3.90524,3.90524 3.90524,10.23689 0,14.14214c-6.66667,6.66667 -13.33333,13.33333 -20,20c-3.90524,3.90524 -10.23689,3.90524 -14.14214,0c-6.66667,-6.66667 -13.33333,-13.33333 -20,-20c-3.90524,-3.90524 -3.90524,-10.23689 0,-14.14214c3.33333,-3.33333 6.66667,-6.66667 10,-10c3.90524,-3.90524 10.23689,-3.90524 14.14214,0c0.97631,0.97631 1.95262,1.95262 2.92893,2.92893c0.97631,-0.97631 1.95262,-1.95262 2.92893,-2.92893z" fill="none" fill-rule="nonzero" stroke="#ffb100" stroke-width="0.1" stroke-linecap="butt" stroke-linejoin="miter" stroke-miterlimit="10" stroke-dasharray="" stroke-dashoffset="0" font-family="none" font-weight="none" font-size="none" text-anchor="none" style="mix-blend-mode: normal"></path>
<path d="M55,39.44365c0.74061,-0.74061 1.48122,-1.48122 2.22183,-2.22183c4.29577,-4.29577 11.26058,-4.29577 15.55635,0c3.33333,3.33333 6.66667,6.66667 10,10c4.29577,4.29577 4.29577,11.26058 0,15.55635c-6.66667,6.66667 -13.33333,13.33333 -20,20c-4.29577,4.29577 -11.26058,4.29577 -15.55635,0c-6.66667,-6.66667 -13.33333,-13.33333 -20,-20c-4.29577,-4.29577 -4.29577,-11.26058 0,-15.55635c3.33333,-3.33333 6.66667,-6.66667 10,-10c4.29577,-4.29577 11.26058,-4.29577 15.55635,0c0.74061,0.74061 1.48122,1.48122 2.22183,2.22183z" fill="none" fill-rule="nonzero" stroke="#ffbe00" stroke-width="0.1" stroke-linecap="butt" stroke-linejoin="miter" stroke-miterlimit="10" stroke-dasharray="" stroke-dashoffset="0" font-family="none" font-weight="none" font-size="none" text-anchor="none" style="mix-blend-mode: normal"></path>
<path d="M55,38.02944c0.50491,-0.50491 1.00981,-1.00981 1.51472,-1.51472c4.68629,-4.68629 12.28427,-4.68629 16.97056,0c3.33333,3.33333 6.66667,6.66667 10,10c4.68629,4.68629 4.68629,12.28427 0,16.97056c-6.66667,6.66667 -13.33333,13.33333 -20,20c-4.68629,4.68629 -12.28427,4.68629 -16.97056,0c-6.66667,-6.66667 -13.33333,-13.33333 -20,-20c-4.68629,-4.68629 -4.68629,-12.28427 0,-16.97056c3.33333,-3.33333 6.66667,-6.66667 10,-10c4.68629,-4.68629 12.28427,-4.68629 16.97056,0c0.50491,0.50491 1.00981,1.00981 1.51472,1.51472z" fill="none" fill-rule="nonzero" stroke="#ffcb00" stroke-width="0.1" stroke-linecap="butt" stroke-linejoin="miter" stroke-miterlimit="10" stroke-dasharray="" stroke-dashoffset="0" font-family="none" font-weight="none" font-size="none" text-anchor="none" style="mix-blend-mode: normal"></path>
<path d="M55.80761,35.80761c5.07682,-5.07682 13.30796,-5.07682 18.38478,0c3.33333,3.33333 6.66667,6.66667 10,10c5.07682,5.07682 5.07682,13.30796 0,18.38478c-6.66667,6.66667 -13.33333,13.33333 -20,20c-5.07682,5.07682 -13.30796,5.07682 -18.38478,0c-6.66667,-6.66667 -13.33333,-13.33333 -20,-20c-5.07682,-5.07682 -5.07682,-13.30796 0,-18.38478c3.33333,-3.33333 6.66667,-6.66667 10,-10c5.07682,-5.07682 13.30796,-5.07682 18.38478,0c0.2692,0.2692 0.53841,0.53841 0.80761,0.80761c0.2692,-0.2692 0.53841,-0.53841 0.80761,-0.80761z" fill="none" fill-rule="nonzero" stroke="#ffd700" stroke-width="0.1" stroke-linecap="butt" stroke-linejoin="miter" stroke-miterlimit="10" stroke-dasharray="" stroke-dashoffset="0" font-family="none" font-weight="none" font-size="none" text-anchor="none" style="mix-blend-mode: normal"></path>
<path d="M55.10051,35.10051c5.46734,-5.46734 14.33165,-5.46734 19.79899,0c3.33333,3.33333 6.66667,6.66667 10,10c5.46734,5.46734 5.46734,14.33165 0,19.79899c-6.66667,6.66667 -13.33333,13.33333 -20,20c-5.46734,5.46734 -14.33165,5.46734 -19.79899,0c-6.66667,-6.66667 -13.33333,-13.33333 -20,-20c-5.46734,-5.46734 -5.46734,-14.33165 0,-19.79899c3.33333,-3.33333 6.66667,-6.66667 10,-10c5.46734,-5.46734 14.33165,-5.46734 19.79899,0c0.0335,0.0335 0.067,0.067 0.10051,0.10051c0.0335,-0.0335 0.067,-0.067 0.10051,-0.10051z" fill="none" fill-rule="nonzero" stroke="#ffe400" stroke-width="0.1" stroke-linecap="butt" stroke-linejoin="miter" stroke-miterlimit="10" stroke-dasharray="" stroke-dashoffset="0" font-family="none" font-weight="none" font-size="none" text-anchor="none" style="mix-blend-mode: normal"></path>
<path d="M75.6066,34.3934c3.33333,3.33333 6.66667,6.66667 10,10c5.85786,5.85786 5.85786,15.35534 0,21.2132c-6.66667,6.66667 -13.33333,13.33333 -20,20c-5.85786,5.85786 -15.35534,5.85786 -21.2132,0c-6.66667,-6.66667 -13.33333,-13.33333 -20,-20c-5.85786,-5.85786 -5.85786,-15.35534 0,-21.2132c3.33333,-3.33333 6.66667,-6.66667 10,-10c5.62858,-5.62858 14.67356,-5.88041 20.6066,-0.57374c5.93304,-5.30667 14.97803,-5.05484 20.6066,0.57374z" fill="none" fill-rule="nonzero" stroke="#fff100" stroke-width="0.1" stroke-linecap="butt" stroke-linejoin="miter" stroke-miterlimit="10" stroke-dasharray="" stroke-dashoffset="0" font-family="none" font-weight="none" font-size="none" text-anchor="none" style="mix-blend-mode: normal"></path>
<path d="M76.31371,33.68629c3.33333,3.33333 6.66667,6.66667 10,10c6.24839,6.24839 6.24839,16.37903 0,22.62742c-6.66667,6.66667 -13.33333,13.33333 -20,20c-6.24839,6.24839 -16.37903,6.24839 -22.62742,0c-6.66667,-6.66667 -13.33333,-13.33333 -20,-20c-6.24839,-6.24839 -6.24839,-16.37903 0,-22.62742c3.33333,-3.33333 6.66667,-6.66667 10,-10c5.76658,-5.76658 14.94758,-6.27327 21.31371,-1.17629c6.36613,-5.09698 15.54713,-4.59029 21.31371,1.17629z" fill="none" fill-rule="nonzero" stroke="#fffd00" stroke-width="0.1" stroke-linecap="butt" stroke-linejoin="miter" stroke-miterlimit="10" stroke-dasharray="" stroke-dashoffset="0" font-family="none" font-weight="none" font-size="none" text-anchor="none" style="mix-blend-mode: normal"></path>
<path d="M77.02082,32.97918c3.33333,3.33333 6.66667,6.66667 10,10c6.63891,6.63891 6.63891,17.40272 0,24.04163c-6.66667,6.66667 -13.33333,13.33333 -20,20c-6.63891,6.63891 -17.40272,6.63891 -24.04163,0c-6.66667,-6.66667 -13.33333,-13.33333 -20,-20c-6.63891,-6.63891 -6.63891,-17.40272 0,-24.04163c3.33333,-3.33333 6.66667,-6.66667 10,-10c5.91548,-5.91548 15.25551,-6.64795 22.02082,-1.72691c6.7653,-4.92103 16.10533,-4.18857 22.02082,1.72691z" fill="none" fill-rule="nonzero" stroke="#f4ff00" stroke-width="0.1" stroke-linecap="butt" stroke-linejoin="miter" stroke-miterlimit="10" stroke-dasharray="" stroke-dashoffset="0" font-family="none" font-weight="none" font-size="none" text-anchor="none" style="mix-blend-mode: normal"></path>
<path d="M77.72792,32.27208c3.33333,3.33333 6.66667,6.66667 10,10c7.02944,7.02944 7.02944,18.42641 0,25.45584c-6.66667,6.66667 -13.33333,13.33333 -20,20c-7.02944,7.02944 -18.42641,7.02944 -25.45584,0c-6.66667,-6.66667 -13.33333,-13.33333 -20,-20c-7.02944,-7.02944 -7.02944,-18.42641 0,-25.45584c3.33333,-3.33333 6.66667,-6.66667 10,-10c6.07208,-6.07208 15.58783,-7.00938 22.72792,-2.23871c7.14009,-4.77068 16.65584,-3.83337 22.72792,2.23871z" fill="none" fill-rule="nonzero" stroke="#e7ff00" stroke-width="0.1" stroke-linecap="butt" stroke-linejoin="miter" stroke-miterlimit="10" stroke-dasharray="" stroke-dashoffset="0" font-family="none" font-weight="none" font-size="none" text-anchor="none" style="mix-blend-mode: normal"></path>
<path d="M78.43503,31.56497c3.33333,3.33333 6.66667,6.66667 10,10c7.41996,7.41996 7.41996,19.4501 0,26.87006c-6.66667,6.66667 -13.33333,13.33333 -20,20c-7.41996,7.41996 -19.4501,7.41996 -26.87006,0c-6.66667,-6.66667 -13.33333,-13.33333 -20,-20c-7.41996,-7.41996 -7.41996,-19.4501 0,-26.87006c3.33333,-3.33333 6.66667,-6.66667 10,-10c6.23432,-6.23432 15.93832,-7.36081 23.43503,-2.72047c7.49671,-4.64034 17.20071,-3.51385 23.43503,2.72047z" fill="none" fill-rule="nonzero" stroke="#dbff00" stroke-width="0.1" stroke-linecap="butt" stroke-linejoin="miter" stroke-miterlimit="10" stroke-dasharray="" stroke-dashoffset="0" font-family="none" font-weight="none" font-size="none" text-anchor="none" style="mix-blend-mode: normal"></path>
<path d="M79.14214,30.85786c3.33333,3.33333 6.66667,6.66667 10,10c7.81049,7.81049 7.81049,20.47379 0,28.28427c-6.66667,6.66667 -13.33333,13.33333 -20,20c-7.81049,7.81049 -20.47379,7.81049 -28.28427,0c-6.66667,-6.66667 -13.33333,-13.33333 -20,-20c-7.81049,-7.81049 -7.81049,-20.47379 0,-28.28427c3.33333,-3.33333 6.66667,-6.66667 10,-10c6.40081,-6.40081 16.30278,-7.70443 24.14214,-3.17837c7.83936,-4.52606 17.74132,-3.22244 24.14214,3.17837z" fill="none" fill-rule="nonzero" stroke="#ceff00" stroke-width="0.1" stroke-linecap="butt" stroke-linejoin="miter" stroke-miterlimit="10" stroke-dasharray="" stroke-dashoffset="0" font-family="none" font-weight="none" font-size="none" text-anchor="none" style="mix-blend-mode: normal"></path>
<path d="M79.84924,30.15076c3.33333,3.33333 6.66667,6.66667 10,10c8.20101,8.20101 8.20101,21.49747 0,29.69848c-6.66667,6.66667 -13.33333,13.33333 -20,20c-8.20101,8.20101 -21.49747,8.20101 -29.69848,0c-6.66667,-6.66667 -13.33333,-13.33333 -20,-20c-8.20101,-8.20101 -8.20101,-21.49747 0,-29.69848c3.33333,-3.33333 6.66667,-6.66667 10,-10c6.5706,-6.5706 16.67819,-8.04182 24.84924,-3.61694c8.17105,-4.42487 18.27864,-2.95366 24.84924,3.61694z" fill="none" fill-rule="nonzero" stroke="#c1ff00" stroke-width="0.1" stroke-linecap="butt" stroke-linejoin="miter" stroke-miterlimit="10" stroke-dasharray="" stroke-dashoffset="0" font-family="none" font-weight="none" font-size="none" text-anchor="none" style="mix-blend-mode: normal"></path>
<path d="M80.55635,29.44365c3.33333,3.33333 6.66667,6.66667 10,10c8.59153,8.59153 8.59153,22.52116 0,31.1127c-6.66667,6.66667 -13.33333,13.33333 -20,20c-8.59153,8.59153 -22.52116,8.59153 -31.1127,0c-6.66667,-6.66667 -13.33333,-13.33333 -20,-20c-8.59153,-8.59153 -8.59153,-22.52116 0,-31.1127c3.33333,-3.33333 6.66667,-6.66667 10,-10c6.74299,-6.74299 17.06238,-8.37413 25.55635,-4.03957c8.49397,-4.33456 18.81336,-2.70342 25.55635,4.03957z" fill="none" fill-rule="nonzero" stroke="#b5ff00" stroke-width="0.1" stroke-linecap="butt" stroke-linejoin="miter" stroke-miterlimit="10" stroke-dasharray="" stroke-dashoffset="0" font-family="none" font-weight="none" font-size="none" text-anchor="none" style="mix-blend-mode: normal"></path>
<path d="M81.26346,28.73654c3.33333,3.33333 6.66667,6.66667 10,10c8.98206,8.98206 8.98206,23.54485 0,32.52691c-6.66667,6.66667 -13.33333,13.33333 -20,20c-8.98206,8.98206 -23.54485,8.98206 -32.52691,0c-6.66667,-6.66667 -13.33333,-13.33333 -20,-20c-8.98206,-8.98206 -8.98206,-23.54485 0,-32.52691c3.33333,-3.33333 6.66667,-6.66667 10,-10c6.91747,-6.91747 17.45372,-8.70224 26.26346,-4.44886c8.80974,-4.25338 19.34599,-2.46861 26.26346,4.44886z" fill="none" fill-rule="nonzero" stroke="#a8ff00" stroke-width="0.1" stroke-linecap="butt" stroke-linejoin="miter" stroke-miterlimit="10" stroke-dasharray="" stroke-dashoffset="0" font-family="none" font-weight="none" font-size="none" text-anchor="none" style="mix-blend-mode: normal"></path>
<path d="M81.97056,28.02944c3.33333,3.33333 6.66667,6.66667 10,10c9.37258,9.37258 9.37258,24.56854 0,33.94113c-6.66667,6.66667 -13.33333,13.33333 -20,20c-9.37258,9.37258 -24.56854,9.37258 -33.94113,0c-6.66667,-6.66667 -13.33333,-13.33333 -20,-20c-9.37258,-9.37258 -9.37258,-24.56854 0,-33.94113c3.33333,-3.33333 6.66667,-6.66667 10,-10c7.09364,-7.09364 17.85095,-9.02683 26.97056,-4.84686c9.11961,-4.17997 19.87692,-2.24678 26.97056,4.84686z" fill="none" fill-rule="nonzero" stroke="#9bff00" stroke-width="0.1" stroke-linecap="butt" stroke-linejoin="miter" stroke-miterlimit="10" stroke-dasharray="" stroke-dashoffset="0" font-family="none" font-weight="none" font-size="none" text-anchor="none" style="mix-blend-mode: normal"></path>
<path d="M82.67767,27.32233c3.33333,3.33333 6.66667,6.66667 10,10c9.76311,9.76311 9.76311,25.59223 0,35.35534c-6.66667,6.66667 -13.33333,13.33333 -20,20c-9.76311,9.76311 -25.59223,9.76311 -35.35534,0c-6.66667,-6.66667 -13.33333,-13.33333 -20,-20c-9.76311,-9.76311 -9.76311,-25.59223 0,-35.35534c3.33333,-3.33333 6.66667,-6.66667 10,-10c7.27121,-7.27121 18.2531,-9.34843 27.67767,-5.23521c9.42457,-4.11322 20.40646,-2.036 27.67767,5.23521z" fill="none" fill-rule="nonzero" stroke="#8fff00" stroke-width="0.1" stroke-linecap="butt" stroke-linejoin="miter" stroke-miterlimit="10" stroke-dasharray="" stroke-dashoffset="0" font-family="none" font-weight="none" font-size="none" text-anchor="none" style="mix-blend-mode: normal"></path>
<path d="M83.38478,26.61522c3.33333,3.33333 6.66667,6.66667 10,10c10.15363,10.15363 10.15363,26.61592 0,36.76955c-6.66667,6.66667 -13.33333,13.33333 -20,20c-10.15363,10.15363 -26.61592,10.15363 -36.76955,0c-6.66667,-6.66667 -13.33333,-13.33333 -20,-20c-10.15363,-10.15363 -10.15363,-26.61592 0,-36.76955c3.33333,-3.33333 6.66667,-6.66667 10,-10c7.44995,-7.44995 18.6594,-9.66746 28.38478,-5.61522c9.72537,-4.05224 20.93483,-1.83473 28.38478,5.61522z" fill="none" fill-rule="nonzero" stroke="#82ff00" stroke-width="0.1" stroke-linecap="butt" stroke-linejoin="miter" stroke-miterlimit="10" stroke-dasharray="" stroke-dashoffset="0" font-family="none" font-weight="none" font-size="none" text-anchor="none" style="mix-blend-mode: normal"></path>
<path d="M84.09188,25.90812c3.33333,3.33333 6.66667,6.66667 10,10c10.54416,10.54416 10.54416,27.63961 0,38.18377c-6.66667,6.66667 -13.33333,13.33333 -20,20c-10.54416,10.54416 -27.63961,10.54416 -38.18377,0c-6.66667,-6.66667 -13.33333,-13.33333 -20,-20c-10.54416,-10.54416 -10.54416,-27.63961 0,-38.18377c3.33333,-3.33333 6.66667,-6.66667 10,-10c7.62967,-7.62967 19.06924,-9.98428 29.09188,-5.98799c10.02264,-3.99629 21.46221,-1.64168 29.09188,5.98799z" fill="none" fill-rule="nonzero" stroke="#75ff00" stroke-width="0.1" stroke-linecap="butt" stroke-linejoin="miter" stroke-miterlimit="10" stroke-dasharray="" stroke-dashoffset="0" font-family="none" font-weight="none" font-size="none" text-anchor="none" style="mix-blend-mode: normal"></path>
<path d="M84.79899,25.20101c3.33333,3.33333 6.66667,6.66667 10,10c10.93468,10.93468 10.93468,28.6633 0,39.59798c-6.66667,6.66667 -13.33333,13.33333 -20,20c-10.93468,10.93468 -28.6633,10.93468 -39.59798,0c-6.66667,-6.66667 -13.33333,-13.33333 -20,-20c-10.93468,-10.93468 -10.93468,-28.6633 0,-39.59798c3.33333,-3.33333 6.66667,-6.66667 10,-10c7.81022,-7.81022 19.48211,-10.29916 29.79899,-6.3544c10.31688,-3.94476 21.98877,-1.45582 29.79899,6.3544z" fill="none" fill-rule="nonzero" stroke="#69ff00" stroke-width="0.1" stroke-linecap="butt" stroke-linejoin="miter" stroke-miterlimit="10" stroke-dasharray="" stroke-dashoffset="0" font-family="none" font-weight="none" font-size="none" text-anchor="none" style="mix-blend-mode: normal"></path>
<path d="M85.5061,24.4939c3.33333,3.33333 6.66667,6.66667 10,10c11.3252,11.3252 11.3252,29.68699 0,41.01219c-6.66667,6.66667 -13.33333,13.33333 -20,20c-11.3252,11.3252 -29.68699,11.3252 -41.01219,0c-6.66667,-6.66667 -13.33333,-13.33333 -20,-20c-11.3252,-11.3252 -11.3252,-29.68699 0,-41.01219c3.33333,-3.33333 6.66667,-6.66667 10,-10c7.99148,-7.99148 19.89761,-10.61234 30.5061,-6.71522c10.60849,-3.89713 22.51461,-1.27626 30.5061,6.71522z" fill="none" fill-rule="nonzero" stroke="#5cff00" stroke-width="0.1" stroke-linecap="butt" stroke-linejoin="miter" stroke-miterlimit="10" stroke-dasharray="" stroke-dashoffset="0" font-family="none" font-weight="none" font-size="none" text-anchor="none" style="mix-blend-mode: normal"></path>
<path d="M86.2132,23.7868c3.33333,3.33333 6.66667,6.66667 10,10c11.71573,11.71573 11.71573,30.71068 0,42.42641c-6.66667,6.66667 -13.33333,13.33333 -20,20c-11.71573,11.71573 -30.71068,11.71573 -42.42641,0c-6.66667,-6.66667 -13.33333,-13.33333 -20,-20c-11.71573,-11.71573 -11.71573,-30.71068 0,-42.42641c3.33333,-3.33333 6.66667,-6.66667 10,-10c8.17336,-8.17336 20.31539,-10.92403 31.2132,-7.07107c10.89781,-3.85296 23.03985,-1.10229 31.2132,7.07107z" fill="none" fill-rule="nonzero" stroke="#4fff00" stroke-width="0.1" stroke-linecap="butt" stroke-linejoin="miter" stroke-miterlimit="10" stroke-dasharray="" stroke-dashoffset="0" font-family="none" font-weight="none" font-size="none" text-anchor="none" style="mix-blend-mode: normal"></path>
<path d="M86.92031,23.07969c3.33333,3.33333 6.66667,6.66667 10,10c12.10625,12.10625 12.10625,31.73437 0,43.84062c-6.66667,6.66667 -13.33333,13.33333 -20,20c-12.10625,12.10625 -31.73437,12.10625 -43.84062,0c-6.66667,-6.66667 -13.33333,-13.33333 -20,-20c-12.10625,-12.10625 -12.10625,-31.73437 0,-43.84062c3.33333,-3.33333 6.66667,-6.66667 10,-10c8.35576,-8.35576 20.73518,-11.23437 31.92031,-7.42249c11.18513,-3.81188 23.56455,-0.93327 31.92031,7.42249z" fill="none" fill-rule="nonzero" stroke="#43ff00" stroke-width="0.1" stroke-linecap="butt" stroke-linejoin="miter" stroke-miterlimit="10" stroke-dasharray="" stroke-dashoffset="0" font-family="none" font-weight="none" font-size="none" text-anchor="none" style="mix-blend-mode: normal"></path>
<path d="M87.62742,22.37258c3.33333,3.33333 6.66667,6.66667 10,10c12.49678,12.49678 12.49678,32.75806 0,45.25483c-6.66667,6.66667 -13.33333,13.33333 -20,20c-12.49678,12.49678 -32.75806,12.49678 -45.25483,0c-6.66667,-6.66667 -13.33333,-13.33333 -20,-20c-12.49678,-12.49678 -12.49678,-32.75806 0,-45.25483c3.33333,-3.33333 6.66667,-6.66667 10,-10c8.53863,-8.53863 21.15673,-11.54353 32.62742,-7.76995c11.47069,-3.77358 24.08878,-0.76868 32.62742,7.76995z" fill="none" fill-rule="nonzero" stroke="#36ff00" stroke-width="0.1" stroke-linecap="butt" stroke-linejoin="miter" stroke-miterlimit="10" stroke-dasharray="" stroke-dashoffset="0" font-family="none" font-weight="none" font-size="none" text-anchor="none" style="mix-blend-mode: normal"></path>
<path d="M88.33452,21.66548c3.33333,3.33333 6.66667,6.66667 10,10c12.8873,12.8873 12.8873,33.78175 0,46.66905c-6.66667,6.66667 -13.33333,13.33333 -20,20c-12.8873,12.8873 -33.78175,12.8873 -46.66905,0c-6.66667,-6.66667 -13.33333,-13.33333 -20,-20c-12.8873,-12.8873 -12.8873,-33.78175 0,-46.66905c3.33333,-3.33333 6.66667,-6.66667 10,-10c8.72191,-8.72191 21.57985,-11.85162 33.33452,-8.11385c11.75468,-3.73777 24.61261,-0.60806 33.33452,8.11385z" fill="none" fill-rule="nonzero" stroke="#29ff00" stroke-width="0.1" stroke-linecap="butt" stroke-linejoin="miter" stroke-miterlimit="10" stroke-dasharray="" stroke-dashoffset="0" font-family="none" font-weight="none" font-size="none" text-anchor="none" style="mix-blend-mode: normal"></path>
<path d="M89.04163,20.95837c3.33333,3.33333 6.66667,6.66667 10,10c13.27783,13.27783 13.27783,34.80544 0,48.08326c-6.66667,6.66667 -13.33333,13.33333 -20,20c-13.27783,13.27783 -34.80544,13.27783 -48.08326,0c-6.66667,-6.66667 -13.33333,-13.33333 -20,-20c-13.27783,-13.27783 -13.27783,-34.80544 0,-48.08326c3.33333,-3.33333 6.66667,-6.66667 10,-10c8.90554,-8.90554 22.00435,-12.15874 34.04163,-8.45452c12.03728,-3.70422 25.13609,-0.45102 34.04163,8.45452z" fill="none" fill-rule="nonzero" stroke="#1dff00" stroke-width="0.1" stroke-linecap="butt" stroke-linejoin="miter" stroke-miterlimit="10" stroke-dasharray="" stroke-dashoffset="0" font-family="none" font-weight="none" font-size="none" text-anchor="none" style="mix-blend-mode: normal"></path>
<path d="M89.74874,20.25126c3.33333,3.33333 6.66667,6.66667 10,10c13.66835,13.66835 13.66835,35.82912 0,49.49747c-6.66667,6.66667 -13.33333,13.33333 -20,20c-13.66835,13.66835 -35.82912,13.66835 -49.49747,0c-6.66667,-6.66667 -13.33333,-13.33333 -20,-20c-13.66835,-13.66835 -13.66835,-35.82912 0,-49.49747c3.33333,-3.33333 6.66667,-6.66667 10,-10c9.08949,-9.08949 22.4301,-12.46499 34.74874,-8.79228c12.31864,-3.67271 25.65925,-0.29721 34.74874,8.79228z" fill="none" fill-rule="nonzero" stroke="#10ff00" stroke-width="0.1" stroke-linecap="butt" stroke-linejoin="miter" stroke-miterlimit="10" stroke-dasharray="" stroke-dashoffset="0" font-family="none" font-weight="none" font-size="none" text-anchor="none" style="mix-blend-mode: normal"></path>
<path d="M90.45584,19.54416c3.33333,3.33333 6.66667,6.66667 10,10c14.05887,14.05887 14.05887,36.85281 0,50.91169c-6.66667,6.66667 -13.33333,13.33333 -20,20c-14.05887,14.05887 -36.85281,14.05887 -50.91169,0c-6.66667,-6.66667 -13.33333,-13.33333 -20,-20c-14.05887,-14.05887 -14.05887,-36.85281 0,-50.91169c3.33333,-3.33333 6.66667,-6.66667 10,-10c9.27372,-9.27372 22.85696,-12.77045 35.45584,-9.12739c12.59888,-3.64306 26.18212,-0.14633 35.45584,9.12739z" fill="none" fill-rule="nonzero" stroke="#03ff00" stroke-width="0.1" stroke-linecap="butt" stroke-linejoin="miter" stroke-miterlimit="10" stroke-dasharray="" stroke-dashoffset="0" font-family="none" font-weight="none" font-size="none" text-anchor="none" style="mix-blend-mode: normal"></path>
<path d="M91.16295,18.83705c3.33333,3.33333 6.66667,6.66667 10,10c14.4494,14.4494 14.4494,37.8765 0,52.3259c-6.66667,6.66667 -13.33333,13.33333 -20,20c-14.4494,14.4494 -37.8765,14.4494 -52.3259,0c-6.66667,-6.66667 -13.33333,-13.33333 -20,-20c-14.4494,-14.4494 -14.4494,-37.8765 0,-52.3259c3.33333,-3.33333 6.66667,-6.66667 10,-10c9.4582,-9.4582 23.28483,-13.07519 36.16295,-9.46008c12.87813,-3.61511 26.70475,0.00187 36.16295,9.46008z" fill="none" fill-rule="nonzero" stroke="#00ff0a" stroke-width="0.1" stroke-linecap="butt" stroke-linejoin="miter" stroke-miterlimit="10" stroke-dasharray="" stroke-dashoffset="0" font-family="none" font-weight="none" font-size="none" text-anchor="none" style="mix-blend-mode: normal"></path>
<path d="M91.87006,18.12994c3.33333,3.33333 6.66667,6.66667 10,10c14.83992,14.83992 14.83992,38.90019 0,53.74012c-6.66667,6.66667 -13.33333,13.33333 -20,20c-14.83992,14.83992 -38.90019,14.83992 -53.74012,0c-6.66667,-6.66667 -13.33333,-13.33333 -20,-20c-14.83992,-14.83992 -14.83992,-38.90019 0,-53.74012c3.33333,-3.33333 6.66667,-6.66667 10,-10c9.64291,-9.64291 23.7136,-13.37927 36.87006,-9.79055c13.15646,-3.58872 27.22715,0.14764 36.87006,9.79055z" fill="none" fill-rule="nonzero" stroke="#00ff16" stroke-width="0.1" stroke-linecap="butt" stroke-linejoin="miter" stroke-miterlimit="10" stroke-dasharray="" stroke-dashoffset="0" font-family="none" font-weight="none" font-size="none" text-anchor="none" style="mix-blend-mode: normal"></path>
<path d="M92.57716,17.42284c3.33333,3.33333 6.66667,6.66667 10,10c15.23045,15.23045 15.23045,39.92388 0,55.15433c-6.66667,6.66667 -13.33333,13.33333 -20,20c-15.23045,15.23045 -39.92388,15.23045 -55.15433,0c-6.66667,-6.66667 -13.33333,-13.33333 -20,-20c-15.23045,-15.23045 -15.23045,-39.92388 0,-55.15433c3.33333,-3.33333 6.66667,-6.66667 10,-10c9.82781,-9.82781 24.14319,-13.68274 37.57716,-10.11899c13.43397,-3.56375 27.74935,0.29117 37.57716,10.11899z" fill="none" fill-rule="nonzero" stroke="#00ff23" stroke-width="0.1" stroke-linecap="butt" stroke-linejoin="miter" stroke-miterlimit="10" stroke-dasharray="" stroke-dashoffset="0" font-family="none" font-weight="none" font-size="none" text-anchor="none" style="mix-blend-mode: normal"></path>
<path d="M93.28427,16.71573c3.33333,3.33333 6.66667,6.66667 10,10c15.62097,15.62097 15.62097,40.94757 0,56.56854c-6.66667,6.66667 -13.33333,13.33333 -20,20c-15.62097,15.62097 -40.94757,15.62097 -56.56854,0c-6.66667,-6.66667 -13.33333,-13.33333 -20,-20c-15.62097,-15.62097 -15.62097,-40.94757 0,-56.56854c3.33333,-3.33333 6.66667,-6.66667 10,-10c10.0129,-10.0129 24.57354,-13.98566 38.28427,-10.44556c13.71073,-3.5401 28.27137,0.43266 38.28427,10.44556z" fill="none" fill-rule="nonzero" stroke="#00ff30" stroke-width="0.1" stroke-linecap="butt" stroke-linejoin="miter" stroke-miterlimit="10" stroke-dasharray="" stroke-dashoffset="0" font-family="none" font-weight="none" font-size="none" text-anchor="none" style="mix-blend-mode: normal"></path>
<path d="M93.99138,16.00862c3.33333,3.33333 6.66667,6.66667 10,10c16.0115,16.0115 16.0115,41.97126 0,57.98276c-6.66667,6.66667 -13.33333,13.33333 -20,20c-16.0115,16.0115 -41.97126,16.0115 -57.98276,0c-6.66667,-6.66667 -13.33333,-13.33333 -20,-20c-16.0115,-16.0115 -16.0115,-41.97126 0,-57.98276c3.33333,-3.33333 6.66667,-6.66667 10,-10c10.19816,-10.19816 25.00456,-14.28806 38.99138,-10.77041c13.98681,-3.51765 28.79322,0.57225 38.99138,10.77041z" fill="none" fill-rule="nonzero" stroke="#00ff3c" stroke-width="0.1" stroke-linecap="butt" stroke-linejoin="miter" stroke-miterlimit="10" stroke-dasharray="" stroke-dashoffset="0" font-family="none" font-weight="none" font-size="none" text-anchor="none" style="mix-blend-mode: normal"></path>
<path d="M94.69848,15.30152c3.33333,3.33333 6.66667,6.66667 10,10c16.40202,16.40202 16.40202,42.99495 0,59.39697c-6.66667,6.66667 -13.33333,13.33333 -20,20c-16.40202,16.40202 -42.99495,16.40202 -59.39697,0c-6.66667,-6.66667 -13.33333,-13.33333 -20,-20c-16.40202,-16.40202 -16.40202,-42.99495 0,-59.39697c3.33333,-3.33333 6.66667,-6.66667 10,-10c10.38356,-10.38356 25.43621,-14.59 39.69848,-11.09367c14.26227,-3.49633 29.31492,0.71011 39.69848,11.09367z" fill="none" fill-rule="nonzero" stroke="#00ff49" stroke-width="0.1" stroke-linecap="butt" stroke-linejoin="miter" stroke-miterlimit="10" stroke-dasharray="" stroke-dashoffset="0" font-family="none" font-weight="none" font-size="none" text-anchor="none" style="mix-blend-mode: normal"></path>
<path d="M95.40559,14.59441c3.33333,3.33333 6.66667,6.66667 10,10c16.79254,16.79254 16.79254,44.01864 0,60.81118c-6.66667,6.66667 -13.33333,13.33333 -20,20c-16.79254,16.79254 -44.01864,16.79254 -60.81118,0c-6.66667,-6.66667 -13.33333,-13.33333 -20,-20c-16.79254,-16.79254 -16.79254,-44.01864 0,-60.81118c3.33333,-3.33333 6.66667,-6.66667 10,-10c10.5691,-10.5691 25.86843,-14.89149 40.40559,-11.41546c14.53716,-3.47604 29.83649,0.84636 40.40559,11.41546z" fill="none" fill-rule="nonzero" stroke="#00ff56" stroke-width="0.1" stroke-linecap="butt" stroke-linejoin="miter" stroke-miterlimit="10" stroke-dasharray="" stroke-dashoffset="0" font-family="none" font-weight="none" font-size="none" text-anchor="none" style="mix-blend-mode: normal"></path>
<path d="M96.1127,13.8873c3.33333,3.33333 6.66667,6.66667 10,10c17.18307,17.18307 17.18307,45.04233 0,62.2254c-6.66667,6.66667 -13.33333,13.33333 -20,20c-17.18307,17.18307 -45.04233,17.18307 -62.2254,0c-6.66667,-6.66667 -13.33333,-13.33333 -20,-20c-17.18307,-17.18307 -17.18307,-45.04233 0,-62.2254c3.33333,-3.33333 6.66667,-6.66667 10,-10c10.75476,-10.75476 26.30118,-15.19258 41.1127,-11.73587c14.81152,-3.45671 30.35794,0.98111 41.1127,11.73587z" fill="none" fill-rule="nonzero" stroke="#00ff62" stroke-width="0.1" stroke-linecap="butt" stroke-linejoin="miter" stroke-miterlimit="10" stroke-dasharray="" stroke-dashoffset="0" font-family="none" font-weight="none" font-size="none" text-anchor="none" style="mix-blend-mode: normal"></path>
<path d="M96.81981,13.18019c3.33333,3.33333 6.66667,6.66667 10,10c17.57359,17.57359 17.57359,46.06602 0,63.63961c-6.66667,6.66667 -13.33333,13.33333 -20,20c-17.57359,17.57359 -46.06602,17.57359 -63.63961,0c-6.66667,-6.66667 -13.33333,-13.33333 -20,-20c-17.57359,-17.57359 -17.57359,-46.06602 0,-63.63961c3.33333,-3.33333 6.66667,-6.66667 10,-10c10.94054,-10.94054 26.73441,-15.4933 41.81981,-12.05502c15.08539,-3.43828 30.87927,1.11448 41.81981,12.05502z" fill="none" fill-rule="nonzero" stroke="#00ff6f" stroke-width="0.1" stroke-linecap="butt" stroke-linejoin="miter" stroke-miterlimit="10" stroke-dasharray="" stroke-dashoffset="0" font-family="none" font-weight="none" font-size="none" text-anchor="none" style="mix-blend-mode: normal"></path>
<path d="M97.52691,12.47309c3.33333,3.33333 6.66667,6.66667 10,10c17.96412,17.96412 17.96412,47.08971 0,65.05382c-6.66667,6.66667 -13.33333,13.33333 -20,20c-17.96412,17.96412 -47.08971,17.96412 -65.05382,0c-6.66667,-6.66667 -13.33333,-13.33333 -20,-20c-17.96412,-17.96412 -17.96412,-47.08971 0,-65.05382c3.33333,-3.33333 6.66667,-6.66667 10,-10c11.12642,-11.12642 27.16809,-15.79366 42.52691,-12.37298c15.35882,-3.42068 31.40049,1.24656 42.52691,12.37298z" fill="none" fill-rule="nonzero" stroke="#00ff7c" stroke-width="0.1" stroke-linecap="butt" stroke-linejoin="miter" stroke-miterlimit="10" stroke-dasharray="" stroke-dashoffset="0" font-family="none" font-weight="none" font-size="none" text-anchor="none" style="mix-blend-mode: normal"></path>
<path d="M98.23402,11.76598c3.33333,3.33333 6.66667,6.66667 10,10c18.35464,18.35464 18.35464,48.1134 0,66.46804c-6.66667,6.66667 -13.33333,13.33333 -20,20c-18.35464,18.35464 -48.1134,18.35464 -66.46804,0c-6.66667,-6.66667 -13.33333,-13.33333 -20,-20c-18.35464,-18.35464 -18.35464,-48.1134 0,-66.46804c3.33333,-3.33333 6.66667,-6.66667 10,-10c11.31239,-11.31239 27.60219,-16.09369 43.23402,-12.68983c15.63183,-3.40386 31.92163,1.37744 43.23402,12.68983z" fill="none" fill-rule="nonzero" stroke="#00ff88" stroke-width="0.1" stroke-linecap="butt" stroke-linejoin="miter" stroke-miterlimit="10" stroke-dasharray="" stroke-dashoffset="0" font-family="none" font-weight="none" font-size="none" text-anchor="none" style="mix-blend-mode: normal"></path>
<path d="M98.94113,11.05887c3.33333,3.33333 6.66667,6.66667 10,10c18.74517,18.74517 18.74517,49.13708 0,67.88225c-6.66667,6.66667 -13.33333,13.33333 -20,20c-18.74517,18.74517 -49.13708,18.74517 -67.88225,0c-6.66667,-6.66667 -13.33333,-13.33333 -20,-20c-18.74517,-18.74517 -18.74517,-49.13708 0,-67.88225c3.33333,-3.33333 6.66667,-6.66667 10,-10c11.49846,-11.49846 28.03666,-16.39342 43.94113,-13.00565c15.90447,-3.38776 32.44267,1.5072 43.94113,13.00565z" fill="none" fill-rule="nonzero" stroke="#00ff95" stroke-width="0.1" stroke-linecap="butt" stroke-linejoin="miter" stroke-miterlimit="10" stroke-dasharray="" stroke-dashoffset="0" font-family="none" font-weight="none" font-size="none" text-anchor="none" style="mix-blend-mode: normal"></path>
<path d="M99.64823,10.35177c3.33333,3.33333 6.66667,6.66667 10,10c19.13569,19.13569 19.13569,50.16077 0,69.29646c-6.66667,6.66667 -13.33333,13.33333 -20,20c-19.13569,19.13569 -50.16077,19.13569 -69.29646,0c-6.66667,-6.66667 -13.33333,-13.33333 -20,-20c-19.13569,-19.13569 -19.13569,-50.16077 0,-69.29646c3.33333,-3.33333 6.66667,-6.66667 10,-10c11.6846,-11.6846 28.47149,-16.69286 44.64823,-13.32051c16.17674,-3.37235 32.96363,1.63591 44.64823,13.32051z" fill="none" fill-rule="nonzero" stroke="#00ffa2" stroke-width="0.1" stroke-linecap="butt" stroke-linejoin="miter" stroke-miterlimit="10" stroke-dasharray="" stroke-dashoffset="0" font-family="none" font-weight="none" font-size="none" text-anchor="none" style="mix-blend-mode: normal"></path>
<path d="M100.35534,9.64466c3.33333,3.33333 6.66667,6.66667 10,10c19.52621,19.52621 19.52621,51.18446 0,70.71068c-6.66667,6.66667 -13.33333,13.33333 -20,20c-19.52621,19.52621 -51.18446,19.52621 -70.71068,0c-6.66667,-6.66667 -13.33333,-13.33333 -20,-20c-19.52621,-19.52621 -19.52621,-51.18446 0,-70.71068c3.33333,-3.33333 6.66667,-6.66667 10,-10c11.87082,-11.87082 28.90665,-16.99203 45.35534,-13.63446c16.44869,-3.35757 33.48452,1.76364 45.35534,13.63446z" fill="none" fill-rule="nonzero" stroke="#00ffae" stroke-width="0.1" stroke-linecap="butt" stroke-linejoin="miter" stroke-miterlimit="10" stroke-dasharray="" stroke-dashoffset="0" font-family="none" font-weight="none" font-size="none" text-anchor="none" style="mix-blend-mode: normal"></path>
<path d="M101.06245,8.93755c3.33333,3.33333 6.66667,6.66667 10,10c19.91674,19.91674 19.91674,52.20815 0,72.12489c-6.66667,6.66667 -13.33333,13.33333 -20,20c-19.91674,19.91674 -52.20815,19.91674 -72.12489,0c-6.66667,-6.66667 -13.33333,-13.33333 -20,-20c-19.91674,-19.91674 -19.91674,-52.20815 0,-72.12489c3.33333,-3.33333 6.66667,-6.66667 10,-10c12.0571,-12.0571 29.34212,-17.29095 46.06245,-13.94755c16.72032,-3.3434 34.00534,1.89045 46.06245,13.94755z" fill="none" fill-rule="nonzero" stroke="#00ffbb" stroke-width="0.1" stroke-linecap="butt" stroke-linejoin="miter" stroke-miterlimit="10" stroke-dasharray="" stroke-dashoffset="0" font-family="none" font-weight="none" font-size="none" text-anchor="none" style="mix-blend-mode: normal"></path>
<path d="M101.76955,8.23045c3.33333,3.33333 6.66667,6.66667 10,10c20.30726,20.30726 20.30726,53.23184 0,73.53911c-6.66667,6.66667 -13.33333,13.33333 -20,20c-20.30726,20.30726 -53.23184,20.30726 -73.53911,0c-6.66667,-6.66667 -13.33333,-13.33333 -20,-20c-20.30726,-20.30726 -20.30726,-53.23184 0,-73.53911c3.33333,-3.33333 6.66667,-6.66667 10,-10c12.24345,-12.24345 29.77788,-17.58963 46.76955,-14.25985c16.99167,-3.32978 34.5261,2.0164 46.76955,14.25985z" fill="none" fill-rule="nonzero" stroke="#00ffc8" stroke-width="0.1" stroke-linecap="butt" stroke-linejoin="miter" stroke-miterlimit="10" stroke-dasharray="" stroke-dashoffset="0" font-family="none" font-weight="none" font-size="none" text-anchor="none" style="mix-blend-mode: normal"></path>
<path d="M102.47666,7.52334c3.33333,3.33333 6.66667,6.66667 10,10c20.69779,20.69779 20.69779,54.25553 0,74.95332c-6.66667,6.66667 -13.33333,13.33333 -20,20c-20.69779,20.69779 -54.25553,20.69779 -74.95332,0c-6.66667,-6.66667 -13.33333,-13.33333 -20,-20c-20.69779,-20.69779 -20.69779,-54.25553 0,-74.95332c3.33333,-3.33333 6.66667,-6.66667 10,-10c12.42986,-12.42986 30.21391,-17.88809 47.47666,-14.5714c17.26275,-3.31669 35.0468,2.14153 47.47666,14.5714z" fill="none" fill-rule="nonzero" stroke="#00ffd4" stroke-width="0.1" stroke-linecap="butt" stroke-linejoin="miter" stroke-miterlimit="10" stroke-dasharray="" stroke-dashoffset="0" font-family="none" font-weight="none" font-size="none" text-anchor="none" style="mix-blend-mode: normal"></path>
<path d="M103.18377,6.81623c3.33333,3.33333 6.66667,6.66667 10,10c21.08831,21.08831 21.08831,55.27922 0,76.36753c-6.66667,6.66667 -13.33333,13.33333 -20,20c-21.08831,21.08831 -55.27922,21.08831 -76.36753,0c-6.66667,-6.66667 -13.33333,-13.33333 -20,-20c-21.08831,-21.08831 -21.08831,-55.27922 0,-76.36753c3.33333,-3.33333 6.66667,-6.66667 10,-10c12.61633,-12.61633 30.65019,-18.18634 48.18377,-14.88223c17.53358,-3.30411 35.56744,2.2659 48.18377,14.88223z" fill="none" fill-rule="nonzero" stroke="#00ffe1" stroke-width="0.1" stroke-linecap="butt" stroke-linejoin="miter" stroke-miterlimit="10" stroke-dasharray="" stroke-dashoffset="0" font-family="none" font-weight="none" font-size="none" text-anchor="none" style="mix-blend-mode: normal"></path>
<path d="M103.89087,6.10913c3.33333,3.33333 6.66667,6.66667 10,10c21.47884,21.47884 21.47884,56.30291 0,77.78175c-6.66667,6.66667 -13.33333,13.33333 -20,20c-21.47884,21.47884 -56.30291,21.47884 -77.78175,0c-6.66667,-6.66667 -13.33333,-13.33333 -20,-20c-21.47884,-21.47884 -21.47884,-56.30291 0,-77.78175c3.33333,-3.33333 6.66667,-6.66667 10,-10c12.80284,-12.80284 31.0867,-18.48439 48.89087,-15.1924c17.80417,-3.29199 36.08803,2.38955 48.89087,15.1924z" fill="none" fill-rule="nonzero" stroke="#00ffee" stroke-width="0.1" stroke-linecap="butt" stroke-linejoin="miter" stroke-miterlimit="10" stroke-dasharray="" stroke-dashoffset="0" font-family="none" font-weight="none" font-size="none" text-anchor="none" style="mix-blend-mode: normal"></path>
<path d="M104.59798,5.40202c3.33333,3.33333 6.66667,6.66667 10,10c21.86936,21.86936 21.86936,57.3266 0,79.19596c-6.66667,6.66667 -13.33333,13.33333 -20,20c-21.86936,21.86936 -57.3266,21.86936 -79.19596,0c-6.66667,-6.66667 -13.33333,-13.33333 -20,-20c-21.86936,-21.86936 -21.86936,-57.3266 0,-79.19596c3.33333,-3.33333 6.66667,-6.66667 10,-10c12.98941,-12.98941 31.52344,-18.78225 49.59798,-15.50193c18.07454,-3.28032 36.60857,2.51252 49.59798,15.50193z" fill="none" fill-rule="nonzero" stroke="#00fffa" stroke-width="0.1" stroke-linecap="butt" stroke-linejoin="miter" stroke-miterlimit="10" stroke-dasharray="" stroke-dashoffset="0" font-family="none" font-weight="none" font-size="none" text-anchor="none" style="mix-blend-mode: normal"></path>
<path d="M105.30509,4.69491c3.33333,3.33333 6.66667,6.66667 10,10c22.25988,22.25988 22.25988,58.35029 0,80.61017c-6.66667,6.66667 -13.33333,13.33333 -20,20c-22.25988,22.25988 -58.35029,22.25988 -80.61017,0c-6.66667,-6.66667 -13.33333,-13.33333 -20,-20c-22.25988,-22.25988 -22.25988,-58.35029 0,-80.61017c3.33333,-3.33333 6.66667,-6.66667 10,-10c13.17602,-13.17602 31.96039,-19.07994 50.30509,-15.81086c18.3447,-3.26907 37.12907,2.63485 50.30509,15.81086z" fill="none" fill-rule="nonzero" stroke="#00f7ff" stroke-width="0.1" stroke-linecap="butt" stroke-linejoin="miter" stroke-miterlimit="10" stroke-dasharray="" stroke-dashoffset="0" font-family="none" font-weight="none" font-size="none" text-anchor="none" style="mix-blend-mode: normal"></path>
<path d="M106.01219,3.98781c3.33333,3.33333 6.66667,6.66667 10,10c22.65041,22.65041 22.65041,59.37398 0,82.02439c-6.66667,6.66667 -13.33333,13.33333 -20,20c-22.65041,22.65041 -59.37398,22.65041 -82.02439,0c-6.66667,-6.66667 -13.33333,-13.33333 -20,-20c-22.65041,-22.65041 -22.65041,-59.37398 0,-82.02439c3.33333,-3.33333 6.66667,-6.66667 10,-10c13.36267,-13.36267 32.39753,-19.37745 51.01219,-16.11923c18.61467,-3.25822 37.64952,2.75657 51.01219,16.11923z" fill="none" fill-rule="nonzero" stroke="#00eaff" stroke-width="0.1" stroke-linecap="butt" stroke-linejoin="miter" stroke-miterlimit="10" stroke-dasharray="" stroke-dashoffset="0" font-family="none" font-weight="none" font-size="none" text-anchor="none" style="mix-blend-mode: normal"></path>
<path d="M106.7193,3.2807c3.33333,3.33333 6.66667,6.66667 10,10c23.04093,23.04093 23.04093,60.39767 0,83.4386c-6.66667,6.66667 -13.33333,13.33333 -20,20c-23.04093,23.04093 -60.39767,23.04093 -83.4386,0c-6.66667,-6.66667 -13.33333,-13.33333 -20,-20c-23.04093,-23.04093 -23.04093,-60.39767 0,-83.4386c3.33333,-3.33333 6.66667,-6.66667 10,-10c13.54936,-13.54936 32.83485,-19.67481 51.7193,-16.42707c18.88445,-3.24774 38.16994,2.87771 51.7193,16.42707z" fill="none" fill-rule="nonzero" stroke="#00deff" stroke-width="0.1" stroke-linecap="butt" stroke-linejoin="miter" stroke-miterlimit="10" stroke-dasharray="" stroke-dashoffset="0" font-family="none" font-weight="none" font-size="none" text-anchor="none" style="mix-blend-mode: normal"></path>
<path d="M107.42641,2.57359c3.33333,3.33333 6.66667,6.66667 10,10c23.43146,23.43146 23.43146,61.42136 0,84.85281c-6.66667,6.66667 -13.33333,13.33333 -20,20c-23.43146,23.43146 -61.42136,23.43146 -84.85281,0c-6.66667,-6.66667 -13.33333,-13.33333 -20,-20c-23.43146,-23.43146 -23.43146,-61.42136 0,-84.85281c3.33333,-3.33333 6.66667,-6.66667 10,-10c13.73609,-13.73609 33.27235,-19.97202 52.42641,-16.73439c19.15406,-3.23763 38.69032,2.99831 52.42641,16.73439z" fill="none" fill-rule="nonzero" stroke="#00d1ff" stroke-width="0.1" stroke-linecap="butt" stroke-linejoin="miter" stroke-miterlimit="10" stroke-dasharray="" stroke-dashoffset="0" font-family="none" font-weight="none" font-size="none" text-anchor="none" style="mix-blend-mode: normal"></path>
<path d="M108.13351,1.86649c3.33333,3.33333 6.66667,6.66667 10,10c23.82198,23.82198 23.82198,62.44505 0,86.26703c-6.66667,6.66667 -13.33333,13.33333 -20,20c-23.82198,23.82198 -62.44505,23.82198 -86.26703,0c-6.66667,-6.66667 -13.33333,-13.33333 -20,-20c-23.82198,-23.82198 -23.82198,-62.44505 0,-86.26703c3.33333,-3.33333 6.66667,-6.66667 10,-10c13.92285,-13.92285 33.71001,-20.26908 53.13351,-17.04123c19.4235,-3.22785 39.21067,3.11838 53.13351,17.04123z" fill="none" fill-rule="nonzero" stroke="#00c4ff" stroke-width="0.1" stroke-linecap="butt" stroke-linejoin="miter" stroke-miterlimit="10" stroke-dasharray="" stroke-dashoffset="0" font-family="none" font-weight="none" font-size="none" text-anchor="none" style="mix-blend-mode: normal"></path>
<path d="M108.84062,1.15938c3.33333,3.33333 6.66667,6.66667 10,10c24.21251,24.21251 24.21251,63.46873 0,87.68124c-6.66667,6.66667 -13.33333,13.33333 -20,20c-24.21251,24.21251 -63.46873,24.21251 -87.68124,0c-6.66667,-6.66667 -13.33333,-13.33333 -20,-20c-24.21251,-24.21251 -24.21251,-63.46873 0,-87.68124c3.33333,-3.33333 6.66667,-6.66667 10,-10c14.10964,-14.10964 34.14783,-20.56601 53.84062,-17.34761c19.69279,-3.21839 39.73098,3.23797 53.84062,17.34761z" fill="none" fill-rule="nonzero" stroke="#00b8ff" stroke-width="0.1" stroke-linecap="butt" stroke-linejoin="miter" stroke-miterlimit="10" stroke-dasharray="" stroke-dashoffset="0" font-family="none" font-weight="none" font-size="none" text-anchor="none" style="mix-blend-mode: normal"></path>
<path d="M109.54773,0.45227c3.33333,3.33333 6.66667,6.66667 10,10c24.60303,24.60303 24.60303,64.49242 0,89.09545c-6.66667,6.66667 -13.33333,13.33333 -20,20c-24.60303,24.60303 -64.49242,24.60303 -89.09545,0c-6.66667,-6.66667 -13.33333,-13.33333 -20,-20c-24.60303,-24.60303 -24.60303,-64.49242 0,-89.09545c3.33333,-3.33333 6.66667,-6.66667 10,-10c14.29647,-14.29647 34.5858,-20.86281 54.54773,-17.65356c19.96193,-3.20925 40.25126,3.35709 54.54773,17.65356z" fill="none" fill-rule="nonzero" stroke="#00abff" stroke-width="0.1" stroke-linecap="butt" stroke-linejoin="miter" stroke-miterlimit="10" stroke-dasharray="" stroke-dashoffset="0" font-family="none" font-weight="none" font-size="none" text-anchor="none" style="mix-blend-mode: normal"></path>
<path d="M110.25483,-0.25483c3.33333,3.33333 6.66667,6.66667 10,10c24.99355,24.99355 24.99355,65.51611 0,90.50967c-6.66667,6.66667 -13.33333,13.33333 -20,20c-24.99355,24.99355 -65.51611,24.99355 -90.50967,0c-6.66667,-6.66667 -13.33333,-13.33333 -20,-20c-24.99355,-24.99355 -24.99355,-65.51611 0,-90.50967c3.33333,-3.33333 6.66667,-6.66667 10,-10c14.48332,-14.48332 35.0239,-21.15948 55.25483,-17.95909c20.23093,-3.20039 40.77151,3.47577 55.25483,17.95909z" fill="none" fill-rule="nonzero" stroke="#009eff" stroke-width="0.1" stroke-linecap="butt" stroke-linejoin="miter" stroke-miterlimit="10" stroke-dasharray="" stroke-dashoffset="0" font-family="none" font-weight="none" font-size="none" text-anchor="none" style="mix-blend-mode: normal"></path>
<path d="M110.96194,-0.96194c3.33333,3.33333 6.66667,6.66667 10,10c25.38408,25.38408 25.38408,66.5398 0,91.92388c-6.66667,6.66667 -13.33333,13.33333 -20,20c-25.38408,25.38408 -66.5398,25.38408 -91.92388,0c-6.66667,-6.66667 -13.33333,-13.33333 -20,-20c-25.38408,-25.38408 -25.38408,-66.5398 0,-91.92388c3.33333,-3.33333 6.66667,-6.66667 10,-10c14.6702,-14.6702 35.46214,-21.45604 55.96194,-18.26422c20.4998,-3.19181 41.29174,3.59402 55.96194,18.26422z" fill="none" fill-rule="nonzero" stroke="#0092ff" stroke-width="0.1" stroke-linecap="butt" stroke-linejoin="miter" stroke-miterlimit="10" stroke-dasharray="" stroke-dashoffset="0" font-family="none" font-weight="none" font-size="none" text-anchor="none" style="mix-blend-mode: normal"></path>
<path d="M111.66905,-1.66905c3.33333,3.33333 6.66667,6.66667 10,10c25.7746,25.7746 25.7746,67.56349 0,93.3381c-6.66667,6.66667 -13.33333,13.33333 -20,20c-25.7746,25.7746 -67.56349,25.7746 -93.3381,0c-6.66667,-6.66667 -13.33333,-13.33333 -20,-20c-25.7746,-25.7746 -25.7746,-67.56349 0,-93.3381c3.33333,-3.33333 6.66667,-6.66667 10,-10c14.85711,-14.85711 35.9005,-21.75248 56.66905,-18.56898c20.76855,-3.1835 41.81194,3.71187 56.66905,18.56898z" fill="none" fill-rule="nonzero" stroke="#0085ff" stroke-width="0.1" stroke-linecap="butt" stroke-linejoin="miter" stroke-miterlimit="10" stroke-dasharray="" stroke-dashoffset="0" font-family="none" font-weight="none" font-size="none" text-anchor="none" style="mix-blend-mode: normal"></path>
<path d="M112.37615,-2.37615c3.33333,3.33333 6.66667,6.66667 10,10c26.16513,26.16513 26.16513,68.58718 0,94.75231c-6.66667,6.66667 -13.33333,13.33333 -20,20c-26.16513,26.16513 -68.58718,26.16513 -94.75231,0c-6.66667,-6.66667 -13.33333,-13.33333 -20,-20c-26.16513,-26.16513 -26.16513,-68.58718 0,-94.75231c3.33333,-3.33333 6.66667,-6.66667 10,-10c15.04404,-15.04404 36.33898,-22.04882 57.37615,-18.87337c21.03717,-3.17544 42.33212,3.82934 57.37615,18.87337z" fill="none" fill-rule="nonzero" stroke="#0078ff" stroke-width="0.1" stroke-linecap="butt" stroke-linejoin="miter" stroke-miterlimit="10" stroke-dasharray="" stroke-dashoffset="0" font-family="none" font-weight="none" font-size="none" text-anchor="none" style="mix-blend-mode: normal"></path>
<path d="M113.08326,-3.08326c3.33333,3.33333 6.66667,6.66667 10,10c26.55565,26.55565 26.55565,69.61087 0,96.16652c-6.66667,6.66667 -13.33333,13.33333 -20,20c-26.55565,26.55565 -69.61087,26.55565 -96.16652,0c-6.66667,-6.66667 -13.33333,-13.33333 -20,-20c-26.55565,-26.55565 -26.55565,-69.61087 0,-96.16652c3.33333,-3.33333 6.66667,-6.66667 10,-10c15.23099,-15.23099 36.77758,-22.34505 58.08326,-19.17743c21.30569,-3.16763 42.85227,3.94644 58.08326,19.17743z" fill="none" fill-rule="nonzero" stroke="#006cff" stroke-width="0.1" stroke-linecap="butt" stroke-linejoin="miter" stroke-miterlimit="10" stroke-dasharray="" stroke-dashoffset="0" font-family="none" font-weight="none" font-size="none" text-anchor="none" style="mix-blend-mode: normal"></path>
<path d="M113.79037,-3.79037c3.33333,3.33333 6.66667,6.66667 10,10c26.94618,26.94618 26.94618,70.63456 0,97.58074c-6.66667,6.66667 -13.33333,13.33333 -20,20c-26.94618,26.94618 -70.63456,26.94618 -97.58074,0c-6.66667,-6.66667 -13.33333,-13.33333 -20,-20c-26.94618,-26.94618 -26.94618,-70.63456 0,-97.58074c3.33333,-3.33333 6.66667,-6.66667 10,-10c15.41796,-15.41796 37.21628,-22.64119 58.79037,-19.48115c21.57409,-3.16004 43.3724,4.06318 58.79037,19.48115z" fill="none" fill-rule="nonzero" stroke="#005fff" stroke-width="0.1" stroke-linecap="butt" stroke-linejoin="miter" stroke-miterlimit="10" stroke-dasharray="" stroke-dashoffset="0" font-family="none" font-weight="none" font-size="none" text-anchor="none" style="mix-blend-mode: normal"></path>
<path d="M114.49747,-4.49747c3.33333,3.33333 6.66667,6.66667 10,10c27.3367,27.3367 27.3367,71.65825 0,98.99495c-6.66667,6.66667 -13.33333,13.33333 -20,20c-27.3367,27.3367 -71.65825,27.3367 -98.99495,0c-6.66667,-6.66667 -13.33333,-13.33333 -20,-20c-27.3367,-27.3367 -27.3367,-71.65825 0,-98.99495c3.33333,-3.33333 6.66667,-6.66667 10,-10c15.60496,-15.60496 37.65508,-22.93724 59.49747,-19.78456c21.84239,-3.15268 43.89251,4.1796 59.49747,19.78456z" fill="none" fill-rule="nonzero" stroke="#0052ff" stroke-width="0.1" stroke-linecap="butt" stroke-linejoin="miter" stroke-miterlimit="10" stroke-dasharray="" stroke-dashoffset="0" font-family="none" font-weight="none" font-size="none" text-anchor="none" style="mix-blend-mode: normal"></path>
<path d="M115.20458,-5.20458c3.33333,3.33333 6.66667,6.66667 10,10c27.72722,27.72722 27.72722,72.68194 0,100.40916c-6.66667,6.66667 -13.33333,13.33333 -20,20c-27.72722,27.72722 -72.68194,27.72722 -100.40916,0c-6.66667,-6.66667 -13.33333,-13.33333 -20,-20c-27.72722,-27.72722 -27.72722,-72.68194 0,-100.40916c3.33333,-3.33333 6.66667,-6.66667 10,-10c15.79197,-15.79197 38.09398,-23.23319 60.20458,-20.08767c22.1106,-3.14552 44.41261,4.29569 60.20458,20.08767z" fill="none" fill-rule="nonzero" stroke="#0046ff" stroke-width="0.1" stroke-linecap="butt" stroke-linejoin="miter" stroke-miterlimit="10" stroke-dasharray="" stroke-dashoffset="0" font-family="none" font-weight="none" font-size="none" text-anchor="none" style="mix-blend-mode: normal"></path>
<path d="M115.91169,-5.91169c3.33333,3.33333 6.66667,6.66667 10,10c28.11775,28.11775 28.11775,73.70563 0,101.82338c-6.66667,6.66667 -13.33333,13.33333 -20,20c-28.11775,28.11775 -73.70563,28.11775 -101.82338,0c-6.66667,-6.66667 -13.33333,-13.33333 -20,-20c-28.11775,-28.11775 -28.11775,-73.70563 0,-101.82338c3.33333,-3.33333 6.66667,-6.66667 10,-10c15.97901,-15.97901 38.53298,-23.52906 60.91169,-20.39049c22.37871,-3.13857 44.93268,4.41148 60.91169,20.39049z" fill="none" fill-rule="nonzero" stroke="#0039ff" stroke-width="0.1" stroke-linecap="butt" stroke-linejoin="miter" stroke-miterlimit="10" stroke-dasharray="" stroke-dashoffset="0" font-family="none" font-weight="none" font-size="none" text-anchor="none" style="mix-blend-mode: normal"></path>
<path d="M116.6188,-6.6188c3.33333,3.33333 6.66667,6.66667 10,10c28.50827,28.50827 28.50827,74.72932 0,103.23759c-6.66667,6.66667 -13.33333,13.33333 -20,20c-28.50827,28.50827 -74.72932,28.50827 -103.23759,0c-6.66667,-6.66667 -13.33333,-13.33333 -20,-20c-28.50827,-28.50827 -28.50827,-74.72932 0,-103.23759c3.33333,-3.33333 6.66667,-6.66667 10,-10c16.16606,-16.16606 38.97206,-23.82485 61.6188,-20.69303c22.64674,-3.13182 45.45274,4.52697 61.6188,20.69303z" fill="none" fill-rule="nonzero" stroke="#002cff" stroke-width="0.1" stroke-linecap="butt" stroke-linejoin="miter" stroke-miterlimit="10" stroke-dasharray="" stroke-dashoffset="0" font-family="none" font-weight="none" font-size="none" text-anchor="none" style="mix-blend-mode: normal"></path>
<path d="M117.3259,-7.3259c3.33333,3.33333 6.66667,6.66667 10,10c28.8988,28.8988 28.8988,75.75301 0,104.6518c-6.66667,6.66667 -13.33333,13.33333 -20,20c-28.8988,28.8988 -75.75301,28.8988 -104.6518,0c-6.66667,-6.66667 -13.33333,-13.33333 -20,-20c-28.8988,-28.8988 -28.8988,-75.75301 0,-104.6518c3.33333,-3.33333 6.66667,-6.66667 10,-10c16.35313,-16.35313 39.41123,-24.12055 62.3259,-20.99531c22.91467,-3.12524 45.97278,4.64218 62.3259,20.99531z" fill="none" fill-rule="nonzero" stroke="#0020ff" stroke-width="0.1" stroke-linecap="butt" stroke-linejoin="miter" stroke-miterlimit="10" stroke-dasharray="" stroke-dashoffset="0" font-family="none" font-weight="none" font-size="none" text-anchor="none" style="mix-blend-mode: normal"></path>
<path d="M118.03301,-8.03301c3.33333,3.33333 6.66667,6.66667 10,10c29.28932,29.28932 29.28932,76.7767 0,106.06602c-6.66667,6.66667 -13.33333,13.33333 -20,20c-29.28932,29.28932 -76.7767,29.28932 -106.06602,0c-6.66667,-6.66667 -13.33333,-13.33333 -20,-20c-29.28932,-29.28932 -29.28932,-76.7767 0,-106.06602c3.33333,-3.33333 6.66667,-6.66667 10,-10c16.54021,-16.54021 39.85048,-24.41619 63.03301,-21.29734c23.18253,-3.11885 46.4928,4.75713 63.03301,21.29734z" fill="none" fill-rule="nonzero" stroke="#0013ff" stroke-width="0.1" stroke-linecap="butt" stroke-linejoin="miter" stroke-miterlimit="10" stroke-dasharray="" stroke-dashoffset="0" font-family="none" font-weight="none" font-size="none" text-anchor="none" style="mix-blend-mode: normal"></path>
<path d="M118.74012,-8.74012c3.33333,3.33333 6.66667,6.66667 10,10c29.67985,29.67985 29.67985,77.80038 0,107.48023c-6.66667,6.66667 -13.33333,13.33333 -20,20c-29.67985,29.67985 -77.80038,29.67985 -107.48023,0c-6.66667,-6.66667 -13.33333,-13.33333 -20,-20c-29.67985,-29.67985 -29.67985,-77.80038 0,-107.48023c3.33333,-3.33333 6.66667,-6.66667 10,-10c16.72731,-16.72731 40.2898,-24.71175 63.74012,-21.59912c23.45031,-3.11263 47.01281,4.87181 63.74012,21.59912z" fill="none" fill-rule="nonzero" stroke="#0006ff" stroke-width="0.1" stroke-linecap="butt" stroke-linejoin="miter" stroke-miterlimit="10" stroke-dasharray="" stroke-dashoffset="0" font-family="none" font-weight="none" font-size="none" text-anchor="none" style="mix-blend-mode: normal"></path>
<path d="M119.44722,-9.44722c3.33333,3.33333 6.66667,6.66667 10,10c30.07037,30.07037 30.07037,78.82407 0,108.89444c-6.66667,6.66667 -13.33333,13.33333 -20,20c-30.07037,30.07037 -78.82407,30.07037 -108.89444,0c-6.66667,-6.66667 -13.33333,-13.33333 -20,-20c-30.07037,-30.07037 -30.07037,-78.82407 0,-108.89444c3.33333,-3.33333 6.66667,-6.66667 10,-10c16.91442,-16.91442 40.7292,-25.00724 64.44722,-21.90067c23.71802,-3.10657 47.5328,4.98625 64.44722,21.90067z" fill="none" fill-rule="nonzero" stroke="#0600ff" stroke-width="0.1" stroke-linecap="butt" stroke-linejoin="miter" stroke-miterlimit="10" stroke-dasharray="" stroke-dashoffset="0" font-family="none" font-weight="none" font-size="none" text-anchor="none" style="mix-blend-mode: normal"></path>
<path d="M120.15433,-10.15433c3.33333,3.33333 6.66667,6.66667 10,10c30.46089,30.46089 30.46089,79.84776 0,110.30866c-6.66667,6.66667 -13.33333,13.33333 -20,20c-30.46089,30.46089 -79.84776,30.46089 -110.30866,0c-6.66667,-6.66667 -13.33333,-13.33333 -20,-20c-30.46089,-30.46089 -30.46089,-79.84776 0,-110.30866c3.33333,-3.33333 6.66667,-6.66667 10,-10c17.10155,-17.10155 41.16867,-25.30266 65.15433,-22.20199c23.98566,-3.10067 48.05278,5.10044 65.15433,22.20199z" fill="none" fill-rule="nonzero" stroke="#1300ff" stroke-width="0.1" stroke-linecap="butt" stroke-linejoin="miter" stroke-miterlimit="10" stroke-dasharray="" stroke-dashoffset="0" font-family="none" font-weight="none" font-size="none" text-anchor="none" style="mix-blend-mode: normal"></path>
<path d="M120.86144,-10.86144c3.33333,3.33333 6.66667,6.66667 10,10c30.85142,30.85142 30.85142,80.87145 0,111.72287c-6.66667,6.66667 -13.33333,13.33333 -20,20c-30.85142,30.85142 -80.87145,30.85142 -111.72287,0c-6.66667,-6.66667 -13.33333,-13.33333 -20,-20c-30.85142,-30.85142 -30.85142,-80.87145 0,-111.72287c3.33333,-3.33333 6.66667,-6.66667 10,-10c17.28869,-17.28869 41.60821,-25.59802 65.86144,-22.5031c24.25322,-3.09492 48.57275,5.21441 65.86144,22.5031z" fill="none" fill-rule="nonzero" stroke="#2000ff" stroke-width="0.1" stroke-linecap="butt" stroke-linejoin="miter" stroke-miterlimit="10" stroke-dasharray="" stroke-dashoffset="0" font-family="none" font-weight="none" font-size="none" text-anchor="none" style="mix-blend-mode: normal"></path>
<path d="M121.56854,-11.56854c3.33333,3.33333 6.66667,6.66667 10,10c31.24194,31.24194 31.24194,81.89514 0,113.13708c-6.66667,6.66667 -13.33333,13.33333 -20,20c-31.24194,31.24194 -81.89514,31.24194 -113.13708,0c-6.66667,-6.66667 -13.33333,-13.33333 -20,-20c-31.24194,-31.24194 -31.24194,-81.89514 0,-113.13708c3.33333,-3.33333 6.66667,-6.66667 10,-10c17.47584,-17.47584 42.04782,-25.89332 66.56854,-22.804c24.52073,-3.08932 49.0927,5.32816 66.56854,22.804z" fill="none" fill-rule="nonzero" stroke="#2c00ff" stroke-width="0.1" stroke-linecap="butt" stroke-linejoin="miter" stroke-miterlimit="10" stroke-dasharray="" stroke-dashoffset="0" font-family="none" font-weight="none" font-size="none" text-anchor="none" style="mix-blend-mode: normal"></path>
<path d="M122.27565,-12.27565c3.33333,3.33333 6.66667,6.66667 10,10c31.63247,31.63247 31.63247,82.91883 0,114.5513c-6.66667,6.66667 -13.33333,13.33333 -20,20c-31.63247,31.63247 -82.91883,31.63247 -114.5513,0c-6.66667,-6.66667 -13.33333,-13.33333 -20,-20c-31.63247,-31.63247 -31.63247,-82.91883 0,-114.5513c3.33333,-3.33333 6.66667,-6.66667 10,-10c17.663,-17.663 42.48748,-26.18856 67.27565,-23.1047c24.78817,-3.08386 49.61265,5.44169 67.27565,23.1047z" fill="none" fill-rule="nonzero" stroke="#3900ff" stroke-width="0.1" stroke-linecap="butt" stroke-linejoin="miter" stroke-miterlimit="10" stroke-dasharray="" stroke-dashoffset="0" font-family="none" font-weight="none" font-size="none" text-anchor="none" style="mix-blend-mode: normal"></path>
<path d="M122.98276,-12.98276c3.33333,3.33333 6.66667,6.66667 10,10c32.02299,32.02299 32.02299,83.94252 0,115.96551c-6.66667,6.66667 -13.33333,13.33333 -20,20c-32.02299,32.02299 -83.94252,32.02299 -115.96551,0c-6.66667,-6.66667 -13.33333,-13.33333 -20,-20c-32.02299,-32.02299 -32.02299,-83.94252 0,-115.96551c3.33333,-3.33333 6.66667,-6.66667 10,-10c17.85018,-17.85018 42.92721,-26.48374 67.98276,-23.4052c25.05555,-3.07853 50.13258,5.55503 67.98276,23.4052z" fill="none" fill-rule="nonzero" stroke="#4600ff" stroke-width="0.1" stroke-linecap="butt" stroke-linejoin="miter" stroke-miterlimit="10" stroke-dasharray="" stroke-dashoffset="0" font-family="none" font-weight="none" font-size="none" text-anchor="none" style="mix-blend-mode: normal"></path>
<path d="M123.68986,-13.68986c3.33333,3.33333 6.66667,6.66667 10,10c32.41352,32.41352 32.41352,84.96621 0,117.37973c-6.66667,6.66667 -13.33333,13.33333 -20,20c-32.41352,32.41352 -84.96621,32.41352 -117.37973,0c-6.66667,-6.66667 -13.33333,-13.33333 -20,-20c-32.41352,-32.41352 -32.41352,-84.96621 0,-117.37973c3.33333,-3.33333 6.66667,-6.66667 10,-10c18.03736,-18.03736 43.367,-26.77886 68.68986,-23.70553c25.32287,-3.07334 50.6525,5.66816 68.68986,23.70553z" fill="none" fill-rule="nonzero" stroke="#5200ff" stroke-width="0.1" stroke-linecap="butt" stroke-linejoin="miter" stroke-miterlimit="10" stroke-dasharray="" stroke-dashoffset="0" font-family="none" font-weight="none" font-size="none" text-anchor="none" style="mix-blend-mode: normal"></path>
<path d="M124.39697,-14.39697c3.33333,3.33333 6.66667,6.66667 10,10c32.80404,32.80404 32.80404,85.9899 0,118.79394c-6.66667,6.66667 -13.33333,13.33333 -20,20c-32.80404,32.80404 -85.9899,32.80404 -118.79394,0c-6.66667,-6.66667 -13.33333,-13.33333 -20,-20c-32.80404,-32.80404 -32.80404,-85.9899 0,-118.79394c3.33333,-3.33333 6.66667,-6.66667 10,-10c18.22456,-18.22456 43.80683,-27.07393 69.39697,-24.00567c25.59013,-3.06826 51.17241,5.78111 69.39697,24.00567z" fill="none" fill-rule="nonzero" stroke="#5f00ff" stroke-width="0.1" stroke-linecap="butt" stroke-linejoin="miter" stroke-miterlimit="10" stroke-dasharray="" stroke-dashoffset="0" font-family="none" font-weight="none" font-size="none" text-anchor="none" style="mix-blend-mode: normal"></path>
<path d="M125.10408,-15.10408c3.33333,3.33333 6.66667,6.66667 10,10c33.19456,33.19456 33.19456,87.01359 0,120.20815c-6.66667,6.66667 -13.33333,13.33333 -20,20c-33.19456,33.19456 -87.01359,33.19456 -120.20815,0c-6.66667,-6.66667 -13.33333,-13.33333 -20,-20c-33.19456,-33.19456 -33.19456,-87.01359 0,-120.20815c3.33333,-3.33333 6.66667,-6.66667 10,-10c18.41177,-18.41177 44.24673,-27.36895 70.10408,-24.30564c25.85735,-3.06331 51.69231,5.89387 70.10408,24.30564z" fill="none" fill-rule="nonzero" stroke="#6c00ff" stroke-width="0.1" stroke-linecap="butt" stroke-linejoin="miter" stroke-miterlimit="10" stroke-dasharray="" stroke-dashoffset="0" font-family="none" font-weight="none" font-size="none" text-anchor="none" style="mix-blend-mode: normal"></path>
<path d="M125.81118,-15.81118c3.33333,3.33333 6.66667,6.66667 10,10c33.58509,33.58509 33.58509,88.03728 0,121.62237c-6.66667,6.66667 -13.33333,13.33333 -20,20c-33.58509,33.58509 -88.03728,33.58509 -121.62237,0c-6.66667,-6.66667 -13.33333,-13.33333 -20,-20c-33.58509,-33.58509 -33.58509,-88.03728 0,-121.62237c3.33333,-3.33333 6.66667,-6.66667 10,-10c18.59898,-18.59898 44.68667,-27.66392 70.81118,-24.60544c26.12451,-3.05848 52.2122,6.00646 70.81118,24.60544z" fill="none" fill-rule="nonzero" stroke="#7800ff" stroke-width="0.1" stroke-linecap="butt" stroke-linejoin="miter" stroke-miterlimit="10" stroke-dasharray="" stroke-dashoffset="0" font-family="none" font-weight="none" font-size="none" text-anchor="none" style="mix-blend-mode: normal"></path>
<path d="M126.51829,-16.51829c3.33333,3.33333 6.66667,6.66667 10,10c33.97561,33.97561 33.97561,89.06097 0,123.03658c-6.66667,6.66667 -13.33333,13.33333 -20,20c-33.97561,33.97561 -89.06097,33.97561 -123.03658,0c-6.66667,-6.66667 -13.33333,-13.33333 -20,-20c-33.97561,-33.97561 -33.97561,-89.06097 0,-123.03658c3.33333,-3.33333 6.66667,-6.66667 10,-10c18.78621,-18.78621 45.12667,-27.95885 71.51829,-24.90509c26.39162,-3.05376 52.73208,6.11888 71.51829,24.90509z" fill="none" fill-rule="nonzero" stroke="#8500ff" stroke-width="0.1" stroke-linecap="butt" stroke-linejoin="miter" stroke-miterlimit="10" stroke-dasharray="" stroke-dashoffset="0" font-family="none" font-weight="none" font-size="none" text-anchor="none" style="mix-blend-mode: normal"></path>
<path d="M127.2254,-17.2254c3.33333,3.33333 6.66667,6.66667 10,10c34.36614,34.36614 34.36614,90.08466 0,124.45079c-6.66667,6.66667 -13.33333,13.33333 -20,20c-34.36614,34.36614 -90.08466,34.36614 -124.45079,0c-6.66667,-6.66667 -13.33333,-13.33333 -20,-20c-34.36614,-34.36614 -34.36614,-90.08466 0,-124.45079c3.33333,-3.33333 6.66667,-6.66667 10,-10c18.97344,-18.97344 45.56671,-28.25372 72.2254,-25.20458c26.65869,-3.04915 53.25195,6.23113 72.2254,25.20458z" fill="none" fill-rule="nonzero" stroke="#9200ff" stroke-width="0.1" stroke-linecap="butt" stroke-linejoin="miter" stroke-miterlimit="10" stroke-dasharray="" stroke-dashoffset="0" font-family="none" font-weight="none" font-size="none" text-anchor="none" style="mix-blend-mode: normal"></path>
<path d="M127.9325,-17.9325c3.33333,3.33333 6.66667,6.66667 10,10c34.75666,34.75666 34.75666,91.10835 0,125.86501c-6.66667,6.66667 -13.33333,13.33333 -20,20c-34.75666,34.75666 -91.10835,34.75666 -125.86501,0c-6.66667,-6.66667 -13.33333,-13.33333 -20,-20c-34.75666,-34.75666 -34.75666,-91.10835 0,-125.86501c3.33333,-3.33333 6.66667,-6.66667 10,-10c19.16069,-19.16069 46.00679,-28.54855 72.9325,-25.50391c26.92571,-3.04464 53.77182,6.34323 72.9325,25.50391z" fill="none" fill-rule="nonzero" stroke="#9e00ff" stroke-width="0.1" stroke-linecap="butt" stroke-linejoin="miter" stroke-miterlimit="10" stroke-dasharray="" stroke-dashoffset="0" font-family="none" font-weight="none" font-size="none" text-anchor="none" style="mix-blend-mode: normal"></path>
<path d="M128.63961,-18.63961c3.33333,3.33333 6.66667,6.66667 10,10c35.14719,35.14719 35.14719,92.13203 0,127.27922c-6.66667,6.66667 -13.33333,13.33333 -20,20c-35.14719,35.14719 -92.13203,35.14719 -127.27922,0c-6.66667,-6.66667 -13.33333,-13.33333 -20,-20c-35.14719,-35.14719 -35.14719,-92.13203 0,-127.27922c3.33333,-3.33333 6.66667,-6.66667 10,-10c19.34794,-19.34794 46.44692,-28.84334 73.63961,-25.80311c27.19269,-3.04023 54.29167,6.45517 73.63961,25.80311z" fill="none" fill-rule="nonzero" stroke="#ab00ff" stroke-width="0.1" stroke-linecap="butt" stroke-linejoin="miter" stroke-miterlimit="10" stroke-dasharray="" stroke-dashoffset="0" font-family="none" font-weight="none" font-size="none" text-anchor="none" style="mix-blend-mode: normal"></path>
<path d="M129.34672,-19.34672c3.33333,3.33333 6.66667,6.66667 10,10c35.53771,35.53771 35.53771,93.15572 0,128.69343c-6.66667,6.66667 -13.33333,13.33333 -20,20c-35.53771,35.53771 -93.15572,35.53771 -128.69343,0c-6.66667,-6.66667 -13.33333,-13.33333 -20,-20c-35.53771,-35.53771 -35.53771,-93.15572 0,-128.69343c3.33333,-3.33333 6.66667,-6.66667 10,-10c19.5352,-19.5352 46.88709,-29.13809 74.34672,-26.10216c27.45962,-3.03593 54.81152,6.56697 74.34672,26.10216z" fill="none" fill-rule="nonzero" stroke="#b800ff" stroke-width="0.1" stroke-linecap="butt" stroke-linejoin="miter" stroke-miterlimit="10" stroke-dasharray="" stroke-dashoffset="0" font-family="none" font-weight="none" font-size="none" text-anchor="none" style="mix-blend-mode: normal"></path>
<path d="M130.05382,-20.05382c3.33333,3.33333 6.66667,6.66667 10,10c35.92823,35.92823 35.92823,94.17941 0,130.10765c-6.66667,6.66667 -13.33333,13.33333 -20,20c-35.92823,35.92823 -94.17941,35.92823 -130.10765,0c-6.66667,-6.66667 -13.33333,-13.33333 -20,-20c-35.92823,-35.92823 -35.92823,-94.17941 0,-130.10765c3.33333,-3.33333 6.66667,-6.66667 10,-10c19.72246,-19.72246 47.32731,-29.4328 75.05382,-26.40108c27.72652,-3.03171 55.33136,6.67862 75.05382,26.40108z" fill="none" fill-rule="nonzero" stroke="#c400ff" stroke-width="0.1" stroke-linecap="butt" stroke-linejoin="miter" stroke-miterlimit="10" stroke-dasharray="" stroke-dashoffset="0" font-family="none" font-weight="none" font-size="none" text-anchor="none" style="mix-blend-mode: normal"></path>
<path d="M130.76093,-20.76093c3.33333,3.33333 6.66667,6.66667 10,10c36.31876,36.31876 36.31876,95.2031 0,131.52186c-6.66667,6.66667 -13.33333,13.33333 -20,20c-36.31876,36.31876 -95.2031,36.31876 -131.52186,0c-6.66667,-6.66667 -13.33333,-13.33333 -20,-20c-36.31876,-36.31876 -36.31876,-95.2031 0,-131.52186c3.33333,-3.33333 6.66667,-6.66667 10,-10c19.90973,-19.90973 47.76756,-29.72747 75.76093,-26.69987c27.99337,-3.02759 55.8512,6.79014 75.76093,26.69987z" fill="none" fill-rule="nonzero" stroke="#d100ff" stroke-width="0.1" stroke-linecap="butt" stroke-linejoin="miter" stroke-miterlimit="10" stroke-dasharray="" stroke-dashoffset="0" font-family="none" font-weight="none" font-size="none" text-anchor="none" style="mix-blend-mode: normal"></path>
<path d="M131.46804,-21.46804c3.33333,3.33333 6.66667,6.66667 10,10c36.70928,36.70928 36.70928,96.22679 0,132.93607c-6.66667,6.66667 -13.33333,13.33333 -20,20c-36.70928,36.70928 -96.22679,36.70928 -132.93607,0c-6.66667,-6.66667 -13.33333,-13.33333 -20,-20c-36.70928,-36.70928 -36.70928,-96.22679 0,-132.93607c3.33333,-3.33333 6.66667,-6.66667 10,-10c20.09701,-20.09701 48.20785,-30.02209 76.46804,-26.99853c28.26018,-3.02356 56.37102,6.90152 76.46804,26.99853z" fill="none" fill-rule="nonzero" stroke="#de00ff" stroke-width="0.1" stroke-linecap="butt" stroke-linejoin="miter" stroke-miterlimit="10" stroke-dasharray="" stroke-dashoffset="0" font-family="none" font-weight="none" font-size="none" text-anchor="none" style="mix-blend-mode: normal"></path>
<path d="M132.17514,-22.17514c3.33333,3.33333 6.66667,6.66667 10,10c37.09981,37.09981 37.09981,97.25048 0,134.35029c-6.66667,6.66667 -13.33333,13.33333 -20,20c-37.09981,37.09981 -97.25048,37.09981 -134.35029,0c-6.66667,-6.66667 -13.33333,-13.33333 -20,-20c-37.09981,-37.09981 -37.09981,-97.25048 0,-134.35029c3.33333,-3.33333 6.66667,-6.66667 10,-10c20.2843,-20.2843 48.64818,-30.31669 77.17514,-27.29707c28.52696,-3.01961 56.89084,7.01277 77.17514,27.29707z" fill="none" fill-rule="nonzero" stroke="#ea00ff" stroke-width="0.1" stroke-linecap="butt" stroke-linejoin="miter" stroke-miterlimit="10" stroke-dasharray="" stroke-dashoffset="0" font-family="none" font-weight="none" font-size="none" text-anchor="none" style="mix-blend-mode: normal"></path>
<path d="M132.88225,-22.88225c3.33333,3.33333 6.66667,6.66667 10,10c37.49033,37.49033 37.49033,98.27417 0,135.7645c-6.66667,6.66667 -13.33333,13.33333 -20,20c-37.49033,37.49033 -98.27417,37.49033 -135.7645,0c-6.66667,-6.66667 -13.33333,-13.33333 -20,-20c-37.49033,-37.49033 -37.49033,-98.27417 0,-135.7645c3.33333,-3.33333 6.66667,-6.66667 10,-10c20.47159,-20.47159 49.08854,-30.61125 77.88225,-27.5955c28.79371,-3.01575 57.41066,7.1239 77.88225,27.5955z" fill="none" fill-rule="nonzero" stroke="#f700ff" stroke-width="0.1" stroke-linecap="butt" stroke-linejoin="miter" stroke-miterlimit="10" stroke-dasharray="" stroke-dashoffset="0" font-family="none" font-weight="none" font-size="none" text-anchor="none" style="mix-blend-mode: normal"></path>
<path d="M133.58936,-23.58936c3.33333,3.33333 6.66667,6.66667 10,10c37.88086,37.88086 37.88086,99.29786 0,137.17872c-6.66667,6.66667 -13.33333,13.33333 -20,20c-37.88086,37.88086 -99.29786,37.88086 -137.17872,0c-6.66667,-6.66667 -13.33333,-13.33333 -20,-20c-37.88086,-37.88086 -37.88086,-99.29786 0,-137.17872c3.33333,-3.33333 6.66667,-6.66667 10,-10c20.65889,-20.65889 49.52894,-30.90577 78.58936,-27.8938c29.06042,-3.01197 57.93046,7.23491 78.58936,27.8938z" fill="none" fill-rule="nonzero" stroke="#ff00fa" stroke-width="0.1" stroke-linecap="butt" stroke-linejoin="miter" stroke-miterlimit="10" stroke-dasharray="" stroke-dashoffset="0" font-family="none" font-weight="none" font-size="none" text-anchor="none" style="mix-blend-mode: normal"></path>
<path d="M134.29646,-24.29646c3.33333,3.33333 6.66667,6.66667 10,10c38.27138,38.27138 38.27138,100.32155 0,138.59293c-6.66667,6.66667 -13.33333,13.33333 -20,20c-38.27138,38.27138 -100.32155,38.27138 -138.59293,0c-6.66667,-6.66667 -13.33333,-13.33333 -20,-20c-38.27138,-38.27138 -38.27138,-100.32155 0,-138.59293c3.33333,-3.33333 6.66667,-6.66667 10,-10c20.8462,-20.8462 49.96937,-31.20026 79.29646,-28.192c29.32709,-3.00826 58.45027,7.3458 79.29646,28.192z" fill="none" fill-rule="nonzero" stroke="#ff00ee" stroke-width="0.1" stroke-linecap="butt" stroke-linejoin="miter" stroke-miterlimit="10" stroke-dasharray="" stroke-dashoffset="0" font-family="none" font-weight="none" font-size="none" text-anchor="none" style="mix-blend-mode: normal"></path>
<path d="M135.00357,-25.00357c3.33333,3.33333 6.66667,6.66667 10,10c38.6619,38.6619 38.6619,101.34524 0,140.00714c-6.66667,6.66667 -13.33333,13.33333 -20,20c-38.6619,38.6619 -101.34524,38.6619 -140.00714,0c-6.66667,-6.66667 -13.33333,-13.33333 -20,-20c-38.6619,-38.6619 -38.6619,-101.34524 0,-140.00714c3.33333,-3.33333 6.66667,-6.66667 10,-10c21.03351,-21.03351 50.40983,-31.49472 80.00357,-28.49008c29.59374,-3.00463 58.97006,7.45657 80.00357,28.49008z" fill="none" fill-rule="nonzero" stroke="#ff00e1" stroke-width="0.1" stroke-linecap="butt" stroke-linejoin="miter" stroke-miterlimit="10" stroke-dasharray="" stroke-dashoffset="0" font-family="none" font-weight="none" font-size="none" text-anchor="none" style="mix-blend-mode: normal"></path>
<path d="M135.71068,-25.71068c3.33333,3.33333 6.66667,6.66667 10,10c39.05243,39.05243 39.05243,102.36893 0,141.42136c-6.66667,6.66667 -13.33333,13.33333 -20,20c-39.05243,39.05243 -102.36893,39.05243 -141.42136,0c-6.66667,-6.66667 -13.33333,-13.33333 -20,-20c-39.05243,-39.05243 -39.05243,-102.36893 0,-141.42136c3.33333,-3.33333 6.66667,-6.66667 10,-10c21.22083,-21.22083 50.85033,-31.78914 80.71068,-28.78807c29.86035,-3.00108 59.48985,7.56724 80.71068,28.78807z" fill="none" fill-rule="nonzero" stroke="#ff00d4" stroke-width="0.1" stroke-linecap="butt" stroke-linejoin="miter" stroke-miterlimit="10" stroke-dasharray="" stroke-dashoffset="0" font-family="none" font-weight="none" font-size="none" text-anchor="none" style="mix-blend-mode: normal"></path>
</svg>