<?xml version="1.0" encoding="UTF-8" standalone="no"?>
<svg
   xmlns:dc="http://purl.org/dc/elements/1.1/"
   xmlns:cc="http://creativecommons.org/ns#"
   xmlns:rdf="http://www.w3.org/1999/02/22-rdf-syntax-ns#"
   xmlns:svg="http://www.w3.org/2000/svg"
   xmlns="http://www.w3.org/2000/svg"
   xmlns:sodipodi="http://sodipodi.sourceforge.net/DTD/sodipodi-0.dtd"
   xmlns:inkscape="http://www.inkscape.org/namespaces/inkscape"
   version="1.1"
   viewBox="-65 -55.000561 240.09932 230.10022"
   viewPort=" -65.00000000000001 -55.00056064787859 174.99999999999994 175.00000000000006 "
   id="svg212"
   sodipodi:docname="example2-100.svg"
   width="240.09932"
   height="230.10022"
   inkscape:version="0.92.3 (2405546, 2018-03-11)">
  <metadata
     id="metadata218">
    <rdf:RDF>
      <cc:Work
         rdf:about="">
        <dc:format>image/svg+xml</dc:format>
        <dc:type
           rdf:resource="http://purl.org/dc/dcmitype/StillImage" />
        <dc:title></dc:title>
      </cc:Work>
    </rdf:RDF>
  </metadata>
  <defs
     id="defs216" />
  <sodipodi:namedview
     pagecolor="#ffffff"
     bordercolor="#666666"
     borderopacity="1"
     objecttolerance="10"
     gridtolerance="10"
     guidetolerance="10"
     inkscape:pageopacity="0"
     inkscape:pageshadow="2"
     inkscape:window-width="1920"
     inkscape:window-height="1137"
     id="namedview214"
     showgrid="false"
     fit-margin-top="0"
     fit-margin-left="0"
     fit-margin-right="0"
     fit-margin-bottom="0"
     inkscape:zoom="5.3784821"
     inkscape:cx="87.549659"
     inkscape:cy="142.55022"
     inkscape:window-x="1912"
     inkscape:window-y="-8"
     inkscape:window-maximized="1"
     inkscape:current-layer="svg212" />
  <path
     d="m 50.049659,50.050004 -5,5 10,10 10,-10 -5,-5 5,-5 10,10 -20,20 -20,-20 10,-10 z"
     stroke-miterlimit="10"
     font-weight="none"
     font-size="none"
     text-anchor="none"
     style="font-family:none;mix-blend-mode:normal;fill:none;fill-rule:nonzero;stroke:#000000;stroke-width:0.1;stroke-linecap:butt;stroke-linejoin:miter;stroke-miterlimit:10;stroke-dasharray:none;stroke-dashoffset:0"
     id="path2"
     inkscape:connector-curvature="0" />
  <path
     d="m 69.033489,54.690684 c 0.11977,0.11977 0.23954,0.23954 0.35932,0.35932 -0.11976,0.11976 -0.23952,0.23952 -0.35928,0.35928 0.02139,-0.23718 0.0217,-0.47761 -4e-5,-0.7186 z m -13.98383,14.70247 c -0.11974,-0.11974 -0.23947,-0.23947 -0.35921,-0.35921 0.23895,0.02142 0.47946,0.02142 0.71842,0 -0.11974,0.11974 -0.23947,0.23947 -0.35921,0.35921 z m -14.34315,-14.34315 c 0.11977,-0.11977 0.23954,-0.23954 0.35932,-0.35932 -0.02174,0.24099 -0.02142,0.48142 -4e-5,0.7186 -0.11976,-0.11976 -0.23952,-0.23952 -0.35928,-0.35928 z"
     stroke-miterlimit="10"
     font-weight="none"
     font-size="none"
     text-anchor="none"
     style="font-family:none;mix-blend-mode:normal;fill:none;fill-rule:nonzero;stroke:#ff0d00;stroke-width:0.1;stroke-linecap:butt;stroke-linejoin:miter;stroke-miterlimit:10;stroke-dasharray:none;stroke-dashoffset:0"
     id="path4"
     inkscape:connector-curvature="0" />
  <path
     d="m 45.807019,50.050004 c -0.95956,0.95956 -1.91912,1.91912 -2.87868,2.87868 -1.17157,1.17157 -1.17157,3.07107 0,4.24264 3.33333,3.33333 6.66667,6.66667 10,10 1.17157,1.17157 3.07107,1.17157 4.24264,0 3.33333,-3.33333 6.66667,-6.66667 10,-10 1.17157,-1.17157 1.17157,-3.07107 0,-4.24264 -0.95956,-0.95956 -1.91912,-1.91912 -2.87868,-2.87868 0.25245,-0.25245 0.50491,-0.50491 0.75736,-0.75736 1.91912,1.91912 3.83824,3.83824 5.75736,5.75736 -5.25245,5.25245 -10.50491,10.50491 -15.75736,15.75736 -5.25245,-5.25245 -10.50491,-10.50491 -15.75736,-15.75736 1.91912,-1.91912 3.83824,-3.83824 5.75736,-5.75736 0.25245,0.25245 0.50491,0.50491 0.75736,0.75736 z"
     stroke-miterlimit="10"
     font-weight="none"
     font-size="none"
     text-anchor="none"
     style="font-family:none;mix-blend-mode:normal;fill:none;fill-rule:nonzero;stroke:#ff1900;stroke-width:0.1;stroke-linecap:butt;stroke-linejoin:miter;stroke-miterlimit:10;stroke-dasharray:none;stroke-dashoffset:0"
     id="path6"
     inkscape:connector-curvature="0" />
  <path
     d="m 47.221229,50.050004 c -1.19526,1.19526 -2.39052,2.39052 -3.58579,3.58579 -0.78105,0.78105 -0.78105,2.04738 0,2.82843 3.33333,3.33333 6.66667,6.66667 10,10 0.78105,0.78105 2.04738,0.78105 2.82843,0 3.33333,-3.33333 6.66667,-6.66667 10,-10 0.78105,-0.78105 0.78105,-2.04738 0,-2.82843 -1.19526,-1.19526 -2.39052,-2.39052 -3.58579,-3.58579 0.72386,-0.72386 1.44772,-1.44772 2.17157,-2.17157 2.39052,2.39052 4.78105,4.78105 7.17157,7.17157 -5.72386,5.72386 -11.44772,11.44772 -17.17157,17.17157 -5.72386,-5.72386 -11.44772,-11.44772 -17.17157,-17.17157 2.39052,-2.39052 4.78105,-4.78105 7.17157,-7.17157 0.72386,0.72386 1.44772,1.44772 2.17157,2.17157 z"
     stroke-miterlimit="10"
     font-weight="none"
     font-size="none"
     text-anchor="none"
     style="font-family:none;mix-blend-mode:normal;fill:none;fill-rule:nonzero;stroke:#ff2600;stroke-width:0.1;stroke-linecap:butt;stroke-linejoin:miter;stroke-miterlimit:10;stroke-dasharray:none;stroke-dashoffset:0"
     id="path8"
     inkscape:connector-curvature="0" />
  <path
     d="m 48.635449,50.050004 c -1.43096,1.43096 -2.86193,2.86193 -4.29289,4.29289 -0.39052,0.39052 -0.39052,1.02369 0,1.41421 3.33333,3.33333 6.66667,6.66667 10,10 0.39052,0.39052 1.02369,0.39052 1.41421,0 3.33333,-3.33333 6.66667,-6.66667 10,-10 0.39052,-0.39052 0.39052,-1.02369 0,-1.41421 -1.43096,-1.43096 -2.86193,-2.86193 -4.29289,-4.29289 1.19526,-1.19526 2.39052,-2.39052 3.58579,-3.58579 2.86193,2.86193 5.72386,5.72386 8.58579,8.58579 -6.19526,6.19526 -12.39052,12.39052 -18.58579,18.58579 -6.19526,-6.19526 -12.39052,-12.39052 -18.58579,-18.58579 2.86193,-2.86193 5.72386,-5.72386 8.58579,-8.58579 1.19526,1.19526 2.39052,2.39052 3.58579,3.58579 z"
     stroke-miterlimit="10"
     font-weight="none"
     font-size="none"
     text-anchor="none"
     style="font-family:none;mix-blend-mode:normal;fill:none;fill-rule:nonzero;stroke:#ff3300;stroke-width:0.1;stroke-linecap:butt;stroke-linejoin:miter;stroke-miterlimit:10;stroke-dasharray:none;stroke-dashoffset:0"
     id="path10"
     inkscape:connector-curvature="0" />
  <path
     d="m 50.756769,50.757114 c -1.43096,1.43096 -2.86193,2.86193 -4.29289,4.29289 2.86193,2.86193 5.72386,5.72386 8.58579,8.58579 2.86193,-2.86193 5.72386,-5.72386 8.58579,-8.58579 -1.43096,-1.43096 -2.86193,-2.86193 -4.29289,-4.29289 -0.39052,-0.39052 -0.39052,-1.02369 0,-1.41421 1.66667,-1.66667 3.33333,-3.33333 5,-5 0.39052,-0.39052 1.02369,-0.39052 1.41421,0 3.33333,3.33333 6.66667,6.66667 10,10 0.39052,0.39052 0.39052,1.02369 0,1.41421 -6.66667,6.66667 -13.33333,13.33333 -20,20 -0.39052,0.39052 -1.02369,0.39052 -1.41421,0 -6.66667,-6.66667 -13.33333,-13.33333 -20,-20 -0.39052,-0.39052 -0.39052,-1.02369 0,-1.41421 3.33333,-3.33333 6.66667,-6.66667 10,-10 0.39052,-0.39052 1.02369,-0.39052 1.41421,0 1.66667,1.66667 3.33333,3.33333 5,5 0.39052,0.39052 0.39052,1.02369 0,1.41421 z"
     stroke-miterlimit="10"
     font-weight="none"
     font-size="none"
     text-anchor="none"
     style="font-family:none;mix-blend-mode:normal;fill:none;fill-rule:nonzero;stroke:#ff3f00;stroke-width:0.1;stroke-linecap:butt;stroke-linejoin:miter;stroke-miterlimit:10;stroke-dasharray:none;stroke-dashoffset:0"
     id="path12"
     inkscape:connector-curvature="0" />
  <path
     d="m 51.463869,51.464214 c -1.19526,1.19526 -2.39052,2.39052 -3.58579,3.58579 2.39052,2.39052 4.78105,4.78105 7.17157,7.17157 2.39052,-2.39052 4.78105,-4.78105 7.17157,-7.17157 -1.19526,-1.19526 -2.39052,-2.39052 -3.58579,-3.58579 -0.78105,-0.78105 -0.78105,-2.04738 0,-2.82843 1.66667,-1.66667 3.33333,-3.33333 5,-5 0.78105,-0.78105 2.04738,-0.78105 2.82843,0 3.33333,3.33333 6.66667,6.66667 10,10 0.78105,0.78105 0.78105,2.04738 0,2.82843 -6.66667,6.66667 -13.33333,13.33333 -20,20 -0.78105,0.78105 -2.04738,0.78105 -2.82843,0 -6.66667,-6.66667 -13.33333,-13.33333 -20,-20 -0.78105,-0.78105 -0.78105,-2.04738 0,-2.82843 3.33333,-3.33333 6.66667,-6.66667 10,-10 0.78105,-0.78105 2.04738,-0.78105 2.82843,0 1.66667,1.66667 3.33333,3.33333 5,5 0.78105,0.78105 0.78105,2.04738 0,2.82843 z"
     stroke-miterlimit="10"
     font-weight="none"
     font-size="none"
     text-anchor="none"
     style="font-family:none;mix-blend-mode:normal;fill:none;fill-rule:nonzero;stroke:#ff4c00;stroke-width:0.1;stroke-linecap:butt;stroke-linejoin:miter;stroke-miterlimit:10;stroke-dasharray:none;stroke-dashoffset:0"
     id="path14"
     inkscape:connector-curvature="0" />
  <path
     d="m 52.170979,52.171324 c -0.95956,0.95956 -1.91912,1.91912 -2.87868,2.87868 1.91912,1.91912 3.83824,3.83824 5.75736,5.75736 1.91912,-1.91912 3.83824,-3.83824 5.75736,-5.75736 -0.95956,-0.95956 -1.91912,-1.91912 -2.87868,-2.87868 -1.17157,-1.17157 -1.17157,-3.07107 0,-4.24264 1.66667,-1.66667 3.33333,-3.33333 5,-5 1.17157,-1.17157 3.07107,-1.17157 4.24264,0 3.33333,3.33333 6.66667,6.66667 10,10 1.17157,1.17157 1.17157,3.07107 0,4.24264 -6.66667,6.66667 -13.33333,13.33333 -20,20 -1.17157,1.17157 -3.07107,1.17157 -4.24264,0 -6.66667,-6.66667 -13.33333,-13.33333 -20,-20 -1.17157,-1.17157 -1.17157,-3.07107 0,-4.24264 3.33333,-3.33333 6.66667,-6.66667 10,-10 1.17157,-1.17157 3.07107,-1.17157 4.24264,0 1.66667,1.66667 3.33333,3.33333 5,5 1.17157,1.17157 1.17157,3.07107 0,4.24264 z"
     stroke-miterlimit="10"
     font-weight="none"
     font-size="none"
     text-anchor="none"
     style="font-family:none;mix-blend-mode:normal;fill:none;fill-rule:nonzero;stroke:#ff5900;stroke-width:0.1;stroke-linecap:butt;stroke-linejoin:miter;stroke-miterlimit:10;stroke-dasharray:none;stroke-dashoffset:0"
     id="path16"
     inkscape:connector-curvature="0" />
  <path
     d="m 52.878089,52.878434 c -0.72386,0.72386 -1.44772,1.44772 -2.17157,2.17157 1.44772,1.44772 2.89543,2.89543 4.34315,4.34315 1.44772,-1.44772 2.89543,-2.89543 4.34315,-4.34315 -0.72386,-0.72386 -1.44772,-1.44772 -2.17157,-2.17157 -1.5621,-1.5621 -1.5621,-4.09476 0,-5.65685 1.66667,-1.66667 3.33333,-3.33333 5,-5 1.5621,-1.5621 4.09476,-1.5621 5.65685,0 3.33333,3.33333 6.66667,6.66667 10,10 1.5621,1.5621 1.5621,4.09476 0,5.65685 -6.66667,6.66667 -13.33333,13.33333 -20,20 -1.5621,1.5621 -4.09476,1.5621 -5.65685,0 -6.66667,-6.66667 -13.33333,-13.33333 -20,-20 -1.5621,-1.5621 -1.5621,-4.09476 0,-5.65685 3.33333,-3.33333 6.66667,-6.66667 10,-10 1.5621,-1.5621 4.09476,-1.5621 5.65685,0 1.66667,1.66667 3.33333,3.33333 5,5 1.5621,1.5621 1.5621,4.09476 0,5.65685 z"
     stroke-miterlimit="10"
     font-weight="none"
     font-size="none"
     text-anchor="none"
     style="font-family:none;mix-blend-mode:normal;fill:none;fill-rule:nonzero;stroke:#ff6500;stroke-width:0.1;stroke-linecap:butt;stroke-linejoin:miter;stroke-miterlimit:10;stroke-dasharray:none;stroke-dashoffset:0"
     id="path18"
     inkscape:connector-curvature="0" />
  <path
     d="m 53.585189,53.585534 c -0.48816,0.48816 -0.97631,0.97631 -1.46447,1.46447 0.97631,0.97631 1.95262,1.95262 2.92893,2.92893 0.97631,-0.97631 1.95262,-1.95262 2.92893,-2.92893 -0.48816,-0.48816 -0.97631,-0.97631 -1.46447,-1.46447 -1.95262,-1.95262 -1.95262,-5.11845 0,-7.07107 1.66667,-1.66667 3.33333,-3.33333 5,-5 1.95262,-1.95262 5.11845,-1.95262 7.07107,0 3.33333,3.33333 6.66667,6.66667 10,10 1.95262,1.95262 1.95262,5.11845 0,7.07107 -6.66667,6.66667 -13.33333,13.33333 -20,20 -1.95262,1.95262 -5.11845,1.95262 -7.07107,0 -6.66667,-6.66667 -13.33333,-13.33333 -20,-20 -1.95262,-1.95262 -1.95262,-5.11845 0,-7.07107 3.33333,-3.33333 6.66667,-6.66667 10,-10 1.95262,-1.95262 5.11845,-1.95262 7.07107,0 1.66667,1.66667 3.33333,3.33333 5,5 1.95262,1.95262 1.95262,5.11845 0,7.07107 z"
     stroke-miterlimit="10"
     font-weight="none"
     font-size="none"
     text-anchor="none"
     style="font-family:none;mix-blend-mode:normal;fill:none;fill-rule:nonzero;stroke:#ff7200;stroke-width:0.1;stroke-linecap:butt;stroke-linejoin:miter;stroke-miterlimit:10;stroke-dasharray:none;stroke-dashoffset:0"
     id="path20"
     inkscape:connector-curvature="0" />
  <path
     d="m 54.292299,54.292644 c -0.25245,0.25245 -0.50491,0.50491 -0.75736,0.75736 0.50491,0.50491 1.00981,1.00981 1.51472,1.51472 0.50491,-0.50491 1.00981,-1.00981 1.51472,-1.51472 -0.25245,-0.25245 -0.50491,-0.50491 -0.75736,-0.75736 -0.2878,-0.2878 -0.54026,-0.59757 -0.75736,-0.92391 -0.2171,0.32634 -0.46956,0.6361 -0.75736,0.92391 z m 1.51472,-8.48528 c 1.66667,-1.66667 3.33333,-3.33333 5,-5 2.34315,-2.34315 6.14214,-2.34315 8.48528,0 3.33333,3.33333 6.66667,6.66667 10,10 2.34315,2.34315 2.34315,6.14214 0,8.48528 -6.66667,6.66667 -13.33333,13.33333 -20,20 -2.34315,2.34315 -6.14214,2.34315 -8.48528,0 -6.66667,-6.66667 -13.33333,-13.33333 -20,-20 -2.34315,-2.34315 -2.34315,-6.14214 0,-8.48528 3.33333,-3.33333 6.66667,-6.66667 10,-10 2.34315,-2.34315 6.14214,-2.34315 8.48528,0 1.66667,1.66667 3.33333,3.33333 5,5 0.2878,0.2878 0.54026,0.59757 0.75736,0.92391 0.2171,-0.32634 0.46956,-0.6361 0.75736,-0.92391 z"
     stroke-miterlimit="10"
     font-weight="none"
     font-size="none"
     text-anchor="none"
     style="font-family:none;mix-blend-mode:normal;fill:none;fill-rule:nonzero;stroke:#ff7f00;stroke-width:0.1;stroke-linecap:butt;stroke-linejoin:miter;stroke-miterlimit:10;stroke-dasharray:none;stroke-dashoffset:0"
     id="path22"
     inkscape:connector-curvature="0" />
  <path
     d="m 54.999409,54.999754 c -0.01675,0.01675 -0.0335,0.0335 -0.05025,0.05025 0.0335,0.0335 0.067,0.067 0.10051,0.10051 0.0335,-0.0335 0.067,-0.067 0.10051,-0.10051 -0.01675,-0.01675 -0.0335,-0.0335 -0.05025,-0.05025 -0.01685,-0.01685 -0.03361,-0.03377 -0.05025,-0.05076 -0.01665,0.01698 -0.0334,0.0339 -0.05025,0.05076 z m 0.1005,-9.8995 c 1.66667,-1.66667 3.33333,-3.33333 5,-5 2.73367,-2.73367 7.16582,-2.73367 9.89949,0 3.33333,3.33333 6.66667,6.66667 10,10 2.73367,2.73367 2.73367,7.16582 0,9.89949 -6.66667,6.66667 -13.33333,13.33333 -20,20 -2.73367,2.73367 -7.16582,2.73367 -9.89949,0 -6.66667,-6.66667 -13.33333,-13.33333 -20,-20 -2.73367,-2.73367 -2.73367,-7.16582 0,-9.89949 3.33333,-3.33333 6.66667,-6.66667 10,-10 2.73367,-2.73367 7.16582,-2.73367 9.89949,0 1.66667,1.66667 3.33333,3.33333 5,5 0.01685,0.01685 0.03361,0.03377 0.05025,0.05076 0.01665,-0.01698 0.0334,-0.0339 0.05025,-0.05076 z"
     stroke-miterlimit="10"
     font-weight="none"
     font-size="none"
     text-anchor="none"
     style="font-family:none;mix-blend-mode:normal;fill:none;fill-rule:nonzero;stroke:#ff8b00;stroke-width:0.1;stroke-linecap:butt;stroke-linejoin:miter;stroke-miterlimit:10;stroke-dasharray:none;stroke-dashoffset:0"
     id="path24"
     inkscape:connector-curvature="0" />
  <path
     d="m 59.392809,39.393154 c 3.12419,-3.12419 8.18951,-3.12419 11.31371,0 3.33333,3.33333 6.66667,6.66667 10,10 3.12419,3.12419 3.12419,8.18951 0,11.31371 -6.66667,6.66667 -13.33333,13.33333 -20,20 -3.12419,3.12419 -8.18951,3.12419 -11.31371,0 -6.66667,-6.66667 -13.33333,-13.33333 -20,-20 -3.12419,-3.12419 -3.12419,-8.18951 0,-11.31371 3.33333,-3.33333 6.66667,-6.66667 10,-10 3.12419,-3.12419 8.18951,-3.12419 11.31371,0 1.44772,1.44772 2.89543,2.89543 4.34315,4.34315 1.44772,-1.44772 2.89543,-2.89543 4.34315,-4.34315 z"
     stroke-miterlimit="10"
     font-weight="none"
     font-size="none"
     text-anchor="none"
     style="font-family:none;mix-blend-mode:normal;fill:none;fill-rule:nonzero;stroke:#ff9800;stroke-width:0.1;stroke-linecap:butt;stroke-linejoin:miter;stroke-miterlimit:10;stroke-dasharray:none;stroke-dashoffset:0"
     id="path26"
     inkscape:connector-curvature="0" />
  <path
     d="m 58.685699,38.686044 c 3.51472,-3.51472 9.2132,-3.51472 12.72792,0 3.33333,3.33333 6.66667,6.66667 10,10 3.51472,3.51472 3.51472,9.2132 0,12.72792 -6.66667,6.66667 -13.33333,13.33333 -20,20 -3.51472,3.51472 -9.2132,3.51472 -12.72792,0 -6.66667,-6.66667 -13.33333,-13.33333 -20,-20 -3.51472,-3.51472 -3.51472,-9.2132 0,-12.72792 3.33333,-3.33333 6.66667,-6.66667 10,-10 3.51472,-3.51472 9.2132,-3.51472 12.72792,0 1.21201,1.21201 2.42403,2.42403 3.63604,3.63604 1.21201,-1.21201 2.42403,-2.42403 3.63604,-3.63604 z"
     stroke-miterlimit="10"
     font-weight="none"
     font-size="none"
     text-anchor="none"
     style="font-family:none;mix-blend-mode:normal;fill:none;fill-rule:nonzero;stroke:#ffa500;stroke-width:0.1;stroke-linecap:butt;stroke-linejoin:miter;stroke-miterlimit:10;stroke-dasharray:none;stroke-dashoffset:0"
     id="path28"
     inkscape:connector-curvature="0" />
  <path
     d="m 57.978589,37.978934 c 3.90524,-3.90524 10.23689,-3.90524 14.14214,0 3.33333,3.33333 6.66667,6.66667 10,10 3.90524,3.90524 3.90524,10.23689 0,14.14214 -6.66667,6.66667 -13.33333,13.33333 -20,20 -3.90524,3.90524 -10.23689,3.90524 -14.14214,0 -6.66667,-6.66667 -13.33333,-13.33333 -20,-20 -3.90524,-3.90524 -3.90524,-10.23689 0,-14.14214 3.33333,-3.33333 6.66667,-6.66667 10,-10 3.90524,-3.90524 10.23689,-3.90524 14.14214,0 0.97631,0.97631 1.95262,1.95262 2.92893,2.92893 0.97631,-0.97631 1.95262,-1.95262 2.92893,-2.92893 z"
     stroke-miterlimit="10"
     font-weight="none"
     font-size="none"
     text-anchor="none"
     style="font-family:none;mix-blend-mode:normal;fill:none;fill-rule:nonzero;stroke:#ffb100;stroke-width:0.1;stroke-linecap:butt;stroke-linejoin:miter;stroke-miterlimit:10;stroke-dasharray:none;stroke-dashoffset:0"
     id="path30"
     inkscape:connector-curvature="0" />
  <path
     d="m 55.049659,39.493654 c 0.74061,-0.74061 1.48122,-1.48122 2.22183,-2.22183 4.29577,-4.29577 11.26058,-4.29577 15.55635,0 3.33333,3.33333 6.66667,6.66667 10,10 4.29577,4.29577 4.29577,11.26058 0,15.55635 -6.66667,6.66667 -13.33333,13.33333 -20,20 -4.29577,4.29577 -11.26058,4.29577 -15.55635,0 -6.66667,-6.66667 -13.33333,-13.33333 -20,-20 -4.29577,-4.29577 -4.29577,-11.26058 0,-15.55635 3.33333,-3.33333 6.66667,-6.66667 10,-10 4.29577,-4.29577 11.26058,-4.29577 15.55635,0 0.74061,0.74061 1.48122,1.48122 2.22183,2.22183 z"
     stroke-miterlimit="10"
     font-weight="none"
     font-size="none"
     text-anchor="none"
     style="font-family:none;mix-blend-mode:normal;fill:none;fill-rule:nonzero;stroke:#ffbe00;stroke-width:0.1;stroke-linecap:butt;stroke-linejoin:miter;stroke-miterlimit:10;stroke-dasharray:none;stroke-dashoffset:0"
     id="path32"
     inkscape:connector-curvature="0" />
  <path
     d="m 55.049659,38.079444 c 0.50491,-0.50491 1.00981,-1.00981 1.51472,-1.51472 4.68629,-4.68629 12.28427,-4.68629 16.97056,0 3.33333,3.33333 6.66667,6.66667 10,10 4.68629,4.68629 4.68629,12.28427 0,16.97056 -6.66667,6.66667 -13.33333,13.33333 -20,20 -4.68629,4.68629 -12.28427,4.68629 -16.97056,0 -6.66667,-6.66667 -13.33333,-13.33333 -20,-20 -4.68629,-4.68629 -4.68629,-12.28427 0,-16.97056 3.33333,-3.33333 6.66667,-6.66667 10,-10 4.68629,-4.68629 12.28427,-4.68629 16.97056,0 0.50491,0.50491 1.00981,1.00981 1.51472,1.51472 z"
     stroke-miterlimit="10"
     font-weight="none"
     font-size="none"
     text-anchor="none"
     style="font-family:none;mix-blend-mode:normal;fill:none;fill-rule:nonzero;stroke:#ffcb00;stroke-width:0.1;stroke-linecap:butt;stroke-linejoin:miter;stroke-miterlimit:10;stroke-dasharray:none;stroke-dashoffset:0"
     id="path34"
     inkscape:connector-curvature="0" />
  <path
     d="m 55.857269,35.857614 c 5.07682,-5.07682 13.30796,-5.07682 18.38478,0 3.33333,3.33333 6.66667,6.66667 10,10 5.07682,5.07682 5.07682,13.30796 0,18.38478 -6.66667,6.66667 -13.33333,13.33333 -20,20 -5.07682,5.07682 -13.30796,5.07682 -18.38478,0 -6.66667,-6.66667 -13.33333,-13.33333 -20,-20 -5.07682,-5.07682 -5.07682,-13.30796 0,-18.38478 3.33333,-3.33333 6.66667,-6.66667 10,-10 5.07682,-5.07682 13.30796,-5.07682 18.38478,0 0.2692,0.2692 0.53841,0.53841 0.80761,0.80761 0.2692,-0.2692 0.53841,-0.53841 0.80761,-0.80761 z"
     stroke-miterlimit="10"
     font-weight="none"
     font-size="none"
     text-anchor="none"
     style="font-family:none;mix-blend-mode:normal;fill:none;fill-rule:nonzero;stroke:#ffd700;stroke-width:0.1;stroke-linecap:butt;stroke-linejoin:miter;stroke-miterlimit:10;stroke-dasharray:none;stroke-dashoffset:0"
     id="path36"
     inkscape:connector-curvature="0" />
  <path
     d="m 55.150169,35.150514 c 5.46734,-5.46734 14.33165,-5.46734 19.79899,0 3.33333,3.33333 6.66667,6.66667 10,10 5.46734,5.46734 5.46734,14.33165 0,19.79899 -6.66667,6.66667 -13.33333,13.33333 -20,20 -5.46734,5.46734 -14.33165,5.46734 -19.79899,0 -6.66667,-6.66667 -13.33333,-13.33333 -20,-20 -5.46734,-5.46734 -5.46734,-14.33165 0,-19.79899 3.33333,-3.33333 6.66667,-6.66667 10,-10 5.46734,-5.46734 14.33165,-5.46734 19.79899,0 0.0335,0.0335 0.067,0.067 0.10051,0.10051 0.0335,-0.0335 0.067,-0.067 0.10051,-0.10051 z"
     stroke-miterlimit="10"
     font-weight="none"
     font-size="none"
     text-anchor="none"
     style="font-family:none;mix-blend-mode:normal;fill:none;fill-rule:nonzero;stroke:#ffe400;stroke-width:0.1;stroke-linecap:butt;stroke-linejoin:miter;stroke-miterlimit:10;stroke-dasharray:none;stroke-dashoffset:0"
     id="path38"
     inkscape:connector-curvature="0" />
  <path
     d="m 75.656259,34.443404 c 3.33333,3.33333 6.66667,6.66667 10,10 5.85786,5.85786 5.85786,15.35534 0,21.2132 -6.66667,6.66667 -13.33333,13.33333 -20,20 -5.85786,5.85786 -15.35534,5.85786 -21.2132,0 -6.66667,-6.66667 -13.33333,-13.33333 -20,-20 -5.85786,-5.85786 -5.85786,-15.35534 0,-21.2132 3.33333,-3.33333 6.66667,-6.66667 10,-10 5.62858,-5.62858 14.67356,-5.88041 20.6066,-0.57374 5.93304,-5.30667 14.97803,-5.05484 20.6066,0.57374 z"
     stroke-miterlimit="10"
     font-weight="none"
     font-size="none"
     text-anchor="none"
     style="font-family:none;mix-blend-mode:normal;fill:none;fill-rule:nonzero;stroke:#fff100;stroke-width:0.1;stroke-linecap:butt;stroke-linejoin:miter;stroke-miterlimit:10;stroke-dasharray:none;stroke-dashoffset:0"
     id="path40"
     inkscape:connector-curvature="0" />
  <path
     d="m 76.363369,33.736294 c 3.33333,3.33333 6.66667,6.66667 10,10 6.24839,6.24839 6.24839,16.37903 0,22.62742 -6.66667,6.66667 -13.33333,13.33333 -20,20 -6.24839,6.24839 -16.37903,6.24839 -22.62742,0 -6.66667,-6.66667 -13.33333,-13.33333 -20,-20 -6.24839,-6.24839 -6.24839,-16.37903 0,-22.62742 3.33333,-3.33333 6.66667,-6.66667 10,-10 5.76658,-5.76658 14.94758,-6.27327 21.31371,-1.17629 6.36613,-5.09698 15.54713,-4.59029 21.31371,1.17629 z"
     stroke-miterlimit="10"
     font-weight="none"
     font-size="none"
     text-anchor="none"
     style="font-family:none;mix-blend-mode:normal;fill:none;fill-rule:nonzero;stroke:#fffd00;stroke-width:0.1;stroke-linecap:butt;stroke-linejoin:miter;stroke-miterlimit:10;stroke-dasharray:none;stroke-dashoffset:0"
     id="path42"
     inkscape:connector-curvature="0" />
  <path
     d="m 77.070479,33.029184 c 3.33333,3.33333 6.66667,6.66667 10,10 6.63891,6.63891 6.63891,17.40272 0,24.04163 -6.66667,6.66667 -13.33333,13.33333 -20,20 -6.63891,6.63891 -17.40272,6.63891 -24.04163,0 -6.66667,-6.66667 -13.33333,-13.33333 -20,-20 -6.63891,-6.63891 -6.63891,-17.40272 0,-24.04163 3.33333,-3.33333 6.66667,-6.66667 10,-10 5.91548,-5.91548 15.25551,-6.64795 22.02082,-1.72691 6.7653,-4.92103 16.10533,-4.18857 22.02082,1.72691 z"
     stroke-miterlimit="10"
     font-weight="none"
     font-size="none"
     text-anchor="none"
     style="font-family:none;mix-blend-mode:normal;fill:none;fill-rule:nonzero;stroke:#f4ff00;stroke-width:0.1;stroke-linecap:butt;stroke-linejoin:miter;stroke-miterlimit:10;stroke-dasharray:none;stroke-dashoffset:0"
     id="path44"
     inkscape:connector-curvature="0" />
  <path
     d="m 77.777579,32.322084 c 3.33333,3.33333 6.66667,6.66667 10,10 7.02944,7.02944 7.02944,18.42641 0,25.45584 -6.66667,6.66667 -13.33333,13.33333 -20,20 -7.02944,7.02944 -18.42641,7.02944 -25.45584,0 -6.66667,-6.66667 -13.33333,-13.33333 -20,-20 -7.02944,-7.02944 -7.02944,-18.42641 0,-25.45584 3.33333,-3.33333 6.66667,-6.66667 10,-10 6.07208,-6.07208 15.58783,-7.00938 22.72792,-2.23871 7.14009,-4.77068 16.65584,-3.83337 22.72792,2.23871 z"
     stroke-miterlimit="10"
     font-weight="none"
     font-size="none"
     text-anchor="none"
     style="font-family:none;mix-blend-mode:normal;fill:none;fill-rule:nonzero;stroke:#e7ff00;stroke-width:0.1;stroke-linecap:butt;stroke-linejoin:miter;stroke-miterlimit:10;stroke-dasharray:none;stroke-dashoffset:0"
     id="path46"
     inkscape:connector-curvature="0" />
  <path
     d="m 78.484689,31.614974 c 3.33333,3.33333 6.66667,6.66667 10,10 7.41996,7.41996 7.41996,19.4501 0,26.87006 -6.66667,6.66667 -13.33333,13.33333 -20,20 -7.41996,7.41996 -19.4501,7.41996 -26.87006,0 -6.66667,-6.66667 -13.33333,-13.33333 -20,-20 -7.41996,-7.41996 -7.41996,-19.4501 0,-26.87006 3.33333,-3.33333 6.66667,-6.66667 10,-10 6.23432,-6.23432 15.93832,-7.36081 23.43503,-2.72047 7.49671,-4.64034 17.20071,-3.51385 23.43503,2.72047 z"
     stroke-miterlimit="10"
     font-weight="none"
     font-size="none"
     text-anchor="none"
     style="font-family:none;mix-blend-mode:normal;fill:none;fill-rule:nonzero;stroke:#dbff00;stroke-width:0.1;stroke-linecap:butt;stroke-linejoin:miter;stroke-miterlimit:10;stroke-dasharray:none;stroke-dashoffset:0"
     id="path48"
     inkscape:connector-curvature="0" />
  <path
     d="m 79.191799,30.907864 c 3.33333,3.33333 6.66667,6.66667 10,10 7.81049,7.81049 7.81049,20.47379 0,28.28427 -6.66667,6.66667 -13.33333,13.33333 -20,20 -7.81049,7.81049 -20.47379,7.81049 -28.28427,0 -6.66667,-6.66667 -13.33333,-13.33333 -20,-20 -7.81049,-7.81049 -7.81049,-20.47379 0,-28.28427 3.33333,-3.33333 6.66667,-6.66667 10,-10 6.40081,-6.40081 16.30278,-7.70443 24.14214,-3.17837 7.83936,-4.52606 17.74132,-3.22244 24.14214,3.17837 z"
     stroke-miterlimit="10"
     font-weight="none"
     font-size="none"
     text-anchor="none"
     style="font-family:none;mix-blend-mode:normal;fill:none;fill-rule:nonzero;stroke:#ceff00;stroke-width:0.1;stroke-linecap:butt;stroke-linejoin:miter;stroke-miterlimit:10;stroke-dasharray:none;stroke-dashoffset:0"
     id="path50"
     inkscape:connector-curvature="0" />
  <path
     d="m 79.898899,30.200764 c 3.33333,3.33333 6.66667,6.66667 10,10 8.20101,8.20101 8.20101,21.49747 0,29.69848 -6.66667,6.66667 -13.33333,13.33333 -20,20 -8.20101,8.20101 -21.49747,8.20101 -29.69848,0 -6.66667,-6.66667 -13.33333,-13.33333 -20,-20 -8.20101,-8.20101 -8.20101,-21.49747 0,-29.69848 3.33333,-3.33333 6.66667,-6.66667 10,-10 6.5706,-6.5706 16.67819,-8.04182 24.84924,-3.61694 8.17105,-4.42487 18.27864,-2.95366 24.84924,3.61694 z"
     stroke-miterlimit="10"
     font-weight="none"
     font-size="none"
     text-anchor="none"
     style="font-family:none;mix-blend-mode:normal;fill:none;fill-rule:nonzero;stroke:#c1ff00;stroke-width:0.1;stroke-linecap:butt;stroke-linejoin:miter;stroke-miterlimit:10;stroke-dasharray:none;stroke-dashoffset:0"
     id="path52"
     inkscape:connector-curvature="0" />
  <path
     d="m 80.606009,29.493654 c 3.33333,3.33333 6.66667,6.66667 10,10 8.59153,8.59153 8.59153,22.52116 0,31.1127 -6.66667,6.66667 -13.33333,13.33333 -20,20 -8.59153,8.59153 -22.52116,8.59153 -31.1127,0 -6.66667,-6.66667 -13.33333,-13.33333 -20,-20 -8.59153,-8.59153 -8.59153,-22.52116 0,-31.1127 3.33333,-3.33333 6.66667,-6.66667 10,-10 6.74299,-6.74299 17.06238,-8.37413 25.55635,-4.03957 8.49397,-4.33456 18.81336,-2.70342 25.55635,4.03957 z"
     stroke-miterlimit="10"
     font-weight="none"
     font-size="none"
     text-anchor="none"
     style="font-family:none;mix-blend-mode:normal;fill:none;fill-rule:nonzero;stroke:#b5ff00;stroke-width:0.1;stroke-linecap:butt;stroke-linejoin:miter;stroke-miterlimit:10;stroke-dasharray:none;stroke-dashoffset:0"
     id="path54"
     inkscape:connector-curvature="0" />
  <path
     d="m 81.313119,28.786544 c 3.33333,3.33333 6.66667,6.66667 10,10 8.982061,8.98206 8.982061,23.54485 0,32.52691 -6.66667,6.66667 -13.33333,13.33333 -20,20 -8.98206,8.982056 -23.54485,8.982056 -32.52691,0 -6.66667,-6.66667 -13.33333,-13.33333 -20,-20 -8.9820599,-8.98206 -8.9820599,-23.54485 0,-32.52691 3.33333,-3.33333 6.66667,-6.66667 10,-10 6.91747,-6.91747 17.45372,-8.70224 26.26346,-4.44886 8.80974,-4.25338 19.34599,-2.46861 26.26346,4.44886 z"
     stroke-miterlimit="10"
     font-weight="none"
     font-size="none"
     text-anchor="none"
     style="font-family:none;mix-blend-mode:normal;fill:none;fill-rule:nonzero;stroke:#a8ff00;stroke-width:0.1;stroke-linecap:butt;stroke-linejoin:miter;stroke-miterlimit:10;stroke-dasharray:none;stroke-dashoffset:0"
     id="path56"
     inkscape:connector-curvature="0" />
  <path
     d="m 82.020219,28.079444 c 3.33333,3.33333 6.66667,6.66667 10,10 9.372581,9.37258 9.372581,24.56854 0,33.94113 -6.66667,6.66667 -13.33333,13.33333 -20,20 -9.37258,9.372576 -24.56854,9.372576 -33.94113,0 -6.66667,-6.66667 -13.33333,-13.33333 -20,-20 -9.3725799,-9.37258 -9.3725799,-24.56854 0,-33.94113 3.33333,-3.33333 6.66667,-6.66667 10,-10 7.09364,-7.09364 17.85095,-9.02683 26.97056,-4.84686 9.11961,-4.17997 19.87692,-2.24678 26.97056,4.84686 z"
     stroke-miterlimit="10"
     font-weight="none"
     font-size="none"
     text-anchor="none"
     style="font-family:none;mix-blend-mode:normal;fill:none;fill-rule:nonzero;stroke:#9bff00;stroke-width:0.1;stroke-linecap:butt;stroke-linejoin:miter;stroke-miterlimit:10;stroke-dasharray:none;stroke-dashoffset:0"
     id="path58"
     inkscape:connector-curvature="0" />
  <path
     d="m 82.727329,27.372334 c 3.33333,3.33333 6.66667,6.66667 10,10 9.763111,9.76311 9.763111,25.59223 0,35.35534 -6.66667,6.66667 -13.33333,13.33333 -20,20 -9.76311,9.763106 -25.59223,9.763106 -35.35534,0 -6.66667,-6.66667 -13.33333,-13.33333 -20,-20 -9.7631099,-9.76311 -9.7631099,-25.59223 0,-35.35534 3.33333,-3.33333 6.66667,-6.66667 10,-10 7.27121,-7.27121 18.2531,-9.34843 27.67767,-5.23521 9.42457,-4.11322 20.40646,-2.036 27.67767,5.23521 z"
     stroke-miterlimit="10"
     font-weight="none"
     font-size="none"
     text-anchor="none"
     style="font-family:none;mix-blend-mode:normal;fill:none;fill-rule:nonzero;stroke:#8fff00;stroke-width:0.1;stroke-linecap:butt;stroke-linejoin:miter;stroke-miterlimit:10;stroke-dasharray:none;stroke-dashoffset:0"
     id="path60"
     inkscape:connector-curvature="0" />
  <path
     d="m 83.434439,26.665224 c 3.33333,3.33333 6.66667,6.66667 10,10 10.153631,10.15363 10.153631,26.61592 0,36.76955 -6.66667,6.66667 -13.33333,13.33333 -20,20 -10.15363,10.153626 -26.61592,10.153626 -36.76955,0 -6.66667,-6.66667 -13.33333,-13.33333 -20,-20 -10.1536299,-10.15363 -10.1536299,-26.61592 0,-36.76955 3.33333,-3.33333 6.66667,-6.66667 10,-10 7.44995,-7.44995 18.6594,-9.66746 28.38478,-5.61522 9.72537,-4.05224 20.93483,-1.83473 28.38478,5.61522 z"
     stroke-miterlimit="10"
     font-weight="none"
     font-size="none"
     text-anchor="none"
     style="font-family:none;mix-blend-mode:normal;fill:none;fill-rule:nonzero;stroke:#82ff00;stroke-width:0.1;stroke-linecap:butt;stroke-linejoin:miter;stroke-miterlimit:10;stroke-dasharray:none;stroke-dashoffset:0"
     id="path62"
     inkscape:connector-curvature="0" />
  <path
     d="m 84.141539,25.958124 c 3.33333,3.33333 6.66667,6.66667 10,10 10.544161,10.54416 10.544161,27.63961 0,38.18377 -6.66667,6.66667 -13.33333,13.33333 -20,20 -10.54416,10.544156 -27.63961,10.544156 -38.18377,0 -6.66667,-6.66667 -13.33333,-13.33333 -20,-20 -10.5441599,-10.54416 -10.5441599,-27.63961 0,-38.18377 3.33333,-3.33333 6.66667,-6.66667 10,-10 7.62967,-7.62967 19.06924,-9.98428 29.09188,-5.98799 10.02264,-3.99629 21.46221,-1.64168 29.09188,5.98799 z"
     stroke-miterlimit="10"
     font-weight="none"
     font-size="none"
     text-anchor="none"
     style="font-family:none;mix-blend-mode:normal;fill:none;fill-rule:nonzero;stroke:#75ff00;stroke-width:0.1;stroke-linecap:butt;stroke-linejoin:miter;stroke-miterlimit:10;stroke-dasharray:none;stroke-dashoffset:0"
     id="path64"
     inkscape:connector-curvature="0" />
  <path
     d="m 84.848649,25.251014 c 3.33333,3.33333 6.66667,6.66667 10,10 10.934681,10.93468 10.934681,28.6633 0,39.59798 -6.66667,6.66667 -13.33333,13.33333 -20,20 -10.93468,10.934676 -28.6633,10.934676 -39.59798,0 -6.66667,-6.66667 -13.33333,-13.33333 -20,-20 -10.9346799,-10.93468 -10.9346799,-28.6633 0,-39.59798 3.33333,-3.33333 6.66667,-6.66667 10,-10 7.81022,-7.81022 19.48211,-10.29916 29.79899,-6.3544 10.31688,-3.94476 21.98877,-1.45582 29.79899,6.3544 z"
     stroke-miterlimit="10"
     font-weight="none"
     font-size="none"
     text-anchor="none"
     style="font-family:none;mix-blend-mode:normal;fill:none;fill-rule:nonzero;stroke:#69ff00;stroke-width:0.1;stroke-linecap:butt;stroke-linejoin:miter;stroke-miterlimit:10;stroke-dasharray:none;stroke-dashoffset:0"
     id="path66"
     inkscape:connector-curvature="0" />
  <path
     d="m 85.555759,24.543904 c 3.33333,3.33333 6.66667,6.66667 10,10 11.325201,11.3252 11.325201,29.68699 0,41.01219 -6.66667,6.66667 -13.33333,13.33333 -20,20 -11.3252,11.325196 -29.68699,11.325196 -41.01219,0 -6.66667,-6.66667 -13.33333,-13.33333 -20,-20 -11.3251999,-11.3252 -11.3251999,-29.68699 0,-41.01219 3.33333,-3.33333 6.66667,-6.66667 10,-10 7.99148,-7.99148 19.89761,-10.61234 30.5061,-6.71522 10.60849,-3.89713 22.51461,-1.27626 30.5061,6.71522 z"
     stroke-miterlimit="10"
     font-weight="none"
     font-size="none"
     text-anchor="none"
     style="font-family:none;mix-blend-mode:normal;fill:none;fill-rule:nonzero;stroke:#5cff00;stroke-width:0.1;stroke-linecap:butt;stroke-linejoin:miter;stroke-miterlimit:10;stroke-dasharray:none;stroke-dashoffset:0"
     id="path68"
     inkscape:connector-curvature="0" />
  <path
     d="m 86.262859,23.836804 c 3.33333,3.33333 6.66667,6.66667 10,10 11.715731,11.71573 11.715731,30.71068 0,42.42641 -6.66667,6.66667 -13.33333,13.33333 -20,20 -11.71573,11.715726 -30.71068,11.715726 -42.42641,0 -6.66667,-6.66667 -13.33333,-13.33333 -20,-20 -11.7157299,-11.71573 -11.7157299,-30.71068 0,-42.42641 3.33333,-3.33333 6.66667,-6.66667 10,-10 8.17336,-8.17336 20.31539,-10.92403 31.2132,-7.07107 10.89781,-3.85296 23.03985,-1.10229 31.2132,7.07107 z"
     stroke-miterlimit="10"
     font-weight="none"
     font-size="none"
     text-anchor="none"
     style="font-family:none;mix-blend-mode:normal;fill:none;fill-rule:nonzero;stroke:#4fff00;stroke-width:0.1;stroke-linecap:butt;stroke-linejoin:miter;stroke-miterlimit:10;stroke-dasharray:none;stroke-dashoffset:0"
     id="path70"
     inkscape:connector-curvature="0" />
  <path
     d="m 86.969969,23.129694 c 3.33333,3.33333 6.66667,6.66667 10,10 12.106251,12.10625 12.106251,31.73437 0,43.84062 -6.66667,6.66667 -13.33333,13.33333 -20,20 -12.10625,12.106246 -31.73437,12.106246 -43.84062,0 -6.66667,-6.66667 -13.33333,-13.33333 -20,-20 -12.1062499,-12.10625 -12.1062499,-31.73437 0,-43.84062 3.33333,-3.33333 6.66667,-6.66667 10,-10 8.35576,-8.35576 20.73518,-11.23437 31.92031,-7.42249 11.18513,-3.81188 23.56455,-0.93327 31.92031,7.42249 z"
     stroke-miterlimit="10"
     font-weight="none"
     font-size="none"
     text-anchor="none"
     style="font-family:none;mix-blend-mode:normal;fill:none;fill-rule:nonzero;stroke:#43ff00;stroke-width:0.1;stroke-linecap:butt;stroke-linejoin:miter;stroke-miterlimit:10;stroke-dasharray:none;stroke-dashoffset:0"
     id="path72"
     inkscape:connector-curvature="0" />
  <path
     d="m 87.677079,22.422584 c 3.33333,3.33333 6.66667,6.66667 10,10 12.496781,12.49678 12.496781,32.75806 0,45.25483 -6.66667,6.66667 -13.33333,13.33333 -20,20 -12.49678,12.496776 -32.75806,12.496776 -45.25483,0 -6.66667,-6.66667 -13.33333,-13.33333 -20,-20 -12.49677988,-12.49678 -12.49677988,-32.75806 0,-45.25483 3.33333,-3.33333 6.66667,-6.66667 10,-10 8.53863,-8.53863 21.15673,-11.54353 32.62742,-7.76995 11.47069,-3.77358 24.08878,-0.76868 32.62742,7.76995 z"
     stroke-miterlimit="10"
     font-weight="none"
     font-size="none"
     text-anchor="none"
     style="font-family:none;mix-blend-mode:normal;fill:none;fill-rule:nonzero;stroke:#36ff00;stroke-width:0.1;stroke-linecap:butt;stroke-linejoin:miter;stroke-miterlimit:10;stroke-dasharray:none;stroke-dashoffset:0"
     id="path74"
     inkscape:connector-curvature="0" />
  <path
     d="m 88.384179,21.715484 c 3.33333,3.33333 6.66667,6.66667 10,10 12.887301,12.8873 12.887301,33.78175 0,46.66905 -6.66667,6.66667 -13.33333,13.33333 -20,20 -12.8873,12.887296 -33.78175,12.887296 -46.66905,0 -6.66667,-6.66667 -13.33333,-13.33333 -20,-20 -12.8872999,-12.8873 -12.8872999,-33.78175 0,-46.66905 3.33333,-3.33333 6.66667,-6.66667 10,-10 8.72191,-8.72191 21.57985,-11.8516202 33.33452,-8.11385 11.75468,-3.7377702 24.61261,-0.60806 33.33452,8.11385 z"
     stroke-miterlimit="10"
     font-weight="none"
     font-size="none"
     text-anchor="none"
     style="font-family:none;mix-blend-mode:normal;fill:none;fill-rule:nonzero;stroke:#29ff00;stroke-width:0.1;stroke-linecap:butt;stroke-linejoin:miter;stroke-miterlimit:10;stroke-dasharray:none;stroke-dashoffset:0"
     id="path76"
     inkscape:connector-curvature="0" />
  <path
     d="m 89.091289,21.008374 c 3.33333,3.33333 6.66667,6.66667 10,10 13.277831,13.27783 13.277831,34.80544 0,48.08326 -6.66667,6.66667 -13.33333,13.33333 -20,20 -13.27783,13.277826 -34.80544,13.277826 -48.08326,0 -6.66667,-6.66667 -13.33333,-13.33333 -20,-20 -13.2778299,-13.27783 -13.2778299,-34.80544 0,-48.08326 3.33333,-3.33333 6.66667,-6.66667 10,-10 8.90554,-8.90554 22.00435,-12.1587402 34.04163,-8.45452 12.03728,-3.7042202 25.13609,-0.45102 34.04163,8.45452 z"
     stroke-miterlimit="10"
     font-weight="none"
     font-size="none"
     text-anchor="none"
     style="font-family:none;mix-blend-mode:normal;fill:none;fill-rule:nonzero;stroke:#1dff00;stroke-width:0.1;stroke-linecap:butt;stroke-linejoin:miter;stroke-miterlimit:10;stroke-dasharray:none;stroke-dashoffset:0"
     id="path78"
     inkscape:connector-curvature="0" />
  <path
     d="m 89.798399,20.301264 c 3.33333,3.33333 6.66667,6.66667 10,10 13.668351,13.66835 13.668351,35.82912 0,49.49747 -6.66667,6.66667 -13.33333,13.33333 -20,20 -13.66835,13.668346 -35.82912,13.668346 -49.49747,0 -6.66667,-6.66667 -13.33333,-13.33333 -20,-20 -13.6683499,-13.66835 -13.6683499,-35.82912 0,-49.49747 3.33333,-3.33333 6.66667,-6.66667 10,-10 9.08949,-9.08949 22.4301,-12.4649902 34.74874,-8.79228 12.31864,-3.6727102 25.65925,-0.29721 34.74874,8.79228 z"
     stroke-miterlimit="10"
     font-weight="none"
     font-size="none"
     text-anchor="none"
     style="font-family:none;mix-blend-mode:normal;fill:none;fill-rule:nonzero;stroke:#10ff00;stroke-width:0.1;stroke-linecap:butt;stroke-linejoin:miter;stroke-miterlimit:10;stroke-dasharray:none;stroke-dashoffset:0"
     id="path80"
     inkscape:connector-curvature="0" />
  <path
     d="m 90.505499,19.594164 c 3.33333,3.33333 6.66667,6.66667 10.000001,10 14.05887,14.05887 14.05887,36.85281 0,50.91169 -6.666671,6.66667 -13.333331,13.33333 -20.000001,19.999996 -14.05887,14.05887 -36.85281,14.05887 -50.91169,0 -6.66667,-6.666666 -13.33333,-13.333326 -19.9999999,-19.999996 -14.05887,-14.05887 -14.05887,-36.85281 0,-50.91169 3.3333299,-3.33333 6.6666699,-6.66667 9.9999999,-10 9.27372,-9.27372 22.85696,-12.7704502 35.45584,-9.12739 12.59888,-3.6430602 26.18212,-0.14633 35.45584,9.12739 z"
     stroke-miterlimit="10"
     font-weight="none"
     font-size="none"
     text-anchor="none"
     style="font-family:none;mix-blend-mode:normal;fill:none;fill-rule:nonzero;stroke:#03ff00;stroke-width:0.1;stroke-linecap:butt;stroke-linejoin:miter;stroke-miterlimit:10;stroke-dasharray:none;stroke-dashoffset:0"
     id="path82"
     inkscape:connector-curvature="0" />
  <path
     d="m 91.212609,18.887054 c 3.33333,3.33333 6.66667,6.66667 10.000001,10 14.4494,14.4494 14.4494,37.8765 0,52.3259 -6.666671,6.66667 -13.333331,13.33333 -20.000001,19.999996 -14.4494,14.4494 -37.8765,14.4494 -52.3259,0 -6.66667,-6.666666 -13.33333,-13.333326 -19.9999999,-19.999996 -14.4494,-14.4494 -14.4494,-37.8765 0,-52.3259 3.3333299,-3.33333 6.6666699,-6.66667 9.9999999,-10 9.4582,-9.4582002 23.28483,-13.0751902 36.16295,-9.4600802 12.87813,-3.61511 26.70475,0.00187 36.16295,9.4600802 z"
     stroke-miterlimit="10"
     font-weight="none"
     font-size="none"
     text-anchor="none"
     style="font-family:none;mix-blend-mode:normal;fill:none;fill-rule:nonzero;stroke:#00ff0a;stroke-width:0.1;stroke-linecap:butt;stroke-linejoin:miter;stroke-miterlimit:10;stroke-dasharray:none;stroke-dashoffset:0"
     id="path84"
     inkscape:connector-curvature="0" />
  <path
     d="m 91.919719,18.179944 c 3.33333,3.33333 6.66667,6.66667 10.000001,10 14.83992,14.83992 14.83992,38.90019 0,53.74012 -6.666671,6.66667 -13.333331,13.33333 -20.000001,19.999996 -14.83992,14.83992 -38.90019,14.83992 -53.74012,0 -6.66667,-6.666666 -13.33333,-13.333326 -19.9999999,-19.999996 -14.83992,-14.83992 -14.83992,-38.90019 0,-53.74012 3.3333299,-3.33333 6.6666699,-6.66667 9.9999999,-10 9.64291,-9.6429102 23.7136,-13.3792702 36.87006,-9.7905502 13.15646,-3.58872 27.22715,0.14764 36.87006,9.7905502 z"
     stroke-miterlimit="10"
     font-weight="none"
     font-size="none"
     text-anchor="none"
     style="font-family:none;mix-blend-mode:normal;fill:none;fill-rule:nonzero;stroke:#00ff16;stroke-width:0.1;stroke-linecap:butt;stroke-linejoin:miter;stroke-miterlimit:10;stroke-dasharray:none;stroke-dashoffset:0"
     id="path86"
     inkscape:connector-curvature="0" />
  <path
     d="m 92.626819,17.472844 c 3.33333,3.33333 6.66667,6.66667 10.000001,10 15.23045,15.23045 15.23045,39.92388 0,55.15433 -6.666671,6.66667 -13.333331,13.33333 -20.000001,19.999996 -15.23045,15.23045 -39.92388,15.23045 -55.15433,0 -6.66667,-6.666666 -13.33333,-13.333326 -19.9999999,-19.999996 -15.23045,-15.23045 -15.23045,-39.92388 0,-55.15433 3.3333299,-3.33333 6.6666699,-6.66667 9.9999999,-10 9.82781,-9.8278102 24.14319,-13.6827402 37.57716,-10.1189902 13.43397,-3.56375 27.74935,0.29117 37.57716,10.1189902 z"
     stroke-miterlimit="10"
     font-weight="none"
     font-size="none"
     text-anchor="none"
     style="font-family:none;mix-blend-mode:normal;fill:none;fill-rule:nonzero;stroke:#00ff23;stroke-width:0.1;stroke-linecap:butt;stroke-linejoin:miter;stroke-miterlimit:10;stroke-dasharray:none;stroke-dashoffset:0"
     id="path88"
     inkscape:connector-curvature="0" />
  <path
     d="m 93.333929,16.765734 c 3.33333,3.33333 6.666671,6.66667 10.000001,10 15.62097,15.62097 15.62097,40.94757 0,56.56854 -6.666671,6.66667 -13.333331,13.33333 -20.000001,19.999996 -15.62097,15.62097 -40.94757,15.62097 -56.56854,0 -6.66667,-6.666666 -13.33333,-13.333326 -19.9999999,-19.999996 -15.62097,-15.62097 -15.62097,-40.94757 0,-56.56854 3.3333299,-3.33333 6.6666699,-6.66667 9.9999999,-10 10.0129,-10.0129002 24.57354,-13.9856602 38.28427,-10.4455602 13.71073,-3.5401 28.27137,0.43266 38.28427,10.4455602 z"
     stroke-miterlimit="10"
     font-weight="none"
     font-size="none"
     text-anchor="none"
     style="font-family:none;mix-blend-mode:normal;fill:none;fill-rule:nonzero;stroke:#00ff30;stroke-width:0.1;stroke-linecap:butt;stroke-linejoin:miter;stroke-miterlimit:10;stroke-dasharray:none;stroke-dashoffset:0"
     id="path90"
     inkscape:connector-curvature="0" />
  <path
     d="m 94.041039,16.058624 c 3.33333,3.33333 6.666671,6.66667 10.000001,10 16.0115,16.0115 16.0115,41.97126 0,57.98276 -6.666671,6.66667 -13.333331,13.33333 -20.000001,19.999996 -16.0115,16.0115 -41.97126,16.0115 -57.98276,0 -6.66667,-6.666666 -13.33333,-13.333326 -19.9999999,-19.999996 -16.0115,-16.0115 -16.0115,-41.97126 0,-57.98276 3.33333,-3.33333 6.6666699,-6.66667 9.9999999,-10 10.19816,-10.1981602 25.00456,-14.2880602 38.99138,-10.7704102 13.98681,-3.51765 28.79322,0.57225 38.99138,10.7704102 z"
     stroke-miterlimit="10"
     font-weight="none"
     font-size="none"
     text-anchor="none"
     style="font-family:none;mix-blend-mode:normal;fill:none;fill-rule:nonzero;stroke:#00ff3c;stroke-width:0.1;stroke-linecap:butt;stroke-linejoin:miter;stroke-miterlimit:10;stroke-dasharray:none;stroke-dashoffset:0"
     id="path92"
     inkscape:connector-curvature="0" />
  <path
     d="m 94.748139,15.351524 c 3.33333,3.33333 6.666671,6.66667 10.000001,10 16.40202,16.40202 16.40202,42.99495 0,59.39697 -6.666671,6.66667 -13.333331,13.33333 -20.000001,19.999996 -16.40202,16.40202 -42.99495,16.40202 -59.39697,0 -6.66667,-6.666666 -13.33333,-13.333326 -19.9999999,-19.999996 -16.4020201,-16.40202 -16.4020201,-42.99495 0,-59.39697 3.33333,-3.33333 6.6666699,-6.66667 9.9999999,-10 10.38356,-10.3835602 25.43621,-14.59000018 39.69848,-11.0936702 14.26227,-3.49632998 29.31492,0.71011 39.69848,11.0936702 z"
     stroke-miterlimit="10"
     font-weight="none"
     font-size="none"
     text-anchor="none"
     style="font-family:none;mix-blend-mode:normal;fill:none;fill-rule:nonzero;stroke:#00ff49;stroke-width:0.1;stroke-linecap:butt;stroke-linejoin:miter;stroke-miterlimit:10;stroke-dasharray:none;stroke-dashoffset:0"
     id="path94"
     inkscape:connector-curvature="0" />
  <path
     d="m 95.455249,14.644414 c 3.33333,3.33333 6.666671,6.66667 10.000001,10 16.79254,16.79254 16.79254,44.01864 0,60.81118 -6.666671,6.66667 -13.333331,13.33333 -20.000001,19.999996 -16.79254,16.79254 -44.01864,16.79254 -60.81118,0 -6.66667,-6.666666 -13.33333,-13.333326 -19.9999999,-19.999996 -16.7925401,-16.79254 -16.7925401,-44.01864 0,-60.81118 3.33333,-3.33333 6.6666699,-6.66667 9.9999999,-10 10.5691,-10.5691002 25.86843,-14.89149018 40.40559,-11.4154602 14.53716,-3.47603998 29.83649,0.84636 40.40559,11.4154602 z"
     stroke-miterlimit="10"
     font-weight="none"
     font-size="none"
     text-anchor="none"
     style="font-family:none;mix-blend-mode:normal;fill:none;fill-rule:nonzero;stroke:#00ff56;stroke-width:0.1;stroke-linecap:butt;stroke-linejoin:miter;stroke-miterlimit:10;stroke-dasharray:none;stroke-dashoffset:0"
     id="path96"
     inkscape:connector-curvature="0" />
  <path
     d="m 96.162359,13.937304 c 3.33333,3.33333 6.666671,6.66667 10.000001,10 17.18307,17.18307 17.18307,45.04233 0,62.2254 -6.666671,6.66667 -13.333331,13.33333 -20.000001,19.999996 -17.18307,17.18307 -45.04233,17.18307 -62.2254,0 -6.66667,-6.666666 -13.33333,-13.333326 -19.9999999,-19.999996 -17.1830701,-17.18307 -17.1830701,-45.04233 0,-62.2254 3.33333,-3.33333 6.6666699,-6.66667 9.9999999,-10 10.75476,-10.7547602 26.30118,-15.1925802 41.1127,-11.7358702 14.81152,-3.45671 30.35794,0.98111 41.1127,11.7358702 z"
     stroke-miterlimit="10"
     font-weight="none"
     font-size="none"
     text-anchor="none"
     style="font-family:none;mix-blend-mode:normal;fill:none;fill-rule:nonzero;stroke:#00ff62;stroke-width:0.1;stroke-linecap:butt;stroke-linejoin:miter;stroke-miterlimit:10;stroke-dasharray:none;stroke-dashoffset:0"
     id="path98"
     inkscape:connector-curvature="0" />
  <path
     d="m 96.869469,13.230194 c 3.333331,3.33333 6.666671,6.66667 10.000001,10 17.57359,17.57359 17.57359,46.06602 0,63.63961 -6.66667,6.66667 -13.333331,13.333326 -20.000001,19.999996 -17.57359,17.57359 -46.06602,17.57359 -63.63961,0 -6.66667,-6.66667 -13.3333299,-13.333326 -19.9999999,-19.999996 -17.5735901,-17.57359 -17.5735901,-46.06602 0,-63.63961 3.33333,-3.33333 6.66667,-6.66667 9.9999999,-10 10.94054,-10.9405402 26.73441,-15.4933002 41.81981,-12.0550202 15.08539,-3.43828 30.87927,1.11448 41.81981,12.0550202 z"
     stroke-miterlimit="10"
     font-weight="none"
     font-size="none"
     text-anchor="none"
     style="font-family:none;mix-blend-mode:normal;fill:none;fill-rule:nonzero;stroke:#00ff6f;stroke-width:0.1;stroke-linecap:butt;stroke-linejoin:miter;stroke-miterlimit:10;stroke-dasharray:none;stroke-dashoffset:0"
     id="path100"
     inkscape:connector-curvature="0" />
  <path
     d="m 97.576569,12.523094 c 3.333331,3.33333 6.666671,6.66667 10.000001,10 17.96412,17.96412 17.96412,47.08971 0,65.05382 -6.66667,6.66667 -13.333331,13.333326 -20.000001,19.999996 -17.96412,17.96412 -47.08971,17.96412 -65.05382,0 -6.66667,-6.66667 -13.3333299,-13.333326 -19.9999999,-19.999996 -17.9641201,-17.96412 -17.9641201,-47.08971 0,-65.05382 3.33333,-3.33333 6.66667,-6.66667 9.9999999,-10 C 23.649169,1.3966738 39.690839,-3.2705662 55.049659,0.15011382 70.408479,-3.2705662 86.450149,1.3966738 97.576569,12.523094 Z"
     stroke-miterlimit="10"
     font-weight="none"
     font-size="none"
     text-anchor="none"
     style="font-family:none;mix-blend-mode:normal;fill:none;fill-rule:nonzero;stroke:#00ff7c;stroke-width:0.1;stroke-linecap:butt;stroke-linejoin:miter;stroke-miterlimit:10;stroke-dasharray:none;stroke-dashoffset:0"
     id="path102"
     inkscape:connector-curvature="0" />
  <path
     d="m 98.283679,11.815984 c 3.333331,3.33333 6.666671,6.66667 10.000001,10 18.35464,18.35464 18.35464,48.1134 0,66.46804 -6.66667,6.66667 -13.333331,13.333326 -20.000001,19.999996 -18.35464,18.35464 -48.1134,18.35464 -66.46804,0 -6.66667,-6.66667 -13.3333299,-13.333326 -19.9999999,-19.999996 -18.3546401,-18.35464 -18.3546401,-48.1134 0,-66.46804 3.33333,-3.33333 6.66667,-6.66667 9.9999999,-10 11.31239,-11.31239018 27.60219,-16.0936902 43.23402,-12.68983018 15.63183,-3.40386002 31.92163,1.37744 43.23402,12.68983018 z"
     stroke-miterlimit="10"
     font-weight="none"
     font-size="none"
     text-anchor="none"
     style="font-family:none;mix-blend-mode:normal;fill:none;fill-rule:nonzero;stroke:#00ff88;stroke-width:0.1;stroke-linecap:butt;stroke-linejoin:miter;stroke-miterlimit:10;stroke-dasharray:none;stroke-dashoffset:0"
     id="path104"
     inkscape:connector-curvature="0" />
  <path
     d="m 98.990789,11.108874 c 3.333331,3.33333 6.666671,6.66667 10.000001,10 18.74517,18.74517 18.74517,49.13708 0,67.88225 -6.66667,6.66667 -13.333331,13.333326 -20.000001,19.999996 -18.74517,18.74517 -49.13708,18.74517 -67.88225,0 -6.66667,-6.66667 -13.3333299,-13.333326 -19.9999999,-19.999996 -18.7451701,-18.74517 -18.7451701,-49.13708 0,-67.88225 3.33333,-3.33333 6.66667,-6.66667 9.9999999,-10 11.49846,-11.49846018 28.03666,-16.3934202 43.94113,-13.0056502 15.90447,-3.38776 32.44267,1.50720002 43.94113,13.0056502 z"
     stroke-miterlimit="10"
     font-weight="none"
     font-size="none"
     text-anchor="none"
     style="font-family:none;mix-blend-mode:normal;fill:none;fill-rule:nonzero;stroke:#00ff95;stroke-width:0.1;stroke-linecap:butt;stroke-linejoin:miter;stroke-miterlimit:10;stroke-dasharray:none;stroke-dashoffset:0"
     id="path106"
     inkscape:connector-curvature="0" />
  <path
     d="m 99.697889,10.401774 c 3.333331,3.33333 6.666671,6.66667 10.000001,10 19.13569,19.13569 19.13569,50.16077 0,69.29646 -6.66667,6.66667 -13.333331,13.333326 -20.000001,19.999996 -19.13569,19.13569 -50.16077,19.13569 -69.29646,0 -6.66667,-6.66667 -13.3333299,-13.333326 -19.99999988,-19.999996 -19.13569012,-19.13569 -19.13569012,-50.16077 0,-69.29646 3.33332998,-3.33333 6.66666998,-6.66667 9.99999988,-10 11.6846,-11.6846002 28.47149,-16.6928602 44.64823,-13.3205102 16.17674,-3.37235 32.96363,1.63591 44.64823,13.3205102 z"
     stroke-miterlimit="10"
     font-weight="none"
     font-size="none"
     text-anchor="none"
     style="font-family:none;mix-blend-mode:normal;fill:none;fill-rule:nonzero;stroke:#00ffa2;stroke-width:0.1;stroke-linecap:butt;stroke-linejoin:miter;stroke-miterlimit:10;stroke-dasharray:none;stroke-dashoffset:0"
     id="path108"
     inkscape:connector-curvature="0" />
  <path
     d="m 100.405,9.6946638 c 3.33333,3.3333302 6.66667,6.6666702 10,10.0000002 19.52621,19.52621 19.52621,51.18446 0,70.71068 -6.66667,6.66667 -13.333331,13.333326 -20.000001,19.999996 -19.52621,19.52621 -51.18446,19.52621 -70.71068,0 -6.66667,-6.66667 -13.3333299,-13.333326 -19.99999988,-19.999996 -19.52621012,-19.52621 -19.52621012,-51.18446 0,-70.71068 3.33332998,-3.33333 6.66666998,-6.66667 9.99999998,-10.0000002 11.8708199,-11.87082 28.9066499,-16.99203 45.3553399,-13.63446 16.44869,-3.35757 33.48452,1.76364 45.355341,13.63446 z"
     stroke-miterlimit="10"
     font-weight="none"
     font-size="none"
     text-anchor="none"
     style="font-family:none;mix-blend-mode:normal;fill:none;fill-rule:nonzero;stroke:#00ffae;stroke-width:0.1;stroke-linecap:butt;stroke-linejoin:miter;stroke-miterlimit:10;stroke-dasharray:none;stroke-dashoffset:0"
     id="path110"
     inkscape:connector-curvature="0" />
  <path
     d="m 101.11211,8.9875538 c 3.33333,3.3333302 6.66667,6.6666702 10,10.0000002 19.91674,19.91674 19.91674,52.20815 0,72.12489 -6.66667,6.66667 -13.333331,13.333326 -20.000001,19.999996 -19.91674,19.91674 -52.20815,19.91674 -72.12489,0 -6.66667,-6.66667 -13.3333299,-13.333326 -19.9999999,-19.999996 -19.9167401,-19.91674 -19.9167401,-52.20815 0,-72.12489 3.33333,-3.33333 6.66667,-6.66667 10,-10.0000002 12.0570999,-12.0571 29.3421199,-17.29095 46.0624499,-13.94755 16.72032,-3.3434 34.00534,1.89045 46.062451,13.94755 z"
     stroke-miterlimit="10"
     font-weight="none"
     font-size="none"
     text-anchor="none"
     style="font-family:none;mix-blend-mode:normal;fill:none;fill-rule:nonzero;stroke:#00ffbb;stroke-width:0.1;stroke-linecap:butt;stroke-linejoin:miter;stroke-miterlimit:10;stroke-dasharray:none;stroke-dashoffset:0"
     id="path112"
     inkscape:connector-curvature="0" />
  <path
     d="m 101.81921,8.2804538 c 3.33333,3.3333302 6.66667,6.6666702 10,10.0000002 20.30726,20.30726 20.30726,53.23184 0,73.53911 -6.66667,6.66667 -13.333331,13.333326 -20.000001,19.999996 -20.30726,20.30726 -53.23184,20.30726 -73.53911,0 -6.66667,-6.66667 -13.3333299,-13.333326 -19.9999999,-19.999996 -20.3072601,-20.30726 -20.3072601,-53.23184 0,-73.53911 3.33333,-3.33333 6.66667,-6.66667 10,-10.0000002 12.2434499,-12.24345 29.7778799,-17.58963 46.7695499,-14.25985 16.99167,-3.32978 34.5261,2.0164 46.769551,14.25985 z"
     stroke-miterlimit="10"
     font-weight="none"
     font-size="none"
     text-anchor="none"
     style="font-family:none;mix-blend-mode:normal;fill:none;fill-rule:nonzero;stroke:#00ffc8;stroke-width:0.1;stroke-linecap:butt;stroke-linejoin:miter;stroke-miterlimit:10;stroke-dasharray:none;stroke-dashoffset:0"
     id="path114"
     inkscape:connector-curvature="0" />
  <path
     d="m 102.52632,7.5733438 c 3.33333,3.3333302 6.66667,6.6666702 10,10.0000002 20.69779,20.69779 20.69779,54.25553 0,74.95332 -6.66667,6.66667 -13.333331,13.333326 -20.000001,19.999996 -20.69779,20.69779 -54.25553,20.69779 -74.95332,0 -6.66667,-6.66667 -13.3333299,-13.333326 -19.9999999,-19.999996 -20.6977901,-20.69779 -20.6977901,-54.25553 0,-74.95332 3.33333002,-3.33333 6.66667,-6.66667 10,-10.0000002 12.4298599,-12.42986 30.2139099,-17.8880898 47.4766599,-14.5714 17.26275,-3.3166898 35.0468,2.14153 47.476661,14.5714 z"
     stroke-miterlimit="10"
     font-weight="none"
     font-size="none"
     text-anchor="none"
     style="font-family:none;mix-blend-mode:normal;fill:none;fill-rule:nonzero;stroke:#00ffd4;stroke-width:0.1;stroke-linecap:butt;stroke-linejoin:miter;stroke-miterlimit:10;stroke-dasharray:none;stroke-dashoffset:0"
     id="path116"
     inkscape:connector-curvature="0" />
  <path
     d="m 103.23343,6.8662338 c 3.33333,3.3333302 6.66667,6.6666702 10,10.0000002 21.08831,21.08831 21.08831,55.27922 0,76.36753 -6.66667,6.66667 -13.333331,13.333326 -20.000001,19.999996 -21.08831,21.08831 -55.27922,21.08831 -76.36753,0 -6.66667,-6.66667 -13.3333299,-13.333326 -19.9999999,-19.999996 -21.0883101,-21.08831 -21.0883101,-55.27922 0,-76.36753 3.33333002,-3.33333 6.66667,-6.66667 10,-10.0000002 12.6163299,-12.61633 30.6501899,-18.1863398 48.1837699,-14.88223 17.53358,-3.3041098 35.56744,2.2659 48.183771,14.88223 z"
     stroke-miterlimit="10"
     font-weight="none"
     font-size="none"
     text-anchor="none"
     style="font-family:none;mix-blend-mode:normal;fill:none;fill-rule:nonzero;stroke:#00ffe1;stroke-width:0.1;stroke-linecap:butt;stroke-linejoin:miter;stroke-miterlimit:10;stroke-dasharray:none;stroke-dashoffset:0"
     id="path118"
     inkscape:connector-curvature="0" />
  <path
     d="m 103.94053,6.1591338 c 3.33333,3.33333 6.66667,6.6666702 10,10.0000002 21.47884,21.47884 21.47884,56.30291 0,77.78175 -6.66667,6.666666 -13.33333,13.333326 -20.000001,19.999996 -21.47884,21.47884 -56.30291,21.47884 -77.78175,0 -6.6666699,-6.66667 -13.3333299,-13.33333 -19.9999999,-19.999996 -21.4788401,-21.47884 -21.4788401,-56.30291 0,-77.78175 3.33333002,-3.33333 6.66667,-6.6666702 10,-10.0000002 12.8028399,-12.80284 31.0866999,-18.4843898 48.8908699,-15.1924 17.80417,-3.2919898 36.08803,2.38955 48.890871,15.1924 z"
     stroke-miterlimit="10"
     font-weight="none"
     font-size="none"
     text-anchor="none"
     style="font-family:none;mix-blend-mode:normal;fill:none;fill-rule:nonzero;stroke:#00ffee;stroke-width:0.1;stroke-linecap:butt;stroke-linejoin:miter;stroke-miterlimit:10;stroke-dasharray:none;stroke-dashoffset:0"
     id="path120"
     inkscape:connector-curvature="0" />
  <path
     d="m 104.64764,5.4520238 c 3.33333,3.33333 6.66667,6.6666702 10,10.0000002 21.86936,21.86936 21.86936,57.3266 0,79.19596 -6.66667,6.666666 -13.33333,13.333326 -20.000001,19.999996 -21.86936,21.86936 -57.3266,21.86936 -79.19596,0 -6.6666699,-6.66667 -13.3333299,-13.33333 -19.9999999,-19.999996 -21.8693601,-21.86936 -21.8693601,-57.3266 0,-79.19596 3.33333,-3.33333 6.66667,-6.6666702 10,-10.0000002 12.9894099,-12.98941 31.5234399,-18.7822498 49.5979799,-15.5019298 18.07454,-3.28032 36.60857,2.5125198 49.597981,15.5019298 z"
     stroke-miterlimit="10"
     font-weight="none"
     font-size="none"
     text-anchor="none"
     style="font-family:none;mix-blend-mode:normal;fill:none;fill-rule:nonzero;stroke:#00fffa;stroke-width:0.1;stroke-linecap:butt;stroke-linejoin:miter;stroke-miterlimit:10;stroke-dasharray:none;stroke-dashoffset:0"
     id="path122"
     inkscape:connector-curvature="0" />
  <path
     d="m 105.35475,4.7449138 c 3.33333,3.33333 6.66667,6.6666702 10,10.0000002 22.25988,22.25988 22.25988,58.35029 0,80.61017 -6.66667,6.666666 -13.33333,13.333326 -20.000001,19.999996 -22.25988,22.25988 -58.35029,22.25988 -80.61017,0 -6.6666699,-6.66667 -13.3333299,-13.33333 -19.9999999,-19.999996 -22.2598801,-22.25988 -22.2598801,-58.35029 0,-80.61017 3.33333,-3.33333 6.66667,-6.6666702 10,-10.0000002 13.1760199,-13.17602 31.9603899,-19.0799398 50.3050899,-15.8108598 18.3447,-3.26907 37.12907,2.6348498 50.305091,15.8108598 z"
     stroke-miterlimit="10"
     font-weight="none"
     font-size="none"
     text-anchor="none"
     style="font-family:none;mix-blend-mode:normal;fill:none;fill-rule:nonzero;stroke:#00f7ff;stroke-width:0.1;stroke-linecap:butt;stroke-linejoin:miter;stroke-miterlimit:10;stroke-dasharray:none;stroke-dashoffset:0"
     id="path124"
     inkscape:connector-curvature="0" />
  <path
     d="m 106.06185,4.0378138 c 3.33333,3.33333 6.66667,6.6666702 10,10.0000002 22.65041,22.65041 22.65041,59.37398 0,82.02439 -6.66667,6.666666 -13.33333,13.333326 -20.000001,19.999996 -22.65041,22.65041 -59.37398,22.65041 -82.02439,0 -6.6666699,-6.66667 -13.33332988,-13.33333 -19.9999999,-19.999996 -22.6504101,-22.65041 -22.6504101,-59.37398 0,-82.02439 3.33333,-3.33333 6.66667002,-6.6666702 10,-10.0000002 13.3626699,-13.36267 32.3975299,-19.3774498 51.0121899,-16.1192298 18.61467,-3.25822 37.64952,2.7565698 51.012191,16.1192298 z"
     stroke-miterlimit="10"
     font-weight="none"
     font-size="none"
     text-anchor="none"
     style="font-family:none;mix-blend-mode:normal;fill:none;fill-rule:nonzero;stroke:#00eaff;stroke-width:0.1;stroke-linecap:butt;stroke-linejoin:miter;stroke-miterlimit:10;stroke-dasharray:none;stroke-dashoffset:0"
     id="path126"
     inkscape:connector-curvature="0" />
  <path
     d="m 106.76896,3.3307038 c 3.33333,3.33333 6.66667,6.66667 10,10.0000002 23.04093,23.04093 23.04093,60.39767 0,83.4386 -6.66667,6.666666 -13.33333,13.333326 -20.000001,19.999996 -23.04093,23.04093 -60.39767,23.04093 -83.4386,0 -6.6666699,-6.66667 -13.33332988,-13.33333 -19.9999999,-19.999996 -23.0409301,-23.04093 -23.0409301,-60.39767 0,-83.4386 3.33333,-3.3333302 6.66667002,-6.6666702 10,-10.0000002 C 16.879719,-10.218656 36.165209,-16.344106 55.049659,-13.096366 c 18.88445,-3.24774 38.16994,2.87771 51.719301,16.4270698 z"
     stroke-miterlimit="10"
     font-weight="none"
     font-size="none"
     text-anchor="none"
     style="font-family:none;mix-blend-mode:normal;fill:none;fill-rule:nonzero;stroke:#00deff;stroke-width:0.1;stroke-linecap:butt;stroke-linejoin:miter;stroke-miterlimit:10;stroke-dasharray:none;stroke-dashoffset:0"
     id="path128"
     inkscape:connector-curvature="0" />
  <path
     d="m 107.47607,2.6235938 c 3.33333,3.33333 6.66667,6.66667 10,10.0000002 23.43146,23.43146 23.43146,61.42136 0,84.85281 -6.66667,6.666666 -13.33333,13.333326 -20.000001,19.999996 -23.43146,23.43146 -61.42136,23.43146 -84.85281,0 -6.6666699,-6.66667 -13.33332988,-13.33333 -19.9999999,-19.999996 -23.4314601,-23.43146 -23.4314601,-61.42136 0,-84.85281 3.33333,-3.3333302 6.66667002,-6.6666702 10,-10.0000002 C 16.359349,-11.112496 35.895609,-17.348426 55.049669,-14.110796 c 19.15406,-3.23763 38.69032,2.99831 52.426411,16.7343898 z"
     stroke-miterlimit="10"
     font-weight="none"
     font-size="none"
     text-anchor="none"
     style="font-family:none;mix-blend-mode:normal;fill:none;fill-rule:nonzero;stroke:#00d1ff;stroke-width:0.1;stroke-linecap:butt;stroke-linejoin:miter;stroke-miterlimit:10;stroke-dasharray:none;stroke-dashoffset:0"
     id="path130"
     inkscape:connector-curvature="0" />
  <path
     d="m 108.18317,1.9164938 c 3.33333,3.33333 6.66667,6.66667 10,10.0000002 23.82198,23.82198 23.82198,62.44505 0,86.26703 -6.66667,6.666666 -13.33333,13.333326 -20.000001,19.999996 -23.82198,23.82198 -62.44505,23.82198 -86.26703,0 -6.6666699,-6.66667 -13.3333299,-13.33333 -19.9999999,-19.999996 -23.8219801,-23.82198 -23.8219801,-62.44505 0,-86.26703 3.33333,-3.3333302 6.66667,-6.6666702 10,-10.0000002 C 15.838989,-12.006356 35.626149,-18.352586 55.049649,-15.124736 c 19.4235,-3.22785 39.21067,3.11838 53.133511,17.0412298 z"
     stroke-miterlimit="10"
     font-weight="none"
     font-size="none"
     text-anchor="none"
     style="font-family:none;mix-blend-mode:normal;fill:none;fill-rule:nonzero;stroke:#00c4ff;stroke-width:0.1;stroke-linecap:butt;stroke-linejoin:miter;stroke-miterlimit:10;stroke-dasharray:none;stroke-dashoffset:0"
     id="path132"
     inkscape:connector-curvature="0" />
  <path
     d="m 108.89028,1.2093838 c 3.33333,3.33333 6.66667,6.66667 10,10.0000002 24.21251,24.21251 24.21251,63.46873 0,87.68124 -6.66667,6.666666 -13.33333,13.333326 -20.000001,19.999996 -24.21251,24.21251 -63.46873,24.21251 -87.68124,0 -6.6666699,-6.66667 -13.3333299,-13.33333 -19.9999999,-19.999996 -24.2125101,-24.21251 -24.2125101,-63.46873 0,-87.68124 3.33333,-3.3333302 6.66667,-6.6666702 10,-10.0000002 C 15.318679,-12.900256 35.356869,-19.356626 55.049659,-16.138226 c 19.69279,-3.21839 39.73098,3.23797 53.840621,17.3476098 z"
     stroke-miterlimit="10"
     font-weight="none"
     font-size="none"
     text-anchor="none"
     style="font-family:none;mix-blend-mode:normal;fill:none;fill-rule:nonzero;stroke:#00b8ff;stroke-width:0.1;stroke-linecap:butt;stroke-linejoin:miter;stroke-miterlimit:10;stroke-dasharray:none;stroke-dashoffset:0"
     id="path134"
     inkscape:connector-curvature="0" />
  <path
     d="m 109.59739,0.50227382 c 3.33333,3.33332998 6.66667,6.66666998 10,10.00000018 24.60303,24.60303 24.60303,64.49242 0,89.09545 -6.66667,6.666666 -13.33333,13.333326 -20.000001,19.999996 -24.60303,24.60303 -64.49242,24.60303 -89.09545,0 -6.6666699,-6.66667 -13.3333299,-13.33333 -19.9999999,-19.999996 -24.6030301,-24.60303 -24.6030301,-64.49242 0,-89.09545 3.33333,-3.3333302 6.66667,-6.6666702 10.00000002,-10.00000018 C 14.798409,-13.794196 35.087739,-20.360536 55.049669,-17.151286 c 19.96193,-3.20925 40.25126,3.35709 54.547731,17.65355982 z"
     stroke-miterlimit="10"
     font-weight="none"
     font-size="none"
     text-anchor="none"
     style="font-family:none;mix-blend-mode:normal;fill:none;fill-rule:nonzero;stroke:#00abff;stroke-width:0.1;stroke-linecap:butt;stroke-linejoin:miter;stroke-miterlimit:10;stroke-dasharray:none;stroke-dashoffset:0"
     id="path136"
     inkscape:connector-curvature="0" />
  <path
     d="m 110.30449,-0.20482618 c 3.33333,3.33332998 6.66667,6.66666998 10,9.99999998 24.99355,24.9935502 24.99355,65.5161102 0,90.5096662 -6.66667,6.66667 -13.33333,13.33333 -20,20 -24.993551,24.99355 -65.516111,24.99355 -90.5096709,0 -6.66667,-6.66667 -13.33333,-13.33333 -20.0000001,-20 -24.99355,-24.993546 -24.99355,-65.516106 0,-90.5096662 3.3333301,-3.33333 6.6666701,-6.66667 10.00000012,-9.99999998 C 14.278139,-14.688146 34.818719,-21.364306 55.049649,-18.163916 c 20.23093,-3.20039 40.77151,3.47577 55.254831,17.95908982 z"
     stroke-miterlimit="10"
     font-weight="none"
     font-size="none"
     text-anchor="none"
     style="font-family:none;mix-blend-mode:normal;fill:none;fill-rule:nonzero;stroke:#009eff;stroke-width:0.1;stroke-linecap:butt;stroke-linejoin:miter;stroke-miterlimit:10;stroke-dasharray:none;stroke-dashoffset:0"
     id="path138"
     inkscape:connector-curvature="0" />
  <path
     d="m 111.0116,-0.91193618 c 3.33333,3.33332998 6.66667,6.66666998 10,9.99999998 25.38408,25.3840802 25.38408,66.5398002 0,91.9238762 -6.66667,6.66667 -13.33333,13.33333 -20,20 -25.384081,25.38408 -66.539801,25.38408 -91.9238809,0 -6.66667,-6.66667 -13.33333,-13.33333 -20.0000001,-20 -25.38408,-25.384076 -25.38408,-66.539796 0,-91.9238762 3.3333301,-3.33333 6.6666701,-6.66667 10.00000012,-9.99999998 C 13.757919,-15.582136 34.549859,-22.367976 55.049659,-19.176156 c 20.4998,-3.19181 41.29174,3.59402 55.961941,18.26421982 z"
     stroke-miterlimit="10"
     font-weight="none"
     font-size="none"
     text-anchor="none"
     style="font-family:none;mix-blend-mode:normal;fill:none;fill-rule:nonzero;stroke:#0092ff;stroke-width:0.1;stroke-linecap:butt;stroke-linejoin:miter;stroke-miterlimit:10;stroke-dasharray:none;stroke-dashoffset:0"
     id="path140"
     inkscape:connector-curvature="0" />
  <path
     d="m 111.71871,-1.6190462 c 3.33333,3.33333 6.66667,6.66667 10,10 25.7746,25.7746002 25.7746,67.5634902 0,93.3380962 -6.66667,6.66667 -13.33333,13.33333 -20,20 -25.774601,25.7746 -67.563491,25.7746 -93.3381009,0 -6.66667,-6.66667 -13.33333,-13.33333 -20.0000001,-20 -25.7746,-25.774596 -25.7746,-67.563486 0,-93.3380962 3.3333301,-3.33333 6.6666701,-6.66667 10.0000001,-10 C 13.237719,-16.476156 34.281109,-23.371526 55.049659,-20.188026 c 20.76855,-3.1835 41.81194,3.71187 56.669051,18.5689798 z"
     stroke-miterlimit="10"
     font-weight="none"
     font-size="none"
     text-anchor="none"
     style="font-family:none;mix-blend-mode:normal;fill:none;fill-rule:nonzero;stroke:#0085ff;stroke-width:0.1;stroke-linecap:butt;stroke-linejoin:miter;stroke-miterlimit:10;stroke-dasharray:none;stroke-dashoffset:0"
     id="path142"
     inkscape:connector-curvature="0" />
  <path
     d="m 112.42581,-2.3261462 c 3.33333,3.33333 6.66667,6.66667 10,10 26.16513,26.1651302 26.16513,68.5871802 0,94.7523062 -6.66667,6.66667 -13.33333,13.33333 -20,20 -26.165131,26.16513 -68.587181,26.16513 -94.7523109,0 -6.66667,-6.66667 -13.33333,-13.33333 -20.0000001,-20 -26.16513,-26.165126 -26.16513,-68.587176 0,-94.7523062 3.3333301,-3.33333 6.6666701,-6.66667 10.0000001,-10 C 12.717539,-17.370186 34.012479,-24.374966 55.049649,-21.199516 c 21.03717,-3.17544 42.33212,3.82934 57.376151,18.8733698 z"
     stroke-miterlimit="10"
     font-weight="none"
     font-size="none"
     text-anchor="none"
     style="font-family:none;mix-blend-mode:normal;fill:none;fill-rule:nonzero;stroke:#0078ff;stroke-width:0.1;stroke-linecap:butt;stroke-linejoin:miter;stroke-miterlimit:10;stroke-dasharray:none;stroke-dashoffset:0"
     id="path144"
     inkscape:connector-curvature="0" />
  <path
     d="m 113.13292,-3.0332562 c 3.33333,3.33333002 6.66667,6.66667 10,10 26.55565,26.5556502 26.55565,69.6108702 0,96.1665162 -6.66667,6.66667 -13.33333,13.33333 -20,20 -26.555651,26.55565 -69.610871,26.55565 -96.1665209,0 -6.66666998,-6.66667 -13.33333,-13.33333 -20.0000001,-20 -26.55565,-26.555646 -26.55565,-69.610866 0,-96.1665162 3.3333301,-3.33333 6.6666701,-6.66666998 10.0000001,-10 C 12.197389,-18.264246 33.743979,-25.378306 55.049659,-22.210686 c 21.30569,-3.16763 42.85227,3.94644 58.083261,19.1774298 z"
     stroke-miterlimit="10"
     font-weight="none"
     font-size="none"
     text-anchor="none"
     style="font-family:none;mix-blend-mode:normal;fill:none;fill-rule:nonzero;stroke:#006cff;stroke-width:0.1;stroke-linecap:butt;stroke-linejoin:miter;stroke-miterlimit:10;stroke-dasharray:none;stroke-dashoffset:0"
     id="path146"
     inkscape:connector-curvature="0" />
  <path
     d="m 113.84003,-3.7403662 c 3.33333,3.33333002 6.66667,6.66667 10,10 26.94618,26.9461802 26.94618,70.6345602 0,97.5807362 -6.66667,6.66667 -13.33333,13.33333 -20,20 -26.946181,26.94618 -70.634561,26.94618 -97.5807409,0 -6.66666998,-6.66667 -13.33333,-13.33333 -20.0000001,-20 -26.94618,-26.946176 -26.94618,-70.634556 0,-97.5807362 3.33333,-3.33333 6.6666701,-6.66666998 10.0000001,-10 C 11.677249,-19.158326 33.475569,-26.381556 55.049659,-23.221516 c 21.57409,-3.16004 43.3724,4.06318 58.790371,19.4811498 z"
     stroke-miterlimit="10"
     font-weight="none"
     font-size="none"
     text-anchor="none"
     style="font-family:none;mix-blend-mode:normal;fill:none;fill-rule:nonzero;stroke:#005fff;stroke-width:0.1;stroke-linecap:butt;stroke-linejoin:miter;stroke-miterlimit:10;stroke-dasharray:none;stroke-dashoffset:0"
     id="path148"
     inkscape:connector-curvature="0" />
  <path
     d="m 114.54713,-4.4474662 c 3.33333,3.33333 6.66667,6.66667 10,10 27.3367,27.3367002 27.3367,71.6582502 0,98.9949462 -6.66667,6.66667 -13.33333,13.33333 -20,20 -27.336701,27.3367 -71.658251,27.3367 -98.9949509,0 -6.66667,-6.66667 -13.33333,-13.33333 -20.0000001,-20 -27.3367,-27.336696 -27.3367,-71.658246 0,-98.9949462 3.33333,-3.33333 6.6666701,-6.66667 10.0000001,-10 C 11.157139,-20.052426 33.207259,-27.384706 55.049649,-24.232026 c 21.84239,-3.15268 43.89251,4.1796 59.497471,19.7845598 z"
     stroke-miterlimit="10"
     font-weight="none"
     font-size="none"
     text-anchor="none"
     style="font-family:none;mix-blend-mode:normal;fill:none;fill-rule:nonzero;stroke:#0052ff;stroke-width:0.1;stroke-linecap:butt;stroke-linejoin:miter;stroke-miterlimit:10;stroke-dasharray:none;stroke-dashoffset:0"
     id="path150"
     inkscape:connector-curvature="0" />
  <path
     d="m 115.25424,-5.1545762 c 3.33333,3.33333 6.66667,6.66667 10,10 27.72722,27.7272202 27.72722,72.6819402 0,100.4091562 -6.66667,6.66667 -13.33333,13.33333 -20,20 -27.727221,27.72722 -72.681941,27.72722 -100.4091609,0 -6.66667,-6.66667 -13.33333,-13.33333 -20.0000001,-20 -27.72722,-27.727216 -27.72722,-72.681936 0,-100.4091562 3.33333,-3.33333 6.6666701,-6.66667 10.0000001,-10 C 10.637049,-20.946546 32.939059,-28.387766 55.049659,-25.242246 c 22.1106,-3.14552 44.41261,4.29569 60.204581,20.0876698 z"
     stroke-miterlimit="10"
     font-weight="none"
     font-size="none"
     text-anchor="none"
     style="font-family:none;mix-blend-mode:normal;fill:none;fill-rule:nonzero;stroke:#0046ff;stroke-width:0.1;stroke-linecap:butt;stroke-linejoin:miter;stroke-miterlimit:10;stroke-dasharray:none;stroke-dashoffset:0"
     id="path152"
     inkscape:connector-curvature="0" />
  <path
     d="m 115.96135,-5.8616862 c 3.33333,3.33333 6.66667,6.66667002 10,10 28.11775,28.1177502 28.11775,73.7056302 0,101.8233762 -6.66667,6.66667 -13.33333,13.33333 -20,20 -28.117751,28.11775 -73.705631,28.11775 -101.8233809,0 -6.66667,-6.66667 -13.33333,-13.33333 -20.0000001,-20 -28.11775,-28.117746 -28.11775,-73.705626 0,-101.8233762 3.33333,-3.33332998 6.6666701,-6.66667 10.0000001,-10 C 10.116979,-21.840696 32.670949,-29.390746 55.049659,-26.252176 c 22.37871,-3.13857 44.93268,4.41148 60.911691,20.3904898 z"
     stroke-miterlimit="10"
     font-weight="none"
     font-size="none"
     text-anchor="none"
     style="font-family:none;mix-blend-mode:normal;fill:none;fill-rule:nonzero;stroke:#0039ff;stroke-width:0.1;stroke-linecap:butt;stroke-linejoin:miter;stroke-miterlimit:10;stroke-dasharray:none;stroke-dashoffset:0"
     id="path154"
     inkscape:connector-curvature="0" />
  <path
     d="m 116.66846,-6.5687962 c 3.33333,3.33333 6.66667,6.66667002 10,10 28.50827,28.5082702 28.50827,74.7293202 0,103.2375862 -6.66667,6.66667 -13.33333,13.33333 -20,20 -28.508271,28.50827 -74.729321,28.50827 -103.2375909,0 -6.66667,-6.66667 -13.33333,-13.33333 -20.0000001,-20 -28.50827,-28.508266 -28.50827,-74.729316 0,-103.2375862 3.33333,-3.33332998 6.6666701,-6.66667 10.0000001,-10 16.16606,-16.1660598 38.9720599,-23.8248498 61.6187999,-20.6930298 22.64674,-3.13182 45.452741,4.52697 61.618801,20.6930298 z"
     stroke-miterlimit="10"
     font-weight="none"
     font-size="none"
     text-anchor="none"
     style="font-family:none;mix-blend-mode:normal;fill:none;fill-rule:nonzero;stroke:#002cff;stroke-width:0.1;stroke-linecap:butt;stroke-linejoin:miter;stroke-miterlimit:10;stroke-dasharray:none;stroke-dashoffset:0"
     id="path156"
     inkscape:connector-curvature="0" />
  <path
     d="m 117.37556,-7.2758962 c 3.33333,3.33333 6.66667,6.66667002 10,10 28.8988,28.8988002 28.8988,75.7530102 0,104.6517962 -6.66667,6.66667 -13.33333,13.33333 -20,20 -28.898801,28.8988 -75.753011,28.8988 -104.6518009,0 -6.66667,-6.66667 -13.3333301,-13.33333 -20.0000001,-20 -28.8988,-28.898796 -28.8988,-75.753006 0,-104.6517962 3.33333,-3.33332998 6.66667,-6.66667 10.0000001,-10 16.35313,-16.3531298 39.4112299,-24.1205498 62.3258999,-20.9953098 22.91467,-3.12524 45.972781,4.64218 62.325901,20.9953098 z"
     stroke-miterlimit="10"
     font-weight="none"
     font-size="none"
     text-anchor="none"
     style="font-family:none;mix-blend-mode:normal;fill:none;fill-rule:nonzero;stroke:#0020ff;stroke-width:0.1;stroke-linecap:butt;stroke-linejoin:miter;stroke-miterlimit:10;stroke-dasharray:none;stroke-dashoffset:0"
     id="path158"
     inkscape:connector-curvature="0" />
  <path
     d="m 118.08267,-7.9830062 c 3.33333,3.33333 6.66667,6.66667 10,10 29.28932,29.2893202 29.28932,76.7767002 0,106.0660162 -6.66667,6.66667 -13.33333,13.33333 -20,20 -29.289321,29.28932 -76.776701,29.28932 -106.0660209,0 -6.66667,-6.66667 -13.3333301,-13.33333 -20.0000001,-20 -29.28932,-29.289316 -29.28932,-76.776696 0,-106.0660162 3.33333,-3.33333 6.66667,-6.66667 10.0000001,-10 16.54021,-16.5402098 39.8504799,-24.4161898 63.0330099,-21.2973398 23.18253,-3.11885 46.492801,4.75713 63.033011,21.2973398 z"
     stroke-miterlimit="10"
     font-weight="none"
     font-size="none"
     text-anchor="none"
     style="font-family:none;mix-blend-mode:normal;fill:none;fill-rule:nonzero;stroke:#0013ff;stroke-width:0.1;stroke-linecap:butt;stroke-linejoin:miter;stroke-miterlimit:10;stroke-dasharray:none;stroke-dashoffset:0"
     id="path160"
     inkscape:connector-curvature="0" />
  <path
     d="m 118.78978,-8.6901162 c 3.33333,3.33333 6.66667,6.66667 10,10 29.67985,29.6798502 29.67985,77.8003802 0,107.4802262 -6.66667,6.66667 -13.33333,13.33333 -20,20 -29.679851,29.67985 -77.800381,29.67985 -107.4802309,0 -6.66667,-6.66667 -13.3333301,-13.33333 -20.0000001,-20 -29.67985,-29.679846 -29.67985,-77.800376 0,-107.4802262 3.33333,-3.33333 6.66667,-6.66667 10.0000001,-10 16.72731,-16.7273098 40.2897999,-24.7117498 63.7401199,-21.5991198 23.45031,-3.11263 47.012811,4.87181 63.740121,21.5991198 z"
     stroke-miterlimit="10"
     font-weight="none"
     font-size="none"
     text-anchor="none"
     style="font-family:none;mix-blend-mode:normal;fill:none;fill-rule:nonzero;stroke:#0006ff;stroke-width:0.1;stroke-linecap:butt;stroke-linejoin:miter;stroke-miterlimit:10;stroke-dasharray:none;stroke-dashoffset:0"
     id="path162"
     inkscape:connector-curvature="0" />
  <path
     d="m 119.49688,-9.3972162 c 3.33333,3.33333 6.66667,6.66667 10,10.00000002 30.07037,30.07037018 30.07037,78.82407018 0,108.89443618 -6.66667,6.66667 -13.33333,13.33333 -20,20 -30.070371,30.07037 -78.824071,30.07037 -108.89444088,0 -6.66667002,-6.66667 -13.33333012,-13.33333 -20.00000012,-20 -30.07037,-30.070366 -30.07037,-78.824066 0,-108.89443618 3.33333,-3.33333002 6.66667,-6.66667002 10.0000001,-10.00000002 16.91442,-16.9144198 40.7291999,-25.0072398 64.4472199,-21.9006698 23.71802,-3.10657 47.532801,4.98625 64.447221,21.9006698 z"
     stroke-miterlimit="10"
     font-weight="none"
     font-size="none"
     text-anchor="none"
     style="font-family:none;mix-blend-mode:normal;fill:none;fill-rule:nonzero;stroke:#0600ff;stroke-width:0.1;stroke-linecap:butt;stroke-linejoin:miter;stroke-miterlimit:10;stroke-dasharray:none;stroke-dashoffset:0"
     id="path164"
     inkscape:connector-curvature="0" />
  <path
     d="m 120.20399,-10.104326 c 3.33333,3.3333298 6.66667,6.6666698 10,9.99999982 30.46089,30.46089018 30.46089,79.84776018 0,110.30865618 -6.66667,6.66667 -13.33333,13.33333 -20,20 -30.460891,30.46089 -79.847761,30.46089 -110.30866088,0 -6.66667002,-6.66667 -13.33333012,-13.33333 -20.00000012,-20 -30.46089,-30.460886 -30.46089,-79.847756 0,-110.30865618 3.33333,-3.33333002 6.66667,-6.66667002 10,-9.99999982 17.1015501,-17.10155 41.16867,-25.30266 65.15433,-22.20199 23.98566,-3.10067 48.052781,5.10044 65.154331,22.20199 z"
     stroke-miterlimit="10"
     font-weight="none"
     font-size="none"
     text-anchor="none"
     style="font-family:none;mix-blend-mode:normal;fill:none;fill-rule:nonzero;stroke:#1300ff;stroke-width:0.1;stroke-linecap:butt;stroke-linejoin:miter;stroke-miterlimit:10;stroke-dasharray:none;stroke-dashoffset:0"
     id="path166"
     inkscape:connector-curvature="0" />
  <path
     d="m 120.9111,-10.811436 c 3.33333,3.3333298 6.66667,6.6666698 10,9.99999982 30.85142,30.85142018 30.85142,80.87145018 0,111.72286618 -6.66667,6.66667 -13.33333,13.33333 -20,20 -30.851421,30.85142 -80.871451,30.85142 -111.72287088,0 -6.66667002,-6.66667 -13.33333012,-13.33333 -20.00000012,-20 -30.85142,-30.851416 -30.85142,-80.871446 0,-111.72286618 3.33333,-3.33333002 6.66667,-6.66667002 10,-9.99999982 17.2886901,-17.28869 41.60821,-25.59802 65.86144,-22.5031 24.25322,-3.09492 48.572751,5.21441 65.861441,22.5031 z"
     stroke-miterlimit="10"
     font-weight="none"
     font-size="none"
     text-anchor="none"
     style="font-family:none;mix-blend-mode:normal;fill:none;fill-rule:nonzero;stroke:#2000ff;stroke-width:0.1;stroke-linecap:butt;stroke-linejoin:miter;stroke-miterlimit:10;stroke-dasharray:none;stroke-dashoffset:0"
     id="path168"
     inkscape:connector-curvature="0" />
  <path
     d="m 121.6182,-11.518536 c 3.33333,3.3333298 6.66667,6.6666698 10,9.9999998 31.24194,31.2419402 31.24194,81.8951402 0,113.1370762 -6.66667,6.66667 -13.33333,13.33333 -20,20 -31.241941,31.24194 -81.895141,31.24194 -113.1370809,0 -6.66667,-6.66667 -13.3333301,-13.33333 -20.0000001,-20 -31.24194,-31.241936 -31.24194,-81.895136 0,-113.1370762 3.33333,-3.33333 6.66667,-6.66667 10,-9.9999998 17.4758401,-17.47584 42.04782,-25.89332 66.56854,-22.804 24.52073,-3.08932 49.092701,5.32816 66.568541,22.804 z"
     stroke-miterlimit="10"
     font-weight="none"
     font-size="none"
     text-anchor="none"
     style="font-family:none;mix-blend-mode:normal;fill:none;fill-rule:nonzero;stroke:#2c00ff;stroke-width:0.1;stroke-linecap:butt;stroke-linejoin:miter;stroke-miterlimit:10;stroke-dasharray:none;stroke-dashoffset:0"
     id="path170"
     inkscape:connector-curvature="0" />
  <path
     d="m 122.32531,-12.225646 c 3.33333,3.3333298 6.66667,6.6666698 10,9.9999998 31.63247,31.6324702 31.63247,82.9188302 0,114.5512962 -6.66667,6.66667 -13.33333,13.33333 -20,20 -31.632471,31.63247 -82.918831,31.63247 -114.5513009,0 -6.66667,-6.66667 -13.3333301,-13.33333 -20.0000001,-20 -31.63247,-31.632466 -31.63247,-82.918826 0,-114.5512962 3.33333,-3.33333 6.66667,-6.66667 10,-9.9999998 17.6630001,-17.663 42.48748,-26.18856 67.27565,-23.1047 24.78817,-3.08386 49.612651,5.44169 67.275651,23.1047 z"
     stroke-miterlimit="10"
     font-weight="none"
     font-size="none"
     text-anchor="none"
     style="font-family:none;mix-blend-mode:normal;fill:none;fill-rule:nonzero;stroke:#3900ff;stroke-width:0.1;stroke-linecap:butt;stroke-linejoin:miter;stroke-miterlimit:10;stroke-dasharray:none;stroke-dashoffset:0"
     id="path172"
     inkscape:connector-curvature="0" />
  <path
     d="m 123.03242,-12.932756 c 3.33333,3.3333298 6.66667,6.6666698 10,9.9999998 32.02299,32.0229902 32.02299,83.9425202 0,115.9655062 -6.66667,6.66667 -13.33333,13.33333 -20,20 -32.022991,32.02299 -83.942521,32.02299 -115.9655109,0 -6.66667,-6.66667 -13.3333301,-13.33333 -20.0000001,-20 -32.02299,-32.022986 -32.02299,-83.942516 0,-115.9655062 3.33333,-3.33333 6.66667,-6.66667 10,-9.9999998 17.8501801,-17.85018 42.92721,-26.48374 67.98276,-23.4052 25.05555,-3.07853 50.132581,5.55503 67.982761,23.4052 z"
     stroke-miterlimit="10"
     font-weight="none"
     font-size="none"
     text-anchor="none"
     style="font-family:none;mix-blend-mode:normal;fill:none;fill-rule:nonzero;stroke:#4600ff;stroke-width:0.1;stroke-linecap:butt;stroke-linejoin:miter;stroke-miterlimit:10;stroke-dasharray:none;stroke-dashoffset:0"
     id="path174"
     inkscape:connector-curvature="0" />
  <path
     d="m 123.73952,-13.639856 c 3.33333,3.33333 6.66667,6.6666698 10,9.9999998 32.41352,32.4135202 32.41352,84.9662102 0,117.3797262 -6.66667,6.66667 -13.33333,13.33333 -20,20 -32.413521,32.41352 -84.966211,32.41352 -117.3797309,0 -6.6666701,-6.66667 -13.3333301,-13.33333 -20.0000001,-20 -32.41352,-32.413516 -32.41352,-84.966206 0,-117.3797262 3.33333,-3.33333 6.66667,-6.6666698 10,-9.9999998 18.0373601,-18.03736 43.367,-26.77886 68.68986,-23.70553 25.32287,-3.07334 50.652501,5.66816 68.689861,23.70553 z"
     stroke-miterlimit="10"
     font-weight="none"
     font-size="none"
     text-anchor="none"
     style="font-family:none;mix-blend-mode:normal;fill:none;fill-rule:nonzero;stroke:#5200ff;stroke-width:0.1;stroke-linecap:butt;stroke-linejoin:miter;stroke-miterlimit:10;stroke-dasharray:none;stroke-dashoffset:0"
     id="path176"
     inkscape:connector-curvature="0" />
  <path
     d="m 124.44663,-14.346966 c 3.33333,3.33333 6.66667,6.6666698 10,9.9999998 32.80404,32.8040402 32.80404,85.9899002 0,118.7939362 -6.66667,6.66667 -13.33333,13.33333 -20,20 -32.804041,32.80404 -85.989901,32.80404 -118.7939409,0 -6.6666701,-6.66667 -13.3333301,-13.33333 -20.0000001,-20 -32.80404,-32.804036 -32.80404,-85.989896 0,-118.7939362 3.33333,-3.33333 6.66667,-6.6666698 10,-9.9999998 18.2245601,-18.22456 43.80683,-27.07393 69.39697,-24.00567 25.59013,-3.06826 51.172411,5.78111 69.396971,24.00567 z"
     stroke-miterlimit="10"
     font-weight="none"
     font-size="none"
     text-anchor="none"
     style="font-family:none;mix-blend-mode:normal;fill:none;fill-rule:nonzero;stroke:#5f00ff;stroke-width:0.1;stroke-linecap:butt;stroke-linejoin:miter;stroke-miterlimit:10;stroke-dasharray:none;stroke-dashoffset:0"
     id="path178"
     inkscape:connector-curvature="0" />
  <path
     d="m 125.15374,-15.054076 c 3.33333,3.33333 6.66667,6.6666698 10,9.9999998 33.19456,33.1945602 33.19456,87.0135902 0,120.2081462 -6.66667,6.66667 -13.33333,13.33333 -20,20 -33.194561,33.19456 -87.013591,33.19456 -120.2081509,0 -6.6666701,-6.66667 -13.3333301,-13.33333 -20.0000001,-20 -33.19456,-33.194556 -33.19456,-87.013586 0,-120.2081462 3.33333,-3.33333 6.66667,-6.6666698 10,-9.9999998 18.4117701,-18.41177 44.24673,-27.36895 70.10408,-24.30564 25.85735,-3.06331 51.692311,5.89387 70.104081,24.30564 z"
     stroke-miterlimit="10"
     font-weight="none"
     font-size="none"
     text-anchor="none"
     style="font-family:none;mix-blend-mode:normal;fill:none;fill-rule:nonzero;stroke:#6c00ff;stroke-width:0.1;stroke-linecap:butt;stroke-linejoin:miter;stroke-miterlimit:10;stroke-dasharray:none;stroke-dashoffset:0"
     id="path180"
     inkscape:connector-curvature="0" />
  <path
     d="m 125.86084,-15.761176 c 3.33333,3.33333 6.66667,6.6666698 10,9.9999998 33.58509,33.5850902 33.58509,88.0372802 0,121.6223662 -6.66667,6.66667 -13.33333,13.33333 -20,20 -33.585091,33.58509 -88.037281,33.58509 -121.6223709,0 -6.6666701,-6.66667 -13.3333301,-13.33333 -20.0000001,-20 -33.58509,-33.585086 -33.58509,-88.037276 0,-121.6223662 3.33333,-3.33333 6.66667,-6.6666698 10,-9.9999998 18.5989801,-18.59898 44.68667,-27.66392 70.81118,-24.60544 26.12451,-3.05848 52.212201,6.00646 70.811181,24.60544 z"
     stroke-miterlimit="10"
     font-weight="none"
     font-size="none"
     text-anchor="none"
     style="font-family:none;mix-blend-mode:normal;fill:none;fill-rule:nonzero;stroke:#7800ff;stroke-width:0.1;stroke-linecap:butt;stroke-linejoin:miter;stroke-miterlimit:10;stroke-dasharray:none;stroke-dashoffset:0"
     id="path182"
     inkscape:connector-curvature="0" />
  <path
     d="m 126.56795,-16.468286 c 3.33333,3.33333 6.66667,6.6666698 10,9.9999998 33.97561,33.9756102 33.97561,89.0609702 0,123.0365762 -6.66667,6.66667 -13.33333,13.33333 -20,20 -33.975611,33.97561 -89.060971,33.97561 -123.0365809,0 -6.6666701,-6.66667 -13.3333301,-13.33333 -20.0000001,-20 -33.97561,-33.975606 -33.97561,-89.060966 0,-123.0365762 3.33333,-3.33333 6.66667,-6.6666698 10,-9.9999998 18.7862101,-18.78621 45.12667,-27.95885 71.51829,-24.90509 26.39162,-3.05376 52.732081,6.11888 71.518291,24.90509 z"
     stroke-miterlimit="10"
     font-weight="none"
     font-size="none"
     text-anchor="none"
     style="font-family:none;mix-blend-mode:normal;fill:none;fill-rule:nonzero;stroke:#8500ff;stroke-width:0.1;stroke-linecap:butt;stroke-linejoin:miter;stroke-miterlimit:10;stroke-dasharray:none;stroke-dashoffset:0"
     id="path184"
     inkscape:connector-curvature="0" />
  <path
     d="m 127.27506,-17.175396 c 3.33333,3.33333 6.66667,6.66667 10,9.9999998 34.36614,34.3661402 34.36614,90.0846602 0,124.4507862 -6.66667,6.66667 -13.33333,13.33333 -20,20 -34.366141,34.36614 -90.084661,34.36614 -124.4507909,0 -6.6666701,-6.66667 -13.3333301,-13.33333 -20.0000001,-20 -34.36614,-34.366136 -34.36614,-90.084656 0,-124.4507862 3.33333,-3.3333298 6.66667,-6.6666698 10,-9.9999998 18.9734401,-18.97344 45.56671,-28.25372 72.2254,-25.20458 26.65869,-3.04915 53.251951,6.23113 72.225401,25.20458 z"
     stroke-miterlimit="10"
     font-weight="none"
     font-size="none"
     text-anchor="none"
     style="font-family:none;mix-blend-mode:normal;fill:none;fill-rule:nonzero;stroke:#9200ff;stroke-width:0.1;stroke-linecap:butt;stroke-linejoin:miter;stroke-miterlimit:10;stroke-dasharray:none;stroke-dashoffset:0"
     id="path186"
     inkscape:connector-curvature="0" />
  <path
     d="m 127.98216,-17.882496 c 3.33333,3.33333 6.66667,6.66667 10,9.9999998 34.75666,34.7566602 34.75666,91.1083502 0,125.8650062 -6.66667,6.66667 -13.33333,13.33333 -20,20 -34.756661,34.75666 -91.108351,34.75666 -125.8650109,0 -6.6666701,-6.66667 -13.3333301,-13.33333 -20.0000001,-20 -34.75666,-34.756656 -34.75666,-91.108346 0,-125.8650062 3.33333,-3.3333298 6.66667,-6.6666698 10,-9.9999998 19.1606901,-19.16069 46.00679,-28.54855 72.9325,-25.50391 26.92571,-3.04464 53.771821,6.34323 72.932501,25.50391 z"
     stroke-miterlimit="10"
     font-weight="none"
     font-size="none"
     text-anchor="none"
     style="font-family:none;mix-blend-mode:normal;fill:none;fill-rule:nonzero;stroke:#9e00ff;stroke-width:0.1;stroke-linecap:butt;stroke-linejoin:miter;stroke-miterlimit:10;stroke-dasharray:none;stroke-dashoffset:0"
     id="path188"
     inkscape:connector-curvature="0" />
  <path
     d="m 128.68927,-18.589606 c 3.33333,3.33333 6.66667,6.66667 10,9.9999998 35.14719,35.1471902 35.14719,92.1320302 0,127.2792162 -6.66667,6.66667 -13.33333,13.33333 -20,20 -35.147191,35.14719 -92.132031,35.14719 -127.2792209,0 -6.6666701,-6.66667 -13.3333301,-13.33333 -20.0000001,-20 -35.14719,-35.147186 -35.14719,-92.132026 0,-127.2792162 3.33333,-3.3333298 6.66667,-6.6666698 10,-9.9999998 19.34794012,-19.34794 46.44692,-28.84334 73.63961,-25.80311 27.19269,-3.04023 54.291671,6.45517 73.639611,25.80311 z"
     stroke-miterlimit="10"
     font-weight="none"
     font-size="none"
     text-anchor="none"
     style="font-family:none;mix-blend-mode:normal;fill:none;fill-rule:nonzero;stroke:#ab00ff;stroke-width:0.1;stroke-linecap:butt;stroke-linejoin:miter;stroke-miterlimit:10;stroke-dasharray:none;stroke-dashoffset:0"
     id="path190"
     inkscape:connector-curvature="0" />
  <path
     d="m 129.39638,-19.296716 c 3.33333,3.33333 6.66667,6.66667 10,9.9999998 35.53771,35.5377102 35.53771,93.1557202 0,128.6934262 -6.66667,6.66667 -13.33333,13.33333 -20,20 -35.537711,35.53771 -93.155721,35.53771 -128.6934309,0 -6.6666701,-6.66667 -13.3333301,-13.33333 -20.0000001,-20 -35.53771,-35.537706 -35.53771,-93.155716 0,-128.6934262 3.33333,-3.3333298 6.66667,-6.6666698 10,-9.9999998 19.53520012,-19.5352 46.88709,-29.13809 74.34672,-26.10216 27.45962,-3.03593 54.811521,6.56697 74.346721,26.10216 z"
     stroke-miterlimit="10"
     font-weight="none"
     font-size="none"
     text-anchor="none"
     style="font-family:none;mix-blend-mode:normal;fill:none;fill-rule:nonzero;stroke:#b800ff;stroke-width:0.1;stroke-linecap:butt;stroke-linejoin:miter;stroke-miterlimit:10;stroke-dasharray:none;stroke-dashoffset:0"
     id="path192"
     inkscape:connector-curvature="0" />
  <path
     d="m 130.10348,-20.003816 c 3.33333,3.33333 6.66667,6.66667 10,10 35.92823,35.92823 35.92823,94.17941 0,130.107646 -6.66667,6.66667 -13.33333,13.33333 -20,20 -35.928231,35.92823 -94.179411,35.92823 -130.107651,0 -6.66667,-6.66667 -13.33333,-13.33333 -20,-20 -35.92823,-35.928226 -35.92823,-94.179406 0,-130.107646 3.33333,-3.33333 6.66667,-6.66667 10,-10 19.72246012,-19.72246 47.32731,-29.4328 75.05382,-26.40108 27.72652,-3.03171 55.331361,6.67862 75.053821,26.40108 z"
     stroke-miterlimit="10"
     font-weight="none"
     font-size="none"
     text-anchor="none"
     style="font-family:none;mix-blend-mode:normal;fill:none;fill-rule:nonzero;stroke:#c400ff;stroke-width:0.1;stroke-linecap:butt;stroke-linejoin:miter;stroke-miterlimit:10;stroke-dasharray:none;stroke-dashoffset:0"
     id="path194"
     inkscape:connector-curvature="0" />
  <path
     d="m 130.81059,-20.710926 c 3.33333,3.33333 6.66667,6.66667 10,10 36.31876,36.31876 36.31876,95.2031 0,131.521856 -6.66667,6.66667 -13.33333,13.33333 -20,20 -36.318761,36.31876 -95.203101,36.31876 -131.521861,0 -6.66667,-6.66667 -13.33333,-13.33333 -20,-20 -36.31876,-36.318756 -36.31876,-95.203096 0,-131.521856 3.33333,-3.33333 6.66667,-6.66667 10,-10 19.90973012,-19.90973 47.76756,-29.72747 75.76093,-26.69987 27.99337,-3.02759 55.851201,6.79014 75.760931,26.69987 z"
     stroke-miterlimit="10"
     font-weight="none"
     font-size="none"
     text-anchor="none"
     style="font-family:none;mix-blend-mode:normal;fill:none;fill-rule:nonzero;stroke:#d100ff;stroke-width:0.1;stroke-linecap:butt;stroke-linejoin:miter;stroke-miterlimit:10;stroke-dasharray:none;stroke-dashoffset:0"
     id="path196"
     inkscape:connector-curvature="0" />
  <path
     d="m 131.5177,-21.418036 c 3.33333,3.33333 6.66667,6.66667 10,10 36.70928,36.70928 36.70928,96.22679 0,132.936066 -6.66667,6.66667 -13.33333,13.33333 -20,20 -36.709281,36.70928 -96.226791,36.70928 -132.936071,0 -6.66667,-6.66667 -13.33333,-13.33333 -20,-20 -36.70928,-36.709276 -36.70928,-96.226786 0,-132.936066 3.33333,-3.33333 6.66667,-6.66667 10,-10 20.0970101,-20.09701 48.20785,-30.02209 76.46804,-26.99853 28.26018,-3.02356 56.371021,6.90152 76.468041,26.99853 z"
     stroke-miterlimit="10"
     font-weight="none"
     font-size="none"
     text-anchor="none"
     style="font-family:none;mix-blend-mode:normal;fill:none;fill-rule:nonzero;stroke:#de00ff;stroke-width:0.1;stroke-linecap:butt;stroke-linejoin:miter;stroke-miterlimit:10;stroke-dasharray:none;stroke-dashoffset:0"
     id="path198"
     inkscape:connector-curvature="0" />
  <path
     d="m 132.2248,-22.125136 c 3.33333,3.33333 6.66667,6.66667 10,10 37.09981,37.09981 37.09981,97.25048 0,134.350286 -6.66667,6.66667 -13.33333,13.33333 -20,20 -37.099811,37.09981 -97.250481,37.09981 -134.350291,0 -6.66667,-6.66667 -13.33333,-13.33333 -20,-20 -37.09981,-37.099806 -37.09981,-97.250476 0,-134.350286 3.33333,-3.33333 6.66667,-6.66667 10,-10 20.2843001,-20.2843 48.64818,-30.31669 77.17514,-27.29707 28.52696,-3.01961 56.890841,7.01277 77.175141,27.29707 z"
     stroke-miterlimit="10"
     font-weight="none"
     font-size="none"
     text-anchor="none"
     style="font-family:none;mix-blend-mode:normal;fill:none;fill-rule:nonzero;stroke:#ea00ff;stroke-width:0.1;stroke-linecap:butt;stroke-linejoin:miter;stroke-miterlimit:10;stroke-dasharray:none;stroke-dashoffset:0"
     id="path200"
     inkscape:connector-curvature="0" />
  <path
     d="m 132.93191,-22.832246 c 3.33333,3.33333 6.66667,6.66667 10,10 37.49033,37.49033 37.49033,98.27417 0,135.764496 -6.66667,6.66667 -13.33333,13.33333 -20,20 -37.490331,37.49033 -98.274171,37.49033 -135.764501,0 -6.66667,-6.66667 -13.33333,-13.33333 -20,-20 -37.49033,-37.490326 -37.49033,-98.274166 0,-135.764496 3.33333,-3.33333 6.66667,-6.66667 10,-10 20.4715901,-20.47159 49.08854,-30.61125 77.88225,-27.5955 28.79371,-3.01575 57.410661,7.1239 77.882251,27.5955 z"
     stroke-miterlimit="10"
     font-weight="none"
     font-size="none"
     text-anchor="none"
     style="font-family:none;mix-blend-mode:normal;fill:none;fill-rule:nonzero;stroke:#f700ff;stroke-width:0.1;stroke-linecap:butt;stroke-linejoin:miter;stroke-miterlimit:10;stroke-dasharray:none;stroke-dashoffset:0"
     id="path202"
     inkscape:connector-curvature="0" />
  <path
     d="m 133.63902,-23.539356 c 3.33333,3.33333 6.66667,6.66667 10,10 37.88086,37.88086 37.88086,99.29786 0,137.178716 -6.66667,6.66667 -13.33333,13.33333 -20,20 -37.880861,37.88086 -99.297861,37.88086 -137.178721,0 -6.66667,-6.66667 -13.33333,-13.33333 -20,-20 -37.88086,-37.880856 -37.88086,-99.297856 0,-137.178716 3.33333,-3.33333 6.66667,-6.66667 10,-10 20.6588901,-20.65889 49.52894,-30.90577 78.58936,-27.8938 29.06042,-3.01197 57.930461,7.23491 78.589361,27.8938 z"
     stroke-miterlimit="10"
     font-weight="none"
     font-size="none"
     text-anchor="none"
     style="font-family:none;mix-blend-mode:normal;fill:none;fill-rule:nonzero;stroke:#ff00fa;stroke-width:0.1;stroke-linecap:butt;stroke-linejoin:miter;stroke-miterlimit:10;stroke-dasharray:none;stroke-dashoffset:0"
     id="path204"
     inkscape:connector-curvature="0" />
  <path
     d="m 134.34612,-24.246456 c 3.33333,3.33333 6.66667,6.66667 10,10 38.27138,38.27138 38.27138,100.32155 0,138.592926 -6.66667,6.66667 -13.33333,13.33333 -20,20 -38.271381,38.27138 -100.321551,38.27138 -138.592931,0 -6.66667,-6.66667 -13.33333,-13.33333 -20,-20 -38.27138,-38.271376 -38.27138,-100.321546 0,-138.592926 3.33333,-3.33333 6.66667,-6.66667 10,-10 20.8462001,-20.8462 49.96937,-31.20026 79.29646,-28.192 29.32709,-3.00826 58.450271,7.3458 79.296461,28.192 z"
     stroke-miterlimit="10"
     font-weight="none"
     font-size="none"
     text-anchor="none"
     style="font-family:none;mix-blend-mode:normal;fill:none;fill-rule:nonzero;stroke:#ff00ee;stroke-width:0.1;stroke-linecap:butt;stroke-linejoin:miter;stroke-miterlimit:10;stroke-dasharray:none;stroke-dashoffset:0"
     id="path206"
     inkscape:connector-curvature="0" />
  <path
     d="m 135.05323,-24.953566 c 3.33333,3.33333 6.66667,6.66667 10,10 38.6619,38.6619 38.6619,101.34524 0,140.007136 -6.66667,6.66667 -13.33333,13.33333 -20,20 -38.661901,38.6619 -101.345241,38.6619 -140.007141,0 -6.66667,-6.66667 -13.33333,-13.33333 -20,-20 -38.6619,-38.661896 -38.6619,-101.345236 0,-140.007136 3.33333,-3.33333 6.66667,-6.66667 10,-10 21.0335101,-21.03351 50.40983,-31.49472 80.00357,-28.49008 29.59374,-3.00463 58.970061,7.45657 80.003571,28.49008 z"
     stroke-miterlimit="10"
     font-weight="none"
     font-size="none"
     text-anchor="none"
     style="font-family:none;mix-blend-mode:normal;fill:none;fill-rule:nonzero;stroke:#ff00e1;stroke-width:0.1;stroke-linecap:butt;stroke-linejoin:miter;stroke-miterlimit:10;stroke-dasharray:none;stroke-dashoffset:0"
     id="path208"
     inkscape:connector-curvature="0" />
  <path
     d="m 135.76034,-25.660676 c 3.33333,3.33333 6.66667,6.66667 10,10 39.05243,39.05243 39.05243,102.36893 0,141.421356 -6.66667,6.66667 -13.33333,13.33333 -20,20 -39.052431,39.05243 -102.368931,39.05243 -141.421361,0 -6.66667,-6.66667 -13.33333,-13.33333 -20,-20 -39.05243,-39.052426 -39.05243,-102.368926 0,-141.421356 3.33333,-3.33333 6.66667,-6.66667 10,-10 21.2208301,-21.22083 50.85033,-31.78914 80.71068,-28.78807 29.86035,-3.00108 59.489851,7.56724 80.710681,28.78807 z"
     stroke-miterlimit="10"
     font-weight="none"
     font-size="none"
     text-anchor="none"
     style="font-family:none;mix-blend-mode:normal;fill:none;fill-rule:nonzero;stroke:#ff00d4;stroke-width:0.1;stroke-linecap:butt;stroke-linejoin:miter;stroke-miterlimit:10;stroke-dasharray:none;stroke-dashoffset:0"
     id="path210"
     inkscape:connector-curvature="0" />
</svg>
