<?xml version="1.0" encoding="UTF-8" standalone="no"?>
<svg
   xmlns:dc="http://purl.org/dc/elements/1.1/"
   xmlns:cc="http://creativecommons.org/ns#"
   xmlns:rdf="http://www.w3.org/1999/02/22-rdf-syntax-ns#"
   xmlns:svg="http://www.w3.org/2000/svg"
   xmlns="http://www.w3.org/2000/svg"
   xmlns:sodipodi="http://sodipodi.sourceforge.net/DTD/sodipodi-0.dtd"
   xmlns:inkscape="http://www.inkscape.org/namespaces/inkscape"
   version="1.1"
   viewBox="15 24.999532 80.099365 70.100044"
   viewPort=" 15.000000000000007 24.99953211488725 95 94.99999999999999 "
   id="svg52"
   sodipodi:docname="example2-10.svg"
   width="80.099365"
   height="70.100044"
   inkscape:version="0.92.3 (2405546, 2018-03-11)">
  <metadata
     id="metadata58">
    <rdf:RDF>
      <cc:Work
         rdf:about="">
        <dc:format>image/svg+xml</dc:format>
        <dc:type
           rdf:resource="http://purl.org/dc/dcmitype/StillImage" />
        <dc:title></dc:title>
      </cc:Work>
    </rdf:RDF>
  </metadata>
  <defs
     id="defs56" />
  <sodipodi:namedview
     pagecolor="#ffffff"
     bordercolor="#666666"
     borderopacity="1"
     objecttolerance="10"
     gridtolerance="10"
     guidetolerance="10"
     inkscape:pageopacity="0"
     inkscape:pageshadow="2"
     inkscape:window-width="1920"
     inkscape:window-height="1137"
     id="namedview54"
     showgrid="false"
     fit-margin-top="0"
     fit-margin-left="0"
     fit-margin-right="0"
     fit-margin-bottom="0"
     inkscape:zoom="9.9077303"
     inkscape:cx="47.549678"
     inkscape:cy="22.550145"
     inkscape:window-x="1912"
     inkscape:window-y="-8"
     inkscape:window-maximized="1"
     inkscape:current-layer="svg52" />
  <path
     d="m 50.049678,50.0499 -5,5 10,10 10,-10 -5,-5 5,-5 10,10 -20,20 -20,-20 10,-10 z"
     stroke-miterlimit="10"
     font-weight="none"
     font-size="none"
     text-anchor="none"
     style="font-family:none;mix-blend-mode:normal;fill:none;fill-rule:nonzero;stroke:#000000;stroke-width:0.1;stroke-linecap:butt;stroke-linejoin:miter;stroke-miterlimit:10;stroke-dasharray:none;stroke-dashoffset:0"
     id="path2"
     inkscape:connector-curvature="0" />
  <path
     d="m 69.033508,54.69058 c 0.11977,0.11977 0.23954,0.23954 0.35932,0.35932 -0.11976,0.11976 -0.23952,0.23952 -0.35928,0.35928 0.02139,-0.23718 0.0217,-0.47761 -4e-5,-0.7186 z m -13.98383,14.70247 c -0.11974,-0.11974 -0.23947,-0.23947 -0.35921,-0.35921 0.23895,0.02142 0.47946,0.02142 0.71842,0 -0.11974,0.11974 -0.23947,0.23947 -0.35921,0.35921 z M 40.706528,55.0499 c 0.11977,-0.11977 0.23954,-0.23954 0.35932,-0.35932 -0.02174,0.24099 -0.02142,0.48142 -4e-5,0.7186 -0.11976,-0.11976 -0.23952,-0.23952 -0.35928,-0.35928 z"
     stroke-miterlimit="10"
     font-weight="none"
     font-size="none"
     text-anchor="none"
     style="font-family:none;mix-blend-mode:normal;fill:none;fill-rule:nonzero;stroke:#ff3500;stroke-width:0.1;stroke-linecap:butt;stroke-linejoin:miter;stroke-miterlimit:10;stroke-dasharray:none;stroke-dashoffset:0"
     id="path4"
     inkscape:connector-curvature="0" />
  <path
     d="m 45.807038,50.0499 c -0.95956,0.95956 -1.91912,1.91912 -2.87868,2.87868 -1.17157,1.17157 -1.17157,3.07107 0,4.24264 3.33333,3.33333 6.66667,6.66667 10,10 1.17157,1.17157 3.07107,1.17157 4.24264,0 3.33333,-3.33333 6.66667,-6.66667 10,-10 1.17157,-1.17157 1.17157,-3.07107 0,-4.24264 -0.95956,-0.95956 -1.91912,-1.91912 -2.87868,-2.87868 0.25245,-0.25245 0.50491,-0.50491 0.75736,-0.75736 1.91912,1.91912 3.83824,3.83824 5.75736,5.75736 -5.25245,5.25245 -10.50491,10.50491 -15.75736,15.75736 -5.25245,-5.25245 -10.50491,-10.50491 -15.75736,-15.75736 1.91912,-1.91912 3.83824,-3.83824 5.75736,-5.75736 0.25245,0.25245 0.50491,0.50491 0.75736,0.75736 z"
     stroke-miterlimit="10"
     font-weight="none"
     font-size="none"
     text-anchor="none"
     style="font-family:none;mix-blend-mode:normal;fill:none;fill-rule:nonzero;stroke:#ff6a00;stroke-width:0.1;stroke-linecap:butt;stroke-linejoin:miter;stroke-miterlimit:10;stroke-dasharray:none;stroke-dashoffset:0"
     id="path6"
     inkscape:connector-curvature="0" />
  <path
     d="m 47.221248,50.0499 c -1.19526,1.19526 -2.39052,2.39052 -3.58579,3.58579 -0.78105,0.78105 -0.78105,2.04738 0,2.82843 3.33333,3.33333 6.66667,6.66667 10,10 0.78105,0.78105 2.04738,0.78105 2.82843,0 3.33333,-3.33333 6.66667,-6.66667 10,-10 0.78105,-0.78105 0.78105,-2.04738 0,-2.82843 -1.19526,-1.19526 -2.39052,-2.39052 -3.58579,-3.58579 0.72386,-0.72386 1.44772,-1.44772 2.17157,-2.17157 2.39052,2.39052 4.78105,4.78105 7.17157,7.17157 -5.72386,5.72386 -11.44772,11.44772 -17.17157,17.17157 -5.72386,-5.72386 -11.44772,-11.44772 -17.17157,-17.17157 2.39052,-2.39052 4.78105,-4.78105 7.17157,-7.17157 0.72386,0.72386 1.44772,1.44772 2.17157,2.17157 z"
     stroke-miterlimit="10"
     font-weight="none"
     font-size="none"
     text-anchor="none"
     style="font-family:none;mix-blend-mode:normal;fill:none;fill-rule:nonzero;stroke:#ffa000;stroke-width:0.1;stroke-linecap:butt;stroke-linejoin:miter;stroke-miterlimit:10;stroke-dasharray:none;stroke-dashoffset:0"
     id="path8"
     inkscape:connector-curvature="0" />
  <path
     d="m 48.635468,50.0499 c -1.43096,1.43096 -2.86193,2.86193 -4.29289,4.29289 -0.39052,0.39052 -0.39052,1.02369 0,1.41421 3.33333,3.33333 6.66667,6.66667 10,10 0.39052,0.39052 1.02369,0.39052 1.41421,0 3.33333,-3.33333 6.66667,-6.66667 10,-10 0.39052,-0.39052 0.39052,-1.02369 0,-1.41421 -1.43096,-1.43096 -2.86193,-2.86193 -4.29289,-4.29289 1.19526,-1.19526 2.39052,-2.39052 3.58579,-3.58579 2.86193,2.86193 5.72386,5.72386 8.58579,8.58579 -6.19526,6.19526 -12.39052,12.39052 -18.58579,18.58579 -6.19526,-6.19526 -12.39052,-12.39052 -18.58579,-18.58579 2.86193,-2.86193 5.72386,-5.72386 8.58579,-8.58579 1.19526,1.19526 2.39052,2.39052 3.58579,3.58579 z"
     stroke-miterlimit="10"
     font-weight="none"
     font-size="none"
     text-anchor="none"
     style="font-family:none;mix-blend-mode:normal;fill:none;fill-rule:nonzero;stroke:#ffd500;stroke-width:0.1;stroke-linecap:butt;stroke-linejoin:miter;stroke-miterlimit:10;stroke-dasharray:none;stroke-dashoffset:0"
     id="path10"
     inkscape:connector-curvature="0" />
  <path
     d="m 50.756788,50.75701 c -1.43096,1.43096 -2.86193,2.86193 -4.29289,4.29289 2.86193,2.86193 5.72386,5.72386 8.58579,8.58579 2.86193,-2.86193 5.72386,-5.72386 8.58579,-8.58579 -1.43096,-1.43096 -2.86193,-2.86193 -4.29289,-4.29289 -0.39052,-0.39052 -0.39052,-1.02369 0,-1.41421 1.66667,-1.66667 3.33333,-3.33333 5,-5 0.39052,-0.39052 1.02369,-0.39052 1.41421,0 3.33333,3.33333 6.66667,6.66667 10,10 0.39052,0.39052 0.39052,1.02369 0,1.41421 -6.66667,6.66667 -13.33333,13.33333 -20,20 -0.39052,0.39052 -1.02369,0.39052 -1.41421,0 -6.66667,-6.66667 -13.33333,-13.33333 -20,-20 -0.39052,-0.39052 -0.39052,-1.02369 0,-1.41421 3.33333,-3.33333 6.66667,-6.66667 10,-10 0.39052,-0.39052 1.02369,-0.39052 1.41421,0 1.66667,1.66667 3.33333,3.33333 5,5 0.39052,0.39052 0.39052,1.02369 0,1.41421 z"
     stroke-miterlimit="10"
     font-weight="none"
     font-size="none"
     text-anchor="none"
     style="font-family:none;mix-blend-mode:normal;fill:none;fill-rule:nonzero;stroke:#f4ff00;stroke-width:0.1;stroke-linecap:butt;stroke-linejoin:miter;stroke-miterlimit:10;stroke-dasharray:none;stroke-dashoffset:0"
     id="path12"
     inkscape:connector-curvature="0" />
  <path
     d="m 51.463888,51.46411 c -1.19526,1.19526 -2.39052,2.39052 -3.58579,3.58579 2.39052,2.39052 4.78105,4.78105 7.17157,7.17157 2.39052,-2.39052 4.78105,-4.78105 7.17157,-7.17157 -1.19526,-1.19526 -2.39052,-2.39052 -3.58579,-3.58579 -0.78105,-0.78105 -0.78105,-2.04738 0,-2.82843 1.66667,-1.66667 3.33333,-3.33333 5,-5 0.78105,-0.78105 2.04738,-0.78105 2.82843,0 3.33333,3.33333 6.66667,6.66667 10,10 0.78105,0.78105 0.78105,2.04738 0,2.82843 -6.66667,6.66667 -13.33333,13.33333 -20,20 -0.78105,0.78105 -2.04738,0.78105 -2.82843,0 -6.66667,-6.66667 -13.33333,-13.33333 -20,-20 -0.78105,-0.78105 -0.78105,-2.04738 0,-2.82843 3.33333,-3.33333 6.66667,-6.66667 10,-10 0.78105,-0.78105 2.04738,-0.78105 2.82843,0 1.66667,1.66667 3.33333,3.33333 5,5 0.78105,0.78105 0.78105,2.04738 0,2.82843 z"
     stroke-miterlimit="10"
     font-weight="none"
     font-size="none"
     text-anchor="none"
     style="font-family:none;mix-blend-mode:normal;fill:none;fill-rule:nonzero;stroke:#bfff00;stroke-width:0.1;stroke-linecap:butt;stroke-linejoin:miter;stroke-miterlimit:10;stroke-dasharray:none;stroke-dashoffset:0"
     id="path14"
     inkscape:connector-curvature="0" />
  <path
     d="m 52.170998,52.17122 c -0.95956,0.95956 -1.91912,1.91912 -2.87868,2.87868 1.91912,1.91912 3.83824,3.83824 5.75736,5.75736 1.91912,-1.91912 3.83824,-3.83824 5.75736,-5.75736 -0.95956,-0.95956 -1.91912,-1.91912 -2.87868,-2.87868 -1.17157,-1.17157 -1.17157,-3.07107 0,-4.24264 1.66667,-1.66667 3.33333,-3.33333 5,-5 1.17157,-1.17157 3.07107,-1.17157 4.24264,0 3.33333,3.33333 6.66667,6.66667 10,10 1.17157,1.17157 1.17157,3.07107 0,4.24264 -6.66667,6.66667 -13.33333,13.33333 -20,20 -1.17157,1.17157 -3.07107,1.17157 -4.24264,0 -6.66667,-6.66667 -13.33333,-13.33333 -20,-20 -1.17157,-1.17157 -1.17157,-3.07107 0,-4.24264 3.33333,-3.33333 6.66667,-6.66667 10,-10 1.17157,-1.17157 3.07107,-1.17157 4.24264,0 1.66667,1.66667 3.33333,3.33333 5,5 1.17157,1.17157 1.17157,3.07107 0,4.24264 z"
     stroke-miterlimit="10"
     font-weight="none"
     font-size="none"
     text-anchor="none"
     style="font-family:none;mix-blend-mode:normal;fill:none;fill-rule:nonzero;stroke:#89ff00;stroke-width:0.1;stroke-linecap:butt;stroke-linejoin:miter;stroke-miterlimit:10;stroke-dasharray:none;stroke-dashoffset:0"
     id="path16"
     inkscape:connector-curvature="0" />
  <path
     d="m 52.878108,52.87833 c -0.72386,0.72386 -1.44772,1.44772 -2.17157,2.17157 1.44772,1.44772 2.89543,2.89543 4.34315,4.34315 1.44772,-1.44772 2.89543,-2.89543 4.34315,-4.34315 -0.72386,-0.72386 -1.44772,-1.44772 -2.17157,-2.17157 -1.5621,-1.5621 -1.5621,-4.09476 0,-5.65685 1.66667,-1.66667 3.33333,-3.33333 5,-5 1.5621,-1.5621 4.09476,-1.5621 5.65685,0 3.33333,3.33333 6.66667,6.66667 10,10 1.5621,1.5621 1.5621,4.09476 0,5.65685 -6.66667,6.66667 -13.33333,13.33333 -20,20 -1.5621,1.5621 -4.09476,1.5621 -5.65685,0 -6.66667,-6.66667 -13.33333,-13.33333 -20,-20 -1.5621,-1.5621 -1.5621,-4.09476 0,-5.65685 3.33333,-3.33333 6.66667,-6.66667 10,-10 1.5621,-1.5621 4.09476,-1.5621 5.65685,0 1.66667,1.66667 3.33333,3.33333 5,5 1.5621,1.5621 1.5621,4.09476 0,5.65685 z"
     stroke-miterlimit="10"
     font-weight="none"
     font-size="none"
     text-anchor="none"
     style="font-family:none;mix-blend-mode:normal;fill:none;fill-rule:nonzero;stroke:#54ff00;stroke-width:0.1;stroke-linecap:butt;stroke-linejoin:miter;stroke-miterlimit:10;stroke-dasharray:none;stroke-dashoffset:0"
     id="path18"
     inkscape:connector-curvature="0" />
  <path
     d="m 53.585208,53.58543 c -0.48816,0.48816 -0.97631,0.97631 -1.46447,1.46447 0.97631,0.97631 1.95262,1.95262 2.92893,2.92893 0.97631,-0.97631 1.95262,-1.95262 2.92893,-2.92893 -0.48816,-0.48816 -0.97631,-0.97631 -1.46447,-1.46447 -1.95262,-1.95262 -1.95262,-5.11845 0,-7.07107 1.66667,-1.66667 3.33333,-3.33333 5,-5 1.95262,-1.95262 5.11845,-1.95262 7.07107,0 3.33333,3.33333 6.66667,6.66667 10,10 1.95262,1.95262 1.95262,5.11845 0,7.07107 -6.66667,6.66667 -13.33333,13.33333 -20,20 -1.95262,1.95262 -5.11845,1.95262 -7.07107,0 -6.66667,-6.66667 -13.33333,-13.33333 -20,-20 -1.95262,-1.95262 -1.95262,-5.11845 0,-7.07107 3.33333,-3.33333 6.66667,-6.66667 10,-10 1.95262,-1.95262 5.11845,-1.95262 7.07107,0 1.66667,1.66667 3.33333,3.33333 5,5 1.95262,1.95262 1.95262,5.11845 0,7.07107 z"
     stroke-miterlimit="10"
     font-weight="none"
     font-size="none"
     text-anchor="none"
     style="font-family:none;mix-blend-mode:normal;fill:none;fill-rule:nonzero;stroke:#1fff00;stroke-width:0.1;stroke-linecap:butt;stroke-linejoin:miter;stroke-miterlimit:10;stroke-dasharray:none;stroke-dashoffset:0"
     id="path20"
     inkscape:connector-curvature="0" />
  <path
     d="m 54.292318,54.29254 c -0.25245,0.25245 -0.50491,0.50491 -0.75736,0.75736 0.50491,0.50491 1.00981,1.00981 1.51472,1.51472 0.50491,-0.50491 1.00981,-1.00981 1.51472,-1.51472 -0.25245,-0.25245 -0.50491,-0.50491 -0.75736,-0.75736 -0.2878,-0.2878 -0.54026,-0.59757 -0.75736,-0.92391 -0.2171,0.32634 -0.46956,0.6361 -0.75736,0.92391 z m 1.51472,-8.48528 c 1.66667,-1.66667 3.33333,-3.33333 5,-5 2.34315,-2.34315 6.14214,-2.34315 8.48528,0 3.33333,3.33333 6.66667,6.66667 10,10 2.34315,2.34315 2.34315,6.14214 0,8.48528 -6.66667,6.66667 -13.33333,13.33333 -20,20 -2.34315,2.34315 -6.14214,2.34315 -8.48528,0 -6.66667,-6.66667 -13.33333,-13.33333 -20,-20 -2.34315,-2.34315 -2.34315,-6.14214 0,-8.48528 3.33333,-3.33333 6.66667,-6.66667 10,-10 2.34315,-2.34315 6.14214,-2.34315 8.48528,0 1.66667,1.66667 3.33333,3.33333 5,5 0.2878,0.2878 0.54026,0.59757 0.75736,0.92391 0.2171,-0.32634 0.46956,-0.6361 0.75736,-0.92391 z"
     stroke-miterlimit="10"
     font-weight="none"
     font-size="none"
     text-anchor="none"
     style="font-family:none;mix-blend-mode:normal;fill:none;fill-rule:nonzero;stroke:#00ff16;stroke-width:0.1;stroke-linecap:butt;stroke-linejoin:miter;stroke-miterlimit:10;stroke-dasharray:none;stroke-dashoffset:0"
     id="path22"
     inkscape:connector-curvature="0" />
  <path
     d="m 54.999428,54.99965 c -0.01675,0.01675 -0.0335,0.0335 -0.05025,0.05025 0.0335,0.0335 0.067,0.067 0.10051,0.10051 0.0335,-0.0335 0.067,-0.067 0.10051,-0.10051 -0.01675,-0.01675 -0.0335,-0.0335 -0.05025,-0.05025 -0.01685,-0.01685 -0.03361,-0.03377 -0.05025,-0.05076 -0.01665,0.01698 -0.0334,0.0339 -0.05025,0.05076 z m 0.1005,-9.8995 c 1.66667,-1.66667 3.33333,-3.33333 5,-5 2.73367,-2.73367 7.16582,-2.73367 9.89949,0 3.33333,3.33333 6.66667,6.66667 10,10 2.73367,2.73367 2.73367,7.16582 0,9.89949 -6.66667,6.66667 -13.33333,13.33333 -20,20 -2.73367,2.73367 -7.16582,2.73367 -9.89949,0 -6.66667,-6.66667 -13.33333,-13.33333 -20,-20 -2.73367,-2.73367 -2.73367,-7.16582 0,-9.89949 3.33333,-3.33333 6.66667,-6.66667 10,-10 2.73367,-2.73367 7.16582,-2.73367 9.89949,0 1.66667,1.66667 3.33333,3.33333 5,5 0.01685,0.01685 0.03361,0.03377 0.05025,0.05076 0.01665,-0.01698 0.0334,-0.0339 0.05025,-0.05076 z"
     stroke-miterlimit="10"
     font-weight="none"
     font-size="none"
     text-anchor="none"
     style="font-family:none;mix-blend-mode:normal;fill:none;fill-rule:nonzero;stroke:#00ff4b;stroke-width:0.1;stroke-linecap:butt;stroke-linejoin:miter;stroke-miterlimit:10;stroke-dasharray:none;stroke-dashoffset:0"
     id="path24"
     inkscape:connector-curvature="0" />
  <path
     d="m 59.392828,39.39305 c 3.12419,-3.12419 8.18951,-3.12419 11.31371,0 3.33333,3.33333 6.66667,6.66667 10,10 3.12419,3.12419 3.12419,8.18951 0,11.31371 -6.66667,6.66667 -13.33333,13.33333 -20,20 -3.12419,3.12419 -8.18951,3.12419 -11.31371,0 -6.66667,-6.66667 -13.33333,-13.33333 -20,-20 -3.12419,-3.12419 -3.12419,-8.18951 0,-11.31371 3.33333,-3.33333 6.66667,-6.66667 10,-10 3.12419,-3.12419 8.18951,-3.12419 11.31371,0 1.44772,1.44772 2.89543,2.89543 4.34315,4.34315 1.44772,-1.44772 2.89543,-2.89543 4.34315,-4.34315 z"
     stroke-miterlimit="10"
     font-weight="none"
     font-size="none"
     text-anchor="none"
     style="font-family:none;mix-blend-mode:normal;fill:none;fill-rule:nonzero;stroke:#00ff81;stroke-width:0.1;stroke-linecap:butt;stroke-linejoin:miter;stroke-miterlimit:10;stroke-dasharray:none;stroke-dashoffset:0"
     id="path26"
     inkscape:connector-curvature="0" />
  <path
     d="m 58.685718,38.68594 c 3.51472,-3.51472 9.2132,-3.51472 12.72792,0 3.33333,3.33333 6.66667,6.66667 10,10 3.51472,3.51472 3.51472,9.2132 0,12.72792 -6.66667,6.66667 -13.33333,13.33333 -20,20 -3.51472,3.51472 -9.2132,3.51472 -12.72792,0 -6.66667,-6.66667 -13.33333,-13.33333 -20,-20 -3.51472,-3.51472 -3.51472,-9.2132 0,-12.72792 3.33333,-3.33333 6.66667,-6.66667 10,-10 3.51472,-3.51472 9.2132,-3.51472 12.72792,0 1.21201,1.21201 2.42403,2.42403 3.63604,3.63604 1.21201,-1.21201 2.42403,-2.42403 3.63604,-3.63604 z"
     stroke-miterlimit="10"
     font-weight="none"
     font-size="none"
     text-anchor="none"
     style="font-family:none;mix-blend-mode:normal;fill:none;fill-rule:nonzero;stroke:#00ffb6;stroke-width:0.1;stroke-linecap:butt;stroke-linejoin:miter;stroke-miterlimit:10;stroke-dasharray:none;stroke-dashoffset:0"
     id="path28"
     inkscape:connector-curvature="0" />
  <path
     d="m 57.978608,37.97883 c 3.90524,-3.90524 10.23689,-3.90524 14.14214,0 3.33333,3.33333 6.66667,6.66667 10,10 3.90524,3.90524 3.90524,10.23689 0,14.14214 -6.66667,6.66667 -13.33333,13.33333 -20,20 -3.90524,3.90524 -10.23689,3.90524 -14.14214,0 -6.66667,-6.66667 -13.33333,-13.33333 -20,-20 -3.90524,-3.90524 -3.90524,-10.23689 0,-14.14214 3.33333,-3.33333 6.66667,-6.66667 10,-10 3.90524,-3.90524 10.23689,-3.90524 14.14214,0 0.97631,0.97631 1.95262,1.95262 2.92893,2.92893 0.97631,-0.97631 1.95262,-1.95262 2.92893,-2.92893 z"
     stroke-miterlimit="10"
     font-weight="none"
     font-size="none"
     text-anchor="none"
     style="font-family:none;mix-blend-mode:normal;fill:none;fill-rule:nonzero;stroke:#00ffeb;stroke-width:0.1;stroke-linecap:butt;stroke-linejoin:miter;stroke-miterlimit:10;stroke-dasharray:none;stroke-dashoffset:0"
     id="path30"
     inkscape:connector-curvature="0" />
  <path
     d="m 55.049678,39.49355 c 0.74061,-0.74061 1.48122,-1.48122 2.22183,-2.22183 4.29577,-4.29577 11.26058,-4.29577 15.55635,0 3.33333,3.33333 6.66667,6.66667 10,10 4.29577,4.29577 4.29577,11.26058 0,15.55635 -6.66667,6.66667 -13.33333,13.33333 -20,20 -4.29577,4.29577 -11.26058,4.29577 -15.55635,0 -6.66667,-6.66667 -13.33333,-13.33333 -20,-20 -4.29577,-4.29577 -4.29577,-11.26058 0,-15.55635 3.33333,-3.33333 6.66667,-6.66667 10,-10 4.29577,-4.29577 11.26058,-4.29577 15.55635,0 0.74061,0.74061 1.48122,1.48122 2.22183,2.22183 z"
     stroke-miterlimit="10"
     font-weight="none"
     font-size="none"
     text-anchor="none"
     style="font-family:none;mix-blend-mode:normal;fill:none;fill-rule:nonzero;stroke:#00deff;stroke-width:0.1;stroke-linecap:butt;stroke-linejoin:miter;stroke-miterlimit:10;stroke-dasharray:none;stroke-dashoffset:0"
     id="path32"
     inkscape:connector-curvature="0" />
  <path
     d="m 55.049678,38.07934 c 0.50491,-0.50491 1.00981,-1.00981 1.51472,-1.51472 4.68629,-4.68629 12.28427,-4.68629 16.97056,0 3.33333,3.33333 6.66667,6.66667 10,10 4.68629,4.68629 4.68629,12.28427 0,16.97056 -6.66667,6.66667 -13.33333,13.33333 -20,20 -4.68629,4.68629 -12.28427,4.68629 -16.97056,0 -6.66667,-6.66667 -13.33333,-13.33333 -20,-20 -4.68629,-4.68629 -4.68629,-12.28427 0,-16.97056 3.33333,-3.33333 6.66667,-6.66667 10,-10 4.68629,-4.68629 12.28427,-4.68629 16.97056,0 0.50491,0.50491 1.00981,1.00981 1.51472,1.51472 z"
     stroke-miterlimit="10"
     font-weight="none"
     font-size="none"
     text-anchor="none"
     style="font-family:none;mix-blend-mode:normal;fill:none;fill-rule:nonzero;stroke:#00a9ff;stroke-width:0.1;stroke-linecap:butt;stroke-linejoin:miter;stroke-miterlimit:10;stroke-dasharray:none;stroke-dashoffset:0"
     id="path34"
     inkscape:connector-curvature="0" />
  <path
     d="m 55.857288,35.85751 c 5.07682,-5.07682 13.30796,-5.07682 18.38478,0 3.33333,3.33333 6.66667,6.66667 10,10 5.07682,5.07682 5.07682,13.30796 0,18.38478 -6.66667,6.66667 -13.33333,13.33333 -20,20 -5.07682,5.07682 -13.30796,5.07682 -18.38478,0 -6.66667,-6.66667 -13.33333,-13.33333 -20,-20 -5.07682,-5.07682 -5.07682,-13.30796 0,-18.38478 3.33333,-3.33333 6.66667,-6.66667 10,-10 5.07682,-5.07682 13.30796,-5.07682 18.38478,0 0.2692,0.2692 0.53841,0.53841 0.80761,0.80761 0.2692,-0.2692 0.53841,-0.53841 0.80761,-0.80761 z"
     stroke-miterlimit="10"
     font-weight="none"
     font-size="none"
     text-anchor="none"
     style="font-family:none;mix-blend-mode:normal;fill:none;fill-rule:nonzero;stroke:#0073ff;stroke-width:0.1;stroke-linecap:butt;stroke-linejoin:miter;stroke-miterlimit:10;stroke-dasharray:none;stroke-dashoffset:0"
     id="path36"
     inkscape:connector-curvature="0" />
  <path
     d="m 55.150188,35.15041 c 5.46734,-5.46734 14.33165,-5.46734 19.79899,0 3.33333,3.33333 6.66667,6.66667 10,10 5.46734,5.46734 5.46734,14.33165 0,19.79899 -6.66667,6.66667 -13.33333,13.33333 -20,20 -5.46734,5.46734 -14.33165,5.46734 -19.79899,0 -6.66667,-6.66667 -13.33333,-13.33333 -20,-20 -5.46734,-5.46734 -5.46734,-14.33165 0,-19.79899 3.33333,-3.33333 6.66667,-6.66667 10,-10 5.46734,-5.46734 14.33165,-5.46734 19.79899,0 0.0335,0.0335 0.067,0.067 0.10051,0.10051 0.0335,-0.0335 0.067,-0.067 0.10051,-0.10051 z"
     stroke-miterlimit="10"
     font-weight="none"
     font-size="none"
     text-anchor="none"
     style="font-family:none;mix-blend-mode:normal;fill:none;fill-rule:nonzero;stroke:#003eff;stroke-width:0.1;stroke-linecap:butt;stroke-linejoin:miter;stroke-miterlimit:10;stroke-dasharray:none;stroke-dashoffset:0"
     id="path38"
     inkscape:connector-curvature="0" />
  <path
     d="m 75.656278,34.4433 c 3.33333,3.33333 6.66667,6.66667 10,10 5.85786,5.85786 5.85786,15.35534 0,21.2132 -6.66667,6.66667 -13.33333,13.33333 -20,20 -5.85786,5.85786 -15.35534,5.85786 -21.2132,0 -6.66667,-6.66667 -13.33333,-13.33333 -20,-20 -5.85786,-5.85786 -5.85786,-15.35534 0,-21.2132 3.33333,-3.33333 6.66667,-6.66667 10,-10 5.62858,-5.62858 14.67356,-5.88041 20.6066,-0.57374 5.93304,-5.30667 14.97803,-5.05484 20.6066,0.57374 z"
     stroke-miterlimit="10"
     font-weight="none"
     font-size="none"
     text-anchor="none"
     style="font-family:none;mix-blend-mode:normal;fill:none;fill-rule:nonzero;stroke:#0009ff;stroke-width:0.1;stroke-linecap:butt;stroke-linejoin:miter;stroke-miterlimit:10;stroke-dasharray:none;stroke-dashoffset:0"
     id="path40"
     inkscape:connector-curvature="0" />
  <path
     d="m 76.363388,33.73619 c 3.33333,3.33333 6.66667,6.66667 10,10 6.24839,6.24839 6.24839,16.37903 0,22.62742 -6.66667,6.66667 -13.33333,13.33333 -20,20 -6.24839,6.24839 -16.37903,6.24839 -22.62742,0 -6.66667,-6.66667 -13.33333,-13.33333 -20,-20 -6.24839,-6.24839 -6.24839,-16.37903 0,-22.62742 3.33333,-3.33333 6.66667,-6.66667 10,-10 5.76658,-5.76658 14.94758,-6.27327 21.31371,-1.17629 6.36613,-5.09698 15.54713,-4.59029 21.31371,1.17629 z"
     stroke-miterlimit="10"
     font-weight="none"
     font-size="none"
     text-anchor="none"
     style="font-family:none;mix-blend-mode:normal;fill:none;fill-rule:nonzero;stroke:#2c00ff;stroke-width:0.1;stroke-linecap:butt;stroke-linejoin:miter;stroke-miterlimit:10;stroke-dasharray:none;stroke-dashoffset:0"
     id="path42"
     inkscape:connector-curvature="0" />
  <path
     d="m 77.070498,33.02908 c 3.33333,3.33333 6.66667,6.66667 10,10 6.63891,6.63891 6.63891,17.40272 0,24.04163 -6.66667,6.66667 -13.33333,13.33333 -20,20 -6.63891,6.63891 -17.40272,6.63891 -24.04163,0 -6.66667,-6.66667 -13.33333,-13.33333 -20,-20 -6.63891,-6.63891 -6.63891,-17.40272 0,-24.04163 3.33333,-3.33333 6.66667,-6.66667 10,-10 5.91548,-5.91548 15.25551,-6.64795 22.02082,-1.72691 6.7653,-4.92103 16.10533,-4.18857 22.02082,1.72691 z"
     stroke-miterlimit="10"
     font-weight="none"
     font-size="none"
     text-anchor="none"
     style="font-family:none;mix-blend-mode:normal;fill:none;fill-rule:nonzero;stroke:#6200ff;stroke-width:0.1;stroke-linecap:butt;stroke-linejoin:miter;stroke-miterlimit:10;stroke-dasharray:none;stroke-dashoffset:0"
     id="path44"
     inkscape:connector-curvature="0" />
  <path
     d="m 77.777598,32.32198 c 3.33333,3.33333 6.66667,6.66667 10,10 7.02944,7.02944 7.02944,18.42641 0,25.45584 -6.66667,6.66667 -13.33333,13.33333 -20,20 -7.02944,7.02944 -18.42641,7.02944 -25.45584,0 -6.66667,-6.66667 -13.33333,-13.33333 -20,-20 -7.02944,-7.02944 -7.02944,-18.42641 0,-25.45584 3.33333,-3.33333 6.66667,-6.66667 10,-10 6.07208,-6.07208 15.58783,-7.00938 22.72792,-2.23871 7.14009,-4.77068 16.65584,-3.83337 22.72792,2.23871 z"
     stroke-miterlimit="10"
     font-weight="none"
     font-size="none"
     text-anchor="none"
     style="font-family:none;mix-blend-mode:normal;fill:none;fill-rule:nonzero;stroke:#9700ff;stroke-width:0.1;stroke-linecap:butt;stroke-linejoin:miter;stroke-miterlimit:10;stroke-dasharray:none;stroke-dashoffset:0"
     id="path46"
     inkscape:connector-curvature="0" />
  <path
     d="m 78.484708,31.61487 c 3.33333,3.33333 6.66667,6.66667 10,10 7.41996,7.41996 7.41996,19.4501 0,26.87006 -6.66667,6.66667 -13.33333,13.33333 -20,20 -7.41996,7.41996 -19.4501,7.41996 -26.87006,0 -6.66667,-6.66667 -13.33333,-13.33333 -20,-20 -7.41996,-7.41996 -7.41996,-19.4501 0,-26.87006 3.33333,-3.33333 6.66667,-6.66667 10,-10 6.23432,-6.23432 15.93832,-7.36081 23.43503,-2.72047 7.49671,-4.64034 17.20071,-3.51385 23.43503,2.72047 z"
     stroke-miterlimit="10"
     font-weight="none"
     font-size="none"
     text-anchor="none"
     style="font-family:none;mix-blend-mode:normal;fill:none;fill-rule:nonzero;stroke:#cc00ff;stroke-width:0.1;stroke-linecap:butt;stroke-linejoin:miter;stroke-miterlimit:10;stroke-dasharray:none;stroke-dashoffset:0"
     id="path48"
     inkscape:connector-curvature="0" />
  <path
     d="m 79.191818,30.90776 c 3.33333,3.33333 6.66667,6.66667 10,10 7.81049,7.81049 7.81049,20.47379 0,28.28427 -6.66667,6.66667 -13.33333,13.33333 -20,20 -7.81049,7.81049 -20.47379,7.81049 -28.28427,0 -6.66667,-6.66667 -13.33333,-13.33333 -20,-20 -7.81049,-7.81049 -7.81049,-20.47379 0,-28.28427 3.33333,-3.33333 6.66667,-6.66667 10,-10 6.40081,-6.40081 16.30278,-7.70443 24.14214,-3.17837 7.83936,-4.52606 17.74132,-3.22244 24.14214,3.17837 z"
     stroke-miterlimit="10"
     font-weight="none"
     font-size="none"
     text-anchor="none"
     style="font-family:none;mix-blend-mode:normal;fill:none;fill-rule:nonzero;stroke:#ff00fd;stroke-width:0.1;stroke-linecap:butt;stroke-linejoin:miter;stroke-miterlimit:10;stroke-dasharray:none;stroke-dashoffset:0"
     id="path50"
     inkscape:connector-curvature="0" />
</svg>
