<svg version="1.1" baseProfile="full" viewBox=" 30 30 120 90 " viewPort=" 30 30 120 90 " xmlns="http://www.w3.org/2000/svg"> 
<path d="M50,50h20v15h10v-15h20v20h-50zM90,55v5h5v-5zM90,63v5h5v-5z" fill="none" fill-rule="nonzero" stroke="#000000" stroke-width="0.1" stroke-linecap="butt" stroke-linejoin="miter" stroke-miterlimit="10" stroke-dasharray="" stroke-dashoffset="0" font-family="none" font-weight="none" font-size="none" text-anchor="none" style="mix-blend-mode: normal"></path>
<path d="M59,61c0.66667,0 1.33333,0 2,0c0,-0.66667 0,-1.33333 0,-2c-0.66667,0 -1.33333,0 -2,0c0,0.66667 0,1.33333 0,2z" fill="none" fill-rule="nonzero" stroke="#ff2c00" stroke-width="0.1" stroke-linecap="butt" stroke-linejoin="miter" stroke-miterlimit="10" stroke-dasharray="" stroke-dashoffset="0" font-family="none" font-weight="none" font-size="none" text-anchor="none" style="mix-blend-mode: normal"></path>
<path d="M58,62c1.33333,0 2.66667,0 4,0c0,-1.33333 0,-2.66667 0,-4c-1.33333,0 -2.66667,0 -4,0c0,1.33333 0,2.66667 0,4z" fill="none" fill-rule="nonzero" stroke="#ff5900" stroke-width="0.1" stroke-linecap="butt" stroke-linejoin="miter" stroke-miterlimit="10" stroke-dasharray="" stroke-dashoffset="0" font-family="none" font-weight="none" font-size="none" text-anchor="none" style="mix-blend-mode: normal"></path>
<path d="M57,63c2,0 4,0 6,0c0,-2 0,-4 0,-6c-2,0 -4,0 -6,0c0,2 0,4 0,6z" fill="none" fill-rule="nonzero" stroke="#ff8500" stroke-width="0.1" stroke-linecap="butt" stroke-linejoin="miter" stroke-miterlimit="10" stroke-dasharray="" stroke-dashoffset="0" font-family="none" font-weight="none" font-size="none" text-anchor="none" style="mix-blend-mode: normal"></path>
<path d="M56,64c2.66667,0 5.33333,0 8,0c0,-2.66667 0,-5.33333 0,-8c-2.66667,0 -5.33333,0 -8,0c0,2.66667 0,5.33333 0,8z" fill="none" fill-rule="nonzero" stroke="#ffb100" stroke-width="0.1" stroke-linecap="butt" stroke-linejoin="miter" stroke-miterlimit="10" stroke-dasharray="" stroke-dashoffset="0" font-family="none" font-weight="none" font-size="none" text-anchor="none" style="mix-blend-mode: normal"></path>
<path d="M65,55c0,3.33333 0,6.66667 0,10c-3.33333,0 -6.66667,0 -10,0c0,-3.33333 0,-6.66667 0,-10c3.33333,0 6.66667,0 10,0zM85.2289,61.5c-0.14872,0.47352 -0.2289,0.9774 -0.2289,1.5c0,-1 0,-2 0,-3c0,0.5226 0.08018,1.02648 0.2289,1.5z" fill="none" fill-rule="nonzero" stroke="#ffde00" stroke-width="0.1" stroke-linecap="butt" stroke-linejoin="miter" stroke-miterlimit="10" stroke-dasharray="" stroke-dashoffset="0" font-family="none" font-weight="none" font-size="none" text-anchor="none" style="mix-blend-mode: normal"></path>
<path d="M54,54c4,0 8,0 12,0c0,3.66667 0,7.33333 0,11c0,0.3453 0.04375,0.68038 0.12602,1c-4.04201,0 -8.08401,0 -12.12602,0c0,-4 0,-8 0,-12zM84,65c0,-3.66667 0,-7.33333 0,-11c0.70867,0 1.41734,0 2.12602,0c-0.08226,0.31962 -0.12602,0.6547 -0.12602,1c0,1.66667 0,3.33333 0,5c0,0.53045 0.10325,1.03678 0.29076,1.5c-0.1875,0.46322 -0.29076,0.96955 -0.29076,1.5c0,1 0,2 0,3c-0.70867,0 -1.41734,0 -2.12602,0c0.08226,-0.31962 0.12602,-0.6547 0.12602,-1z" fill="none" fill-rule="nonzero" stroke="#f4ff00" stroke-width="0.1" stroke-linecap="butt" stroke-linejoin="miter" stroke-miterlimit="10" stroke-dasharray="" stroke-dashoffset="0" font-family="none" font-weight="none" font-size="none" text-anchor="none" style="mix-blend-mode: normal"></path>
<path d="M53,53c4.66667,0 9.33333,0 14,0c0,4 0,8 0,12c0,0.76835 0.28885,1.46924 0.76389,2c-4.9213,0 -9.8426,0 -14.76389,0c0,-4.66667 0,-9.33333 0,-14zM83,65c0,-4 0,-8 0,-12c1.58796,0 3.17593,0 4.76389,0c-0.47504,0.53076 -0.76389,1.23165 -0.76389,2c0,1.66667 0,3.33333 0,5c0,0.54643 0.14609,1.05874 0.40135,1.5c-0.25526,0.44126 -0.40135,0.95357 -0.40135,1.5c0,1.33333 0,2.66667 0,4c-1.58796,0 -3.17593,0 -4.76389,0c0.47504,-0.53076 0.76389,-1.23165 0.76389,-2z" fill="none" fill-rule="nonzero" stroke="#c8ff00" stroke-width="0.1" stroke-linecap="butt" stroke-linejoin="miter" stroke-miterlimit="10" stroke-dasharray="" stroke-dashoffset="0" font-family="none" font-weight="none" font-size="none" text-anchor="none" style="mix-blend-mode: normal"></path>
<path d="M52,52c5.33333,0 10.66667,0 16,0c0,4.33333 0,8.66667 0,13c0,1.10457 0.89543,2 2,2c3.33333,0 6.66667,0 10,0c1.10457,0 2,-0.89543 2,-2c0,-4.33333 0,-8.66667 0,-13c5.33333,0 10.66667,0 16,0c0,5.33333 0,10.66667 0,16c-0.33333,0 -0.66667,0 -1,0c0,-1.66667 0,-3.33333 0,-5c0,-0.59735 -0.26188,-1.13353 -0.67709,-1.5c0.41521,-0.36647 0.67709,-0.90265 0.67709,-1.5c0,-1.66667 0,-3.33333 0,-5c0,-1.10457 -0.89543,-2 -2,-2c-1.66667,0 -3.33333,0 -5,0c-1.10457,0 -2,0.89543 -2,2c0,1.66667 0,3.33333 0,5c0,0.59735 0.26188,1.13353 0.67709,1.5c-0.41521,0.36647 -0.67709,0.90265 -0.67709,1.5c0,1.66667 0,3.33333 0,5c-12,0 -24,0 -36,0c0,-5.33333 0,-10.66667 0,-16z" fill="none" fill-rule="nonzero" stroke="#9bff00" stroke-width="0.1" stroke-linecap="butt" stroke-linejoin="miter" stroke-miterlimit="10" stroke-dasharray="" stroke-dashoffset="0" font-family="none" font-weight="none" font-size="none" text-anchor="none" style="mix-blend-mode: normal"></path>
<path d="M51,51c6,0 12,0 18,0c0,4.66667 0,9.33333 0,14c0,0.55228 0.44772,1 1,1c3.33333,0 6.66667,0 10,0c0.55228,0 1,-0.44772 1,-1c0,-4.66667 0,-9.33333 0,-14c6,0 12,0 18,0c0,6 0,12 0,18c-1.33333,0 -2.66667,0 -4,0c0.55228,0 1,-0.44772 1,-1c0,-1.66667 0,-3.33333 0,-5c0,-0.55228 -0.44772,-1 -1,-1c-1.66667,0 -3.33333,0 -5,0c-0.55228,0 -1,0.44772 -1,1c0,1.66667 0,3.33333 0,5c0,0.55228 0.44772,1 1,1c-13,0 -26,0 -39,0c0,-6 0,-12 0,-18zM89,55c0,1.66667 0,3.33333 0,5c0,0.55228 0.44772,1 1,1c1.66667,0 3.33333,0 5,0c0.55228,0 1,-0.44772 1,-1c0,-1.66667 0,-3.33333 0,-5c0,-0.55228 -0.44772,-1 -1,-1c-1.66667,0 -3.33333,0 -5,0c-0.55228,0 -1,0.44772 -1,1z" fill="none" fill-rule="nonzero" stroke="#6fff00" stroke-width="0.1" stroke-linecap="butt" stroke-linejoin="miter" stroke-miterlimit="10" stroke-dasharray="" stroke-dashoffset="0" font-family="none" font-weight="none" font-size="none" text-anchor="none" style="mix-blend-mode: normal"></path>
<path d="M50,49c6.66667,0 13.33333,0 20,0c0.55228,0 1,0.44772 1,1c0,4.66667 0,9.33333 0,14c2.66667,0 5.33333,0 8,0c0,-4.66667 0,-9.33333 0,-14c0,-0.55228 0.44772,-1 1,-1c6.66667,0 13.33333,0 20,0c0.55228,0 1,0.44772 1,1c0,6.66667 0,13.33333 0,20c0,0.55228 -0.44772,1 -1,1c-16.66667,0 -33.33333,0 -50,0c-0.55228,0 -1,-0.44772 -1,-1c0,-6.66667 0,-13.33333 0,-20c0,-0.55228 0.44772,-1 1,-1zM91,56c0,1 0,2 0,3c1,0 2,0 3,0c0,-1 0,-2 0,-3c-1,0 -2,0 -3,0zM91,64c0,1 0,2 0,3c1,0 2,0 3,0c0,-1 0,-2 0,-3c-1,0 -2,0 -3,0z" fill="none" fill-rule="nonzero" stroke="#43ff00" stroke-width="0.1" stroke-linecap="butt" stroke-linejoin="miter" stroke-miterlimit="10" stroke-dasharray="" stroke-dashoffset="0" font-family="none" font-weight="none" font-size="none" text-anchor="none" style="mix-blend-mode: normal"></path>
<path d="M50,48c6.66667,0 13.33333,0 20,0c1.10457,0 2,0.89543 2,2c0,4.33333 0,8.66667 0,13c2,0 4,0 6,0c0,-4.33333 0,-8.66667 0,-13c0,-1.10457 0.89543,-2 2,-2c6.66667,0 13.33333,0 20,0c1.10457,0 2,0.89543 2,2c0,6.66667 0,13.33333 0,20c0,1.10457 -0.89543,2 -2,2c-16.66667,0 -33.33333,0 -50,0c-1.10457,0 -2,-0.89543 -2,-2c0,-6.66667 0,-13.33333 0,-20c0,-1.10457 0.89543,-2 2,-2zM92,58c0.33333,0 0.66667,0 1,0c0,-0.33333 0,-0.66667 0,-1c-0.33333,0 -0.66667,0 -1,0c0,0.33333 0,0.66667 0,1zM92,66c0.33333,0 0.66667,0 1,0c0,-0.33333 0,-0.66667 0,-1c-0.33333,0 -0.66667,0 -1,0c0,0.33333 0,0.66667 0,1z" fill="none" fill-rule="nonzero" stroke="#16ff00" stroke-width="0.1" stroke-linecap="butt" stroke-linejoin="miter" stroke-miterlimit="10" stroke-dasharray="" stroke-dashoffset="0" font-family="none" font-weight="none" font-size="none" text-anchor="none" style="mix-blend-mode: normal"></path>
<path d="M50,47c6.66667,0 13.33333,0 20,0c1.65685,0 3,1.34315 3,3c0,4 0,8 0,12c1.33333,0 2.66667,0 4,0c0,-4 0,-8 0,-12c0,-1.65685 1.34315,-3 3,-3c6.66667,0 13.33333,0 20,0c1.65685,0 3,1.34315 3,3c0,6.66667 0,13.33333 0,20c0,1.65685 -1.34315,3 -3,3c-16.66667,0 -33.33333,0 -50,0c-1.65685,0 -3,-1.34315 -3,-3c0,-6.66667 0,-13.33333 0,-20c0,-1.65685 1.34315,-3 3,-3z" fill="none" fill-rule="nonzero" stroke="#00ff16" stroke-width="0.1" stroke-linecap="butt" stroke-linejoin="miter" stroke-miterlimit="10" stroke-dasharray="" stroke-dashoffset="0" font-family="none" font-weight="none" font-size="none" text-anchor="none" style="mix-blend-mode: normal"></path>
<path d="M50,46c6.66667,0 13.33333,0 20,0c2.20914,0 4,1.79086 4,4c0,3.66667 0,7.33333 0,11c0.66667,0 1.33333,0 2,0c0,-3.66667 0,-7.33333 0,-11c0,-2.20914 1.79086,-4 4,-4c6.66667,0 13.33333,0 20,0c2.20914,0 4,1.79086 4,4c0,6.66667 0,13.33333 0,20c0,2.20914 -1.79086,4 -4,4c-16.66667,0 -33.33333,0 -50,0c-2.20914,0 -4,-1.79086 -4,-4c0,-6.66667 0,-13.33333 0,-20c0,-2.20914 1.79086,-4 4,-4z" fill="none" fill-rule="nonzero" stroke="#00ff43" stroke-width="0.1" stroke-linecap="butt" stroke-linejoin="miter" stroke-miterlimit="10" stroke-dasharray="" stroke-dashoffset="0" font-family="none" font-weight="none" font-size="none" text-anchor="none" style="mix-blend-mode: normal"></path>
<path d="M50,45c6.66667,0 13.33333,0 20,0c2.76142,0 5,2.23858 5,5c0,-2.76142 2.23858,-5 5,-5c6.66667,0 13.33333,0 20,0c2.76142,0 5,2.23858 5,5c0,6.66667 0,13.33333 0,20c0,2.76142 -2.23858,5 -5,5c-16.66667,0 -33.33333,0 -50,0c-2.76142,0 -5,-2.23858 -5,-5c0,-6.66667 0,-13.33333 0,-20c0,-2.76142 2.23858,-5 5,-5z" fill="none" fill-rule="nonzero" stroke="#00ff6f" stroke-width="0.1" stroke-linecap="butt" stroke-linejoin="miter" stroke-miterlimit="10" stroke-dasharray="" stroke-dashoffset="0" font-family="none" font-weight="none" font-size="none" text-anchor="none" style="mix-blend-mode: normal"></path>
<path d="M50,44c6.66667,0 13.33333,0 20,0c2.08697,0 3.92508,1.06551 5,2.6822c1.07492,-1.6167 2.91303,-2.6822 5,-2.6822c6.66667,0 13.33333,0 20,0c3.31371,0 6,2.68629 6,6c0,6.66667 0,13.33333 0,20c0,3.31371 -2.68629,6 -6,6c-16.66667,0 -33.33333,0 -50,0c-3.31371,0 -6,-2.68629 -6,-6c0,-6.66667 0,-13.33333 0,-20c0,-3.31371 2.68629,-6 6,-6z" fill="none" fill-rule="nonzero" stroke="#00ff9b" stroke-width="0.1" stroke-linecap="butt" stroke-linejoin="miter" stroke-miterlimit="10" stroke-dasharray="" stroke-dashoffset="0" font-family="none" font-weight="none" font-size="none" text-anchor="none" style="mix-blend-mode: normal"></path>
<path d="M50,43c6.66667,0 13.33333,0 20,0c1.95869,0 3.72948,0.80447 5,2.10102c1.27052,-1.29655 3.04131,-2.10102 5,-2.10102c6.66667,0 13.33333,0 20,0c3.86599,0 7,3.13401 7,7c0,6.66667 0,13.33333 0,20c0,3.86599 -3.13401,7 -7,7c-16.66667,0 -33.33333,0 -50,0c-3.86599,0 -7,-3.13401 -7,-7c0,-6.66667 0,-13.33333 0,-20c0,-3.86599 3.13401,-7 7,-7z" fill="none" fill-rule="nonzero" stroke="#00ffc8" stroke-width="0.1" stroke-linecap="butt" stroke-linejoin="miter" stroke-miterlimit="10" stroke-dasharray="" stroke-dashoffset="0" font-family="none" font-weight="none" font-size="none" text-anchor="none" style="mix-blend-mode: normal"></path>
<path d="M50,42c6.66667,0 13.33333,0 20,0c1.89189,0 3.6304,0.65672 5,1.75463c1.3696,-1.09791 3.10811,-1.75463 5,-1.75463c6.66667,0 13.33333,0 20,0c4.41828,0 8,3.58172 8,8c0,6.66667 0,13.33333 0,20c0,4.41828 -3.58172,8 -8,8c-16.66667,0 -33.33333,0 -50,0c-4.41828,0 -8,-3.58172 -8,-8c0,-6.66667 0,-13.33333 0,-20c0,-4.41828 3.58172,-8 8,-8z" fill="none" fill-rule="nonzero" stroke="#00fff4" stroke-width="0.1" stroke-linecap="butt" stroke-linejoin="miter" stroke-miterlimit="10" stroke-dasharray="" stroke-dashoffset="0" font-family="none" font-weight="none" font-size="none" text-anchor="none" style="mix-blend-mode: normal"></path>
<path d="M50,41c6.66667,0 13.33333,0 20,0c1.85015,0 3.5699,0.55827 5,1.51555c1.4301,-0.95728 3.14985,-1.51555 5,-1.51555c6.66667,0 13.33333,0 20,0c4.97056,0 9,4.02944 9,9c0,6.66667 0,13.33333 0,20c0,4.97056 -4.02944,9 -9,9c-16.66667,0 -33.33333,0 -50,0c-4.97056,0 -9,-4.02944 -9,-9c0,-6.66667 0,-13.33333 0,-20c0,-4.97056 4.02944,-9 9,-9z" fill="none" fill-rule="nonzero" stroke="#00deff" stroke-width="0.1" stroke-linecap="butt" stroke-linejoin="miter" stroke-miterlimit="10" stroke-dasharray="" stroke-dashoffset="0" font-family="none" font-weight="none" font-size="none" text-anchor="none" style="mix-blend-mode: normal"></path>
<path d="M50,40c6.66667,0 13.33333,0 20,0c1.82144,0 3.52913,0.48697 5,1.33782c1.47087,-0.85085 3.17856,-1.33782 5,-1.33782c6.66667,0 13.33333,0 20,0c5.52285,0 10,4.47715 10,10c0,6.66667 0,13.33333 0,20c0,5.52285 -4.47715,10 -10,10c-16.66667,0 -33.33333,0 -50,0c-5.52285,0 -10,-4.47715 -10,-10c0,-6.66667 0,-13.33333 0,-20c0,-5.52285 4.47715,-10 10,-10z" fill="none" fill-rule="nonzero" stroke="#00b1ff" stroke-width="0.1" stroke-linecap="butt" stroke-linejoin="miter" stroke-miterlimit="10" stroke-dasharray="" stroke-dashoffset="0" font-family="none" font-weight="none" font-size="none" text-anchor="none" style="mix-blend-mode: normal"></path>
<path d="M50,39c6.66667,0 13.33333,0 20,0c1.73823,0 3.45172,0.41194 5,1.20204c1.54828,-0.7901 3.26177,-1.20204 5,-1.20204c6.66667,0 13.33333,0 20,0c6.07513,0 11,4.92487 11,11c0,6.66667 0,13.33333 0,20c0,6.07513 -4.92487,11 -11,11c-16.66667,0 -33.33333,0 -50,0c-6.07513,0 -11,-4.92487 -11,-11c0,-6.66667 0,-13.33333 0,-20c0,-6.07513 4.92487,-11 11,-11z" fill="none" fill-rule="nonzero" stroke="#0085ff" stroke-width="0.1" stroke-linecap="butt" stroke-linejoin="miter" stroke-miterlimit="10" stroke-dasharray="" stroke-dashoffset="0" font-family="none" font-weight="none" font-size="none" text-anchor="none" style="mix-blend-mode: normal"></path>
<path d="M50,38c6.66667,0 13.33333,0 20,0c1.72575,0 3.43119,0.37223 5,1.09129c1.56881,-0.71906 3.27425,-1.09129 5,-1.09129c6.66667,0 13.33333,0 20,0c6.62742,0 12,5.37258 12,12c0,6.66667 0,13.33333 0,20c0,6.62742 -5.37258,12 -12,12c-16.66667,0 -33.33333,0 -50,0c-6.62742,0 -12,-5.37258 -12,-12c0,-6.66667 0,-13.33333 0,-20c0,-6.62742 5.37258,-12 12,-12z" fill="none" fill-rule="nonzero" stroke="#0059ff" stroke-width="0.1" stroke-linecap="butt" stroke-linejoin="miter" stroke-miterlimit="10" stroke-dasharray="" stroke-dashoffset="0" font-family="none" font-weight="none" font-size="none" text-anchor="none" style="mix-blend-mode: normal"></path>
<path d="M50,37c6.66667,0 13.33333,0 20,0c1.71634,0 3.41569,0.33987 5,1c1.58431,-0.66013 3.28366,-1 5,-1c6.66667,0 13.33333,0 20,0c7.1797,0 13,5.8203 13,13c0,6.66667 0,13.33333 0,20c0,7.1797 -5.8203,13 -13,13c-16.66667,0 -33.33333,0 -50,0c-7.1797,0 -13,-5.8203 -13,-13c0,-6.66667 0,-13.33333 0,-20c0,-7.1797 5.8203,-13 13,-13z" fill="none" fill-rule="nonzero" stroke="#002cff" stroke-width="0.1" stroke-linecap="butt" stroke-linejoin="miter" stroke-miterlimit="10" stroke-dasharray="" stroke-dashoffset="0" font-family="none" font-weight="none" font-size="none" text-anchor="none" style="mix-blend-mode: normal"></path>
<path d="M50,36c6.66667,0 13.33333,0 20,0c1.70905,0 3.40366,0.31293 5,0.9233c1.59634,-0.61038 3.29095,-0.9233 5,-0.9233c6.66667,0 13.33333,0 20,0c7.73199,0 14,6.26801 14,14c0,6.66667 0,13.33333 0,20c0,7.73199 -6.26801,14 -14,14c-16.66667,0 -33.33333,0 -50,0c-7.73199,0 -14,-6.26801 -14,-14c0,-6.66667 0,-13.33333 0,-20c0,-7.73199 6.26801,-14 14,-14z" fill="none" fill-rule="nonzero" stroke="#0000ff" stroke-width="0.1" stroke-linecap="butt" stroke-linejoin="miter" stroke-miterlimit="10" stroke-dasharray="" stroke-dashoffset="0" font-family="none" font-weight="none" font-size="none" text-anchor="none" style="mix-blend-mode: normal"></path>
<path d="M50,35c6.66667,0 13.33333,0 20,0c1.70328,0 3.39413,0.2901 5,0.85786c1.60587,-0.56776 3.29672,-0.85786 5,-0.85786c6.66667,0 13.33333,0 20,0c8.28427,0 15,6.71573 15,15c0,6.66667 0,13.33333 0,20c0,8.28427 -6.71573,15 -15,15c-16.66667,0 -33.33333,0 -50,0c-8.28427,0 -15,-6.71573 -15,-15c0,-6.66667 0,-13.33333 0,-20c0,-8.28427 6.71573,-15 15,-15z" fill="none" fill-rule="nonzero" stroke="#2c00ff" stroke-width="0.1" stroke-linecap="butt" stroke-linejoin="miter" stroke-miterlimit="10" stroke-dasharray="" stroke-dashoffset="0" font-family="none" font-weight="none" font-size="none" text-anchor="none" style="mix-blend-mode: normal"></path>
<path d="M50,34c6.66667,0 13.33333,0 20,0c1.69864,0 3.38644,0.27049 5,0.80132c1.61356,-0.53082 3.30136,-0.80132 5,-0.80132c6.66667,0 13.33333,0 20,0c8.83656,0 16,7.16344 16,16c0,6.66667 0,13.33333 0,20c0,8.83656 -7.16344,16 -16,16c-16.66667,0 -33.33333,0 -50,0c-8.83656,0 -16,-7.16344 -16,-16c0,-6.66667 0,-13.33333 0,-20c0,-8.83656 7.16344,-16 16,-16z" fill="none" fill-rule="nonzero" stroke="#5900ff" stroke-width="0.1" stroke-linecap="butt" stroke-linejoin="miter" stroke-miterlimit="10" stroke-dasharray="" stroke-dashoffset="0" font-family="none" font-weight="none" font-size="none" text-anchor="none" style="mix-blend-mode: normal"></path>
<path d="M50,33c6.66667,0 13.33333,0 20,0c1.69483,0 3.38013,0.25344 5,0.75192c1.61987,-0.49848 3.30517,-0.75192 5,-0.75192c6.66667,0 13.33333,0 20,0c9.38884,0 17,7.61116 17,17c0,6.66667 0,13.33333 0,20c0,9.38884 -7.61116,17 -17,17c-16.66667,0 -33.33333,0 -50,0c-9.38884,0 -17,-7.61116 -17,-17c0,-6.66667 0,-13.33333 0,-20c0,-9.38884 7.61116,-17 17,-17z" fill="none" fill-rule="nonzero" stroke="#8500ff" stroke-width="0.1" stroke-linecap="butt" stroke-linejoin="miter" stroke-miterlimit="10" stroke-dasharray="" stroke-dashoffset="0" font-family="none" font-weight="none" font-size="none" text-anchor="none" style="mix-blend-mode: normal"></path>
<path d="M50,32c6.66667,0 13.33333,0 20,0c1.69167,0 3.3749,0.23847 5,0.70838c1.6251,-0.46991 3.30833,-0.70838 5,-0.70838c6.66667,0 13.33333,0 20,0c9.94113,0 18,8.05887 18,18c0,6.66667 0,13.33333 0,20c0,9.94113 -8.05887,18 -18,18c-16.66667,0 -33.33333,0 -50,0c-9.94113,0 -18,-8.05887 -18,-18c0,-6.66667 0,-13.33333 0,-20c0,-9.94113 8.05887,-18 18,-18z" fill="none" fill-rule="nonzero" stroke="#b100ff" stroke-width="0.1" stroke-linecap="butt" stroke-linejoin="miter" stroke-miterlimit="10" stroke-dasharray="" stroke-dashoffset="0" font-family="none" font-weight="none" font-size="none" text-anchor="none" style="mix-blend-mode: normal"></path>
<path d="M50,31c6.66667,0 13.33333,0 20,0c1.68902,0 3.37051,0.22522 5,0.6697c1.62949,-0.44448 3.31098,-0.6697 5,-0.6697c6.66667,0 13.33333,0 20,0c10.49341,0 19,8.50659 19,19c0,6.66667 0,13.33333 0,20c0,10.49341 -8.50659,19 -19,19c-16.66667,0 -33.33333,0 -50,0c-10.49341,0 -19,-8.50659 -19,-19c0,-6.66667 0,-13.33333 0,-20c0,-10.49341 8.50659,-19 19,-19z" fill="none" fill-rule="nonzero" stroke="#de00ff" stroke-width="0.1" stroke-linecap="butt" stroke-linejoin="miter" stroke-miterlimit="10" stroke-dasharray="" stroke-dashoffset="0" font-family="none" font-weight="none" font-size="none" text-anchor="none" style="mix-blend-mode: normal"></path>
<path d="M50,30c6.66667,0 13.33333,0 20,0c1.68678,0 3.36678,0.21339 5,0.63508c1.63322,-0.42169 3.31322,-0.63508 5,-0.63508c6.66667,0 13.33333,0 20,0c11.04569,0 20,8.95431 20,20c0,6.66667 0,13.33333 0,20c0,11.04569 -8.95431,20 -20,20c-16.66667,0 -33.33333,0 -50,0c-11.04569,0 -20,-8.95431 -20,-20c0,-6.66667 0,-13.33333 0,-20c0,-11.04569 8.95431,-20 20,-20z" fill="none" fill-rule="nonzero" stroke="#ff00f4" stroke-width="0.1" stroke-linecap="butt" stroke-linejoin="miter" stroke-miterlimit="10" stroke-dasharray="" stroke-dashoffset="0" font-family="none" font-weight="none" font-size="none" text-anchor="none" style="mix-blend-mode: normal"></path>
</svg>