<?xml version="1.0" encoding="UTF-8" standalone="no"?>
<svg
   xmlns:dc="http://purl.org/dc/elements/1.1/"
   xmlns:cc="http://creativecommons.org/ns#"
   xmlns:rdf="http://www.w3.org/1999/02/22-rdf-syntax-ns#"
   xmlns:svg="http://www.w3.org/2000/svg"
   xmlns="http://www.w3.org/2000/svg"
   xmlns:sodipodi="http://sodipodi.sourceforge.net/DTD/sodipodi-0.dtd"
   xmlns:inkscape="http://www.inkscape.org/namespaces/inkscape"
   version="1.1"
   viewBox="30 30 90.099998 60.099998"
   viewPort=" 30 30 120 90 "
   id="svg62"
   sodipodi:docname="example4-10.svg"
   width="90.099998"
   height="60.099998"
   inkscape:version="0.92.3 (2405546, 2018-03-11)">
  <metadata
     id="metadata68">
    <rdf:RDF>
      <cc:Work
         rdf:about="">
        <dc:format>image/svg+xml</dc:format>
        <dc:type
           rdf:resource="http://purl.org/dc/dcmitype/StillImage" />
        <dc:title></dc:title>
      </cc:Work>
    </rdf:RDF>
  </metadata>
  <defs
     id="defs66" />
  <sodipodi:namedview
     pagecolor="#ffffff"
     bordercolor="#666666"
     borderopacity="1"
     objecttolerance="10"
     gridtolerance="10"
     guidetolerance="10"
     inkscape:pageopacity="0"
     inkscape:pageshadow="2"
     inkscape:window-width="1920"
     inkscape:window-height="1137"
     id="namedview64"
     showgrid="false"
     fit-margin-top="0"
     fit-margin-left="0"
     fit-margin-right="0"
     fit-margin-bottom="0"
     inkscape:zoom="10.45816"
     inkscape:cx="60.05"
     inkscape:cy="15.05"
     inkscape:window-x="1912"
     inkscape:window-y="-8"
     inkscape:window-maximized="1"
     inkscape:current-layer="svg62" />
  <path
     d="m 50.05,50.05 h 20 v 15 h 10 v -15 h 20 v 20 h -50 z m 40,5 v 5 h 5 v -5 z m 0,8 v 5 h 5 v -5 z"
     stroke-miterlimit="10"
     font-weight="none"
     font-size="none"
     text-anchor="none"
     style="font-family:none;mix-blend-mode:normal;fill:none;fill-rule:nonzero;stroke:#000000;stroke-width:0.1;stroke-linecap:butt;stroke-linejoin:miter;stroke-miterlimit:10;stroke-dasharray:none;stroke-dashoffset:0"
     id="path2"
     inkscape:connector-curvature="0" />
  <path
     d="m 59.05,61.05 c 0.66667,0 1.33333,0 2,0 0,-0.66667 0,-1.33333 0,-2 -0.66667,0 -1.33333,0 -2,0 0,0.66667 0,1.33333 0,2 z"
     stroke-miterlimit="10"
     font-weight="none"
     font-size="none"
     text-anchor="none"
     style="font-family:none;mix-blend-mode:normal;fill:none;fill-rule:nonzero;stroke:#ff2c00;stroke-width:0.1;stroke-linecap:butt;stroke-linejoin:miter;stroke-miterlimit:10;stroke-dasharray:none;stroke-dashoffset:0"
     id="path4"
     inkscape:connector-curvature="0" />
  <path
     d="m 58.05,62.05 c 1.33333,0 2.66667,0 4,0 0,-1.33333 0,-2.66667 0,-4 -1.33333,0 -2.66667,0 -4,0 0,1.33333 0,2.66667 0,4 z"
     stroke-miterlimit="10"
     font-weight="none"
     font-size="none"
     text-anchor="none"
     style="font-family:none;mix-blend-mode:normal;fill:none;fill-rule:nonzero;stroke:#ff5900;stroke-width:0.1;stroke-linecap:butt;stroke-linejoin:miter;stroke-miterlimit:10;stroke-dasharray:none;stroke-dashoffset:0"
     id="path6"
     inkscape:connector-curvature="0" />
  <path
     d="m 57.05,63.05 c 2,0 4,0 6,0 0,-2 0,-4 0,-6 -2,0 -4,0 -6,0 0,2 0,4 0,6 z"
     stroke-miterlimit="10"
     font-weight="none"
     font-size="none"
     text-anchor="none"
     style="font-family:none;mix-blend-mode:normal;fill:none;fill-rule:nonzero;stroke:#ff8500;stroke-width:0.1;stroke-linecap:butt;stroke-linejoin:miter;stroke-miterlimit:10;stroke-dasharray:none;stroke-dashoffset:0"
     id="path8"
     inkscape:connector-curvature="0" />
  <path
     d="m 56.05,64.05 c 2.66667,0 5.33333,0 8,0 0,-2.66667 0,-5.33333 0,-8 -2.66667,0 -5.33333,0 -8,0 0,2.66667 0,5.33333 0,8 z"
     stroke-miterlimit="10"
     font-weight="none"
     font-size="none"
     text-anchor="none"
     style="font-family:none;mix-blend-mode:normal;fill:none;fill-rule:nonzero;stroke:#ffb100;stroke-width:0.1;stroke-linecap:butt;stroke-linejoin:miter;stroke-miterlimit:10;stroke-dasharray:none;stroke-dashoffset:0"
     id="path10"
     inkscape:connector-curvature="0" />
  <path
     d="m 65.05,55.05 c 0,3.33333 0,6.66667 0,10 -3.33333,0 -6.66667,0 -10,0 0,-3.33333 0,-6.66667 0,-10 3.33333,0 6.66667,0 10,0 z m 20.2289,6.5 c -0.14872,0.47352 -0.2289,0.9774 -0.2289,1.5 0,-1 0,-2 0,-3 0,0.5226 0.08018,1.02648 0.2289,1.5 z"
     stroke-miterlimit="10"
     font-weight="none"
     font-size="none"
     text-anchor="none"
     style="font-family:none;mix-blend-mode:normal;fill:none;fill-rule:nonzero;stroke:#ffde00;stroke-width:0.1;stroke-linecap:butt;stroke-linejoin:miter;stroke-miterlimit:10;stroke-dasharray:none;stroke-dashoffset:0"
     id="path12"
     inkscape:connector-curvature="0" />
  <path
     d="m 54.05,54.05 c 4,0 8,0 12,0 0,3.66667 0,7.33333 0,11 0,0.3453 0.04375,0.68038 0.12602,1 -4.04201,0 -8.08401,0 -12.12602,0 0,-4 0,-8 0,-12 z m 30,11 c 0,-3.66667 0,-7.33333 0,-11 0.70867,0 1.41734,0 2.12602,0 -0.08226,0.31962 -0.12602,0.6547 -0.12602,1 0,1.66667 0,3.33333 0,5 0,0.53045 0.10325,1.03678 0.29076,1.5 -0.1875,0.46322 -0.29076,0.96955 -0.29076,1.5 0,1 0,2 0,3 -0.70867,0 -1.41734,0 -2.12602,0 0.08226,-0.31962 0.12602,-0.6547 0.12602,-1 z"
     stroke-miterlimit="10"
     font-weight="none"
     font-size="none"
     text-anchor="none"
     style="font-family:none;mix-blend-mode:normal;fill:none;fill-rule:nonzero;stroke:#f4ff00;stroke-width:0.1;stroke-linecap:butt;stroke-linejoin:miter;stroke-miterlimit:10;stroke-dasharray:none;stroke-dashoffset:0"
     id="path14"
     inkscape:connector-curvature="0" />
  <path
     d="m 53.05,53.05 c 4.66667,0 9.33333,0 14,0 0,4 0,8 0,12 0,0.76835 0.28885,1.46924 0.76389,2 -4.9213,0 -9.8426,0 -14.76389,0 0,-4.66667 0,-9.33333 0,-14 z m 30,12 c 0,-4 0,-8 0,-12 1.58796,0 3.17593,0 4.76389,0 -0.47504,0.53076 -0.76389,1.23165 -0.76389,2 0,1.66667 0,3.33333 0,5 0,0.54643 0.14609,1.05874 0.40135,1.5 -0.25526,0.44126 -0.40135,0.95357 -0.40135,1.5 0,1.33333 0,2.66667 0,4 -1.58796,0 -3.17593,0 -4.76389,0 0.47504,-0.53076 0.76389,-1.23165 0.76389,-2 z"
     stroke-miterlimit="10"
     font-weight="none"
     font-size="none"
     text-anchor="none"
     style="font-family:none;mix-blend-mode:normal;fill:none;fill-rule:nonzero;stroke:#c8ff00;stroke-width:0.1;stroke-linecap:butt;stroke-linejoin:miter;stroke-miterlimit:10;stroke-dasharray:none;stroke-dashoffset:0"
     id="path16"
     inkscape:connector-curvature="0" />
  <path
     d="m 52.05,52.05 c 5.33333,0 10.66667,0 16,0 0,4.33333 0,8.66667 0,13 0,1.10457 0.89543,2 2,2 3.33333,0 6.66667,0 10,0 1.10457,0 2,-0.89543 2,-2 0,-4.33333 0,-8.66667 0,-13 5.33333,0 10.66667,0 16,0 0,5.33333 0,10.66667 0,16 -0.33333,0 -0.66667,0 -1,0 0,-1.66667 0,-3.33333 0,-5 0,-0.59735 -0.26188,-1.13353 -0.67709,-1.5 0.41521,-0.36647 0.67709,-0.90265 0.67709,-1.5 0,-1.66667 0,-3.33333 0,-5 0,-1.10457 -0.89543,-2 -2,-2 -1.66667,0 -3.33333,0 -5,0 -1.10457,0 -2,0.89543 -2,2 0,1.66667 0,3.33333 0,5 0,0.59735 0.26188,1.13353 0.67709,1.5 -0.41521,0.36647 -0.67709,0.90265 -0.67709,1.5 0,1.66667 0,3.33333 0,5 -12,0 -24,0 -36,0 0,-5.33333 0,-10.66667 0,-16 z"
     stroke-miterlimit="10"
     font-weight="none"
     font-size="none"
     text-anchor="none"
     style="font-family:none;mix-blend-mode:normal;fill:none;fill-rule:nonzero;stroke:#9bff00;stroke-width:0.1;stroke-linecap:butt;stroke-linejoin:miter;stroke-miterlimit:10;stroke-dasharray:none;stroke-dashoffset:0"
     id="path18"
     inkscape:connector-curvature="0" />
  <path
     d="m 51.05,51.05 c 6,0 12,0 18,0 0,4.66667 0,9.33333 0,14 0,0.55228 0.44772,1 1,1 3.33333,0 6.66667,0 10,0 0.55228,0 1,-0.44772 1,-1 0,-4.66667 0,-9.33333 0,-14 6,0 12,0 18,0 0,6 0,12 0,18 -1.33333,0 -2.66667,0 -4,0 0.55228,0 1,-0.44772 1,-1 0,-1.66667 0,-3.33333 0,-5 0,-0.55228 -0.44772,-1 -1,-1 -1.66667,0 -3.33333,0 -5,0 -0.55228,0 -1,0.44772 -1,1 0,1.66667 0,3.33333 0,5 0,0.55228 0.44772,1 1,1 -13,0 -26,0 -39,0 0,-6 0,-12 0,-18 z m 38,4 c 0,1.66667 0,3.33333 0,5 0,0.55228 0.44772,1 1,1 1.66667,0 3.33333,0 5,0 0.55228,0 1,-0.44772 1,-1 0,-1.66667 0,-3.33333 0,-5 0,-0.55228 -0.44772,-1 -1,-1 -1.66667,0 -3.33333,0 -5,0 -0.55228,0 -1,0.44772 -1,1 z"
     stroke-miterlimit="10"
     font-weight="none"
     font-size="none"
     text-anchor="none"
     style="font-family:none;mix-blend-mode:normal;fill:none;fill-rule:nonzero;stroke:#6fff00;stroke-width:0.1;stroke-linecap:butt;stroke-linejoin:miter;stroke-miterlimit:10;stroke-dasharray:none;stroke-dashoffset:0"
     id="path20"
     inkscape:connector-curvature="0" />
  <path
     d="m 50.05,49.05 c 6.66667,0 13.33333,0 20,0 0.55228,0 1,0.44772 1,1 0,4.66667 0,9.33333 0,14 2.66667,0 5.33333,0 8,0 0,-4.66667 0,-9.33333 0,-14 0,-0.55228 0.44772,-1 1,-1 6.66667,0 13.33333,0 20,0 0.55228,0 1,0.44772 1,1 0,6.66667 0,13.33333 0,20 0,0.55228 -0.44772,1 -1,1 -16.66667,0 -33.33333,0 -50,0 -0.55228,0 -1,-0.44772 -1,-1 0,-6.66667 0,-13.33333 0,-20 0,-0.55228 0.44772,-1 1,-1 z m 41,7 c 0,1 0,2 0,3 1,0 2,0 3,0 0,-1 0,-2 0,-3 -1,0 -2,0 -3,0 z m 0,8 c 0,1 0,2 0,3 1,0 2,0 3,0 0,-1 0,-2 0,-3 -1,0 -2,0 -3,0 z"
     stroke-miterlimit="10"
     font-weight="none"
     font-size="none"
     text-anchor="none"
     style="font-family:none;mix-blend-mode:normal;fill:none;fill-rule:nonzero;stroke:#43ff00;stroke-width:0.1;stroke-linecap:butt;stroke-linejoin:miter;stroke-miterlimit:10;stroke-dasharray:none;stroke-dashoffset:0"
     id="path22"
     inkscape:connector-curvature="0" />
  <path
     d="m 50.05,48.05 c 6.66667,0 13.33333,0 20,0 1.10457,0 2,0.89543 2,2 0,4.33333 0,8.66667 0,13 2,0 4,0 6,0 0,-4.33333 0,-8.66667 0,-13 0,-1.10457 0.89543,-2 2,-2 6.66667,0 13.33333,0 20,0 1.10457,0 2,0.89543 2,2 0,6.66667 0,13.33333 0,20 0,1.10457 -0.89543,2 -2,2 -16.66667,0 -33.33333,0 -50,0 -1.10457,0 -2,-0.89543 -2,-2 0,-6.66667 0,-13.33333 0,-20 0,-1.10457 0.89543,-2 2,-2 z m 42,10 c 0.33333,0 0.66667,0 1,0 0,-0.33333 0,-0.66667 0,-1 -0.33333,0 -0.66667,0 -1,0 0,0.33333 0,0.66667 0,1 z m 0,8 c 0.33333,0 0.66667,0 1,0 0,-0.33333 0,-0.66667 0,-1 -0.33333,0 -0.66667,0 -1,0 0,0.33333 0,0.66667 0,1 z"
     stroke-miterlimit="10"
     font-weight="none"
     font-size="none"
     text-anchor="none"
     style="font-family:none;mix-blend-mode:normal;fill:none;fill-rule:nonzero;stroke:#16ff00;stroke-width:0.1;stroke-linecap:butt;stroke-linejoin:miter;stroke-miterlimit:10;stroke-dasharray:none;stroke-dashoffset:0"
     id="path24"
     inkscape:connector-curvature="0" />
  <path
     d="m 50.05,47.05 c 6.66667,0 13.33333,0 20,0 1.65685,0 3,1.34315 3,3 0,4 0,8 0,12 1.33333,0 2.66667,0 4,0 0,-4 0,-8 0,-12 0,-1.65685 1.34315,-3 3,-3 6.66667,0 13.33333,0 20,0 1.65685,0 3,1.34315 3,3 0,6.66667 0,13.33333 0,20 0,1.65685 -1.34315,3 -3,3 -16.66667,0 -33.33333,0 -50,0 -1.65685,0 -3,-1.34315 -3,-3 0,-6.66667 0,-13.33333 0,-20 0,-1.65685 1.34315,-3 3,-3 z"
     stroke-miterlimit="10"
     font-weight="none"
     font-size="none"
     text-anchor="none"
     style="font-family:none;mix-blend-mode:normal;fill:none;fill-rule:nonzero;stroke:#00ff16;stroke-width:0.1;stroke-linecap:butt;stroke-linejoin:miter;stroke-miterlimit:10;stroke-dasharray:none;stroke-dashoffset:0"
     id="path26"
     inkscape:connector-curvature="0" />
  <path
     d="m 50.05,46.05 c 6.66667,0 13.33333,0 20,0 2.20914,0 4,1.79086 4,4 0,3.66667 0,7.33333 0,11 0.66667,0 1.33333,0 2,0 0,-3.66667 0,-7.33333 0,-11 0,-2.20914 1.79086,-4 4,-4 6.66667,0 13.33333,0 20,0 2.20914,0 4,1.79086 4,4 0,6.66667 0,13.33333 0,20 0,2.20914 -1.79086,4 -4,4 -16.66667,0 -33.33333,0 -50,0 -2.20914,0 -4,-1.79086 -4,-4 0,-6.66667 0,-13.33333 0,-20 0,-2.20914 1.79086,-4 4,-4 z"
     stroke-miterlimit="10"
     font-weight="none"
     font-size="none"
     text-anchor="none"
     style="font-family:none;mix-blend-mode:normal;fill:none;fill-rule:nonzero;stroke:#00ff43;stroke-width:0.1;stroke-linecap:butt;stroke-linejoin:miter;stroke-miterlimit:10;stroke-dasharray:none;stroke-dashoffset:0"
     id="path28"
     inkscape:connector-curvature="0" />
  <path
     d="m 50.05,45.05 c 6.66667,0 13.33333,0 20,0 2.76142,0 5,2.23858 5,5 0,-2.76142 2.23858,-5 5,-5 6.66667,0 13.33333,0 20,0 2.76142,0 5,2.23858 5,5 0,6.66667 0,13.33333 0,20 0,2.76142 -2.23858,5 -5,5 -16.66667,0 -33.33333,0 -50,0 -2.76142,0 -5,-2.23858 -5,-5 0,-6.66667 0,-13.33333 0,-20 0,-2.76142 2.23858,-5 5,-5 z"
     stroke-miterlimit="10"
     font-weight="none"
     font-size="none"
     text-anchor="none"
     style="font-family:none;mix-blend-mode:normal;fill:none;fill-rule:nonzero;stroke:#00ff6f;stroke-width:0.1;stroke-linecap:butt;stroke-linejoin:miter;stroke-miterlimit:10;stroke-dasharray:none;stroke-dashoffset:0"
     id="path30"
     inkscape:connector-curvature="0" />
  <path
     d="m 50.05,44.05 c 6.66667,0 13.33333,0 20,0 2.08697,0 3.92508,1.06551 5,2.6822 1.07492,-1.6167 2.91303,-2.6822 5,-2.6822 6.66667,0 13.33333,0 20,0 3.31371,0 6,2.68629 6,6 0,6.66667 0,13.33333 0,20 0,3.31371 -2.68629,6 -6,6 -16.66667,0 -33.33333,0 -50,0 -3.31371,0 -6,-2.68629 -6,-6 0,-6.66667 0,-13.33333 0,-20 0,-3.31371 2.68629,-6 6,-6 z"
     stroke-miterlimit="10"
     font-weight="none"
     font-size="none"
     text-anchor="none"
     style="font-family:none;mix-blend-mode:normal;fill:none;fill-rule:nonzero;stroke:#00ff9b;stroke-width:0.1;stroke-linecap:butt;stroke-linejoin:miter;stroke-miterlimit:10;stroke-dasharray:none;stroke-dashoffset:0"
     id="path32"
     inkscape:connector-curvature="0" />
  <path
     d="m 50.05,43.05 c 6.66667,0 13.33333,0 20,0 1.95869,0 3.72948,0.80447 5,2.10102 1.27052,-1.29655 3.04131,-2.10102 5,-2.10102 6.66667,0 13.33333,0 20,0 3.86599,0 7,3.13401 7,7 0,6.66667 0,13.33333 0,20 0,3.86599 -3.13401,7 -7,7 -16.66667,0 -33.33333,0 -50,0 -3.86599,0 -7,-3.13401 -7,-7 0,-6.66667 0,-13.33333 0,-20 0,-3.86599 3.13401,-7 7,-7 z"
     stroke-miterlimit="10"
     font-weight="none"
     font-size="none"
     text-anchor="none"
     style="font-family:none;mix-blend-mode:normal;fill:none;fill-rule:nonzero;stroke:#00ffc8;stroke-width:0.1;stroke-linecap:butt;stroke-linejoin:miter;stroke-miterlimit:10;stroke-dasharray:none;stroke-dashoffset:0"
     id="path34"
     inkscape:connector-curvature="0" />
  <path
     d="m 50.05,42.05 c 6.66667,0 13.33333,0 20,0 1.89189,0 3.6304,0.65672 5,1.75463 1.3696,-1.09791 3.10811,-1.75463 5,-1.75463 6.66667,0 13.33333,0 20,0 4.41828,0 8,3.58172 8,8 0,6.66667 0,13.33333 0,20 0,4.41828 -3.58172,8 -8,8 -16.66667,0 -33.33333,0 -50,0 -4.41828,0 -8,-3.58172 -8,-8 0,-6.66667 0,-13.33333 0,-20 0,-4.41828 3.58172,-8 8,-8 z"
     stroke-miterlimit="10"
     font-weight="none"
     font-size="none"
     text-anchor="none"
     style="font-family:none;mix-blend-mode:normal;fill:none;fill-rule:nonzero;stroke:#00fff4;stroke-width:0.1;stroke-linecap:butt;stroke-linejoin:miter;stroke-miterlimit:10;stroke-dasharray:none;stroke-dashoffset:0"
     id="path36"
     inkscape:connector-curvature="0" />
  <path
     d="m 50.05,41.05 c 6.66667,0 13.33333,0 20,0 1.85015,0 3.5699,0.55827 5,1.51555 1.4301,-0.95728 3.14985,-1.51555 5,-1.51555 6.66667,0 13.33333,0 20,0 4.97056,0 9,4.02944 9,9 0,6.66667 0,13.33333 0,20 0,4.97056 -4.02944,9 -9,9 -16.66667,0 -33.33333,0 -50,0 -4.97056,0 -9,-4.02944 -9,-9 0,-6.66667 0,-13.33333 0,-20 0,-4.97056 4.02944,-9 9,-9 z"
     stroke-miterlimit="10"
     font-weight="none"
     font-size="none"
     text-anchor="none"
     style="font-family:none;mix-blend-mode:normal;fill:none;fill-rule:nonzero;stroke:#00deff;stroke-width:0.1;stroke-linecap:butt;stroke-linejoin:miter;stroke-miterlimit:10;stroke-dasharray:none;stroke-dashoffset:0"
     id="path38"
     inkscape:connector-curvature="0" />
  <path
     d="m 50.05,40.05 c 6.66667,0 13.33333,0 20,0 1.82144,0 3.52913,0.48697 5,1.33782 1.47087,-0.85085 3.17856,-1.33782 5,-1.33782 6.66667,0 13.33333,0 20,0 5.52285,0 10,4.47715 10,10 0,6.66667 0,13.33333 0,20 0,5.52285 -4.47715,10 -10,10 -16.66667,0 -33.33333,0 -50,0 -5.52285,0 -10,-4.47715 -10,-10 0,-6.66667 0,-13.33333 0,-20 0,-5.52285 4.47715,-10 10,-10 z"
     stroke-miterlimit="10"
     font-weight="none"
     font-size="none"
     text-anchor="none"
     style="font-family:none;mix-blend-mode:normal;fill:none;fill-rule:nonzero;stroke:#00b1ff;stroke-width:0.1;stroke-linecap:butt;stroke-linejoin:miter;stroke-miterlimit:10;stroke-dasharray:none;stroke-dashoffset:0"
     id="path40"
     inkscape:connector-curvature="0" />
  <path
     d="m 50.05,39.05 c 6.66667,0 13.33333,0 20,0 1.73823,0 3.45172,0.41194 5,1.20204 1.54828,-0.7901 3.26177,-1.20204 5,-1.20204 6.66667,0 13.33333,0 20,0 6.07513,0 11,4.92487 11,11 0,6.66667 0,13.33333 0,20 0,6.07513 -4.92487,11 -11,11 -16.66667,0 -33.33333,0 -50,0 -6.07513,0 -11,-4.92487 -11,-11 0,-6.66667 0,-13.33333 0,-20 0,-6.07513 4.92487,-11 11,-11 z"
     stroke-miterlimit="10"
     font-weight="none"
     font-size="none"
     text-anchor="none"
     style="font-family:none;mix-blend-mode:normal;fill:none;fill-rule:nonzero;stroke:#0085ff;stroke-width:0.1;stroke-linecap:butt;stroke-linejoin:miter;stroke-miterlimit:10;stroke-dasharray:none;stroke-dashoffset:0"
     id="path42"
     inkscape:connector-curvature="0" />
  <path
     d="m 50.05,38.05 c 6.66667,0 13.33333,0 20,0 1.72575,0 3.43119,0.37223 5,1.09129 1.56881,-0.71906 3.27425,-1.09129 5,-1.09129 6.66667,0 13.33333,0 20,0 6.62742,0 12,5.37258 12,12 0,6.66667 0,13.33333 0,20 0,6.62742 -5.37258,12 -12,12 -16.66667,0 -33.33333,0 -50,0 -6.62742,0 -12,-5.37258 -12,-12 0,-6.66667 0,-13.33333 0,-20 0,-6.62742 5.37258,-12 12,-12 z"
     stroke-miterlimit="10"
     font-weight="none"
     font-size="none"
     text-anchor="none"
     style="font-family:none;mix-blend-mode:normal;fill:none;fill-rule:nonzero;stroke:#0059ff;stroke-width:0.1;stroke-linecap:butt;stroke-linejoin:miter;stroke-miterlimit:10;stroke-dasharray:none;stroke-dashoffset:0"
     id="path44"
     inkscape:connector-curvature="0" />
  <path
     d="m 50.05,37.05 c 6.66667,0 13.33333,0 20,0 1.71634,0 3.41569,0.33987 5,1 1.58431,-0.66013 3.28366,-1 5,-1 6.66667,0 13.33333,0 20,0 7.1797,0 13,5.8203 13,13 0,6.66667 0,13.33333 0,20 0,7.1797 -5.8203,13 -13,13 -16.66667,0 -33.33333,0 -50,0 -7.1797,0 -13,-5.8203 -13,-13 0,-6.66667 0,-13.33333 0,-20 0,-7.1797 5.8203,-13 13,-13 z"
     stroke-miterlimit="10"
     font-weight="none"
     font-size="none"
     text-anchor="none"
     style="font-family:none;mix-blend-mode:normal;fill:none;fill-rule:nonzero;stroke:#002cff;stroke-width:0.1;stroke-linecap:butt;stroke-linejoin:miter;stroke-miterlimit:10;stroke-dasharray:none;stroke-dashoffset:0"
     id="path46"
     inkscape:connector-curvature="0" />
  <path
     d="m 50.05,36.05 c 6.66667,0 13.33333,0 20,0 1.70905,0 3.40366,0.31293 5,0.9233 1.59634,-0.61038 3.29095,-0.9233 5,-0.9233 6.66667,0 13.33333,0 20,0 7.73199,0 14,6.26801 14,14 0,6.66667 0,13.33333 0,20 0,7.73199 -6.26801,14 -14,14 -16.66667,0 -33.33333,0 -50,0 -7.73199,0 -14,-6.26801 -14,-14 0,-6.66667 0,-13.33333 0,-20 0,-7.73199 6.26801,-14 14,-14 z"
     stroke-miterlimit="10"
     font-weight="none"
     font-size="none"
     text-anchor="none"
     style="font-family:none;mix-blend-mode:normal;fill:none;fill-rule:nonzero;stroke:#0000ff;stroke-width:0.1;stroke-linecap:butt;stroke-linejoin:miter;stroke-miterlimit:10;stroke-dasharray:none;stroke-dashoffset:0"
     id="path48"
     inkscape:connector-curvature="0" />
  <path
     d="m 50.05,35.05 c 6.66667,0 13.33333,0 20,0 1.70328,0 3.39413,0.2901 5,0.85786 1.60587,-0.56776 3.29672,-0.85786 5,-0.85786 6.66667,0 13.33333,0 20,0 8.28427,0 15,6.71573 15,15 0,6.66667 0,13.33333 0,20 0,8.28427 -6.71573,15 -15,15 -16.66667,0 -33.33333,0 -50,0 -8.28427,0 -15,-6.71573 -15,-15 0,-6.66667 0,-13.33333 0,-20 0,-8.28427 6.71573,-15 15,-15 z"
     stroke-miterlimit="10"
     font-weight="none"
     font-size="none"
     text-anchor="none"
     style="font-family:none;mix-blend-mode:normal;fill:none;fill-rule:nonzero;stroke:#2c00ff;stroke-width:0.1;stroke-linecap:butt;stroke-linejoin:miter;stroke-miterlimit:10;stroke-dasharray:none;stroke-dashoffset:0"
     id="path50"
     inkscape:connector-curvature="0" />
  <path
     d="m 50.05,34.05 c 6.66667,0 13.33333,0 20,0 1.69864,0 3.38644,0.27049 5,0.80132 1.61356,-0.53082 3.30136,-0.80132 5,-0.80132 6.66667,0 13.33333,0 20,0 8.83656,0 16,7.16344 16,16 0,6.66667 0,13.33333 0,20 0,8.83656 -7.16344,16 -16,16 -16.66667,0 -33.33333,0 -50,0 -8.83656,0 -16,-7.16344 -16,-16 0,-6.66667 0,-13.33333 0,-20 0,-8.83656 7.16344,-16 16,-16 z"
     stroke-miterlimit="10"
     font-weight="none"
     font-size="none"
     text-anchor="none"
     style="font-family:none;mix-blend-mode:normal;fill:none;fill-rule:nonzero;stroke:#5900ff;stroke-width:0.1;stroke-linecap:butt;stroke-linejoin:miter;stroke-miterlimit:10;stroke-dasharray:none;stroke-dashoffset:0"
     id="path52"
     inkscape:connector-curvature="0" />
  <path
     d="m 50.05,33.05 c 6.66667,0 13.33333,0 20,0 1.69483,0 3.38013,0.25344 5,0.75192 1.61987,-0.49848 3.30517,-0.75192 5,-0.75192 6.66667,0 13.33333,0 20,0 9.38884,0 17,7.61116 17,17 0,6.66667 0,13.33333 0,20 0,9.38884 -7.61116,17 -17,17 -16.66667,0 -33.33333,0 -50,0 -9.38884,0 -17,-7.61116 -17,-17 0,-6.66667 0,-13.33333 0,-20 0,-9.38884 7.61116,-17 17,-17 z"
     stroke-miterlimit="10"
     font-weight="none"
     font-size="none"
     text-anchor="none"
     style="font-family:none;mix-blend-mode:normal;fill:none;fill-rule:nonzero;stroke:#8500ff;stroke-width:0.1;stroke-linecap:butt;stroke-linejoin:miter;stroke-miterlimit:10;stroke-dasharray:none;stroke-dashoffset:0"
     id="path54"
     inkscape:connector-curvature="0" />
  <path
     d="m 50.05,32.05 c 6.66667,0 13.33333,0 20,0 1.69167,0 3.3749,0.23847 5,0.70838 1.6251,-0.46991 3.30833,-0.70838 5,-0.70838 6.66667,0 13.33333,0 20,0 9.94113,0 18,8.05887 18,18 0,6.66667 0,13.33333 0,20 0,9.94113 -8.05887,18 -18,18 -16.66667,0 -33.33333,0 -50,0 -9.94113,0 -18,-8.05887 -18,-18 0,-6.66667 0,-13.33333 0,-20 0,-9.94113 8.05887,-18 18,-18 z"
     stroke-miterlimit="10"
     font-weight="none"
     font-size="none"
     text-anchor="none"
     style="font-family:none;mix-blend-mode:normal;fill:none;fill-rule:nonzero;stroke:#b100ff;stroke-width:0.1;stroke-linecap:butt;stroke-linejoin:miter;stroke-miterlimit:10;stroke-dasharray:none;stroke-dashoffset:0"
     id="path56"
     inkscape:connector-curvature="0" />
  <path
     d="m 50.05,31.05 c 6.66667,0 13.33333,0 20,0 1.68902,0 3.37051,0.22522 5,0.6697 1.62949,-0.44448 3.31098,-0.6697 5,-0.6697 6.66667,0 13.33333,0 20,0 10.49341,0 19,8.50659 19,19 0,6.66667 0,13.33333 0,20 0,10.49341 -8.50659,19 -19,19 -16.66667,0 -33.33333,0 -50,0 -10.49341,0 -19,-8.50659 -19,-19 0,-6.66667 0,-13.33333 0,-20 0,-10.49341 8.50659,-19 19,-19 z"
     stroke-miterlimit="10"
     font-weight="none"
     font-size="none"
     text-anchor="none"
     style="font-family:none;mix-blend-mode:normal;fill:none;fill-rule:nonzero;stroke:#de00ff;stroke-width:0.1;stroke-linecap:butt;stroke-linejoin:miter;stroke-miterlimit:10;stroke-dasharray:none;stroke-dashoffset:0"
     id="path58"
     inkscape:connector-curvature="0" />
  <path
     d="m 50.05,30.05 c 6.66667,0 13.33333,0 20,0 1.68678,0 3.36678,0.21339 5,0.63508 1.63322,-0.42169 3.31322,-0.63508 5,-0.63508 6.66667,0 13.33333,0 20,0 11.04569,0 20,8.95431 20,20 0,6.66667 0,13.33333 0,20 0,11.04569 -8.95431,20 -20,20 -16.66667,0 -33.33333,0 -50,0 -11.04569,0 -20,-8.95431 -20,-20 0,-6.66667 0,-13.33333 0,-20 0,-11.04569 8.95431,-20 20,-20 z"
     stroke-miterlimit="10"
     font-weight="none"
     font-size="none"
     text-anchor="none"
     style="font-family:none;mix-blend-mode:normal;fill:none;fill-rule:nonzero;stroke:#ff00f4;stroke-width:0.1;stroke-linecap:butt;stroke-linejoin:miter;stroke-miterlimit:10;stroke-dasharray:none;stroke-dashoffset:0"
     id="path60"
     inkscape:connector-curvature="0" />
</svg>
