<svg version="1.1" baseProfile="full" viewBox=" -7.7 -3.8 15.4 17.6 " viewPort="0 0 15.4 17.6 " xmlns="http://www.w3.org/2000/svg"> 
<path d="M0,0h5v5h-10v5h5" fill="none" fill-rule="nonzero" stroke="#000000" stroke-width="0.1" stroke-linecap="butt" stroke-linejoin="miter" stroke-miterlimit="10" stroke-dasharray="" stroke-dashoffset="0" font-family="none" font-weight="none" font-size="none" text-anchor="none" style="mix-blend-mode: normal"></path>
<path d="M0,-1l5,0.33333c0.36819,0 0.66667,0.29848 0.66667,0.66667l-0.33333,5c0,0.18409 -0.14924,0.33333 -0.33333,0.33333l-5,-0.33333l-5,-0.33333c-0.18409,0 -0.33333,0.14924 -0.33333,0.33333l-0.33333,5c0,0.36819 0.29848,0.66667 0.66667,0.66667l5,0.33333c0.55228,0 1,-0.44772 1,-1c0,-0.55228 -0.44772,-1 -1,-1l-4.33333,0.33333l-0.33333,-4l4.66667,-0.33333l4.66667,-0.33333l-0.33333,-4l-4.33333,0.33333c-0.55228,0 -1,-0.44772 -1,-1c0,-0.55228 0.44772,-1 1,-1z" fill="none" fill-rule="nonzero" stroke="#ff9500" stroke-width="0.1" stroke-linecap="butt" stroke-linejoin="miter" stroke-miterlimit="10" stroke-dasharray="" stroke-dashoffset="0" font-family="none" font-weight="none" font-size="none" text-anchor="none" style="mix-blend-mode: normal"></path>
<path d="M0,-1.25l5,0.41667c0.46024,0 0.83333,0.3731 0.83333,0.83333l-0.41667,5c0,0.23012 -0.18655,0.41667 -0.41667,0.41667l-5,-0.41667l-5,-0.41667c-0.23012,0 -0.41667,0.18655 -0.41667,0.41667l-0.41667,5c0,0.46024 0.3731,0.83333 0.83333,0.83333l5,0.41667c0.69036,0 1.25,-0.55964 1.25,-1.25c0,-0.69036 -0.55964,-1.25 -1.25,-1.25l-4.16667,0.41667l-0.41667,-3.75l4.58333,-0.41667l4.58333,-0.41667l-0.41667,-3.75l-4.16667,0.41667c-0.69036,0 -1.25,-0.55964 -1.25,-1.25c0,-0.69036 0.55964,-1.25 1.25,-1.25z" fill="none" fill-rule="nonzero" stroke="#d5ff00" stroke-width="0.1" stroke-linecap="butt" stroke-linejoin="miter" stroke-miterlimit="10" stroke-dasharray="" stroke-dashoffset="0" font-family="none" font-weight="none" font-size="none" text-anchor="none" style="mix-blend-mode: normal"></path>
<path d="M0,-1.5l5,0.5c0.55228,0 1,0.44772 1,1l-0.5,5c0,0.27614 -0.22386,0.5 -0.5,0.5l-5,-0.5l-5,-0.5c-0.27614,0 -0.5,0.22386 -0.5,0.5l-0.5,5c0,0.55228 0.44772,1 1,1l5,0.5c0.82843,0 1.5,-0.67157 1.5,-1.5c0,-0.82843 -0.67157,-1.5 -1.5,-1.5l-4,0.5l-0.5,-3.5l4.5,-0.5l4.5,-0.5l-0.5,-3.5l-4,0.5c-0.82843,0 -1.5,-0.67157 -1.5,-1.5c0,-0.82843 0.67157,-1.5 1.5,-1.5z" fill="none" fill-rule="nonzero" stroke="#40ff00" stroke-width="0.1" stroke-linecap="butt" stroke-linejoin="miter" stroke-miterlimit="10" stroke-dasharray="" stroke-dashoffset="0" font-family="none" font-weight="none" font-size="none" text-anchor="none" style="mix-blend-mode: normal"></path>
<path d="M0,-1.75l5,0.58333c0.64433,0 1.16667,0.52233 1.16667,1.16667l-0.58333,5c0,0.32217 -0.26117,0.58333 -0.58333,0.58333l-5,-0.58333l-5,-0.58333c-0.32217,0 -0.58333,0.26117 -0.58333,0.58333l-0.58333,5c0,0.64433 0.52233,1.16667 1.16667,1.16667l5,0.58333c0.9665,0 1.75,-0.7835 1.75,-1.75c0,-0.9665 -0.7835,-1.75 -1.75,-1.75l-3.83333,0.58333l-0.58333,-3.25l4.41667,-0.58333l4.41667,-0.58333l-0.58333,-3.25l-3.83333,0.58333c-0.9665,0 -1.75,-0.7835 -1.75,-1.75c0,-0.9665 0.7835,-1.75 1.75,-1.75z" fill="none" fill-rule="nonzero" stroke="#00ff55" stroke-width="0.1" stroke-linecap="butt" stroke-linejoin="miter" stroke-miterlimit="10" stroke-dasharray="" stroke-dashoffset="0" font-family="none" font-weight="none" font-size="none" text-anchor="none" style="mix-blend-mode: normal"></path>
<path d="M0,-2l5,0.66667c0.73638,0 1.33333,0.59695 1.33333,1.33333l-0.66667,5c0,0.36819 -0.29848,0.66667 -0.66667,0.66667l-5,-0.66667l-5,-0.66667c-0.36819,0 -0.66667,0.29848 -0.66667,0.66667l-0.66667,5c0,0.73638 0.59695,1.33333 1.33333,1.33333l5,0.66667c1.10457,0 2,-0.89543 2,-2c0,-1.10457 -0.89543,-2 -2,-2l-3.66667,0.66667l-0.66667,-3l4.33333,-0.66667l4.33333,-0.66667l-0.66667,-3l-3.66667,0.66667c-1.10457,0 -2,-0.89543 -2,-2c0,-1.10457 0.89543,-2 2,-2z" fill="none" fill-rule="nonzero" stroke="#00ffea" stroke-width="0.1" stroke-linecap="butt" stroke-linejoin="miter" stroke-miterlimit="10" stroke-dasharray="" stroke-dashoffset="0" font-family="none" font-weight="none" font-size="none" text-anchor="none" style="mix-blend-mode: normal"></path>
<path d="M0,-2.25l5,0.75c0.82843,0 1.5,0.67157 1.5,1.5l-0.75,5c0,0.41421 -0.33579,0.75 -0.75,0.75l-5,-0.75l-5,-0.75c-0.41421,0 -0.75,0.33579 -0.75,0.75l-0.75,5c0,0.82843 0.67157,1.5 1.5,1.5l5,0.75c1.24264,0 2.25,-1.00736 2.25,-2.25c0,-1.24264 -1.00736,-2.25 -2.25,-2.25l-3.5,0.75l-0.75,-2.75l4.25,-0.75l4.25,-0.75l-0.75,-2.75l-3.5,0.75c-1.24264,0 -2.25,-1.00736 -2.25,-2.25c0,-1.24264 1.00736,-2.25 2.25,-2.25z" fill="none" fill-rule="nonzero" stroke="#007fff" stroke-width="0.1" stroke-linecap="butt" stroke-linejoin="miter" stroke-miterlimit="10" stroke-dasharray="" stroke-dashoffset="0" font-family="none" font-weight="none" font-size="none" text-anchor="none" style="mix-blend-mode: normal"></path>
<path d="M0,-2.5l5,0.83333c0.92047,0 1.66667,0.74619 1.66667,1.66667l-0.83333,5c0,0.46024 -0.3731,0.83333 -0.83333,0.83333l-5,-0.83333l-5,-0.83333c-0.46024,0 -0.83333,0.3731 -0.83333,0.83333l-0.83333,5c0,0.92047 0.74619,1.66667 1.66667,1.66667l5,0.83333c1.38071,0 2.5,-1.11929 2.5,-2.5c0,-1.38071 -1.11929,-2.5 -2.5,-2.5l-3.33333,0.83333l-0.83333,-2.5l4.16667,-0.83333l4.16667,-0.83333l-0.83333,-2.5l-3.33333,0.83333c-1.38071,0 -2.5,-1.11929 -2.5,-2.5c0,-1.38071 1.11929,-2.5 2.5,-2.5z" fill="none" fill-rule="nonzero" stroke="#1500ff" stroke-width="0.1" stroke-linecap="butt" stroke-linejoin="miter" stroke-miterlimit="10" stroke-dasharray="" stroke-dashoffset="0" font-family="none" font-weight="none" font-size="none" text-anchor="none" style="mix-blend-mode: normal"></path>
<path d="M0,-2.75l5,0.91667c1.01252,0 1.83333,0.82081 1.83333,1.83333l-0.91667,5c0,0.50626 -0.41041,0.91667 -0.91667,0.91667l-5,-0.91667l-5,-0.91667c-0.50626,0 -0.91667,0.41041 -0.91667,0.91667l-0.91667,5c0,1.01252 0.82081,1.83333 1.83333,1.83333l5,0.91667c1.51878,0 2.75,-1.23122 2.75,-2.75c0,-1.51878 -1.23122,-2.75 -2.75,-2.75l-3.16667,0.91667l-0.91667,-2.25l4.08333,-0.91667l4.08333,-0.91667l-0.91667,-2.25l-3.16667,0.91667c-1.51878,0 -2.75,-1.23122 -2.75,-2.75c0,-1.51878 1.23122,-2.75 2.75,-2.75z" fill="none" fill-rule="nonzero" stroke="#aa00ff" stroke-width="0.1" stroke-linecap="butt" stroke-linejoin="miter" stroke-miterlimit="10" stroke-dasharray="" stroke-dashoffset="0" font-family="none" font-weight="none" font-size="none" text-anchor="none" style="mix-blend-mode: normal"></path>
<path d="M0,-3l5,1c1.10457,0 2,0.89543 2,2l-1,5c0,0.55228 -0.44772,1 -1,1l-5,-1l-5,-1c-0.55228,0 -1,0.44772 -1,1l-1,5c0,1.10457 0.89543,2 2,2l5,1c1.65685,0 3,-1.34315 3,-3c0,-1.65685 -1.34315,-3 -3,-3l-3,1l-1,-2l4,-1l4,-1l-1,-2l-3,1c-1.65685,0 -3,-1.34315 -3,-3c0,-1.65685 1.34315,-3 3,-3z" fill="none" fill-rule="nonzero" stroke="#ff00bf" stroke-width="0.1" stroke-linecap="butt" stroke-linejoin="miter" stroke-miterlimit="10" stroke-dasharray="" stroke-dashoffset="0" font-family="none" font-weight="none" font-size="none" text-anchor="none" style="mix-blend-mode: normal"></path>
</svg>