<svg version="1.1" baseProfile="full" viewBox=" -39.75 -29.75 104.5 104.5 " viewPort="0 0 104.5 104.5 " xmlns="http://www.w3.org/2000/svg"> 
<path d="M0,0h35v25h-5v-10h-25v25h10v5h-25v-35z" fill="none" fill-rule="nonzero" stroke="#000000" stroke-width="0.1" stroke-linecap="butt" stroke-linejoin="miter" stroke-miterlimit="10" stroke-dasharray="" stroke-dashoffset="0" font-family="none" font-weight="none" font-size="none" text-anchor="none" style="mix-blend-mode: normal"></path>
<path d="M27.75,7.25l0,0.5l-22.75,0c-1.18016,0 -2.29445,0.28198 -3.27919,0.78224l1.28224,-1.28224zM-2.25,15v22.75h-0.5l0,-24.74695l1.28224,-1.28224c-0.50026,0.98474 -0.78224,2.09903 -0.78224,3.27919z" fill="none" fill-rule="nonzero" stroke="#ff0700" stroke-width="0.1" stroke-linecap="butt" stroke-linejoin="miter" stroke-miterlimit="10" stroke-dasharray="" stroke-dashoffset="0" font-family="none" font-weight="none" font-size="none" text-anchor="none" style="mix-blend-mode: normal"></path>
<path d="M28,7v1h-23c-3.86599,0 -7,3.13401 -7,7l0,23h-1l0,-25.10051l5.89949,-5.89949z" fill="none" fill-rule="nonzero" stroke="#ff0f00" stroke-width="0.1" stroke-linecap="butt" stroke-linejoin="miter" stroke-miterlimit="10" stroke-dasharray="" stroke-dashoffset="0" font-family="none" font-weight="none" font-size="none" text-anchor="none" style="mix-blend-mode: normal"></path>
<path d="M28.25,6.75l0,1.5h-23.25c-3.72792,0 -6.75,3.02208 -6.75,6.75l0,23.25h-1.5l0,-25.45406l6.04594,-6.04594z" fill="none" fill-rule="nonzero" stroke="#ff1600" stroke-width="0.1" stroke-linecap="butt" stroke-linejoin="miter" stroke-miterlimit="10" stroke-dasharray="" stroke-dashoffset="0" font-family="none" font-weight="none" font-size="none" text-anchor="none" style="mix-blend-mode: normal"></path>
<path d="M28.5,6.5v2h-23.5c-3.58985,0 -6.5,2.91015 -6.5,6.5l0,23.5l-2,0l0,-25.80761l6.19239,-6.19239z" fill="none" fill-rule="nonzero" stroke="#ff1d00" stroke-width="0.1" stroke-linecap="butt" stroke-linejoin="miter" stroke-miterlimit="10" stroke-dasharray="" stroke-dashoffset="0" font-family="none" font-weight="none" font-size="none" text-anchor="none" style="mix-blend-mode: normal"></path>
<path d="M28.75,6.25l0,2.5h-23.75c-3.45178,0 -6.25,2.79822 -6.25,6.25l0,23.75h-2.5l0,-26.16117l6.33883,-6.33883z" fill="none" fill-rule="nonzero" stroke="#ff2500" stroke-width="0.1" stroke-linecap="butt" stroke-linejoin="miter" stroke-miterlimit="10" stroke-dasharray="" stroke-dashoffset="0" font-family="none" font-weight="none" font-size="none" text-anchor="none" style="mix-blend-mode: normal"></path>
<path d="M29,6l0,3h-24c-3.31371,0 -6,2.68629 -6,6v24h-3l0,-26.51472l6.48528,-6.48528z" fill="none" fill-rule="nonzero" stroke="#ff2c00" stroke-width="0.1" stroke-linecap="butt" stroke-linejoin="miter" stroke-miterlimit="10" stroke-dasharray="" stroke-dashoffset="0" font-family="none" font-weight="none" font-size="none" text-anchor="none" style="mix-blend-mode: normal"></path>
<path d="M29.25,5.75v3.5h-24.25c-3.17564,0 -5.75,2.57436 -5.75,5.75l0,24.25l-3.5,0v-26.86827l6.63173,-6.63173z" fill="none" fill-rule="nonzero" stroke="#ff3400" stroke-width="0.1" stroke-linecap="butt" stroke-linejoin="miter" stroke-miterlimit="10" stroke-dasharray="" stroke-dashoffset="0" font-family="none" font-weight="none" font-size="none" text-anchor="none" style="mix-blend-mode: normal"></path>
<path d="M29.5,5.5l0,4l-24.5,0c-3.03757,0 -5.5,2.46243 -5.5,5.5l0,24.5h-4l0,-27.22183l6.77817,-6.77817z" fill="none" fill-rule="nonzero" stroke="#ff3b00" stroke-width="0.1" stroke-linecap="butt" stroke-linejoin="miter" stroke-miterlimit="10" stroke-dasharray="" stroke-dashoffset="0" font-family="none" font-weight="none" font-size="none" text-anchor="none" style="mix-blend-mode: normal"></path>
<path d="M29.75,5.25v4.5h-24.75c-2.89949,0 -5.25,2.35051 -5.25,5.25l0,24.75l-4.5,0l0,-27.57538l6.92462,-6.92462z" fill="none" fill-rule="nonzero" stroke="#ff4200" stroke-width="0.1" stroke-linecap="butt" stroke-linejoin="miter" stroke-miterlimit="10" stroke-dasharray="" stroke-dashoffset="0" font-family="none" font-weight="none" font-size="none" text-anchor="none" style="mix-blend-mode: normal"></path>
<path d="M30,5l0,5h-25c-2.76142,0 -5,2.23858 -5,5l0,25h-5v-27.92893l7.07107,-7.07107z" fill="none" fill-rule="nonzero" stroke="#ff4a00" stroke-width="0.1" stroke-linecap="butt" stroke-linejoin="miter" stroke-miterlimit="10" stroke-dasharray="" stroke-dashoffset="0" font-family="none" font-weight="none" font-size="none" text-anchor="none" style="mix-blend-mode: normal"></path>
<path d="M30.25,4.75l0,5.50658c-0.08326,-0.00439 -0.16662,-0.00658 -0.25,-0.00658h-25c-2.62335,0 -4.75,2.12665 -4.75,4.75v25c0,0.08338 0.0022,0.16674 0.00658,0.25h-5.50658l0,-28.28249l7.21751,-7.21751z" fill="none" fill-rule="nonzero" stroke="#ff5100" stroke-width="0.1" stroke-linecap="butt" stroke-linejoin="miter" stroke-miterlimit="10" stroke-dasharray="" stroke-dashoffset="0" font-family="none" font-weight="none" font-size="none" text-anchor="none" style="mix-blend-mode: normal"></path>
<path d="M30.5,4.5v6.02786c-0.16602,-0.01856 -0.33295,-0.02786 -0.5,-0.02786h-25c-2.48528,0 -4.5,2.01472 -4.5,4.5v25c0,0.16705 0.0093,0.33398 0.02786,0.5h-6.02786v-28.63604l7.36396,-7.36396z" fill="none" fill-rule="nonzero" stroke="#ff5800" stroke-width="0.1" stroke-linecap="butt" stroke-linejoin="miter" stroke-miterlimit="10" stroke-dasharray="" stroke-dashoffset="0" font-family="none" font-weight="none" font-size="none" text-anchor="none" style="mix-blend-mode: normal"></path>
<path d="M30.75,4.25l0,6.5667c-0.24753,-0.04438 -0.49852,-0.0667 -0.75,-0.0667h-25c-2.34721,0 -4.25,1.90279 -4.25,4.25v25c0,0.25148 0.02232,0.50247 0.0667,0.75h-6.5667v-28.98959l7.51041,-7.51041z" fill="none" fill-rule="nonzero" stroke="#ff6000" stroke-width="0.1" stroke-linecap="butt" stroke-linejoin="miter" stroke-miterlimit="10" stroke-dasharray="" stroke-dashoffset="0" font-family="none" font-weight="none" font-size="none" text-anchor="none" style="mix-blend-mode: normal"></path>
<path d="M31,4v7.12702c-0.32664,-0.08434 -0.66264,-0.12702 -1,-0.12702h-25c-2.20914,0 -4,1.79086 -4,4v25c0,0.33736 0.04268,0.67336 0.12702,1h-7.12702l0,-29.34315l7.65685,-7.65685z" fill="none" fill-rule="nonzero" stroke="#ff6700" stroke-width="0.1" stroke-linecap="butt" stroke-linejoin="miter" stroke-miterlimit="10" stroke-dasharray="" stroke-dashoffset="0" font-family="none" font-weight="none" font-size="none" text-anchor="none" style="mix-blend-mode: normal"></path>
<path d="M31.25,3.75v7.71447c-0.40147,-0.14194 -0.82418,-0.21447 -1.25,-0.21447h-25c-2.07107,0 -3.75,1.67893 -3.75,3.75v25c0,0.42582 0.07253,0.84853 0.21447,1.25h-7.71447v-29.6967l7.8033,-7.8033z" fill="none" fill-rule="nonzero" stroke="#ff6e00" stroke-width="0.1" stroke-linecap="butt" stroke-linejoin="miter" stroke-miterlimit="10" stroke-dasharray="" stroke-dashoffset="0" font-family="none" font-weight="none" font-size="none" text-anchor="none" style="mix-blend-mode: normal"></path>
<path d="M31.5,3.5l0,8.33772c-0.46879,-0.22237 -0.98115,-0.33772 -1.5,-0.33772h-25c-1.933,0 -3.5,1.567 -3.5,3.5v25c0,0.51885 0.11536,1.03121 0.33772,1.5h-8.33772l0,-30.05025l7.94975,-7.94975z" fill="none" fill-rule="nonzero" stroke="#ff7600" stroke-width="0.1" stroke-linecap="butt" stroke-linejoin="miter" stroke-miterlimit="10" stroke-dasharray="" stroke-dashoffset="0" font-family="none" font-weight="none" font-size="none" text-anchor="none" style="mix-blend-mode: normal"></path>
<path d="M31.75,3.25v9.01139c-0.52259,-0.33394 -1.12982,-0.51139 -1.75,-0.51139h-25c-1.79493,0 -3.25,1.45507 -3.25,3.25v25c0,0.62018 0.17745,1.22741 0.51139,1.75h-9.01139l0,-30.40381l8.09619,-8.09619z" fill="none" fill-rule="nonzero" stroke="#ff7d00" stroke-width="0.1" stroke-linecap="butt" stroke-linejoin="miter" stroke-miterlimit="10" stroke-dasharray="" stroke-dashoffset="0" font-family="none" font-weight="none" font-size="none" text-anchor="none" style="mix-blend-mode: normal"></path>
<path d="M32,3v9.76393c-0.55002,-0.49195 -1.26207,-0.76393 -2,-0.76393h-25c-1.65685,0 -3,1.34315 -3,3v25c0,0.73793 0.27198,1.44998 0.76393,2h-9.76393l0,-30.75736l8.24264,-8.24264z" fill="none" fill-rule="nonzero" stroke="#ff8500" stroke-width="0.1" stroke-linecap="butt" stroke-linejoin="miter" stroke-miterlimit="10" stroke-dasharray="" stroke-dashoffset="0" font-family="none" font-weight="none" font-size="none" text-anchor="none" style="mix-blend-mode: normal"></path>
<path d="M32.25,2.75l0,10.66886c-0.51493,-0.73275 -1.35441,-1.16886 -2.25,-1.16886h-25c-1.51878,0 -2.75,1.23122 -2.75,2.75v25c0,0.89559 0.43611,1.73507 1.16886,2.25h-10.66886l0,-31.11091l8.38909,-8.38909z" fill="none" fill-rule="nonzero" stroke="#ff8c00" stroke-width="0.1" stroke-linecap="butt" stroke-linejoin="miter" stroke-miterlimit="10" stroke-dasharray="" stroke-dashoffset="0" font-family="none" font-weight="none" font-size="none" text-anchor="none" style="mix-blend-mode: normal"></path>
<path d="M1.03553,2.5h31.46447l0,12.5c0,-1.38071 -1.11929,-2.5 -2.5,-2.5h-25c-1.38071,0 -2.5,1.11929 -2.5,2.5v25c0,1.38071 1.11929,2.5 2.5,2.5h-12.5l0,-31.46447zM5,42.5c0,0 0,0 0,0z" fill="none" fill-rule="nonzero" stroke="#ff9300" stroke-width="0.1" stroke-linecap="butt" stroke-linejoin="miter" stroke-miterlimit="10" stroke-dasharray="" stroke-dashoffset="0" font-family="none" font-weight="none" font-size="none" text-anchor="none" style="mix-blend-mode: normal"></path>
<path d="M32.75,2.25l0,20.5h-0.5v-7.75c0,-1.24264 -1.00736,-2.25 -2.25,-2.25h-25c-1.24264,0 -2.25,1.00736 -2.25,2.25v25c0,1.24264 1.00736,2.25 2.25,2.25h7.75l0,0.5h-20.5v-31.81802l8.68198,-8.68198z" fill="none" fill-rule="nonzero" stroke="#ff9b00" stroke-width="0.1" stroke-linecap="butt" stroke-linejoin="miter" stroke-miterlimit="10" stroke-dasharray="" stroke-dashoffset="0" font-family="none" font-weight="none" font-size="none" text-anchor="none" style="mix-blend-mode: normal"></path>
<path d="M33,2l0,21h-1v-8c0,-1.10457 -0.89543,-2 -2,-2h-25c-1.10457,0 -2,0.89543 -2,2v25c0,1.10457 0.89543,2 2,2h8v1h-21l0,-32.17157l8.82843,-8.82843z" fill="none" fill-rule="nonzero" stroke="#ffa200" stroke-width="0.1" stroke-linecap="butt" stroke-linejoin="miter" stroke-miterlimit="10" stroke-dasharray="" stroke-dashoffset="0" font-family="none" font-weight="none" font-size="none" text-anchor="none" style="mix-blend-mode: normal"></path>
<path d="M33.25,1.75v21.5h-1.5v-8.25c0,-0.9665 -0.7835,-1.75 -1.75,-1.75h-25c-0.9665,0 -1.75,0.7835 -1.75,1.75v25c0,0.9665 0.7835,1.75 1.75,1.75h8.25v1.5h-21.5v-32.52513l8.97487,-8.97487z" fill="none" fill-rule="nonzero" stroke="#ffa900" stroke-width="0.1" stroke-linecap="butt" stroke-linejoin="miter" stroke-miterlimit="10" stroke-dasharray="" stroke-dashoffset="0" font-family="none" font-weight="none" font-size="none" text-anchor="none" style="mix-blend-mode: normal"></path>
<path d="M33.5,1.5l0,22l-2,0v-8.5c0,-0.82843 -0.67157,-1.5 -1.5,-1.5h-25c-0.82843,0 -1.5,0.67157 -1.5,1.5v25c0,0.82843 0.67157,1.5 1.5,1.5h8.5v2h-22l0,-32.87868l9.12132,-9.12132z" fill="none" fill-rule="nonzero" stroke="#ffb100" stroke-width="0.1" stroke-linecap="butt" stroke-linejoin="miter" stroke-miterlimit="10" stroke-dasharray="" stroke-dashoffset="0" font-family="none" font-weight="none" font-size="none" text-anchor="none" style="mix-blend-mode: normal"></path>
<path d="M33.75,1.25v22.5h-2.5v-8.75c0,-0.69036 -0.55964,-1.25 -1.25,-1.25h-25c-0.69036,0 -1.25,0.55964 -1.25,1.25v25c0,0.69036 0.55964,1.25 1.25,1.25h8.75v2.5h-22.5l0,-33.23223l9.26777,-9.26777z" fill="none" fill-rule="nonzero" stroke="#ffb800" stroke-width="0.1" stroke-linecap="butt" stroke-linejoin="miter" stroke-miterlimit="10" stroke-dasharray="" stroke-dashoffset="0" font-family="none" font-weight="none" font-size="none" text-anchor="none" style="mix-blend-mode: normal"></path>
<path d="M34,1l0,23h-3v-9c0,-0.55228 -0.44772,-1 -1,-1h-25c-0.55228,0 -1,0.44772 -1,1v25c0,0.55228 0.44772,1 1,1h9v3h-23v-33.58579l9.41421,-9.41421z" fill="none" fill-rule="nonzero" stroke="#ffbf00" stroke-width="0.1" stroke-linecap="butt" stroke-linejoin="miter" stroke-miterlimit="10" stroke-dasharray="" stroke-dashoffset="0" font-family="none" font-weight="none" font-size="none" text-anchor="none" style="mix-blend-mode: normal"></path>
<path d="M34.25,0.75v23.5l-3.5,0v-9.25c0,-0.41421 -0.33579,-0.75 -0.75,-0.75h-25c-0.41421,0 -0.75,0.33579 -0.75,0.75v25c0,0.41421 0.33579,0.75 0.75,0.75h9.25l0,3.5h-23.5l0,-33.93934l9.56066,-9.56066z" fill="none" fill-rule="nonzero" stroke="#ffc700" stroke-width="0.1" stroke-linecap="butt" stroke-linejoin="miter" stroke-miterlimit="10" stroke-dasharray="" stroke-dashoffset="0" font-family="none" font-weight="none" font-size="none" text-anchor="none" style="mix-blend-mode: normal"></path>
<path d="M34.5,0.5l0,24l-4,0v-9.5c0,-0.27614 -0.22386,-0.5 -0.5,-0.5h-25c-0.27614,0 -0.5,0.22386 -0.5,0.5v25c0,0.27614 0.22386,0.5 0.5,0.5h9.5v4h-24l0,-34.29289l9.70711,-9.70711z" fill="none" fill-rule="nonzero" stroke="#ffce00" stroke-width="0.1" stroke-linecap="butt" stroke-linejoin="miter" stroke-miterlimit="10" stroke-dasharray="" stroke-dashoffset="0" font-family="none" font-weight="none" font-size="none" text-anchor="none" style="mix-blend-mode: normal"></path>
<path d="M34.75,0.25l0,24.5l-4.5,0v-9.75c0,-0.13807 -0.11193,-0.25 -0.25,-0.25h-25c-0.13807,0 -0.25,0.11193 -0.25,0.25v25c0,0.13807 0.11193,0.25 0.25,0.25h9.75v4.5h-24.5l0,-34.64645l9.85355,-9.85355z" fill="none" fill-rule="nonzero" stroke="#ffd600" stroke-width="0.1" stroke-linecap="butt" stroke-linejoin="miter" stroke-miterlimit="10" stroke-dasharray="" stroke-dashoffset="0" font-family="none" font-weight="none" font-size="none" text-anchor="none" style="mix-blend-mode: normal"></path>
<path d="M0,-0.25h35c0.13807,0 0.25,0.11193 0.25,0.25v25c0,0.13807 -0.11193,0.25 -0.25,0.25h-5c-0.13807,0 -0.25,-0.11193 -0.25,-0.25v-9.75h-24.5l0,24.5l9.75,0c0.13807,0 0.25,0.11193 0.25,0.25v5c0,0.13807 -0.11193,0.25 -0.25,0.25h-25c-0.13807,0 -0.25,-0.11193 -0.25,-0.25v-35c0,-0.0663 0.02634,-0.12989 0.07322,-0.17678l10,-10z" fill="none" fill-rule="nonzero" stroke="#ffdd00" stroke-width="0.1" stroke-linecap="butt" stroke-linejoin="miter" stroke-miterlimit="10" stroke-dasharray="" stroke-dashoffset="0" font-family="none" font-weight="none" font-size="none" text-anchor="none" style="mix-blend-mode: normal"></path>
<path d="M0,-0.5h35c0.27614,0 0.5,0.22386 0.5,0.5v25c0,0.27614 -0.22386,0.5 -0.5,0.5h-5c-0.27614,0 -0.5,-0.22386 -0.5,-0.5v-9.5h-24l0,24h9.5c0.27614,0 0.5,0.22386 0.5,0.5v5c0,0.27614 -0.22386,0.5 -0.5,0.5h-25c-0.27614,0 -0.5,-0.22386 -0.5,-0.5v-35c0,-0.13261 0.05268,-0.25979 0.14645,-0.35355l10,-10z" fill="none" fill-rule="nonzero" stroke="#ffe400" stroke-width="0.1" stroke-linecap="butt" stroke-linejoin="miter" stroke-miterlimit="10" stroke-dasharray="" stroke-dashoffset="0" font-family="none" font-weight="none" font-size="none" text-anchor="none" style="mix-blend-mode: normal"></path>
<path d="M0,-0.75h35c0.41421,0 0.75,0.33579 0.75,0.75v25c0,0.41421 -0.33579,0.75 -0.75,0.75h-5c-0.41421,0 -0.75,-0.33579 -0.75,-0.75v-9.25l-23.5,0l0,23.5l9.25,0c0.41421,0 0.75,0.33579 0.75,0.75v5c0,0.41421 -0.33579,0.75 -0.75,0.75h-25c-0.41421,0 -0.75,-0.33579 -0.75,-0.75v-35c0,-0.19891 0.07902,-0.38968 0.21967,-0.53033l10,-10c0.14065,-0.14065 0.33142,-0.21967 0.53033,-0.21967z" fill="none" fill-rule="nonzero" stroke="#ffec00" stroke-width="0.1" stroke-linecap="butt" stroke-linejoin="miter" stroke-miterlimit="10" stroke-dasharray="" stroke-dashoffset="0" font-family="none" font-weight="none" font-size="none" text-anchor="none" style="mix-blend-mode: normal"></path>
<path d="M0,-1h35c0.55228,0 1,0.44772 1,1v25c0,0.55228 -0.44772,1 -1,1h-5c-0.55228,0 -1,-0.44772 -1,-1v-9h-23v23h9c0.55228,0 1,0.44772 1,1v5c0,0.55228 -0.44772,1 -1,1h-25c-0.55228,0 -1,-0.44772 -1,-1v-35c0,-0.26522 0.10536,-0.51957 0.29289,-0.70711l10,-10c0.18754,-0.18754 0.44189,-0.29289 0.70711,-0.29289z" fill="none" fill-rule="nonzero" stroke="#fff300" stroke-width="0.1" stroke-linecap="butt" stroke-linejoin="miter" stroke-miterlimit="10" stroke-dasharray="" stroke-dashoffset="0" font-family="none" font-weight="none" font-size="none" text-anchor="none" style="mix-blend-mode: normal"></path>
<path d="M0,-1.25h35c0.69036,0 1.25,0.55964 1.25,1.25v25c0,0.69036 -0.55964,1.25 -1.25,1.25h-5c-0.69036,0 -1.25,-0.55964 -1.25,-1.25v-8.75h-22.5l0,22.5h8.75c0.69036,0 1.25,0.55964 1.25,1.25v5c0,0.69036 -0.55964,1.25 -1.25,1.25h-25c-0.69036,0 -1.25,-0.55964 -1.25,-1.25v-35c0,-0.33152 0.1317,-0.64946 0.36612,-0.88388l10,-10c0.23442,-0.23442 0.55236,-0.36612 0.88388,-0.36612z" fill="none" fill-rule="nonzero" stroke="#fffa00" stroke-width="0.1" stroke-linecap="butt" stroke-linejoin="miter" stroke-miterlimit="10" stroke-dasharray="" stroke-dashoffset="0" font-family="none" font-weight="none" font-size="none" text-anchor="none" style="mix-blend-mode: normal"></path>
<path d="M0,-1.5h35c0.82843,0 1.5,0.67157 1.5,1.5v25c0,0.82843 -0.67157,1.5 -1.5,1.5h-5c-0.82843,0 -1.5,-0.67157 -1.5,-1.5v-8.5h-22l0,22h8.5c0.82843,0 1.5,0.67157 1.5,1.5v5c0,0.82843 -0.67157,1.5 -1.5,1.5h-25c-0.82843,0 -1.5,-0.67157 -1.5,-1.5v-35c0,-0.39782 0.15804,-0.77936 0.43934,-1.06066l10,-10c0.2813,-0.2813 0.66284,-0.43934 1.06066,-0.43934z" fill="none" fill-rule="nonzero" stroke="#fcff00" stroke-width="0.1" stroke-linecap="butt" stroke-linejoin="miter" stroke-miterlimit="10" stroke-dasharray="" stroke-dashoffset="0" font-family="none" font-weight="none" font-size="none" text-anchor="none" style="mix-blend-mode: normal"></path>
<path d="M0,-1.75h35c0.9665,0 1.75,0.7835 1.75,1.75v25c0,0.9665 -0.7835,1.75 -1.75,1.75h-5c-0.9665,0 -1.75,-0.7835 -1.75,-1.75v-8.25h-21.5v21.5h8.25c0.9665,0 1.75,0.7835 1.75,1.75v5c0,0.9665 -0.7835,1.75 -1.75,1.75h-25c-0.9665,0 -1.75,-0.7835 -1.75,-1.75v-35c0,-0.46413 0.18437,-0.90925 0.51256,-1.23744l10,-10c0.32819,-0.32819 0.77331,-0.51256 1.23744,-0.51256z" fill="none" fill-rule="nonzero" stroke="#f5ff00" stroke-width="0.1" stroke-linecap="butt" stroke-linejoin="miter" stroke-miterlimit="10" stroke-dasharray="" stroke-dashoffset="0" font-family="none" font-weight="none" font-size="none" text-anchor="none" style="mix-blend-mode: normal"></path>
<path d="M0,-2h35c1.10457,0 2,0.89543 2,2v25c0,1.10457 -0.89543,2 -2,2h-5c-1.10457,0 -2,-0.89543 -2,-2v-8h-21l0,21h8c1.10457,0 2,0.89543 2,2v5c0,1.10457 -0.89543,2 -2,2h-25c-1.10457,0 -2,-0.89543 -2,-2v-35c0,-0.53043 0.21071,-1.03914 0.58579,-1.41421l10,-10c0.37507,-0.37507 0.88378,-0.58579 1.41421,-0.58579z" fill="none" fill-rule="nonzero" stroke="#eeff00" stroke-width="0.1" stroke-linecap="butt" stroke-linejoin="miter" stroke-miterlimit="10" stroke-dasharray="" stroke-dashoffset="0" font-family="none" font-weight="none" font-size="none" text-anchor="none" style="mix-blend-mode: normal"></path>
<path d="M0,-2.25h35c1.24264,0 2.25,1.00736 2.25,2.25v25c0,1.24264 -1.00736,2.25 -2.25,2.25h-5c-1.24264,0 -2.25,-1.00736 -2.25,-2.25v-7.75l-20.5,0v20.5h7.75c1.24264,0 2.25,1.00736 2.25,2.25v5c0,1.24264 -1.00736,2.25 -2.25,2.25h-25c-1.24264,0 -2.25,-1.00736 -2.25,-2.25v-35c0,-0.59674 0.23705,-1.16903 0.65901,-1.59099l10,-10c0.42196,-0.42196 0.99425,-0.65901 1.59099,-0.65901z" fill="none" fill-rule="nonzero" stroke="#e6ff00" stroke-width="0.1" stroke-linecap="butt" stroke-linejoin="miter" stroke-miterlimit="10" stroke-dasharray="" stroke-dashoffset="0" font-family="none" font-weight="none" font-size="none" text-anchor="none" style="mix-blend-mode: normal"></path>
<path d="M0,-2.5h35c1.38071,0 2.5,1.11929 2.5,2.5v25c0,1.38071 -1.11929,2.5 -2.5,2.5h-5c-1.38071,0 -2.5,-1.11929 -2.5,-2.5v-7.5h-20l0,20l7.5,0c1.38071,0 2.5,1.11929 2.5,2.5v5c0,1.38071 -1.11929,2.5 -2.5,2.5h-25c-1.38071,0 -2.5,-1.11929 -2.5,-2.5v-35c0,-0.66304 0.26339,-1.29893 0.73223,-1.76777l10,-10c0.46884,-0.46884 1.10473,-0.73223 1.76777,-0.73223z" fill="none" fill-rule="nonzero" stroke="#dfff00" stroke-width="0.1" stroke-linecap="butt" stroke-linejoin="miter" stroke-miterlimit="10" stroke-dasharray="" stroke-dashoffset="0" font-family="none" font-weight="none" font-size="none" text-anchor="none" style="mix-blend-mode: normal"></path>
<path d="M0,-2.75h35c1.51878,0 2.75,1.23122 2.75,2.75v25c0,1.51878 -1.23122,2.75 -2.75,2.75h-5c-1.51878,0 -2.75,-1.23122 -2.75,-2.75v-7.25h-19.5l0,19.5h7.25c1.51878,0 2.75,1.23122 2.75,2.75v5c0,1.51878 -1.23122,2.75 -2.75,2.75h-25c-1.51878,0 -2.75,-1.23122 -2.75,-2.75v-35c0,-0.72935 0.28973,-1.42882 0.80546,-1.94454l10,-10c0.51573,-0.51573 1.2152,-0.80546 1.94454,-0.80546z" fill="none" fill-rule="nonzero" stroke="#d7ff00" stroke-width="0.1" stroke-linecap="butt" stroke-linejoin="miter" stroke-miterlimit="10" stroke-dasharray="" stroke-dashoffset="0" font-family="none" font-weight="none" font-size="none" text-anchor="none" style="mix-blend-mode: normal"></path>
<path d="M0,-3h35c1.65685,0 3,1.34315 3,3v25c0,1.65685 -1.34315,3 -3,3h-5c-1.65685,0 -3,-1.34315 -3,-3v-7h-19l0,19h7c1.65685,0 3,1.34315 3,3v5c0,1.65685 -1.34315,3 -3,3h-25c-1.65685,0 -3,-1.34315 -3,-3v-35c0,-0.79565 0.31607,-1.55871 0.87868,-2.12132l10,-10c0.56261,-0.56261 1.32567,-0.87868 2.12132,-0.87868z" fill="none" fill-rule="nonzero" stroke="#d0ff00" stroke-width="0.1" stroke-linecap="butt" stroke-linejoin="miter" stroke-miterlimit="10" stroke-dasharray="" stroke-dashoffset="0" font-family="none" font-weight="none" font-size="none" text-anchor="none" style="mix-blend-mode: normal"></path>
<path d="M0,-3.25h35c1.79493,0 3.25,1.45507 3.25,3.25v25c0,1.79493 -1.45507,3.25 -3.25,3.25h-5c-1.79493,0 -3.25,-1.45507 -3.25,-3.25v-6.75h-18.5l0,18.5h6.75c1.79493,0 3.25,1.45507 3.25,3.25v5c0,1.79493 -1.45507,3.25 -3.25,3.25h-25c-1.79493,0 -3.25,-1.45507 -3.25,-3.25v-35c0,-0.86195 0.34241,-1.6886 0.9519,-2.2981l10,-10c0.60949,-0.60949 1.43614,-0.9519 2.2981,-0.9519z" fill="none" fill-rule="nonzero" stroke="#c9ff00" stroke-width="0.1" stroke-linecap="butt" stroke-linejoin="miter" stroke-miterlimit="10" stroke-dasharray="" stroke-dashoffset="0" font-family="none" font-weight="none" font-size="none" text-anchor="none" style="mix-blend-mode: normal"></path>
<path d="M0,-3.5h35c1.933,0 3.5,1.567 3.5,3.5v25c0,1.933 -1.567,3.5 -3.5,3.5h-5c-1.933,0 -3.5,-1.567 -3.5,-3.5v-6.5h-18l0,18h6.5c1.933,0 3.5,1.567 3.5,3.5v5c0,1.933 -1.567,3.5 -3.5,3.5h-25c-1.933,0 -3.5,-1.567 -3.5,-3.5v-35c0,-0.92826 0.36875,-1.8185 1.02513,-2.47487l10,-10c0.65638,-0.65638 1.54662,-1.02513 2.47487,-1.02513z" fill="none" fill-rule="nonzero" stroke="#c1ff00" stroke-width="0.1" stroke-linecap="butt" stroke-linejoin="miter" stroke-miterlimit="10" stroke-dasharray="" stroke-dashoffset="0" font-family="none" font-weight="none" font-size="none" text-anchor="none" style="mix-blend-mode: normal"></path>
<path d="M0,-3.75h35c2.07107,0 3.75,1.67893 3.75,3.75v25c0,2.07107 -1.67893,3.75 -3.75,3.75h-5c-2.07107,0 -3.75,-1.67893 -3.75,-3.75v-6.25l-17.5,0v17.5h6.25c2.07107,0 3.75,1.67893 3.75,3.75v5c0,2.07107 -1.67893,3.75 -3.75,3.75h-25c-2.07107,0 -3.75,-1.67893 -3.75,-3.75v-35c0,-0.99456 0.39509,-1.94839 1.09835,-2.65165l10,-10c0.70326,-0.70326 1.65709,-1.09835 2.65165,-1.09835z" fill="none" fill-rule="nonzero" stroke="#baff00" stroke-width="0.1" stroke-linecap="butt" stroke-linejoin="miter" stroke-miterlimit="10" stroke-dasharray="" stroke-dashoffset="0" font-family="none" font-weight="none" font-size="none" text-anchor="none" style="mix-blend-mode: normal"></path>
<path d="M0,-4h35c2.20914,0 4,1.79086 4,4v25c0,2.20914 -1.79086,4 -4,4h-5c-2.20914,0 -4,-1.79086 -4,-4v-6h-17l0,17h6c2.20914,0 4,1.79086 4,4v5c0,2.20914 -1.79086,4 -4,4h-25c-2.20914,0 -4,-1.79086 -4,-4v-35c0,-1.06087 0.42143,-2.07828 1.17157,-2.82843l10,-10c0.75015,-0.75015 1.76756,-1.17157 2.82843,-1.17157z" fill="none" fill-rule="nonzero" stroke="#b3ff00" stroke-width="0.1" stroke-linecap="butt" stroke-linejoin="miter" stroke-miterlimit="10" stroke-dasharray="" stroke-dashoffset="0" font-family="none" font-weight="none" font-size="none" text-anchor="none" style="mix-blend-mode: normal"></path>
<path d="M0,-4.25h35c2.34721,0 4.25,1.90279 4.25,4.25v25c0,2.34721 -1.90279,4.25 -4.25,4.25h-5c-2.34721,0 -4.25,-1.90279 -4.25,-4.25v-5.75h-16.5v16.5h5.75c2.34721,0 4.25,1.90279 4.25,4.25v5c0,2.34721 -1.90279,4.25 -4.25,4.25h-25c-2.34721,0 -4.25,-1.90279 -4.25,-4.25v-35c0,-1.12717 0.44777,-2.20817 1.2448,-3.0052l10,-10c0.79703,-0.79703 1.87803,-1.2448 3.0052,-1.2448z" fill="none" fill-rule="nonzero" stroke="#abff00" stroke-width="0.1" stroke-linecap="butt" stroke-linejoin="miter" stroke-miterlimit="10" stroke-dasharray="" stroke-dashoffset="0" font-family="none" font-weight="none" font-size="none" text-anchor="none" style="mix-blend-mode: normal"></path>
<path d="M0,-4.5h35c2.48528,0 4.5,2.01472 4.5,4.5v25c0,2.48528 -2.01472,4.5 -4.5,4.5h-5c-2.48528,0 -4.5,-2.01472 -4.5,-4.5v-5.5h-16v16h5.5c2.48528,0 4.5,2.01472 4.5,4.5v5c0,2.48528 -2.01472,4.5 -4.5,4.5h-25c-2.48528,0 -4.5,-2.01472 -4.5,-4.5v-35c0,-1.19347 0.47411,-2.33807 1.31802,-3.18198l10,-10c0.84391,-0.84391 1.98851,-1.31802 3.18198,-1.31802z" fill="none" fill-rule="nonzero" stroke="#a4ff00" stroke-width="0.1" stroke-linecap="butt" stroke-linejoin="miter" stroke-miterlimit="10" stroke-dasharray="" stroke-dashoffset="0" font-family="none" font-weight="none" font-size="none" text-anchor="none" style="mix-blend-mode: normal"></path>
<path d="M0,-4.75h35c2.62335,0 4.75,2.12665 4.75,4.75v25c0,2.62335 -2.12665,4.75 -4.75,4.75h-5c-2.62335,0 -4.75,-2.12665 -4.75,-4.75v-5.25h-15.5v15.5h5.25c2.62335,0 4.75,2.12665 4.75,4.75v5c0,2.62335 -2.12665,4.75 -4.75,4.75h-25c-2.62335,0 -4.75,-2.12665 -4.75,-4.75v-35c0,-1.25978 0.50044,-2.46796 1.39124,-3.35876l10,-10c0.8908,-0.8908 2.09898,-1.39124 3.35876,-1.39124z" fill="none" fill-rule="nonzero" stroke="#9dff00" stroke-width="0.1" stroke-linecap="butt" stroke-linejoin="miter" stroke-miterlimit="10" stroke-dasharray="" stroke-dashoffset="0" font-family="none" font-weight="none" font-size="none" text-anchor="none" style="mix-blend-mode: normal"></path>
<path d="M0,-5h35c2.76142,0 5,2.23858 5,5v25c0,2.76142 -2.23858,5 -5,5h-5c-2.76142,0 -5,-2.23858 -5,-5v-5h-15v15h5c2.76142,0 5,2.23858 5,5v5c0,2.76142 -2.23858,5 -5,5h-25c-2.76142,0 -5,-2.23858 -5,-5v-35c0,-1.32608 0.52678,-2.59785 1.46447,-3.53553l10,-10c0.93768,-0.93768 2.20945,-1.46447 3.53553,-1.46447z" fill="none" fill-rule="nonzero" stroke="#95ff00" stroke-width="0.1" stroke-linecap="butt" stroke-linejoin="miter" stroke-miterlimit="10" stroke-dasharray="" stroke-dashoffset="0" font-family="none" font-weight="none" font-size="none" text-anchor="none" style="mix-blend-mode: normal"></path>
<path d="M0,-5.25h35c2.89949,0 5.25,2.35051 5.25,5.25v25c0,2.89949 -2.35051,5.25 -5.25,5.25h-5c-2.89949,0 -5.25,-2.35051 -5.25,-5.25v-4.75h-14.5l0,14.5h4.75c2.89949,0 5.25,2.35051 5.25,5.25v5c0,2.89949 -2.35051,5.25 -5.25,5.25h-25c-2.89949,0 -5.25,-2.35051 -5.25,-5.25v-35c0,-1.39239 0.55312,-2.72774 1.53769,-3.71231l10,-10c0.98457,-0.98457 2.31992,-1.53769 3.71231,-1.53769z" fill="none" fill-rule="nonzero" stroke="#8eff00" stroke-width="0.1" stroke-linecap="butt" stroke-linejoin="miter" stroke-miterlimit="10" stroke-dasharray="" stroke-dashoffset="0" font-family="none" font-weight="none" font-size="none" text-anchor="none" style="mix-blend-mode: normal"></path>
<path d="M0,-5.5h35c3.03757,0 5.5,2.46243 5.5,5.5v25c0,3.03757 -2.46243,5.5 -5.5,5.5h-5c-3.03757,0 -5.5,-2.46243 -5.5,-5.5v-4.5h-14l0,14h4.5c3.03757,0 5.5,2.46243 5.5,5.5v5c0,3.03757 -2.46243,5.5 -5.5,5.5h-25c-3.03757,0 -5.5,-2.46243 -5.5,-5.5v-35c0,-1.45869 0.57946,-2.85764 1.61091,-3.88909l10,-10c1.03145,-1.03145 2.4304,-1.61091 3.88909,-1.61091z" fill="none" fill-rule="nonzero" stroke="#86ff00" stroke-width="0.1" stroke-linecap="butt" stroke-linejoin="miter" stroke-miterlimit="10" stroke-dasharray="" stroke-dashoffset="0" font-family="none" font-weight="none" font-size="none" text-anchor="none" style="mix-blend-mode: normal"></path>
<path d="M0,-5.75h35c3.17564,0 5.75,2.57436 5.75,5.75v25c0,3.17564 -2.57436,5.75 -5.75,5.75h-5c-3.17564,0 -5.75,-2.57436 -5.75,-5.75v-4.25h-13.5v13.5h4.25c3.17564,0 5.75,2.57436 5.75,5.75v5c0,3.17564 -2.57436,5.75 -5.75,5.75h-25c-3.17564,0 -5.75,-2.57436 -5.75,-5.75v-35c0,-1.52499 0.6058,-2.98753 1.68414,-4.06586l10,-10c1.07833,-1.07833 2.54087,-1.68414 4.06586,-1.68414z" fill="none" fill-rule="nonzero" stroke="#7fff00" stroke-width="0.1" stroke-linecap="butt" stroke-linejoin="miter" stroke-miterlimit="10" stroke-dasharray="" stroke-dashoffset="0" font-family="none" font-weight="none" font-size="none" text-anchor="none" style="mix-blend-mode: normal"></path>
<path d="M0,-6h35c3.31371,0 6,2.68629 6,6v25c0,3.31371 -2.68629,6 -6,6h-5c-3.31371,0 -6,-2.68629 -6,-6v-4h-13v13h4c3.31371,0 6,2.68629 6,6v5c0,3.31371 -2.68629,6 -6,6h-25c-3.31371,0 -6,-2.68629 -6,-6v-35c0,-1.5913 0.63214,-3.11742 1.75736,-4.24264l10,-10c1.12522,-1.12522 2.65134,-1.75736 4.24264,-1.75736z" fill="none" fill-rule="nonzero" stroke="#78ff00" stroke-width="0.1" stroke-linecap="butt" stroke-linejoin="miter" stroke-miterlimit="10" stroke-dasharray="" stroke-dashoffset="0" font-family="none" font-weight="none" font-size="none" text-anchor="none" style="mix-blend-mode: normal"></path>
<path d="M0,-6.25h35c3.45178,0 6.25,2.79822 6.25,6.25v25c0,3.45178 -2.79822,6.25 -6.25,6.25h-5c-3.45178,0 -6.25,-2.79822 -6.25,-6.25v-3.75h-12.5l0,12.5h3.75c3.45178,0 6.25,2.79822 6.25,6.25v5c0,3.45178 -2.79822,6.25 -6.25,6.25h-25c-3.45178,0 -6.25,-2.79822 -6.25,-6.25v-35c0,-1.6576 0.65848,-3.24732 1.83058,-4.41942l10,-10c1.1721,-1.1721 2.76181,-1.83058 4.41942,-1.83058z" fill="none" fill-rule="nonzero" stroke="#70ff00" stroke-width="0.1" stroke-linecap="butt" stroke-linejoin="miter" stroke-miterlimit="10" stroke-dasharray="" stroke-dashoffset="0" font-family="none" font-weight="none" font-size="none" text-anchor="none" style="mix-blend-mode: normal"></path>
<path d="M0,-6.5h35c3.58985,0 6.5,2.91015 6.5,6.5v25c0,3.58985 -2.91015,6.5 -6.5,6.5h-5c-3.58985,0 -6.5,-2.91015 -6.5,-6.5v-3.5h-12l0,12h3.5c3.58985,0 6.5,2.91015 6.5,6.5v5c0,3.58985 -2.91015,6.5 -6.5,6.5h-25c-3.58985,0 -6.5,-2.91015 -6.5,-6.5v-35c0,-1.72391 0.68482,-3.37721 1.90381,-4.59619l10,-10c1.21899,-1.21899 2.87229,-1.90381 4.59619,-1.90381z" fill="none" fill-rule="nonzero" stroke="#69ff00" stroke-width="0.1" stroke-linecap="butt" stroke-linejoin="miter" stroke-miterlimit="10" stroke-dasharray="" stroke-dashoffset="0" font-family="none" font-weight="none" font-size="none" text-anchor="none" style="mix-blend-mode: normal"></path>
<path d="M0,-6.75h35c3.72792,0 6.75,3.02208 6.75,6.75v25c0,3.72792 -3.02208,6.75 -6.75,6.75h-5c-3.72792,0 -6.75,-3.02208 -6.75,-6.75v-3.25h-11.5l0,11.5h3.25c3.72792,0 6.75,3.02208 6.75,6.75v5c0,3.72792 -3.02208,6.75 -6.75,6.75h-25c-3.72792,0 -6.75,-3.02208 -6.75,-6.75v-35c0,-1.79021 0.71116,-3.5071 1.97703,-4.77297l10,-10c1.26587,-1.26587 2.98276,-1.97703 4.77297,-1.97703z" fill="none" fill-rule="nonzero" stroke="#62ff00" stroke-width="0.1" stroke-linecap="butt" stroke-linejoin="miter" stroke-miterlimit="10" stroke-dasharray="" stroke-dashoffset="0" font-family="none" font-weight="none" font-size="none" text-anchor="none" style="mix-blend-mode: normal"></path>
<path d="M0,-7h35c3.86599,0 7,3.13401 7,7v25c0,3.86599 -3.13401,7 -7,7h-5c-3.86599,0 -7,-3.13401 -7,-7v-3h-11v11h3c3.86599,0 7,3.13401 7,7v5c0,3.86599 -3.13401,7 -7,7h-25c-3.86599,0 -7,-3.13401 -7,-7v-35c0,-1.85652 0.7375,-3.63699 2.05025,-4.94975l10,-10c1.31275,-1.31275 3.09323,-2.05025 4.94975,-2.05025z" fill="none" fill-rule="nonzero" stroke="#5aff00" stroke-width="0.1" stroke-linecap="butt" stroke-linejoin="miter" stroke-miterlimit="10" stroke-dasharray="" stroke-dashoffset="0" font-family="none" font-weight="none" font-size="none" text-anchor="none" style="mix-blend-mode: normal"></path>
<path d="M0,-7.25h35c4.00406,0 7.25,3.24594 7.25,7.25v25c0,4.00406 -3.24594,7.25 -7.25,7.25h-5c-4.00406,0 -7.25,-3.24594 -7.25,-7.25v-2.75h-10.5l0,10.5h2.75c4.00406,0 7.25,3.24594 7.25,7.25v5c0,4.00406 -3.24594,7.25 -7.25,7.25h-25c-4.00406,0 -7.25,-3.24594 -7.25,-7.25v-35c0,-1.92282 0.76384,-3.76689 2.12348,-5.12652l10,-10c1.35964,-1.35964 3.2037,-2.12348 5.12652,-2.12348z" fill="none" fill-rule="nonzero" stroke="#53ff00" stroke-width="0.1" stroke-linecap="butt" stroke-linejoin="miter" stroke-miterlimit="10" stroke-dasharray="" stroke-dashoffset="0" font-family="none" font-weight="none" font-size="none" text-anchor="none" style="mix-blend-mode: normal"></path>
<path d="M0,-7.5h35c4.14214,0 7.5,3.35786 7.5,7.5v25c0,4.14214 -3.35786,7.5 -7.5,7.5h-5c-4.14214,0 -7.5,-3.35786 -7.5,-7.5v-2.5h-10l0,10h2.5c4.14214,0 7.5,3.35786 7.5,7.5v5c0,4.14214 -3.35786,7.5 -7.5,7.5h-25c-4.14214,0 -7.5,-3.35786 -7.5,-7.5v-35c0,-1.98912 0.79018,-3.89678 2.1967,-5.3033l10,-10c1.40652,-1.40652 3.31418,-2.1967 5.3033,-2.1967z" fill="none" fill-rule="nonzero" stroke="#4cff00" stroke-width="0.1" stroke-linecap="butt" stroke-linejoin="miter" stroke-miterlimit="10" stroke-dasharray="" stroke-dashoffset="0" font-family="none" font-weight="none" font-size="none" text-anchor="none" style="mix-blend-mode: normal"></path>
<path d="M0,-7.75h35c4.28021,0 7.75,3.46979 7.75,7.75v25c0,4.28021 -3.46979,7.75 -7.75,7.75h-5c-4.28021,0 -7.75,-3.46979 -7.75,-7.75l0,-2.25l-9.5,0l0,9.5h2.25c4.28021,0 7.75,3.46979 7.75,7.75v5c0,4.28021 -3.46979,7.75 -7.75,7.75h-25c-4.28021,0 -7.75,-3.46979 -7.75,-7.75v-35c0,-2.05543 0.81652,-4.02667 2.26992,-5.48008l10,-10c1.45341,-1.45341 3.42465,-2.26992 5.48008,-2.26992z" fill="none" fill-rule="nonzero" stroke="#44ff00" stroke-width="0.1" stroke-linecap="butt" stroke-linejoin="miter" stroke-miterlimit="10" stroke-dasharray="" stroke-dashoffset="0" font-family="none" font-weight="none" font-size="none" text-anchor="none" style="mix-blend-mode: normal"></path>
<path d="M0,-8h35c4.41828,0 8,3.58172 8,8v25c0,4.41828 -3.58172,8 -8,8h-5c-4.41828,0 -8,-3.58172 -8,-8v-2h-9l0,9l2,0c4.41828,0 8,3.58172 8,8v5c0,4.41828 -3.58172,8 -8,8h-25c-4.41828,0 -8,-3.58172 -8,-8v-35c0,-2.12173 0.84285,-4.15656 2.34315,-5.65685l10,-10c1.50029,-1.50029 3.53512,-2.34315 5.65685,-2.34315z" fill="none" fill-rule="nonzero" stroke="#3dff00" stroke-width="0.1" stroke-linecap="butt" stroke-linejoin="miter" stroke-miterlimit="10" stroke-dasharray="" stroke-dashoffset="0" font-family="none" font-weight="none" font-size="none" text-anchor="none" style="mix-blend-mode: normal"></path>
<path d="M0,-8.25h35c4.55635,0 8.25,3.69365 8.25,8.25v25c0,4.55635 -3.69365,8.25 -8.25,8.25h-5c-4.55635,0 -8.25,-3.69365 -8.25,-8.25v-1.75h-8.5l0,8.5l1.75,0c4.55635,0 8.25,3.69365 8.25,8.25v5c0,4.55635 -3.69365,8.25 -8.25,8.25h-25c-4.55635,0 -8.25,-3.69365 -8.25,-8.25v-35c0,-2.18804 0.86919,-4.28646 2.41637,-5.83363l10,-10c1.54718,-1.54718 3.64559,-2.41637 5.83363,-2.41637z" fill="none" fill-rule="nonzero" stroke="#35ff00" stroke-width="0.1" stroke-linecap="butt" stroke-linejoin="miter" stroke-miterlimit="10" stroke-dasharray="" stroke-dashoffset="0" font-family="none" font-weight="none" font-size="none" text-anchor="none" style="mix-blend-mode: normal"></path>
<path d="M0,-8.5h35c4.69442,0 8.5,3.80558 8.5,8.5v25c0,4.69442 -3.80558,8.5 -8.5,8.5h-5c-4.69442,0 -8.5,-3.80558 -8.5,-8.5v-1.5h-8l0,8h1.5c4.69442,0 8.5,3.80558 8.5,8.5v5c0,4.69442 -3.80558,8.5 -8.5,8.5h-25c-4.69442,0 -8.5,-3.80558 -8.5,-8.5v-35c0,-2.25434 0.89553,-4.41635 2.48959,-6.01041l10,-10c1.59406,-1.59406 3.75607,-2.48959 6.01041,-2.48959z" fill="none" fill-rule="nonzero" stroke="#2eff00" stroke-width="0.1" stroke-linecap="butt" stroke-linejoin="miter" stroke-miterlimit="10" stroke-dasharray="" stroke-dashoffset="0" font-family="none" font-weight="none" font-size="none" text-anchor="none" style="mix-blend-mode: normal"></path>
<path d="M0,-8.75h35c4.83249,0 8.75,3.91751 8.75,8.75v25c0,4.83249 -3.91751,8.75 -8.75,8.75h-5c-4.83249,0 -8.75,-3.91751 -8.75,-8.75v-1.25h-7.5l0,7.5h1.25c4.83249,0 8.75,3.91751 8.75,8.75v5c0,4.83249 -3.91751,8.75 -8.75,8.75h-25c-4.83249,0 -8.75,-3.91751 -8.75,-8.75v-35c0,-2.32064 0.92187,-4.54624 2.56282,-6.18718l10,-10c1.64094,-1.64094 3.86654,-2.56282 6.18718,-2.56282z" fill="none" fill-rule="nonzero" stroke="#27ff00" stroke-width="0.1" stroke-linecap="butt" stroke-linejoin="miter" stroke-miterlimit="10" stroke-dasharray="" stroke-dashoffset="0" font-family="none" font-weight="none" font-size="none" text-anchor="none" style="mix-blend-mode: normal"></path>
<path d="M0,-9h35c4.97056,0 9,4.02944 9,9v25c0,4.97056 -4.02944,9 -9,9h-5c-4.97056,0 -9,-4.02944 -9,-9v-1h-7v7l1,0c4.97056,0 9,4.02944 9,9v5c0,4.97056 -4.02944,9 -9,9h-25c-4.97056,0 -9,-4.02944 -9,-9v-35c0,-2.38695 0.94821,-4.67613 2.63604,-6.36396l10,-10c1.68783,-1.68783 3.97701,-2.63604 6.36396,-2.63604z" fill="none" fill-rule="nonzero" stroke="#1fff00" stroke-width="0.1" stroke-linecap="butt" stroke-linejoin="miter" stroke-miterlimit="10" stroke-dasharray="" stroke-dashoffset="0" font-family="none" font-weight="none" font-size="none" text-anchor="none" style="mix-blend-mode: normal"></path>
<path d="M0,-9.25h35c5.10863,0 9.25,4.14137 9.25,9.25v25c0,5.10863 -4.14137,9.25 -9.25,9.25h-5c-5.10863,0 -9.25,-4.14137 -9.25,-9.25v-0.75h-6.5l0,6.5l0.75,0c5.10863,0 9.25,4.14137 9.25,9.25v5c0,5.10863 -4.14137,9.25 -9.25,9.25h-25c-5.10863,0 -9.25,-4.14137 -9.25,-9.25v-35c0,-2.45325 0.97455,-4.80603 2.70926,-6.54074l10,-10c1.73471,-1.73471 4.08749,-2.70926 6.54074,-2.70926z" fill="none" fill-rule="nonzero" stroke="#18ff00" stroke-width="0.1" stroke-linecap="butt" stroke-linejoin="miter" stroke-miterlimit="10" stroke-dasharray="" stroke-dashoffset="0" font-family="none" font-weight="none" font-size="none" text-anchor="none" style="mix-blend-mode: normal"></path>
<path d="M0,-9.5h35c5.24671,0 9.5,4.25329 9.5,9.5v25c0,5.24671 -4.25329,9.5 -9.5,9.5h-5c-5.24671,0 -9.5,-4.25329 -9.5,-9.5v-0.5h-6l0,6l0.5,0c5.24671,0 9.5,4.25329 9.5,9.5v5c0,5.24671 -4.25329,9.5 -9.5,9.5h-25c-5.24671,0 -9.5,-4.25329 -9.5,-9.5v-35c0,-2.51956 1.00089,-4.93592 2.78249,-6.71751l10,-10c1.7816,-1.7816 4.19796,-2.78249 6.71751,-2.78249z" fill="none" fill-rule="nonzero" stroke="#11ff00" stroke-width="0.1" stroke-linecap="butt" stroke-linejoin="miter" stroke-miterlimit="10" stroke-dasharray="" stroke-dashoffset="0" font-family="none" font-weight="none" font-size="none" text-anchor="none" style="mix-blend-mode: normal"></path>
<path d="M0,-9.75h35c5.38478,0 9.75,4.36522 9.75,9.75v25c0,5.38478 -4.36522,9.75 -9.75,9.75h-5c-5.38478,0 -9.75,-4.36522 -9.75,-9.75v-0.25h-5.5l0,5.5h0.25c5.38478,0 9.75,4.36522 9.75,9.75v5c0,5.38478 -4.36522,9.75 -9.75,9.75h-25c-5.38478,0 -9.75,-4.36522 -9.75,-9.75v-35c0,-2.58586 1.02723,-5.06581 2.85571,-6.89429l10,-10c1.82848,-1.82848 4.30843,-2.85571 6.89429,-2.85571z" fill="none" fill-rule="nonzero" stroke="#09ff00" stroke-width="0.1" stroke-linecap="butt" stroke-linejoin="miter" stroke-miterlimit="10" stroke-dasharray="" stroke-dashoffset="0" font-family="none" font-weight="none" font-size="none" text-anchor="none" style="mix-blend-mode: normal"></path>
<path d="M0,-10h35c5.52285,0 10,4.47715 10,10v25c0,5.52285 -4.47715,10 -10,10h-5c-5.52285,0 -10,-4.47715 -10,-10h-5v5c5.52285,0 10,4.47715 10,10v5c0,5.52285 -4.47715,10 -10,10h-25c-5.52285,0 -10,-4.47715 -10,-10v-35c0,-2.65216 1.05357,-5.1957 2.92893,-7.07107l10,-10c1.87536,-1.87536 4.4189,-2.92893 7.07107,-2.92893z" fill="none" fill-rule="nonzero" stroke="#02ff00" stroke-width="0.1" stroke-linecap="butt" stroke-linejoin="miter" stroke-miterlimit="10" stroke-dasharray="" stroke-dashoffset="0" font-family="none" font-weight="none" font-size="none" text-anchor="none" style="mix-blend-mode: normal"></path>
<path d="M0,-10.25h35c5.66092,0 10.25,4.58908 10.25,10.25v25c0,5.66092 -4.58908,10.25 -10.25,10.25h-5c-5.56352,0 -10.11126,-4.43813 -10.24695,-10h-4.50305v4.50305c5.56187,0.1357 10,4.68343 10,10.24695v5c0,5.66092 -4.58908,10.25 -10.25,10.25h-25c-5.66092,0 -10.25,-4.58908 -10.25,-10.25v-35c0,-2.71847 1.07991,-5.3256 3.00216,-7.24784l10,-10c1.92225,-1.92225 4.52938,-3.00216 7.24784,-3.00216z" fill="none" fill-rule="nonzero" stroke="#00ff05" stroke-width="0.1" stroke-linecap="butt" stroke-linejoin="miter" stroke-miterlimit="10" stroke-dasharray="" stroke-dashoffset="0" font-family="none" font-weight="none" font-size="none" text-anchor="none" style="mix-blend-mode: normal"></path>
<path d="M0,-10.5h35c5.79899,0 10.5,4.70101 10.5,10.5v25c0,5.79899 -4.70101,10.5 -10.5,10.5h-5c-5.6046,0 -10.2212,-4.40175 -10.48809,-10h-4.01191v4.01191c5.59825,0.26689 10,4.88348 10,10.48809v5c0,5.79899 -4.70101,10.5 -10.5,10.5h-25c-5.79899,0 -10.5,-4.70101 -10.5,-10.5v-35c0,-2.78477 1.10625,-5.45549 3.07538,-7.42462l10,-10c1.96913,-1.96913 4.63985,-3.07538 7.42462,-3.07538z" fill="none" fill-rule="nonzero" stroke="#00ff0d" stroke-width="0.1" stroke-linecap="butt" stroke-linejoin="miter" stroke-miterlimit="10" stroke-dasharray="" stroke-dashoffset="0" font-family="none" font-weight="none" font-size="none" text-anchor="none" style="mix-blend-mode: normal"></path>
<path d="M0,-10.75h35c5.93706,0 10.75,4.81294 10.75,10.75v25c0,5.93706 -4.81294,10.75 -10.75,10.75h-5c-2.3283,0 -4.49299,-0.74277 -6.26068,-2.01068c1.26791,1.76769 2.01068,3.93238 2.01068,6.26068v5c0,5.93706 -4.81294,10.75 -10.75,10.75h-25c-5.93706,0 -10.75,-4.81294 -10.75,-10.75v-35c0,-2.85108 1.13259,-5.58538 3.1486,-7.6014l10,-10c2.01602,-2.01602 4.75032,-3.1486 7.6014,-3.1486zM19.27619,25.75h-3.52619v3.52619c2.05465,0.1437 3.94103,0.85831 5.50846,1.98227c-1.12396,-1.56744 -1.83857,-3.45381 -1.98227,-5.50846z" fill="none" fill-rule="nonzero" stroke="#00ff14" stroke-width="0.1" stroke-linecap="butt" stroke-linejoin="miter" stroke-miterlimit="10" stroke-dasharray="" stroke-dashoffset="0" font-family="none" font-weight="none" font-size="none" text-anchor="none" style="mix-blend-mode: normal"></path>
<path d="M0,-11h35c6.07513,0 11,4.92487 11,11v25c0,6.07513 -4.92487,11 -11,11h-5c-1.97,0 -3.82748,-0.52017 -5.43553,-1.43553c0.91536,1.60805 1.43553,3.46553 1.43553,5.43553v5c0,6.07513 -4.92487,11 -11,11h-25c-6.07513,0 -11,-4.92487 -11,-11v-35c0,-2.91738 1.15893,-5.71527 3.22183,-7.77817l10,-10c2.0629,-2.0629 4.86079,-3.22183 7.77817,-3.22183zM19.04555,26h-3.04555v3.04555c1.6079,0.14678 3.10877,0.63465 4.43379,1.38824c-0.75359,-1.32503 -1.24146,-2.82589 -1.38824,-4.43379z" fill="none" fill-rule="nonzero" stroke="#00ff1c" stroke-width="0.1" stroke-linecap="butt" stroke-linejoin="miter" stroke-miterlimit="10" stroke-dasharray="" stroke-dashoffset="0" font-family="none" font-weight="none" font-size="none" text-anchor="none" style="mix-blend-mode: normal"></path>
<path d="M0,-11.25h35c6.2132,0 11.25,5.0368 11.25,11.25v25c0,6.2132 -5.0368,11.25 -11.25,11.25h-5c-1.72818,0 -3.37309,-0.39176 -4.8452,-1.0952c0.70344,1.47211 1.0952,3.11702 1.0952,4.8452v5c0,6.2132 -5.0368,11.25 -11.25,11.25h-25c-6.2132,0 -11.25,-5.0368 -11.25,-11.25v-35c0,-2.98369 1.18526,-5.84517 3.29505,-7.95495l10,-10c2.10978,-2.10978 4.97127,-3.29505 7.95495,-3.29505zM18.81966,26.25l-2.56966,0v2.56966c1.27914,0.14301 2.48823,0.49685 3.5942,1.02454c-0.52768,-1.10596 -0.88153,-2.31506 -1.02454,-3.5942z" fill="none" fill-rule="nonzero" stroke="#00ff23" stroke-width="0.1" stroke-linecap="butt" stroke-linejoin="miter" stroke-miterlimit="10" stroke-dasharray="" stroke-dashoffset="0" font-family="none" font-weight="none" font-size="none" text-anchor="none" style="mix-blend-mode: normal"></path>
<path d="M0,-11.5h35c6.35127,0 11.5,5.14873 11.5,11.5v25c0,6.35127 -5.14873,11.5 -11.5,11.5h-5c-1.53499,0 -3.00674,-0.3026 -4.35448,-0.85448c0.55189,1.34774 0.85448,2.81949 0.85448,4.35448v5c0,6.35127 -5.14873,11.5 -11.5,11.5h-25c-6.35127,0 -11.5,-5.14873 -11.5,-11.5v-35c0,-3.04999 1.2116,-5.97506 3.36827,-8.13173l10,-10c2.15667,-2.15667 5.08174,-3.36827 8.13173,-3.36827zM18.59825,26.5h-2.09825v2.09825c1.00066,0.13165 1.95715,0.38943 2.85432,0.75607c-0.36664,-0.89717 -0.62443,-1.85366 -0.75607,-2.85432z" fill="none" fill-rule="nonzero" stroke="#00ff2a" stroke-width="0.1" stroke-linecap="butt" stroke-linejoin="miter" stroke-miterlimit="10" stroke-dasharray="" stroke-dashoffset="0" font-family="none" font-weight="none" font-size="none" text-anchor="none" style="mix-blend-mode: normal"></path>
<path d="M0,-11.75h35c6.48935,0 11.75,5.26065 11.75,11.75v25c0,6.48935 -5.26065,11.75 -11.75,11.75h-5c-1.36984,0 -2.69116,-0.23604 -3.92209,-0.67209c0.43605,1.23093 0.67209,2.55225 0.67209,3.92209v5c0,6.48935 -5.26065,11.75 -11.75,11.75h-25c-6.48935,0 -11.75,-5.26065 -11.75,-11.75v-35c0,-3.11629 1.23794,-6.10495 3.4415,-8.3085l10,-10c2.20355,-2.20355 5.19221,-3.4415 8.3085,-3.4415zM18.38105,26.75h-1.63105v1.63105c0.75191,0.11325 1.4782,0.29619 2.17272,0.54167c-0.24548,-0.69451 -0.42842,-1.42081 -0.54167,-2.17272z" fill="none" fill-rule="nonzero" stroke="#00ff32" stroke-width="0.1" stroke-linecap="butt" stroke-linejoin="miter" stroke-miterlimit="10" stroke-dasharray="" stroke-dashoffset="0" font-family="none" font-weight="none" font-size="none" text-anchor="none" style="mix-blend-mode: normal"></path>
<path d="M0,-12h35c6.62742,0 12,5.37258 12,12v25c0,6.62742 -5.37258,12 -12,12h-5c-1.22323,0 -2.40915,-0.18443 -3.52886,-0.52886c0.34444,1.11971 0.52886,2.30563 0.52886,3.52886v5c0,6.62742 -5.37258,12 -12,12h-25c-6.62742,0 -12,-5.37258 -12,-12v-35c0,-3.1826 1.26428,-6.23484 3.51472,-8.48528l10,-10c2.25044,-2.25044 5.30268,-3.51472 8.48528,-3.51472zM18.16784,27h-1.16784l0,1.16784c0.52343,0.08848 1.03414,0.21003 1.53014,0.3623c-0.15227,-0.496 -0.27382,-1.00671 -0.3623,-1.53014z" fill="none" fill-rule="nonzero" stroke="#00ff39" stroke-width="0.1" stroke-linecap="butt" stroke-linejoin="miter" stroke-miterlimit="10" stroke-dasharray="" stroke-dashoffset="0" font-family="none" font-weight="none" font-size="none" text-anchor="none" style="mix-blend-mode: normal"></path>
<path d="M0,-12.25h35c6.76549,0 12.25,5.48451 12.25,12.25v25c0,6.76549 -5.48451,12.25 -12.25,12.25h-5c-1.0899,0 -2.1512,-0.14352 -3.1641,-0.4141c0.27058,1.0129 0.4141,2.0742 0.4141,3.1641v5c0,6.76549 -5.48451,12.25 -12.25,12.25h-25c-6.76549,0 -12.25,-5.48451 -12.25,-12.25v-35c0,-3.2489 1.29062,-6.36474 3.58794,-8.66206l10,-10c2.29732,-2.29732 5.41316,-3.58794 8.66206,-3.58794zM17.95841,27.25h-0.70841v0.70841c0.30995,0.05791 0.61534,0.1272 0.91578,0.20737c-0.08017,-0.30043 -0.14946,-0.60583 -0.20737,-0.91578z" fill="none" fill-rule="nonzero" stroke="#00ff40" stroke-width="0.1" stroke-linecap="butt" stroke-linejoin="miter" stroke-miterlimit="10" stroke-dasharray="" stroke-dashoffset="0" font-family="none" font-weight="none" font-size="none" text-anchor="none" style="mix-blend-mode: normal"></path>
<path d="M0,-12.5h35c6.90356,0 12.5,5.59644 12.5,12.5v25c0,6.90356 -5.59644,12.5 -12.5,12.5h-5c-0.96656,0 -1.9114,-0.11068 -2.82111,-0.32111c0.21042,0.90971 0.32111,1.85455 0.32111,2.82111v5c0,6.90356 -5.59644,12.5 -12.5,12.5h-25c-6.90356,0 -12.5,-5.59644 -12.5,-12.5v-35c0,-3.31521 1.31696,-6.49463 3.66117,-8.83883l10,-10c2.3442,-2.3442 5.52363,-3.66117 8.83883,-3.66117zM17.75255,27.5h-0.25255v0.25255c0.10819,0.02208 0.21582,0.04553 0.32286,0.07031c-0.02478,-0.10704 -0.04823,-0.21467 -0.07031,-0.32286z" fill="none" fill-rule="nonzero" stroke="#00ff48" stroke-width="0.1" stroke-linecap="butt" stroke-linejoin="miter" stroke-miterlimit="10" stroke-dasharray="" stroke-dashoffset="0" font-family="none" font-weight="none" font-size="none" text-anchor="none" style="mix-blend-mode: normal"></path>
<path d="M0,-12.75h35c7.04163,0 12.75,5.70837 12.75,12.75v25c0,7.04163 -5.70837,12.75 -12.75,12.75h-5c-0.83838,0 -1.67472,-0.08269 -2.49688,-0.24688c0.16418,0.82215 0.24688,1.65849 0.24688,2.49688v5c0,7.04163 -5.70837,12.75 -12.75,12.75h-25c-7.04163,0 -12.75,-5.70837 -12.75,-12.75v-35c0,-3.38151 1.3433,-6.62452 3.73439,-9.01561l10,-10c2.39109,-2.39109 5.6341,-3.73439 9.01561,-3.73439z" fill="none" fill-rule="nonzero" stroke="#00ff4f" stroke-width="0.1" stroke-linecap="butt" stroke-linejoin="miter" stroke-miterlimit="10" stroke-dasharray="" stroke-dashoffset="0" font-family="none" font-weight="none" font-size="none" text-anchor="none" style="mix-blend-mode: normal"></path>
<path d="M0,-13h35c7.1797,0 13,5.8203 13,13v25c0,7.1797 -5.8203,13 -13,13h-5c-0.73222,0 -1.46313,-0.06186 -2.18493,-0.18493c0.12306,0.7218 0.18493,1.45271 0.18493,2.18493v5c0,7.1797 -5.8203,13 -13,13h-25c-7.1797,0 -13,-5.8203 -13,-13v-35c0,-3.44781 1.36964,-6.75442 3.80761,-9.19239l10,-10c2.43797,-2.43797 5.74457,-3.80761 9.19239,-3.80761z" fill="none" fill-rule="nonzero" stroke="#00ff56" stroke-width="0.1" stroke-linecap="butt" stroke-linejoin="miter" stroke-miterlimit="10" stroke-dasharray="" stroke-dashoffset="0" font-family="none" font-weight="none" font-size="none" text-anchor="none" style="mix-blend-mode: normal"></path>
<path d="M0,-13.25h35c7.31777,0 13.25,5.93223 13.25,13.25v25c0,7.31777 -5.93223,13.25 -13.25,13.25h-5c-0.63065,0 -1.26049,-0.04502 -1.88473,-0.13473c0.08971,0.62424 0.13473,1.25408 0.13473,1.88473v5c0,7.31777 -5.93223,13.25 -13.25,13.25h-25c-7.31777,0 -13.25,-5.93223 -13.25,-13.25v-35c0,-3.51412 1.39598,-6.88431 3.88084,-9.36916l10,-10c2.48486,-2.48486 5.85505,-3.88084 9.36916,-3.88084z" fill="none" fill-rule="nonzero" stroke="#00ff5e" stroke-width="0.1" stroke-linecap="butt" stroke-linejoin="miter" stroke-miterlimit="10" stroke-dasharray="" stroke-dashoffset="0" font-family="none" font-weight="none" font-size="none" text-anchor="none" style="mix-blend-mode: normal"></path>
<path d="M0,-13.5h35c7.45584,0 13.5,6.04416 13.5,13.5v25c0,7.45584 -6.04416,13.5 -13.5,13.5h-5c-0.5329,0 -1.06533,-0.03155 -1.59449,-0.09449c0.06294,0.52917 0.09449,1.0616 0.09449,1.59449v5c0,7.45584 -6.04416,13.5 -13.5,13.5h-25c-7.45584,0 -13.5,-6.04416 -13.5,-13.5v-35c0,-3.58042 1.42232,-7.0142 3.95406,-9.54594l10,-10c2.53174,-2.53174 5.96552,-3.95406 9.54594,-3.95406z" fill="none" fill-rule="nonzero" stroke="#00ff65" stroke-width="0.1" stroke-linecap="butt" stroke-linejoin="miter" stroke-miterlimit="10" stroke-dasharray="" stroke-dashoffset="0" font-family="none" font-weight="none" font-size="none" text-anchor="none" style="mix-blend-mode: normal"></path>
<path d="M0,-13.75h35c7.59392,0 13.75,6.15608 13.75,13.75v25c0,7.59392 -6.15608,13.75 -13.75,13.75h-5c-0.43836,0 -0.87646,-0.02096 -1.31282,-0.06282c0.04185,0.43635 0.06282,0.87446 0.06282,1.31282v5c0,7.59392 -6.15608,13.75 -13.75,13.75h-25c-7.59392,0 -13.75,-6.15608 -13.75,-13.75v-35c0,-3.64673 1.44866,-7.14409 4.02728,-9.72272l10,-10c2.57863,-2.57863 6.07599,-4.02728 9.72272,-4.02728z" fill="none" fill-rule="nonzero" stroke="#00ff6d" stroke-width="0.1" stroke-linecap="butt" stroke-linejoin="miter" stroke-miterlimit="10" stroke-dasharray="" stroke-dashoffset="0" font-family="none" font-weight="none" font-size="none" text-anchor="none" style="mix-blend-mode: normal"></path>
<path d="M0,-14h35c7.73199,0 14,6.26801 14,14v25c0,7.73199 -6.26801,14 -14,14h-5c-0.34655,0 -0.69298,-0.01287 -1.03858,-0.03858c0.02571,0.3456 0.03858,0.69203 0.03858,1.03858v5c0,7.73199 -6.26801,14 -14,14h-25c-7.73199,0 -14,-6.26801 -14,-14v-35c0,-3.71303 1.475,-7.27399 4.10051,-9.89949l10,-10c2.62551,-2.62551 6.18646,-4.10051 9.89949,-4.10051z" fill="none" fill-rule="nonzero" stroke="#00ff74" stroke-width="0.1" stroke-linecap="butt" stroke-linejoin="miter" stroke-miterlimit="10" stroke-dasharray="" stroke-dashoffset="0" font-family="none" font-weight="none" font-size="none" text-anchor="none" style="mix-blend-mode: normal"></path>
<path d="M0,-14.25h35c7.87006,0 14.25,6.37994 14.25,14.25v25c0,7.87006 -6.37994,14.25 -14.25,14.25h-5c-0.2571,0 -0.51415,-0.00696 -0.77087,-0.02087c0.01391,0.25672 0.02087,0.51377 0.02087,0.77087v5c0,7.87006 -6.37994,14.25 -14.25,14.25h-25c-7.87006,0 -14.25,-6.37994 -14.25,-14.25v-35c0,-3.77933 1.50133,-7.40388 4.17373,-10.07627l10,-10c2.67239,-2.67239 6.29694,-4.17373 10.07627,-4.17373z" fill="none" fill-rule="nonzero" stroke="#00ff7b" stroke-width="0.1" stroke-linecap="butt" stroke-linejoin="miter" stroke-miterlimit="10" stroke-dasharray="" stroke-dashoffset="0" font-family="none" font-weight="none" font-size="none" text-anchor="none" style="mix-blend-mode: normal"></path>
<path d="M0,-14.5h35c8.00813,0 14.5,6.49187 14.5,14.5v25c0,8.00813 -6.49187,14.5 -14.5,14.5h-5c-0.16968,0 -0.33935,-0.00298 -0.50893,-0.00893c0.00596,0.16958 0.00893,0.33925 0.00893,0.50893v5c0,8.00813 -6.49187,14.5 -14.5,14.5h-25c-8.00813,0 -14.5,-6.49187 -14.5,-14.5v-35c0,-3.84564 1.52767,-7.53377 4.24695,-10.25305l10,-10c2.71928,-2.71928 6.40741,-4.24695 10.25305,-4.24695z" fill="none" fill-rule="nonzero" stroke="#00ff83" stroke-width="0.1" stroke-linecap="butt" stroke-linejoin="miter" stroke-miterlimit="10" stroke-dasharray="" stroke-dashoffset="0" font-family="none" font-weight="none" font-size="none" text-anchor="none" style="mix-blend-mode: normal"></path>
<path d="M0,-14.75h35c8.1462,0 14.75,6.6038 14.75,14.75v25c0,8.1462 -6.6038,14.75 -14.75,14.75h-5c-0.08406,0 -0.16811,-0.00072 -0.25216,-0.00216c0.00144,0.08404 0.00216,0.1681 0.00216,0.25216v5c0,8.1462 -6.6038,14.75 -14.75,14.75h-25c-8.1462,0 -14.75,-6.6038 -14.75,-14.75v-35c0,-3.91194 1.55401,-7.66366 4.32017,-10.42983l10,-10c2.76616,-2.76616 6.51788,-4.32017 10.42983,-4.32017z" fill="none" fill-rule="nonzero" stroke="#00ff8a" stroke-width="0.1" stroke-linecap="butt" stroke-linejoin="miter" stroke-miterlimit="10" stroke-dasharray="" stroke-dashoffset="0" font-family="none" font-weight="none" font-size="none" text-anchor="none" style="mix-blend-mode: normal"></path>
<path d="M0,-15h35c8.28427,0 15,6.71573 15,15v25c0,8.28427 -6.71573,15 -15,15h-5v5c0,8.28427 -6.71573,15 -15,15h-25c-8.28427,0 -15,-6.71573 -15,-15v-35c0,-3.97825 1.58035,-7.79356 4.3934,-10.6066l10,-10c2.81305,-2.81305 6.62835,-4.3934 10.6066,-4.3934z" fill="none" fill-rule="nonzero" stroke="#00ff91" stroke-width="0.1" stroke-linecap="butt" stroke-linejoin="miter" stroke-miterlimit="10" stroke-dasharray="" stroke-dashoffset="0" font-family="none" font-weight="none" font-size="none" text-anchor="none" style="mix-blend-mode: normal"></path>
<path d="M0,-15.25h35c8.42234,0 15.25,6.82766 15.25,15.25v25c0,8.42234 -6.82766,15.25 -15.25,15.25h-4.75v4.75c0,8.42234 -6.82766,15.25 -15.25,15.25h-25c-8.42234,0 -15.25,-6.82766 -15.25,-15.25v-35c0,-4.04455 1.60669,-7.92345 4.46662,-10.78338l10,-10c2.85993,-2.85993 6.73883,-4.46662 10.78338,-4.46662z" fill="none" fill-rule="nonzero" stroke="#00ff99" stroke-width="0.1" stroke-linecap="butt" stroke-linejoin="miter" stroke-miterlimit="10" stroke-dasharray="" stroke-dashoffset="0" font-family="none" font-weight="none" font-size="none" text-anchor="none" style="mix-blend-mode: normal"></path>
<path d="M0,-15.5h35c8.56041,0 15.5,6.93959 15.5,15.5v25c0,8.56041 -6.93959,15.5 -15.5,15.5h-4.5v4.5c0,8.56041 -6.93959,15.5 -15.5,15.5h-25c-8.56041,0 -15.5,-6.93959 -15.5,-15.5v-35c0,-4.11086 1.63303,-8.05334 4.53984,-10.96016l10,-10c2.90681,-2.90681 6.8493,-4.53984 10.96016,-4.53984z" fill="none" fill-rule="nonzero" stroke="#00ffa0" stroke-width="0.1" stroke-linecap="butt" stroke-linejoin="miter" stroke-miterlimit="10" stroke-dasharray="" stroke-dashoffset="0" font-family="none" font-weight="none" font-size="none" text-anchor="none" style="mix-blend-mode: normal"></path>
<path d="M0,-15.75h35c8.69848,0 15.75,7.05152 15.75,15.75v25c0,8.69848 -7.05152,15.75 -15.75,15.75h-4.25v4.25c0,8.69848 -7.05152,15.75 -15.75,15.75h-25c-8.69848,0 -15.75,-7.05152 -15.75,-15.75v-35c0,-4.17716 1.65937,-8.18323 4.61307,-11.13693l10,-10c2.9537,-2.9537 6.95977,-4.61307 11.13693,-4.61307z" fill="none" fill-rule="nonzero" stroke="#00ffa7" stroke-width="0.1" stroke-linecap="butt" stroke-linejoin="miter" stroke-miterlimit="10" stroke-dasharray="" stroke-dashoffset="0" font-family="none" font-weight="none" font-size="none" text-anchor="none" style="mix-blend-mode: normal"></path>
<path d="M0,-16h35c8.83656,0 16,7.16344 16,16v25c0,8.83656 -7.16344,16 -16,16h-4v4c0,8.83656 -7.16344,16 -16,16h-25c-8.83656,0 -16,-7.16344 -16,-16v-35c0,-4.24346 1.68571,-8.31313 4.68629,-11.31371l10,-10c3.00058,-3.00058 7.07024,-4.68629 11.31371,-4.68629z" fill="none" fill-rule="nonzero" stroke="#00ffaf" stroke-width="0.1" stroke-linecap="butt" stroke-linejoin="miter" stroke-miterlimit="10" stroke-dasharray="" stroke-dashoffset="0" font-family="none" font-weight="none" font-size="none" text-anchor="none" style="mix-blend-mode: normal"></path>
<path d="M0,-16.25h35c8.97463,0 16.25,7.27537 16.25,16.25v25c0,8.97463 -7.27537,16.25 -16.25,16.25h-3.75v3.75c0,8.97463 -7.27537,16.25 -16.25,16.25h-25c-8.97463,0 -16.25,-7.27537 -16.25,-16.25v-35c0,-4.30977 1.71205,-8.44302 4.75951,-11.49049l10,-10c3.04747,-3.04747 7.18072,-4.75951 11.49049,-4.75951z" fill="none" fill-rule="nonzero" stroke="#00ffb6" stroke-width="0.1" stroke-linecap="butt" stroke-linejoin="miter" stroke-miterlimit="10" stroke-dasharray="" stroke-dashoffset="0" font-family="none" font-weight="none" font-size="none" text-anchor="none" style="mix-blend-mode: normal"></path>
<path d="M0,-16.5h35c9.1127,0 16.5,7.3873 16.5,16.5v25c0,9.1127 -7.3873,16.5 -16.5,16.5h-3.5v3.5c0,9.1127 -7.3873,16.5 -16.5,16.5h-25c-9.1127,0 -16.5,-7.3873 -16.5,-16.5v-35c0,-4.37607 1.73839,-8.57291 4.83274,-11.66726l10,-10c3.09435,-3.09435 7.29119,-4.83274 11.66726,-4.83274z" fill="none" fill-rule="nonzero" stroke="#00ffbe" stroke-width="0.1" stroke-linecap="butt" stroke-linejoin="miter" stroke-miterlimit="10" stroke-dasharray="" stroke-dashoffset="0" font-family="none" font-weight="none" font-size="none" text-anchor="none" style="mix-blend-mode: normal"></path>
<path d="M0,-16.75h35c9.25077,0 16.75,7.49923 16.75,16.75v25c0,9.25077 -7.49923,16.75 -16.75,16.75h-3.25v3.25c0,9.25077 -7.49923,16.75 -16.75,16.75h-25c-9.25077,0 -16.75,-7.49923 -16.75,-16.75v-35c0,-4.44238 1.76473,-8.7028 4.90596,-11.84404l10,-10c3.14123,-3.14123 7.40166,-4.90596 11.84404,-4.90596z" fill="none" fill-rule="nonzero" stroke="#00ffc5" stroke-width="0.1" stroke-linecap="butt" stroke-linejoin="miter" stroke-miterlimit="10" stroke-dasharray="" stroke-dashoffset="0" font-family="none" font-weight="none" font-size="none" text-anchor="none" style="mix-blend-mode: normal"></path>
<path d="M0,-17h35c9.38884,0 17,7.61116 17,17v25c0,9.38884 -7.61116,17 -17,17h-3v3c0,9.38884 -7.61116,17 -17,17h-25c-9.38884,0 -17,-7.61116 -17,-17v-35c0,-4.50868 1.79107,-8.8327 4.97918,-12.02082l10,-10c3.18812,-3.18812 7.51213,-4.97918 12.02082,-4.97918z" fill="none" fill-rule="nonzero" stroke="#00ffcc" stroke-width="0.1" stroke-linecap="butt" stroke-linejoin="miter" stroke-miterlimit="10" stroke-dasharray="" stroke-dashoffset="0" font-family="none" font-weight="none" font-size="none" text-anchor="none" style="mix-blend-mode: normal"></path>
<path d="M0,-17.25h35c9.52691,0 17.25,7.72309 17.25,17.25v25c0,9.52691 -7.72309,17.25 -17.25,17.25h-2.75v2.75c0,9.52691 -7.72309,17.25 -17.25,17.25h-25c-9.52691,0 -17.25,-7.72309 -17.25,-17.25v-35c0,-4.57498 1.81741,-8.96259 5.05241,-12.19759l10,-10c3.235,-3.235 7.62261,-5.05241 12.19759,-5.05241z" fill="none" fill-rule="nonzero" stroke="#00ffd4" stroke-width="0.1" stroke-linecap="butt" stroke-linejoin="miter" stroke-miterlimit="10" stroke-dasharray="" stroke-dashoffset="0" font-family="none" font-weight="none" font-size="none" text-anchor="none" style="mix-blend-mode: normal"></path>
<path d="M0,-17.5h35c9.66498,0 17.5,7.83502 17.5,17.5v25c0,9.66498 -7.83502,17.5 -17.5,17.5h-2.5v2.5c0,9.66498 -7.83502,17.5 -17.5,17.5h-25c-9.66498,0 -17.5,-7.83502 -17.5,-17.5v-35c0,-4.64129 1.84374,-9.09248 5.12563,-12.37437l10,-10c3.28189,-3.28189 7.73308,-5.12563 12.37437,-5.12563z" fill="none" fill-rule="nonzero" stroke="#00ffdb" stroke-width="0.1" stroke-linecap="butt" stroke-linejoin="miter" stroke-miterlimit="10" stroke-dasharray="" stroke-dashoffset="0" font-family="none" font-weight="none" font-size="none" text-anchor="none" style="mix-blend-mode: normal"></path>
<path d="M0,-17.75h35c9.80305,0 17.75,7.94695 17.75,17.75v25c0,9.80305 -7.94695,17.75 -17.75,17.75h-2.25v2.25c0,9.80305 -7.94695,17.75 -17.75,17.75h-25c-9.80305,0 -17.75,-7.94695 -17.75,-17.75v-35c0,-4.70759 1.87008,-9.22237 5.19885,-12.55115l10,-10c3.32877,-3.32877 7.84355,-5.19885 12.55115,-5.19885z" fill="none" fill-rule="nonzero" stroke="#00ffe2" stroke-width="0.1" stroke-linecap="butt" stroke-linejoin="miter" stroke-miterlimit="10" stroke-dasharray="" stroke-dashoffset="0" font-family="none" font-weight="none" font-size="none" text-anchor="none" style="mix-blend-mode: normal"></path>
<path d="M0,-18h35c9.94113,0 18,8.05887 18,18v25c0,9.94113 -8.05887,18 -18,18h-2v2c0,9.94113 -8.05887,18 -18,18h-25c-9.94113,0 -18,-8.05887 -18,-18v-35c0,-4.7739 1.89642,-9.35227 5.27208,-12.72792l10,-10c3.37565,-3.37565 7.95403,-5.27208 12.72792,-5.27208z" fill="none" fill-rule="nonzero" stroke="#00ffea" stroke-width="0.1" stroke-linecap="butt" stroke-linejoin="miter" stroke-miterlimit="10" stroke-dasharray="" stroke-dashoffset="0" font-family="none" font-weight="none" font-size="none" text-anchor="none" style="mix-blend-mode: normal"></path>
<path d="M0,-18.25h35c10.0792,0 18.25,8.1708 18.25,18.25v25c0,10.0792 -8.1708,18.25 -18.25,18.25h-1.75v1.75c0,10.0792 -8.1708,18.25 -18.25,18.25h-25c-10.0792,0 -18.25,-8.1708 -18.25,-18.25v-35c0,-4.8402 1.92276,-9.48216 5.3453,-12.9047l10,-10c3.42254,-3.42254 8.0645,-5.3453 12.9047,-5.3453z" fill="none" fill-rule="nonzero" stroke="#00fff1" stroke-width="0.1" stroke-linecap="butt" stroke-linejoin="miter" stroke-miterlimit="10" stroke-dasharray="" stroke-dashoffset="0" font-family="none" font-weight="none" font-size="none" text-anchor="none" style="mix-blend-mode: normal"></path>
<path d="M0,-18.5h35c10.21727,0 18.5,8.28273 18.5,18.5v25c0,10.21727 -8.28273,18.5 -18.5,18.5h-1.5v1.5c0,10.21727 -8.28273,18.5 -18.5,18.5h-25c-10.21727,0 -18.5,-8.28273 -18.5,-18.5v-35c0,-4.90651 1.9491,-9.61205 5.41852,-13.08148l10,-10c3.46942,-3.46942 8.17497,-5.41852 13.08148,-5.41852z" fill="none" fill-rule="nonzero" stroke="#00fff8" stroke-width="0.1" stroke-linecap="butt" stroke-linejoin="miter" stroke-miterlimit="10" stroke-dasharray="" stroke-dashoffset="0" font-family="none" font-weight="none" font-size="none" text-anchor="none" style="mix-blend-mode: normal"></path>
<path d="M0,-18.75h35c10.35534,0 18.75,8.39466 18.75,18.75v25c0,10.35534 -8.39466,18.75 -18.75,18.75h-1.25v1.25c0,10.35534 -8.39466,18.75 -18.75,18.75h-25c-10.35534,0 -18.75,-8.39466 -18.75,-18.75v-35c0,-4.97281 1.97544,-9.74195 5.49175,-13.25825l10,-10c3.51631,-3.51631 8.28544,-5.49175 13.25825,-5.49175z" fill="none" fill-rule="nonzero" stroke="#00feff" stroke-width="0.1" stroke-linecap="butt" stroke-linejoin="miter" stroke-miterlimit="10" stroke-dasharray="" stroke-dashoffset="0" font-family="none" font-weight="none" font-size="none" text-anchor="none" style="mix-blend-mode: normal"></path>
<path d="M0,-19h35c10.49341,0 19,8.50659 19,19v25c0,10.49341 -8.50659,19 -19,19h-1v1c0,10.49341 -8.50659,19 -19,19h-25c-10.49341,0 -19,-8.50659 -19,-19v-35c0,-5.03911 2.00178,-9.87184 5.56497,-13.43503l10,-10c3.56319,-3.56319 8.39592,-5.56497 13.43503,-5.56497z" fill="none" fill-rule="nonzero" stroke="#00f7ff" stroke-width="0.1" stroke-linecap="butt" stroke-linejoin="miter" stroke-miterlimit="10" stroke-dasharray="" stroke-dashoffset="0" font-family="none" font-weight="none" font-size="none" text-anchor="none" style="mix-blend-mode: normal"></path>
<path d="M0,-19.25h35c10.63148,0 19.25,8.61852 19.25,19.25v25c0,10.63148 -8.61852,19.25 -19.25,19.25h-0.75v0.75c0,10.63148 -8.61852,19.25 -19.25,19.25h-25c-10.63148,0 -19.25,-8.61852 -19.25,-19.25v-35c0,-5.10542 2.02812,-10.00173 5.63819,-13.61181l10,-10c3.61008,-3.61008 8.50639,-5.63819 13.61181,-5.63819z" fill="none" fill-rule="nonzero" stroke="#00efff" stroke-width="0.1" stroke-linecap="butt" stroke-linejoin="miter" stroke-miterlimit="10" stroke-dasharray="" stroke-dashoffset="0" font-family="none" font-weight="none" font-size="none" text-anchor="none" style="mix-blend-mode: normal"></path>
<path d="M0,-19.5h35c10.76955,0 19.5,8.73045 19.5,19.5v25c0,10.76955 -8.73045,19.5 -19.5,19.5h-0.5v0.5c0,10.76955 -8.73045,19.5 -19.5,19.5h-25c-10.76955,0 -19.5,-8.73045 -19.5,-19.5v-35c0,-5.17172 2.05446,-10.13162 5.71142,-13.78858l10,-10c3.65696,-3.65696 8.61686,-5.71142 13.78858,-5.71142z" fill="none" fill-rule="nonzero" stroke="#00e8ff" stroke-width="0.1" stroke-linecap="butt" stroke-linejoin="miter" stroke-miterlimit="10" stroke-dasharray="" stroke-dashoffset="0" font-family="none" font-weight="none" font-size="none" text-anchor="none" style="mix-blend-mode: normal"></path>
<path d="M0,-19.75h35c10.90762,0 19.75,8.84238 19.75,19.75v25c0,10.90762 -8.84238,19.75 -19.75,19.75h-0.25v0.25c0,10.90762 -8.84238,19.75 -19.75,19.75h-25c-10.90762,0 -19.75,-8.84238 -19.75,-19.75v-35c0,-5.23803 2.0808,-10.26152 5.78464,-13.96536l10,-10c3.70384,-3.70384 8.72733,-5.78464 13.96536,-5.78464z" fill="none" fill-rule="nonzero" stroke="#00e1ff" stroke-width="0.1" stroke-linecap="butt" stroke-linejoin="miter" stroke-miterlimit="10" stroke-dasharray="" stroke-dashoffset="0" font-family="none" font-weight="none" font-size="none" text-anchor="none" style="mix-blend-mode: normal"></path>
<path d="M0,-20h35c11.04569,0 20,8.95431 20,20v25c0,11.04569 -8.95431,20 -20,20c0,11.04569 -8.95431,20 -20,20h-25c-11.04569,0 -20,-8.95431 -20,-20v-35c0,-5.30433 2.10714,-10.39141 5.85786,-14.14214l10,-10c3.75073,-3.75073 8.83781,-5.85786 14.14214,-5.85786z" fill="none" fill-rule="nonzero" stroke="#00d9ff" stroke-width="0.1" stroke-linecap="butt" stroke-linejoin="miter" stroke-miterlimit="10" stroke-dasharray="" stroke-dashoffset="0" font-family="none" font-weight="none" font-size="none" text-anchor="none" style="mix-blend-mode: normal"></path>
<path d="M0,-20.25h35c11.18377,0 20.25,9.06623 20.25,20.25v25c0,11.08685 -8.91551,20.11244 -20.00152,20.24848c-0.13604,11.08602 -9.16162,20.00152 -20.24848,20.00152h-25c-11.18377,0 -20.25,-9.06623 -20.25,-20.25v-35c0,-5.37063 2.13348,-10.5213 5.93109,-14.31891l10,-10c3.79761,-3.79761 8.94828,-5.93109 14.31891,-5.93109z" fill="none" fill-rule="nonzero" stroke="#00d2ff" stroke-width="0.1" stroke-linecap="butt" stroke-linejoin="miter" stroke-miterlimit="10" stroke-dasharray="" stroke-dashoffset="0" font-family="none" font-weight="none" font-size="none" text-anchor="none" style="mix-blend-mode: normal"></path>
<path d="M0,-20.5h35c11.32184,0 20.5,9.17816 20.5,20.5v25c0,11.12936 -8.87983,20.22583 -20.00595,20.49405c-0.26822,11.12613 -9.36469,20.00595 -20.49405,20.00595h-25c-11.32184,0 -20.5,-9.17816 -20.5,-20.5v-35c0,-5.43694 2.15982,-10.65119 6.00431,-14.49569l10,-10c3.8445,-3.8445 9.05875,-6.00431 14.49569,-6.00431z" fill="none" fill-rule="nonzero" stroke="#00cbff" stroke-width="0.1" stroke-linecap="butt" stroke-linejoin="miter" stroke-miterlimit="10" stroke-dasharray="" stroke-dashoffset="0" font-family="none" font-weight="none" font-size="none" text-anchor="none" style="mix-blend-mode: normal"></path>
<path d="M0,-20.75h35c11.45991,0 20.75,9.29009 20.75,20.75v25c0,11.17311 -8.84702,20.34011 -20.01309,20.73691c-0.3968,11.16607 -9.5638,20.01309 -20.73691,20.01309h-25c-11.45991,0 -20.75,-9.29009 -20.75,-20.75v-35c0,-5.50324 2.18615,-10.78109 6.07753,-14.67247l10,-10c3.89138,-3.89138 9.16922,-6.07753 14.67247,-6.07753z" fill="none" fill-rule="nonzero" stroke="#00c3ff" stroke-width="0.1" stroke-linecap="butt" stroke-linejoin="miter" stroke-miterlimit="10" stroke-dasharray="" stroke-dashoffset="0" font-family="none" font-weight="none" font-size="none" text-anchor="none" style="mix-blend-mode: normal"></path>
<path d="M0,-21h35c11.59798,0 21,9.40202 21,21v25c0,11.21802 -8.81689,20.45521 -20.02275,20.97725c-0.52204,11.20586 -9.75923,20.02275 -20.97725,20.02275h-25c-11.59798,0 -21,-9.40202 -21,-21v-35c0,-5.56955 2.21249,-10.91098 6.15076,-14.84924l10,-10c3.93826,-3.93826 9.2797,-6.15076 14.84924,-6.15076z" fill="none" fill-rule="nonzero" stroke="#00bcff" stroke-width="0.1" stroke-linecap="butt" stroke-linejoin="miter" stroke-miterlimit="10" stroke-dasharray="" stroke-dashoffset="0" font-family="none" font-weight="none" font-size="none" text-anchor="none" style="mix-blend-mode: normal"></path>
<path d="M0,-21.25h35c11.73605,0 21.25,9.51395 21.25,21.25v25c0,11.26398 -8.78923,20.57107 -20.03478,21.21522c-0.64415,11.24555 -9.95124,20.03478 -21.21522,20.03478h-25c-11.73605,0 -21.25,-9.51395 -21.25,-21.25v-35c0,-5.63585 2.23883,-11.04087 6.22398,-15.02602l10,-10c3.98515,-3.98515 9.39017,-6.22398 15.02602,-6.22398z" fill="none" fill-rule="nonzero" stroke="#00b5ff" stroke-width="0.1" stroke-linecap="butt" stroke-linejoin="miter" stroke-miterlimit="10" stroke-dasharray="" stroke-dashoffset="0" font-family="none" font-weight="none" font-size="none" text-anchor="none" style="mix-blend-mode: normal"></path>
<path d="M0,-21.5h35c11.87412,0 21.5,9.62588 21.5,21.5v25c0,11.31093 -8.76387,20.68764 -20.04902,21.45098c-0.76335,11.28514 -10.14005,20.04902 -21.45098,20.04902h-25c-11.87412,0 -21.5,-9.62588 -21.5,-21.5v-35c0,-5.70215 2.26517,-11.17076 6.2972,-15.2028l10,-10c4.03203,-4.03203 9.50064,-6.2972 15.2028,-6.2972z" fill="none" fill-rule="nonzero" stroke="#00adff" stroke-width="0.1" stroke-linecap="butt" stroke-linejoin="miter" stroke-miterlimit="10" stroke-dasharray="" stroke-dashoffset="0" font-family="none" font-weight="none" font-size="none" text-anchor="none" style="mix-blend-mode: normal"></path>
<path d="M0,-21.75h35c12.01219,0 21.75,9.73781 21.75,21.75v25c0,11.3588 -8.74067,20.80486 -20.06534,21.68466c-0.8798,11.32467 -10.32586,20.06534 -21.68466,20.06534h-25c-12.01219,0 -21.75,-9.73781 -21.75,-21.75v-35c0,-5.76846 2.29151,-11.30066 6.37043,-15.37957l10,-10c4.07892,-4.07892 9.61111,-6.37043 15.37957,-6.37043z" fill="none" fill-rule="nonzero" stroke="#00a6ff" stroke-width="0.1" stroke-linecap="butt" stroke-linejoin="miter" stroke-miterlimit="10" stroke-dasharray="" stroke-dashoffset="0" font-family="none" font-weight="none" font-size="none" text-anchor="none" style="mix-blend-mode: normal"></path>
<path d="M0,-22h35c12.15026,0 22,9.84974 22,22v25c0,11.40751 -8.71947,20.92269 -20.08362,21.91638c-0.99369,11.36415 -10.50886,20.08362 -21.91638,20.08362h-25c-12.15026,0 -22,-9.84974 -22,-22v-35c0,-5.83476 2.31785,-11.43055 6.44365,-15.55635l10,-10c4.1258,-4.1258 9.72159,-6.44365 15.55635,-6.44365z" fill="none" fill-rule="nonzero" stroke="#009eff" stroke-width="0.1" stroke-linecap="butt" stroke-linejoin="miter" stroke-miterlimit="10" stroke-dasharray="" stroke-dashoffset="0" font-family="none" font-weight="none" font-size="none" text-anchor="none" style="mix-blend-mode: normal"></path>
<path d="M0,-22.25h35c12.28834,0 22.25,9.96166 22.25,22.25v25c0,11.45702 -8.70016,21.04109 -20.10376,22.14624c-1.10515,11.4036 -10.68922,20.10376 -22.14624,20.10376h-25c-12.28834,0 -22.25,-9.96166 -22.25,-22.25v-35c0,-5.90107 2.34419,-11.56044 6.51687,-15.73313l10,-10c4.17268,-4.17268 9.83206,-6.51687 15.73313,-6.51687z" fill="none" fill-rule="nonzero" stroke="#0097ff" stroke-width="0.1" stroke-linecap="butt" stroke-linejoin="miter" stroke-miterlimit="10" stroke-dasharray="" stroke-dashoffset="0" font-family="none" font-weight="none" font-size="none" text-anchor="none" style="mix-blend-mode: normal"></path>
<path d="M0,-22.5h35c12.42641,0 22.5,10.07359 22.5,22.5v25c0,11.50728 -8.68261,21.16003 -20.12563,22.37437c-1.21433,11.44303 -10.86709,20.12563 -22.37437,20.12563h-25c-12.42641,0 -22.5,-10.07359 -22.5,-22.5v-35c0,-5.96737 2.37053,-11.69033 6.5901,-15.9099l10,-10c4.21957,-4.21957 9.94253,-6.5901 15.9099,-6.5901z" fill="none" fill-rule="nonzero" stroke="#0090ff" stroke-width="0.1" stroke-linecap="butt" stroke-linejoin="miter" stroke-miterlimit="10" stroke-dasharray="" stroke-dashoffset="0" font-family="none" font-weight="none" font-size="none" text-anchor="none" style="mix-blend-mode: normal"></path>
<path d="M0,-22.75h35c12.56448,0 22.75,10.18552 22.75,22.75v25c0,11.55822 -8.66671,21.27947 -20.14916,22.60084c-1.32137,11.48244 -11.04262,20.14916 -22.60084,20.14916h-25c-12.56448,0 -22.75,-10.18552 -22.75,-22.75v-35c0,-6.03368 2.39687,-11.82023 6.66332,-16.08668l10,-10c4.26645,-4.26645 10.053,-6.66332 16.08668,-6.66332z" fill="none" fill-rule="nonzero" stroke="#0088ff" stroke-width="0.1" stroke-linecap="butt" stroke-linejoin="miter" stroke-miterlimit="10" stroke-dasharray="" stroke-dashoffset="0" font-family="none" font-weight="none" font-size="none" text-anchor="none" style="mix-blend-mode: normal"></path>
<path d="M0,-23h35c12.70255,0 23,10.29745 23,23v25c0,11.60982 -8.65238,21.39939 -20.17424,22.82576c-1.42637,11.52187 -11.21594,20.17424 -22.82576,20.17424h-25c-12.70255,0 -23,-10.29745 -23,-23v-35c0,-6.09998 2.42321,-11.95012 6.73654,-16.26346l10,-10c4.31334,-4.31334 10.16348,-6.73654 16.26346,-6.73654z" fill="none" fill-rule="nonzero" stroke="#0081ff" stroke-width="0.1" stroke-linecap="butt" stroke-linejoin="miter" stroke-miterlimit="10" stroke-dasharray="" stroke-dashoffset="0" font-family="none" font-weight="none" font-size="none" text-anchor="none" style="mix-blend-mode: normal"></path>
<path d="M0,-23.25h35c12.84062,0 23.25,10.40938 23.25,23.25v25c0,11.66203 -8.63951,21.51974 -20.20081,23.04919c-1.52945,11.5613 -11.38716,20.20081 -23.04919,20.20081h-25c-12.84062,0 -23.25,-10.40938 -23.25,-23.25v-35c0,-6.16628 2.44955,-12.08001 6.80977,-16.44023l10,-10c4.36022,-4.36022 10.27395,-6.80977 16.44023,-6.80977z" fill="none" fill-rule="nonzero" stroke="#007aff" stroke-width="0.1" stroke-linecap="butt" stroke-linejoin="miter" stroke-miterlimit="10" stroke-dasharray="" stroke-dashoffset="0" font-family="none" font-weight="none" font-size="none" text-anchor="none" style="mix-blend-mode: normal"></path>
<path d="M0,-23.5h35c12.97869,0 23.5,10.52131 23.5,23.5v25c0,11.71481 -8.62804,21.6405 -20.22879,23.27121c-1.63071,11.60075 -11.5564,20.22879 -23.27121,20.22879h-25c-12.97869,0 -23.5,-10.52131 -23.5,-23.5v-35c0,-6.23259 2.47589,-12.2099 6.88299,-16.61701l10,-10c4.4071,-4.4071 10.38442,-6.88299 16.61701,-6.88299z" fill="none" fill-rule="nonzero" stroke="#0072ff" stroke-width="0.1" stroke-linecap="butt" stroke-linejoin="miter" stroke-miterlimit="10" stroke-dasharray="" stroke-dashoffset="0" font-family="none" font-weight="none" font-size="none" text-anchor="none" style="mix-blend-mode: normal"></path>
<path d="M0,-23.75h35c13.11676,0 23.75,10.63324 23.75,23.75v25c0,11.76813 -8.61787,21.76166 -20.2581,23.4919c-1.73023,11.64024 -11.72377,20.2581 -23.4919,20.2581h-25c-13.11676,0 -23.75,-10.63324 -23.75,-23.75v-35c0,-6.29889 2.50222,-12.3398 6.95621,-16.79379l10,-10c4.45399,-4.45399 10.49489,-6.95621 16.79379,-6.95621z" fill="none" fill-rule="nonzero" stroke="#006bff" stroke-width="0.1" stroke-linecap="butt" stroke-linejoin="miter" stroke-miterlimit="10" stroke-dasharray="" stroke-dashoffset="0" font-family="none" font-weight="none" font-size="none" text-anchor="none" style="mix-blend-mode: normal"></path>
<path d="M0,-24h35c13.25483,0 24,10.74517 24,24v25c0,11.82196 -8.60894,21.88319 -20.28869,23.71131c-1.82812,11.67975 -11.88935,20.28869 -23.71131,20.28869h-25c-13.25483,0 -24,-10.74517 -24,-24v-35c0,-6.3652 2.52856,-12.46969 7.02944,-16.97056l10,-10c4.50087,-4.50087 10.60537,-7.02944 16.97056,-7.02944z" fill="none" fill-rule="nonzero" stroke="#0064ff" stroke-width="0.1" stroke-linecap="butt" stroke-linejoin="miter" stroke-miterlimit="10" stroke-dasharray="" stroke-dashoffset="0" font-family="none" font-weight="none" font-size="none" text-anchor="none" style="mix-blend-mode: normal"></path>
<path d="M0,-24.25h35c13.39291,0 24.25,10.85709 24.25,24.25v25c0,11.87626 -8.60118,22.00506 -20.32049,23.92951c-1.92445,11.71931 -12.05325,20.32049 -23.92951,20.32049h-25c-13.39291,0 -24.25,-10.85709 -24.25,-24.25v-35c0,-6.4315 2.5549,-12.59958 7.10266,-17.14734l10,-10c4.54776,-4.54776 10.71584,-7.10266 17.14734,-7.10266z" fill="none" fill-rule="nonzero" stroke="#005cff" stroke-width="0.1" stroke-linecap="butt" stroke-linejoin="miter" stroke-miterlimit="10" stroke-dasharray="" stroke-dashoffset="0" font-family="none" font-weight="none" font-size="none" text-anchor="none" style="mix-blend-mode: normal"></path>
<path d="M0,-24.5h35c13.53098,0 24.5,10.96902 24.5,24.5v25c0,11.93103 -8.59454,22.12726 -20.35345,24.14655c-2.01929,11.75891 -12.21553,20.35345 -24.14655,20.35345h-25c-13.53098,0 -24.5,-10.96902 -24.5,-24.5v-35c0,-6.4978 2.58124,-12.72947 7.17588,-17.32412l10,-10c4.59464,-4.59464 10.82631,-7.17588 17.32412,-7.17588z" fill="none" fill-rule="nonzero" stroke="#0055ff" stroke-width="0.1" stroke-linecap="butt" stroke-linejoin="miter" stroke-miterlimit="10" stroke-dasharray="" stroke-dashoffset="0" font-family="none" font-weight="none" font-size="none" text-anchor="none" style="mix-blend-mode: normal"></path>
<path d="M0,-24.75h35c13.66905,0 24.75,11.08095 24.75,24.75v25c0,11.98622 -8.58895,22.24978 -20.38751,24.36249c-2.11272,11.79855 -12.37628,20.38751 -24.36249,20.38751h-25c-13.66905,0 -24.75,-11.08095 -24.75,-24.75v-35c0,-6.56411 2.60758,-12.85937 7.24911,-17.50089l10,-10c4.64153,-4.64153 10.93678,-7.24911 17.50089,-7.24911z" fill="none" fill-rule="nonzero" stroke="#004dff" stroke-width="0.1" stroke-linecap="butt" stroke-linejoin="miter" stroke-miterlimit="10" stroke-dasharray="" stroke-dashoffset="0" font-family="none" font-weight="none" font-size="none" text-anchor="none" style="mix-blend-mode: normal"></path>
<path d="M0,-25h35c13.80712,0 25,11.19288 25,25v25c0,12.04181 -8.58437,22.37258 -20.42262,24.57738c-2.2048,11.83825 -12.53557,20.42262 -24.57738,20.42262h-25c-13.80712,0 -25,-11.19288 -25,-25v-35c0,-6.63041 2.63392,-12.98926 7.32233,-17.67767l10,-10c4.68841,-4.68841 11.04726,-7.32233 17.67767,-7.32233z" fill="none" fill-rule="nonzero" stroke="#0046ff" stroke-width="0.1" stroke-linecap="butt" stroke-linejoin="miter" stroke-miterlimit="10" stroke-dasharray="" stroke-dashoffset="0" font-family="none" font-weight="none" font-size="none" text-anchor="none" style="mix-blend-mode: normal"></path>
</svg>