<svg version="1.1" baseProfile="full" viewBox=" -8.8 -3.8 17.6 17.6 " viewPort="0 0 17.6 17.6 " xmlns="http://www.w3.org/2000/svg"> 
<path d="M0,0h5v5h-10v5h5" fill="none" fill-rule="nonzero" stroke="#000000" stroke-width="0.1" stroke-linecap="butt" stroke-linejoin="miter" stroke-miterlimit="10" stroke-dasharray="" stroke-dashoffset="0" font-family="none" font-weight="none" font-size="none" text-anchor="none" style="mix-blend-mode: normal"></path>
<path d="M0,-1h5c0.55228,0 1,0.44772 1,1v5c0,0.55228 -0.44772,1 -1,1h-4.5h-4.5v3h4c0.55228,0 1,0.44772 1,1c0,0.55228 -0.44772,1 -1,1h-5c-0.55228,0 -1,-0.44772 -1,-1v-5c0,-0.55228 0.44772,-1 1,-1h4.5h4.5v-3l-4,0c-0.55228,0 -1,-0.44772 -1,-1c0,-0.55228 0.44772,-1 1,-1z" fill="none" fill-rule="nonzero" stroke="#ff9500" stroke-width="0.1" stroke-linecap="butt" stroke-linejoin="miter" stroke-miterlimit="10" stroke-dasharray="" stroke-dashoffset="0" font-family="none" font-weight="none" font-size="none" text-anchor="none" style="mix-blend-mode: normal"></path>
<path d="M0,-1.25h5c0.69036,0 1.25,0.55964 1.25,1.25v5c0,0.69036 -0.55964,1.25 -1.25,1.25h-4.375h-4.375l0,2.5h3.75c0.69036,0 1.25,0.55964 1.25,1.25c0,0.69036 -0.55964,1.25 -1.25,1.25h-5c-0.69036,0 -1.25,-0.55964 -1.25,-1.25v-5c0,-0.69036 0.55964,-1.25 1.25,-1.25h4.375h4.375l0,-2.5l-3.75,0c-0.69036,0 -1.25,-0.55964 -1.25,-1.25c0,-0.69036 0.55964,-1.25 1.25,-1.25z" fill="none" fill-rule="nonzero" stroke="#d5ff00" stroke-width="0.1" stroke-linecap="butt" stroke-linejoin="miter" stroke-miterlimit="10" stroke-dasharray="" stroke-dashoffset="0" font-family="none" font-weight="none" font-size="none" text-anchor="none" style="mix-blend-mode: normal"></path>
<path d="M0,-1.5h5c0.82843,0 1.5,0.67157 1.5,1.5v5c0,0.82843 -0.67157,1.5 -1.5,1.5h-4.25h-4.25v2h3.5c0.82843,0 1.5,0.67157 1.5,1.5c0,0.82843 -0.67157,1.5 -1.5,1.5h-5c-0.82843,0 -1.5,-0.67157 -1.5,-1.5v-5c0,-0.82843 0.67157,-1.5 1.5,-1.5h4.25h4.25v-2h-3.5c-0.82843,0 -1.5,-0.67157 -1.5,-1.5c0,-0.82843 0.67157,-1.5 1.5,-1.5z" fill="none" fill-rule="nonzero" stroke="#40ff00" stroke-width="0.1" stroke-linecap="butt" stroke-linejoin="miter" stroke-miterlimit="10" stroke-dasharray="" stroke-dashoffset="0" font-family="none" font-weight="none" font-size="none" text-anchor="none" style="mix-blend-mode: normal"></path>
<path d="M0,-1.75h5c0.9665,0 1.75,0.7835 1.75,1.75v5c0,0.9665 -0.7835,1.75 -1.75,1.75h-4.125h-4.125v1.5h3.25c0.9665,0 1.75,0.7835 1.75,1.75c0,0.9665 -0.7835,1.75 -1.75,1.75h-5c-0.9665,0 -1.75,-0.7835 -1.75,-1.75v-5c0,-0.9665 0.7835,-1.75 1.75,-1.75h4.125h4.125v-1.5l-3.25,0c-0.9665,0 -1.75,-0.7835 -1.75,-1.75c0,-0.9665 0.7835,-1.75 1.75,-1.75z" fill="none" fill-rule="nonzero" stroke="#00ff55" stroke-width="0.1" stroke-linecap="butt" stroke-linejoin="miter" stroke-miterlimit="10" stroke-dasharray="" stroke-dashoffset="0" font-family="none" font-weight="none" font-size="none" text-anchor="none" style="mix-blend-mode: normal"></path>
<path d="M0,-2h5c1.10457,0 2,0.89543 2,2v5c0,1.10457 -0.89543,2 -2,2h-4h-4l0,1h3c1.10457,0 2,0.89543 2,2c0,1.10457 -0.89543,2 -2,2h-5c-1.10457,0 -2,-0.89543 -2,-2v-5c0,-1.10457 0.89543,-2 2,-2h4h4l0,-1l-3,0c-1.10457,0 -2,-0.89543 -2,-2c0,-1.10457 0.89543,-2 2,-2z" fill="none" fill-rule="nonzero" stroke="#00ffea" stroke-width="0.1" stroke-linecap="butt" stroke-linejoin="miter" stroke-miterlimit="10" stroke-dasharray="" stroke-dashoffset="0" font-family="none" font-weight="none" font-size="none" text-anchor="none" style="mix-blend-mode: normal"></path>
<path d="M0,-2.25h5c1.24264,0 2.25,1.00736 2.25,2.25v5c0,1.24264 -1.00736,2.25 -2.25,2.25h-3.875h-3.875l0,0.5h2.75c1.24264,0 2.25,1.00736 2.25,2.25c0,1.24264 -1.00736,2.25 -2.25,2.25h-5c-1.24264,0 -2.25,-1.00736 -2.25,-2.25v-5c0,-1.24264 1.00736,-2.25 2.25,-2.25h3.875h3.875l0,-0.5l-2.75,0c-1.24264,0 -2.25,-1.00736 -2.25,-2.25c0,-1.24264 1.00736,-2.25 2.25,-2.25z" fill="none" fill-rule="nonzero" stroke="#007fff" stroke-width="0.1" stroke-linecap="butt" stroke-linejoin="miter" stroke-miterlimit="10" stroke-dasharray="" stroke-dashoffset="0" font-family="none" font-weight="none" font-size="none" text-anchor="none" style="mix-blend-mode: normal"></path>
<path d="M0,-2.5h5c1.38071,0 2.5,1.11929 2.5,2.5v5c0,1.38071 -1.11929,2.5 -2.5,2.5h-3.75h-3.75l0,0l2.5,0c1.38071,0 2.5,1.11929 2.5,2.5c0,1.38071 -1.11929,2.5 -2.5,2.5h-5c-1.38071,0 -2.5,-1.11929 -2.5,-2.5v-5c0,-1.38071 1.11929,-2.5 2.5,-2.5h3.75h3.75h-2.5c-1.38071,0 -2.5,-1.11929 -2.5,-2.5c0,-1.38071 1.11929,-2.5 2.5,-2.5z" fill="none" fill-rule="nonzero" stroke="#1500ff" stroke-width="0.1" stroke-linecap="butt" stroke-linejoin="miter" stroke-miterlimit="10" stroke-dasharray="" stroke-dashoffset="0" font-family="none" font-weight="none" font-size="none" text-anchor="none" style="mix-blend-mode: normal"></path>
<path d="M0,-2.75h5c1.51878,0 2.75,1.23122 2.75,2.75v5c0,1.51878 -1.23122,2.75 -2.75,2.75h-3.41886c0.9813,0.68959 1.40251,1.93561 1.04088,3.07916c-0.36162,1.14355 -1.42266,1.92084 -2.62202,1.92084h-5c-1.51878,0 -2.75,-1.23122 -2.75,-2.75v-5c0,-1.51878 1.23122,-2.75 2.75,-2.75h3.41886c-0.9813,-0.68959 -1.40251,-1.93561 -1.04088,-3.07916c0.36162,-1.14355 1.42266,-1.92084 2.62202,-1.92084z" fill="none" fill-rule="nonzero" stroke="#aa00ff" stroke-width="0.1" stroke-linecap="butt" stroke-linejoin="miter" stroke-miterlimit="10" stroke-dasharray="" stroke-dashoffset="0" font-family="none" font-weight="none" font-size="none" text-anchor="none" style="mix-blend-mode: normal"></path>
<path d="M0,-3h5c1.65685,0 3,1.34315 3,3v5c0,1.65685 -1.34315,3 -3,3h-2.76393c0.7887,0.8818 0.98552,2.14477 0.50254,3.22474c-0.48298,1.07998 -1.55556,1.77526 -2.73861,1.77526h-5c-1.65685,0 -3,-1.34315 -3,-3v-5c0,-1.65685 1.34315,-3 3,-3h2.76393c-0.7887,-0.8818 -0.98552,-2.14477 -0.50254,-3.22474c0.48298,-1.07998 1.55556,-1.77526 2.73861,-1.77526z" fill="none" fill-rule="nonzero" stroke="#ff00bf" stroke-width="0.1" stroke-linecap="butt" stroke-linejoin="miter" stroke-miterlimit="10" stroke-dasharray="" stroke-dashoffset="0" font-family="none" font-weight="none" font-size="none" text-anchor="none" style="mix-blend-mode: normal"></path>
</svg>