<svg version="1.1" baseProfile="full" viewBox=" -6.675 -3.675 14.850000000000001 14.850000000000001 " viewPort="0 0 14.850000000000001 14.850000000000001 " xmlns="http://www.w3.org/2000/svg"> 
<path d="M0,0h5v5h-10v5h5" fill="none" fill-rule="nonzero" stroke="#000000" stroke-width="0.1" stroke-linecap="butt" stroke-linejoin="miter" stroke-miterlimit="10" stroke-dasharray="" stroke-dashoffset="0" font-family="none" font-weight="none" font-size="none" text-anchor="none" style="mix-blend-mode: normal"></path>
<path d="M0,-1l5,0.16667c0.46024,0 0.83333,0.3731 0.83333,0.83333l-0.16667,5c0,0.36819 -0.29848,0.66667 -0.66667,0.66667l-4.83333,-0.16667l-4.83333,-0.16667l-0.16667,4.5l4.83333,0.16667l-5,0.16667c-0.09205,0 -0.16667,-0.07462 -0.16667,-0.16667l-0.16667,-5c0,-0.18409 0.14924,-0.33333 0.33333,-0.33333l4.66667,-0.16667l4.66667,-0.16667l-0.16667,-3.5l-4.16667,0.16667c-0.55228,0 -1,-0.44772 -1,-1c0,-0.55228 0.44772,-1 1,-1z" fill="none" fill-rule="nonzero" stroke="#ff9500" stroke-width="0.1" stroke-linecap="butt" stroke-linejoin="miter" stroke-miterlimit="10" stroke-dasharray="" stroke-dashoffset="0" font-family="none" font-weight="none" font-size="none" text-anchor="none" style="mix-blend-mode: normal"></path>
<path d="M0,-1.25l5,0.20833c0.5753,0 1.04167,0.46637 1.04167,1.04167l-0.20833,5c0,0.46024 -0.3731,0.83333 -0.83333,0.83333l-4.79167,-0.20833l-4.79167,-0.20833l-0.20833,4.375l4.79167,0.20833l-5,0.20833c-0.11506,0 -0.20833,-0.09327 -0.20833,-0.20833l-0.20833,-5c0,-0.23012 0.18655,-0.41667 0.41667,-0.41667l4.58333,-0.20833l4.58333,-0.20833l-0.20833,-3.125l-3.95833,0.20833c-0.69036,0 -1.25,-0.55964 -1.25,-1.25c0,-0.69036 0.55964,-1.25 1.25,-1.25z" fill="none" fill-rule="nonzero" stroke="#d5ff00" stroke-width="0.1" stroke-linecap="butt" stroke-linejoin="miter" stroke-miterlimit="10" stroke-dasharray="" stroke-dashoffset="0" font-family="none" font-weight="none" font-size="none" text-anchor="none" style="mix-blend-mode: normal"></path>
<path d="M0,-1.5l5,0.25c0.69036,0 1.25,0.55964 1.25,1.25l-0.25,5c0,0.55228 -0.44772,1 -1,1l-4.75,-0.25l-4.75,-0.25l-0.25,4.25l4.75,0.25l-5,0.25c-0.13807,0 -0.25,-0.11193 -0.25,-0.25l-0.25,-5c0,-0.27614 0.22386,-0.5 0.5,-0.5l4.5,-0.25l4.5,-0.25l-0.25,-2.75l-3.75,0.25c-0.82843,0 -1.5,-0.67157 -1.5,-1.5c0,-0.82843 0.67157,-1.5 1.5,-1.5z" fill="none" fill-rule="nonzero" stroke="#40ff00" stroke-width="0.1" stroke-linecap="butt" stroke-linejoin="miter" stroke-miterlimit="10" stroke-dasharray="" stroke-dashoffset="0" font-family="none" font-weight="none" font-size="none" text-anchor="none" style="mix-blend-mode: normal"></path>
<path d="M0,-1.75l5,0.29167c0.80542,0 1.45833,0.65292 1.45833,1.45833l-0.29167,5c0,0.64433 -0.52233,1.16667 -1.16667,1.16667l-4.70833,-0.29167l-4.70833,-0.29167l-0.29167,4.125l4.70833,0.29167l-5,0.29167c-0.16108,0 -0.29167,-0.13058 -0.29167,-0.29167l-0.29167,-5c0,-0.32217 0.26117,-0.58333 0.58333,-0.58333l4.41667,-0.29167l4.41667,-0.29167l-0.29167,-2.375l-3.54167,0.29167c-0.9665,0 -1.75,-0.7835 -1.75,-1.75c0,-0.9665 0.7835,-1.75 1.75,-1.75z" fill="none" fill-rule="nonzero" stroke="#00ff55" stroke-width="0.1" stroke-linecap="butt" stroke-linejoin="miter" stroke-miterlimit="10" stroke-dasharray="" stroke-dashoffset="0" font-family="none" font-weight="none" font-size="none" text-anchor="none" style="mix-blend-mode: normal"></path>
<path d="M0,-2l5,0.33333c0.92047,0 1.66667,0.74619 1.66667,1.66667l-0.33333,5c0,0.73638 -0.59695,1.33333 -1.33333,1.33333l-4.66667,-0.33333l-4.66667,-0.33333l-0.33333,4l4.66667,0.33333l-5,0.33333c-0.18409,0 -0.33333,-0.14924 -0.33333,-0.33333l-0.33333,-5c0,-0.36819 0.29848,-0.66667 0.66667,-0.66667l4.33333,-0.33333l4.33333,-0.33333l-0.33333,-2l-3.33333,0.33333c-1.10457,0 -2,-0.89543 -2,-2c0,-1.10457 0.89543,-2 2,-2z" fill="none" fill-rule="nonzero" stroke="#00ffea" stroke-width="0.1" stroke-linecap="butt" stroke-linejoin="miter" stroke-miterlimit="10" stroke-dasharray="" stroke-dashoffset="0" font-family="none" font-weight="none" font-size="none" text-anchor="none" style="mix-blend-mode: normal"></path>
<path d="M0,-2.25l5,0.375c1.03553,0 1.875,0.83947 1.875,1.875l-0.375,5c0,0.82843 -0.67157,1.5 -1.5,1.5l-4.625,-0.375l-4.625,-0.375l-0.375,3.875l4.625,0.375l-5,0.375c-0.20711,0 -0.375,-0.16789 -0.375,-0.375l-0.375,-5c0,-0.41421 0.33579,-0.75 0.75,-0.75l4.25,-0.375l4.25,-0.375l-0.375,-1.625l-3.125,0.375c-1.24264,0 -2.25,-1.00736 -2.25,-2.25c0,-1.24264 1.00736,-2.25 2.25,-2.25z" fill="none" fill-rule="nonzero" stroke="#007fff" stroke-width="0.1" stroke-linecap="butt" stroke-linejoin="miter" stroke-miterlimit="10" stroke-dasharray="" stroke-dashoffset="0" font-family="none" font-weight="none" font-size="none" text-anchor="none" style="mix-blend-mode: normal"></path>
<path d="M0,-2.5l5,0.41667c1.15059,0 2.08333,0.93274 2.08333,2.08333l-0.41667,5c0,0.92047 -0.74619,1.66667 -1.66667,1.66667l-4.58333,-0.41667l-4.58333,-0.41667l-0.41667,3.75l4.58333,0.41667l-5,0.41667c-0.23012,0 -0.41667,-0.18655 -0.41667,-0.41667l-0.41667,-5c0,-0.46024 0.3731,-0.83333 0.83333,-0.83333l4.16667,-0.41667l4.16667,-0.41667l-0.41667,-1.25l-2.91667,0.41667c-1.38071,0 -2.5,-1.11929 -2.5,-2.5c0,-1.38071 1.11929,-2.5 2.5,-2.5z" fill="none" fill-rule="nonzero" stroke="#1500ff" stroke-width="0.1" stroke-linecap="butt" stroke-linejoin="miter" stroke-miterlimit="10" stroke-dasharray="" stroke-dashoffset="0" font-family="none" font-weight="none" font-size="none" text-anchor="none" style="mix-blend-mode: normal"></path>
<path d="M0,-2.75l5,0.45833c1.26565,0 2.29167,1.02601 2.29167,2.29167l-0.45833,5c0,1.01252 -0.82081,1.83333 -1.83333,1.83333l-4.54167,-0.45833l-4.54167,-0.45833l-0.45833,3.625l4.54167,0.45833l-5,0.45833c-0.25313,0 -0.45833,-0.2052 -0.45833,-0.45833l-0.45833,-5c0,-0.50626 0.41041,-0.91667 0.91667,-0.91667l4.08333,-0.45833l4.08333,-0.45833l-0.45833,-0.875l-2.70833,0.45833c-1.51878,0 -2.75,-1.23122 -2.75,-2.75c0,-1.51878 1.23122,-2.75 2.75,-2.75z" fill="none" fill-rule="nonzero" stroke="#aa00ff" stroke-width="0.1" stroke-linecap="butt" stroke-linejoin="miter" stroke-miterlimit="10" stroke-dasharray="" stroke-dashoffset="0" font-family="none" font-weight="none" font-size="none" text-anchor="none" style="mix-blend-mode: normal"></path>
<path d="M0,-3l5,0.5c1.38071,0 2.5,1.11929 2.5,2.5l-0.5,5c0,1.10457 -0.89543,2 -2,2l-4.5,-0.5l-4.5,-0.5l-0.5,3.5l4.5,0.5l-5,0.5c-0.27614,0 -0.5,-0.22386 -0.5,-0.5l-0.5,-5c0,-0.55228 0.44772,-1 1,-1l4,-0.5l4,-0.5l-0.5,-0.5l-2.5,0.5c-1.65685,0 -3,-1.34315 -3,-3c0,-1.65685 1.34315,-3 3,-3z" fill="none" fill-rule="nonzero" stroke="#ff00bf" stroke-width="0.1" stroke-linecap="butt" stroke-linejoin="miter" stroke-miterlimit="10" stroke-dasharray="" stroke-dashoffset="0" font-family="none" font-weight="none" font-size="none" text-anchor="none" style="mix-blend-mode: normal"></path>
</svg>